<svg width="32" height="34" viewBox="0 0 32 34" fill="none" xmlns="http://www.w3.org/2000/svg">
<path d="M26.5 11.5H5.5C4.65 11.5 4 10.85 4 10C4 9.15 4.65 8.5 5.5 8.5H26.5C27.35 8.5 28 9.15 28 10C28 10.85 27.35 11.5 26.5 11.5Z" fill="white"/>
<path d="M26.5 18.5H5.5C4.65 18.5 4 17.85 4 17C4 16.15 4.65 15.5 5.5 15.5H26.5C27.35 15.5 28 16.15 28 17C28 17.85 27.35 18.5 26.5 18.5Z" fill="white"/>
<path d="M26.5 25.5H5.5C4.65 25.5 4 24.85 4 24C4 23.15 4.65 22.5 5.5 22.5H26.5C27.35 22.5 28 23.15 28 24C28 24.85 27.35 25.5 26.5 25.5Z" fill="white"/>
</svg>
