<svg width="64" height="64" viewBox="0 0 64 64" fill="none" xmlns="http://www.w3.org/2000/svg">
<circle cx="31.7647" cy="31.7647" r="31.7647" fill="url(#paint0_linear_533_76)"/>
<path fill-rule="evenodd" clip-rule="evenodd" d="M41.74 29.121C41.776 28.904 41.714 28.682 41.572 28.514C41.429 28.347 41.22 28.25 41 28.25H23C22.78 28.25 22.571 28.347 22.428 28.514C22.286 28.682 22.224 28.904 22.26 29.121C22.26 29.121 23.282 35.365 23.785 38.444C24.003 39.774 25.152 40.75 26.499 40.75H37.501C38.848 40.75 39.997 39.774 40.215 38.444L41.74 29.121ZM40.117 29.75L38.734 38.202C38.635 38.806 38.113 39.25 37.501 39.25C34.73 39.25 29.27 39.25 26.499 39.25C25.887 39.25 25.365 38.806 25.266 38.202L23.883 29.75H40.117Z" fill="white"/>
<path fill-rule="evenodd" clip-rule="evenodd" d="M38.643 28.614L35.643 23.614C35.43 23.259 34.969 23.144 34.614 23.357C34.259 23.57 34.144 24.031 34.357 24.386L37.357 29.386C37.57 29.741 38.031 29.856 38.386 29.643C38.741 29.43 38.856 28.969 38.643 28.614Z" fill="white"/>
<path fill-rule="evenodd" clip-rule="evenodd" d="M26.643 29.386L29.643 24.386C29.856 24.031 29.741 23.57 29.386 23.357C29.031 23.144 28.57 23.259 28.357 23.614L25.357 28.614C25.144 28.969 25.259 29.43 25.614 29.643C25.969 29.856 26.43 29.741 26.643 29.386Z" fill="white"/>
<path fill-rule="evenodd" clip-rule="evenodd" d="M31.25 32.5V36.5C31.25 36.914 31.586 37.25 32 37.25C32.414 37.25 32.75 36.914 32.75 36.5V32.5C32.75 32.086 32.414 31.75 32 31.75C31.586 31.75 31.25 32.086 31.25 32.5Z" fill="white"/>
<path fill-rule="evenodd" clip-rule="evenodd" d="M27.25 32.5V36.5C27.25 36.914 27.586 37.25 28 37.25C28.414 37.25 28.75 36.914 28.75 36.5V32.5C28.75 32.086 28.414 31.75 28 31.75C27.586 31.75 27.25 32.086 27.25 32.5Z" fill="white"/>
<path fill-rule="evenodd" clip-rule="evenodd" d="M35.25 32.5V36.5C35.25 36.914 35.586 37.25 36 37.25C36.414 37.25 36.75 36.914 36.75 36.5V32.5C36.75 32.086 36.414 31.75 36 31.75C35.586 31.75 35.25 32.086 35.25 32.5Z" fill="white"/>
<path fill-rule="evenodd" clip-rule="evenodd" d="M42 28.25H22C21.586 28.25 21.25 28.586 21.25 29C21.25 29.414 21.586 29.75 22 29.75H42C42.414 29.75 42.75 29.414 42.75 29C42.75 28.586 42.414 28.25 42 28.25Z" fill="white"/>
<defs>
<linearGradient id="paint0_linear_533_76" x1="0" y1="0" x2="69.6692" y2="7.65572" gradientUnits="userSpaceOnUse">
<stop stop-color="#FC8014"/>
<stop offset="1" stop-color="#FCA61A"/>
</linearGradient>
</defs>
</svg>
