<svg width="24" height="24" viewBox="0 0 24 24" fill="none" xmlns="http://www.w3.org/2000/svg">
<g clip-path="url(#clip0_422_1562)">
<path fill-rule="evenodd" clip-rule="evenodd" d="M0.520921 23.8027C0.713675 23.9315 0.940287 24.0002 1.17209 24.0002C1.32602 24.0004 1.47848 23.9702 1.6207 23.9113C1.76292 23.8524 1.89211 23.766 2.00084 23.657L12.0002 13.6577L21.9995 23.657C22.1083 23.766 22.2374 23.8524 22.3797 23.9113C22.5219 23.9702 22.6743 24.0004 22.8283 24.0002C23.0601 24.0002 23.2867 23.9315 23.4795 23.8027C23.6722 23.674 23.8224 23.4909 23.9112 23.2768C23.9999 23.0626 24.0231 22.8269 23.9778 22.5996C23.9326 22.3722 23.821 22.1634 23.657 21.9995L13.6577 12.0002L23.6571 2.00078C23.8769 1.78098 24.0004 1.48287 24.0004 1.17203C24.0004 0.861188 23.8769 0.563078 23.6571 0.34328C23.4373 0.123481 23.1392 0 22.8283 0C22.5175 0 22.2194 0.123481 21.9996 0.34328L12.0002 10.3427L2.00078 0.34328C1.78098 0.123481 1.48287 0 1.17203 0C0.861188 0 0.563078 0.123481 0.34328 0.34328C0.123481 0.563078 1.87052e-09 0.861188 1.87052e-09 1.17203C1.87052e-09 1.48287 0.123481 1.78098 0.34328 2.00078L10.3427 12.0002L0.343344 21.9995C0.17941 22.1634 0.0677649 22.3722 0.0225297 22.5996C-0.0227054 22.8269 0.00050199 23.0626 0.0892164 23.2768C0.177931 23.4909 0.328167 23.674 0.520921 23.8027Z" fill="#FF7330"/>
</g>
<defs>
<clipPath id="clip0_422_1562">
<rect width="24" height="24" fill="white"/>
</clipPath>
</defs>
</svg>
