<svg preserveAspectRatio="none" width="335" height="90" viewBox="0 0 335 90" fill="none" xmlns="http://www.w3.org/2000/svg">
<path fill-rule="evenodd" clip-rule="evenodd" d="M3.78207 39.0982C4.9768 40.8105 6.37309 41.6666 7.97094 41.6666C9.15101 41.6666 10.2138 41.2671 11.1593 40.468C12.1122 39.6689 12.9587 38.5179 13.699 37.0148L12.5556 31.621C11.9253 32.9718 11.2473 33.9517 10.5216 34.5605C9.80334 35.1503 9.05572 35.4452 8.27879 35.4452C7.11338 35.4452 6.10189 34.8744 5.24433 33.7329C4.3941 32.5723 3.73443 30.898 3.26534 28.71C2.80357 26.5221 2.57269 23.887 2.57269 20.8048C2.57269 18.5407 2.70096 16.5145 2.95749 14.726C3.22136 12.9186 3.59517 11.387 4.07892 10.1313C4.57001 8.85654 5.16004 7.87671 5.84902 7.19178C6.538 6.50684 7.31128 6.16438 8.16884 6.16438C8.94578 6.16438 9.65675 6.44977 10.3018 7.02055C10.9468 7.59132 11.5111 8.457 11.9949 9.61757L13.2702 4.39498C12.6326 2.98706 11.8849 1.90259 11.0274 1.14155C10.1772 0.380517 9.16567 0 7.99293 0C6.82752 0 5.7574 0.513699 4.78257 1.5411C3.80773 2.56849 2.96116 4.01446 2.24286 5.87899C1.53189 7.74353 0.978502 9.95053 0.582703 12.5C0.194234 15.0304 0 17.8177 0 20.8619C0 25.0476 0.329832 28.71 0.989496 31.8493C1.65649 34.9695 2.58735 37.3858 3.78207 39.0982ZM58.7805 41.6666C57.6224 41.6666 56.5486 41.1434 55.5591 40.097C54.577 39.0316 53.7194 37.5571 52.9864 35.6735C52.2608 33.7899 51.6928 31.5829 51.2823 29.0525C50.8792 26.5221 50.6776 23.7823 50.6776 20.8333C50.6776 17.8653 50.8792 15.1161 51.2823 12.5856C51.6928 10.0552 52.2608 7.84817 52.9864 5.96461C53.7194 4.08105 54.577 2.61606 55.5591 1.56963C56.5486 0.523211 57.6224 0 58.7805 0C59.9312 0 60.9977 0.532724 61.9799 1.59817C62.962 2.66362 63.8196 4.14764 64.5525 6.05022C65.2855 7.95281 65.8535 10.1693 66.2567 12.6998C66.6671 15.2112 66.8724 17.9224 66.8724 20.8333C66.8724 23.7823 66.6671 26.5221 66.2567 29.0525C65.8535 31.5829 65.2855 33.7899 64.5525 35.6735C63.8196 37.5571 62.962 39.0316 61.9799 40.097C60.9977 41.1434 59.9312 41.6666 58.7805 41.6666ZM58.7805 35.6164C59.5574 35.6164 60.2794 35.274 60.9464 34.589C61.6207 33.8851 62.2071 32.8862 62.7055 31.5925C63.2039 30.2797 63.5924 28.7195 63.8709 26.9121C64.1567 25.0856 64.2997 23.0593 64.2997 20.8333C64.2997 17.8463 64.0541 15.2492 63.563 13.0422C63.0793 10.8162 62.4196 9.09436 61.5841 7.87671C60.7485 6.65905 59.814 6.05022 58.7805 6.05022C58.0035 6.05022 57.2779 6.4022 56.6036 7.10616C55.9366 7.79109 55.3502 8.78044 54.8445 10.0742C54.3461 11.368 53.9539 12.9281 53.6681 14.7546C53.3896 16.562 53.2503 18.5883 53.2503 20.8333C53.2503 23.8204 53.4958 26.4269 53.9869 28.653C54.478 30.86 55.1377 32.5723 55.9659 33.7899C56.8015 35.0076 57.7397 35.6164 58.7805 35.6164ZM227.797 40.097C228.786 41.1434 229.86 41.6666 231.018 41.6666C232.169 41.6666 233.236 41.1434 234.218 40.097C235.2 39.0316 236.057 37.5571 236.79 35.6735C237.523 33.7899 238.091 31.5829 238.495 29.0525C238.905 26.5221 239.11 23.7823 239.11 20.8333C239.11 17.9224 238.905 15.2112 238.495 12.6998C238.091 10.1693 237.523 7.95281 236.79 6.05022C236.057 4.14764 235.2 2.66362 234.218 1.59817C233.236 0.532724 232.169 0 231.018 0C229.86 0 228.786 0.523211 227.797 1.56963C226.815 2.61606 225.957 4.08105 225.224 5.96461C224.499 7.84817 223.931 10.0552 223.52 12.5856C223.117 15.1161 222.915 17.8653 222.915 20.8333C222.915 23.7823 223.117 26.5221 223.52 29.0525C223.931 31.5829 224.499 33.7899 225.224 35.6735C225.957 37.5571 226.815 39.0316 227.797 40.097ZM233.184 34.589C232.517 35.274 231.795 35.6164 231.018 35.6164C229.978 35.6164 229.039 35.0076 228.204 33.7899C227.376 32.5723 226.716 30.86 226.225 28.653C225.734 26.4269 225.488 23.8204 225.488 20.8333C225.488 18.5883 225.627 16.562 225.906 14.7546C226.192 12.9281 226.584 11.368 227.082 10.0742C227.588 8.78044 228.174 7.79109 228.841 7.10616C229.516 6.4022 230.241 6.05022 231.018 6.05022C232.052 6.05022 232.986 6.65905 233.822 7.87671C234.657 9.09436 235.317 10.8162 235.801 13.0422C236.292 15.2492 236.538 17.8463 236.538 20.8333C236.538 23.0593 236.395 25.0856 236.109 26.9121C235.83 28.7195 235.442 30.2797 234.943 31.5925C234.445 32.8862 233.859 33.8851 233.184 34.589ZM257.66 40.8121L252.723 22.3761H251.382V40.8121H248.919V22.3761H247.541L242.531 40.8121H239.684L245.478 19.9503L240.475 0.85783H243.389L247.546 16.8966H248.919V0.85783H251.382V16.8966H252.739L257.033 0.85783H259.859L254.79 19.6078L260.617 40.8121H257.66ZM263.104 0.85783V40.8121H273.12V35.1044H265.566V22.6329H272.031V17.2962H265.566V6.50852H273.054V0.85783H263.104ZM281.958 40.8121V0.85783H291.633V6.50852H284.42V17.3533H287.224C288.888 17.3533 290.222 18.3521 291.226 20.3498C292.23 22.3285 292.732 25.2395 292.732 29.0827C292.732 31.5941 292.512 33.725 292.073 35.4754C291.64 37.2067 291.01 38.529 290.182 39.4423C289.361 40.3555 288.371 40.8121 287.213 40.8121H281.958ZM284.42 35.7893H287.081C288.078 35.7893 288.844 35.2185 289.379 34.077C289.921 32.9354 290.193 31.2992 290.193 29.1683C290.193 27.0945 289.925 25.4488 289.39 24.2311C288.855 23.0135 288.118 22.4046 287.18 22.4046H284.42V35.7893ZM295.266 35.6181L296.234 41.4971C296.981 41.0595 297.674 40.4316 298.312 39.6135C298.957 38.7954 299.561 37.7204 300.126 36.3886C300.69 35.0568 301.232 33.4301 301.753 31.5085C302.273 29.5679 302.79 27.2848 303.303 24.6592L307.954 0.85783H305.106L301.633 19.3224L297.806 0.85783H294.804L300.238 26.2603C299.984 27.2983 299.719 28.239 299.444 29.0827C298.88 30.8141 298.253 32.2029 297.564 33.2494C296.882 34.2958 296.116 35.0854 295.266 35.6181ZM313.099 40.8121V6.70829H308.768V0.85783H319.894V6.70829H315.562V40.8121H313.099ZM322.477 40.8121V0.85783H324.929V30.367L332.625 0.85783H335V40.8121H332.559V11.1033L324.83 40.8121H322.477ZM203.773 40.8121V0.85783H206.159L211.953 25.3257L217.527 0.85783H219.869V40.8121H217.461L217.492 11.8253L212.734 32.1934H210.93L205.996 11.4627L206.027 40.8121H203.773ZM187.289 23.9172L182.594 40.8121H185.475L189.84 24.6877H191.929V40.8121H194.391V0.85783H188.795C187.681 0.85783 186.717 1.34299 185.904 2.31331C185.09 3.28363 184.46 4.65349 184.013 6.4229C183.565 8.17328 183.342 10.2471 183.342 12.6444C183.342 15.7456 183.686 18.257 184.375 20.1786C185.072 22.1002 186.043 23.3464 187.289 23.9172ZM191.929 19.3795H188.817C187.82 19.3795 187.073 18.7897 186.574 17.6101C186.076 16.4305 185.827 14.7848 185.827 12.6729C185.827 10.5991 186.105 9.01993 186.662 7.93545C187.219 6.83195 187.989 6.2802 188.971 6.2802H191.929V19.3795ZM167.398 40.8121V0.85783H169.861V16.7254H177.315V0.85783H179.778V40.8121H177.315V22.6044H169.861V40.8121H167.398ZM151.012 0.85783V40.8121H153.475V22.6044H160.929V40.8121H163.392V0.85783H160.929V16.7254H153.475V0.85783H151.012ZM133.996 40.8121L139.977 0.85783H142.649L148.784 40.8121H146.002L144.584 31.2802H138.064L136.701 40.8121H133.996ZM138.702 25.7722H143.924L141.264 8.36353L138.702 25.7722ZM121.83 0.85783V40.8121H127.361C128.438 40.8121 129.369 40.3365 130.153 39.3852C130.937 38.4149 131.542 37.0926 131.967 35.4183C132.392 33.725 132.605 31.7844 132.605 29.5964C132.605 27.0089 132.323 24.8304 131.758 23.061C131.201 21.2916 130.505 20.074 129.669 19.408C130.065 19.0085 130.446 18.3807 130.813 17.5245C131.179 16.6683 131.476 15.679 131.703 14.5565C131.938 13.4149 132.055 12.2068 132.055 10.932C132.055 7.62153 131.601 5.11963 130.692 3.42632C129.783 1.71399 128.592 0.85783 127.119 0.85783H121.83ZM126.943 35.7893H124.293V22.7186H126.899C127.976 22.7186 128.772 23.2798 129.285 24.4023C129.805 25.5249 130.065 27.1611 130.065 29.311C130.065 31.48 129.809 33.1067 129.296 34.1911C128.783 35.2566 127.998 35.7893 126.943 35.7893ZM126.734 17.924H124.293V5.88066H126.701C127.646 5.88066 128.372 6.38485 128.878 7.39322C129.391 8.38256 129.647 9.8095 129.647 11.674C129.647 12.9868 129.526 14.1093 129.285 15.0416C129.043 15.9739 128.706 16.6874 128.273 17.182C127.841 17.6767 127.328 17.924 126.734 17.924ZM108.107 41.4971L107.139 35.6181C107.989 35.0854 108.755 34.2958 109.437 33.2494C110.126 32.2029 110.753 30.8141 111.317 29.0827C111.592 28.239 111.856 27.2982 112.111 26.2603L106.677 0.85783H109.679L113.506 19.3224L116.979 0.85783H119.827L115.176 24.6592C114.663 27.2848 114.146 29.5679 113.626 31.5085C113.105 33.4301 112.563 35.0568 111.999 36.3886C111.434 37.7204 110.829 38.7954 110.184 39.6135C109.547 40.4316 108.854 41.0595 108.107 41.4971ZM96.5703 22.6044L102.009 40.8121H105.186L98.7107 19.6934L104.34 0.85783H101.305L96.5982 16.7254H94.9397V0.85783H92.4769V40.8121H94.9397V22.6044H96.5703ZM85.9892 40.8121V0.85783H88.4519V40.8121H85.9892ZM68.135 35.6181L69.0585 41.4971C69.7402 40.9834 70.3339 40.3175 70.8396 39.4994C71.3527 38.6813 71.7814 37.6063 72.1259 36.2745C72.4778 34.9236 72.7599 33.2208 72.9725 31.166C73.1924 29.0922 73.35 26.5618 73.4453 23.5747C73.5406 20.5686 73.5882 16.9918 73.5882 12.8441V6.70829H79.5252V40.8121H81.9879V0.85783H71.2244V13.0724C71.2244 16.5732 71.1951 19.5412 71.1365 21.9765C71.0778 24.3928 70.9789 26.4001 70.8396 27.9982C70.7077 29.5774 70.5208 30.8616 70.2789 31.851C70.0443 32.8213 69.7512 33.5918 69.3993 34.1626C69.0475 34.7334 68.6261 35.2185 68.135 35.6181ZM31.5351 0.85783V40.8121H33.789L33.7582 11.4626L38.6925 32.1934H40.4956L45.2536 11.8253L45.2232 40.8121H47.6309V0.85783H45.2891L39.7146 25.3257L33.9209 0.85783H31.5351ZM14.5193 40.8121L20.5002 0.85783H23.1719L29.3068 40.8121H26.5252L25.1069 31.2802H18.5872L17.2239 40.8121H14.5193ZM19.2249 25.7722H24.4472L21.7866 8.36353L19.2249 25.7722ZM325.685 81.6948L329.392 67.884C328.408 67.4174 327.641 66.3987 327.092 64.8278C326.548 63.257 326.276 61.204 326.276 58.6689C326.276 56.7093 326.452 55.014 326.805 53.5832C327.158 52.1368 327.656 51.017 328.298 50.2238C328.941 49.4306 329.702 49.034 330.581 49.034H335V81.6948H333.055V68.5138H331.406L327.96 81.6948H325.685ZM330.599 64.1746H333.055V53.4665H330.72C329.945 53.4665 329.337 53.9176 328.897 54.8196C328.457 55.7061 328.238 56.997 328.238 58.6923C328.238 60.4186 328.434 61.7639 328.828 62.7282C329.221 63.6925 329.812 64.1746 330.599 64.1746ZM320.962 59.4626L321.631 61.8421C322.18 60.9712 322.638 60.0458 323.002 59.066C323.372 58.0706 323.65 57.0519 323.836 56.0098C324.021 54.9523 324.113 53.9102 324.113 52.8837C324.113 51.5462 323.98 50.4964 323.714 49.7343C323.453 48.9567 323.106 48.5678 322.672 48.5678C322.296 48.5678 321.984 48.8867 321.735 49.5243C321.492 50.1465 321.37 50.9552 321.37 51.9506C321.37 52.6193 321.434 53.2026 321.561 53.7003C321.688 54.1824 321.859 54.5557 322.073 54.8201C322.287 55.0689 322.528 55.17 322.794 55.1233C322.672 55.8854 322.444 56.6631 322.108 57.4563C321.778 58.2339 321.396 58.9027 320.962 59.4626ZM310.957 81.6948V49.034H315.133C316.296 49.034 317.237 49.7339 317.954 51.1336C318.672 52.5178 319.031 54.563 319.031 57.2692C319.031 58.3112 318.938 59.2988 318.753 60.232C318.574 61.1496 318.339 61.9583 318.05 62.6582C317.76 63.3581 317.46 63.8713 317.147 64.198C317.807 64.7423 318.357 65.7377 318.796 67.1841C319.242 68.6305 319.465 70.4113 319.465 72.5265C319.465 74.315 319.297 75.9014 318.961 77.2856C318.626 78.6543 318.148 79.7352 317.529 80.5284C316.91 81.306 316.175 81.6948 315.324 81.6948H310.957ZM312.902 77.5889H314.994C315.827 77.5889 316.447 77.1534 316.852 76.2825C317.257 75.3959 317.46 74.0662 317.46 72.2932C317.46 70.5357 317.254 69.1982 316.843 68.2805C316.438 67.3629 315.81 66.9041 314.959 66.9041H312.902V77.5889ZM312.902 62.9848H314.829C315.298 62.9848 315.703 62.7826 316.045 62.3783C316.386 61.9739 316.652 61.3907 316.843 60.6286C317.034 59.8665 317.13 58.9489 317.13 57.8757C317.13 56.3516 316.927 55.1851 316.522 54.3764C316.123 53.5521 315.55 53.1399 314.803 53.1399H312.902V62.9848ZM299.628 81.1108C300.409 81.9662 301.257 82.3939 302.171 82.3939C303.08 82.3939 303.922 81.9662 304.698 81.1108C305.473 80.2398 306.15 79.0345 306.729 77.4948C307.308 75.955 307.756 74.1509 308.075 72.0824C308.399 70.0139 308.561 67.7743 308.561 65.3636C308.561 62.984 308.399 60.7678 308.075 58.7148C307.756 56.6463 307.308 54.8344 306.729 53.2791C306.15 51.7238 305.473 50.5107 304.698 49.6397C303.922 48.7688 303.08 48.3333 302.171 48.3333C301.257 48.3333 300.409 48.761 299.628 49.6164C298.852 50.4718 298.175 51.6694 297.596 53.2091C297.024 54.7488 296.575 56.553 296.251 58.6215C295.933 60.69 295.773 62.9374 295.773 65.3636C295.773 67.7743 295.933 70.0139 296.251 72.0824C296.575 74.1509 297.024 75.955 297.596 77.4948C298.175 79.0345 298.852 80.2398 299.628 81.1108ZM303.882 76.6083C303.355 77.1682 302.785 77.4481 302.171 77.4481C301.35 77.4481 300.609 76.9504 299.949 75.955C299.295 74.9597 298.774 73.5599 298.386 71.7558C297.999 69.9361 297.805 67.8054 297.805 65.3636C297.805 63.5284 297.915 61.872 298.135 60.3945C298.36 58.9014 298.67 57.6261 299.064 56.5685C299.463 55.5109 299.926 54.7022 300.453 54.1423C300.985 53.5668 301.558 53.2791 302.171 53.2791C302.987 53.2791 303.725 53.7768 304.385 54.7722C305.045 55.7675 305.566 57.1751 305.948 58.9947C306.335 60.7989 306.529 62.9218 306.529 65.3636C306.529 67.1833 306.416 68.8396 306.191 70.3327C305.971 71.8102 305.664 73.0856 305.271 74.1587C304.877 75.2163 304.414 76.0328 303.882 76.6083ZM285.526 81.6948V49.034H289.927C290.789 49.034 291.55 49.4384 292.21 50.2471C292.876 51.0403 293.396 52.1912 293.773 53.6998C294.149 55.1929 294.337 56.9892 294.337 59.0889C294.337 61.2507 294.163 63.0782 293.816 64.5712C293.469 66.0487 292.962 67.1763 292.297 67.9539C291.637 68.716 290.833 69.0971 289.884 69.0971H287.47V81.6948H285.526ZM287.47 64.6179H289.91C290.697 64.6179 291.307 64.1746 291.741 63.2881C292.175 62.3861 292.392 61.0252 292.392 59.2055C292.392 57.4014 292.17 56.0172 291.724 55.0529C291.278 54.0886 290.679 53.6065 289.927 53.6065H287.47V64.6179ZM274.196 81.1108C274.978 81.9662 275.825 82.3939 276.74 82.3939C277.648 82.3939 278.49 81.9662 279.266 81.1108C280.041 80.2398 280.719 79.0345 281.297 77.4948C281.876 75.955 282.325 74.1509 282.643 72.0824C282.967 70.0139 283.129 67.7743 283.129 65.3636C283.129 62.984 282.967 60.7678 282.643 58.7148C282.325 56.6463 281.876 54.8344 281.297 53.2791C280.719 51.7238 280.041 50.5107 279.266 49.6397C278.49 48.7688 277.648 48.3333 276.74 48.3333C275.825 48.3333 274.978 48.761 274.196 49.6164C273.421 50.4718 272.744 51.6694 272.165 53.2091C271.592 54.7488 271.143 56.553 270.819 58.6215C270.501 60.69 270.342 62.9374 270.342 65.3636C270.342 67.7743 270.501 70.0139 270.819 72.0824C271.143 74.1509 271.592 75.955 272.165 77.4948C272.744 79.0345 273.421 80.2398 274.196 81.1108ZM278.45 76.6083C277.923 77.1682 277.353 77.4481 276.74 77.4481C275.918 77.4481 275.177 76.9504 274.517 75.955C273.863 74.9597 273.343 73.5599 272.955 71.7558C272.567 69.9361 272.373 67.8054 272.373 65.3636C272.373 63.5284 272.483 61.872 272.703 60.3945C272.929 58.9014 273.238 57.6261 273.632 56.5685C274.031 55.5109 274.494 54.7022 275.021 54.1423C275.553 53.5668 276.126 53.2791 276.74 53.2791C277.556 53.2791 278.294 53.7768 278.953 54.7722C279.613 55.7675 280.134 57.1751 280.516 58.9947C280.904 60.7989 281.098 62.9218 281.098 65.3636C281.098 67.1833 280.985 68.8396 280.759 70.3327C280.539 71.8102 280.232 73.0856 279.839 74.1587C279.445 75.2163 278.982 76.0328 278.45 76.6083ZM265.415 76.889V53.8165H260.658V58.8322C260.658 62.7982 260.589 66.1343 260.45 68.8405C260.311 71.5466 260.094 73.7629 259.799 75.4893C259.713 75.9883 259.619 76.4548 259.517 76.889H265.415ZM267.36 49.034V76.889H269.296V90H267.464V81.6948H267.36H265.415H258.037V90H256.205V77.3323C256.726 77.0057 257.154 76.508 257.49 75.8392C257.825 75.1704 258.086 74.175 258.271 72.8531C258.462 71.5155 258.595 69.7192 258.67 67.464C258.751 65.1933 258.792 62.3161 258.792 58.8322V49.034H267.36ZM247.881 81.4374C248.633 82.0751 249.466 82.3939 250.381 82.3939C251.324 82.3939 252.149 81.9506 252.855 81.0641C253.567 80.1776 254.119 78.9878 254.513 77.4948C254.906 76.0017 255.106 74.3375 255.112 72.5023C255.118 70.356 254.903 68.583 254.469 67.1833C254.035 65.768 253.48 64.7726 252.803 64.1971C253.121 63.8394 253.422 63.2951 253.706 62.5641C253.995 61.8176 254.229 60.9622 254.409 59.9979C254.588 59.0181 254.678 58.0149 254.678 56.9884C254.678 55.1999 254.507 53.6601 254.166 52.3693C253.83 51.0628 253.347 50.0674 252.716 49.3831C252.085 48.6833 251.339 48.3333 250.476 48.3333C249.649 48.3333 248.873 48.6677 248.15 49.3365C247.432 49.9897 246.819 50.9306 246.309 52.1593L247.229 56.0086C247.611 55.1065 248.066 54.4067 248.592 53.909C249.119 53.3957 249.669 53.1391 250.242 53.1391C250.774 53.1391 251.226 53.3258 251.596 53.699C251.972 54.0567 252.256 54.5855 252.447 55.2854C252.644 55.9697 252.742 56.8174 252.742 57.8283C252.742 58.8703 252.644 59.7646 252.447 60.5111C252.25 61.2421 251.972 61.8098 251.613 62.2142C251.255 62.603 250.829 62.7974 250.337 62.7974H248.115V66.9966H250.485C251.382 66.9966 252.042 67.4477 252.464 68.3497C252.892 69.2362 253.107 70.5427 253.107 72.269C253.101 73.3733 252.979 74.3375 252.742 75.1618C252.51 75.9706 252.178 76.6005 251.744 77.0515C251.315 77.5025 250.806 77.7281 250.216 77.7281C249.556 77.7281 248.931 77.4481 248.341 76.8882C247.75 76.3128 247.247 75.5196 246.83 74.5086L245.91 78.7079C246.471 79.8899 247.128 80.7997 247.881 81.4374ZM233.977 82.3939C233.063 82.3939 232.215 81.9662 231.434 81.1108C230.658 80.2398 229.981 79.0345 229.402 77.4948C228.829 75.955 228.381 74.1509 228.057 72.0824C227.738 70.0139 227.579 67.7743 227.579 65.3636C227.579 62.9374 227.738 60.69 228.057 58.6215C228.381 56.553 228.829 54.7488 229.402 53.2091C229.981 51.6694 230.658 50.4718 231.434 49.6164C232.215 48.761 233.063 48.3333 233.977 48.3333C234.886 48.3333 235.728 48.7688 236.503 49.6397C237.279 50.5107 237.956 51.7238 238.535 53.2791C239.114 54.8344 239.562 56.6463 239.88 58.7148C240.204 60.7678 240.366 62.984 240.366 65.3636C240.366 67.7743 240.204 70.0139 239.88 72.0824C239.562 74.1509 239.114 75.955 238.535 77.4948C237.956 79.0345 237.279 80.2398 236.503 81.1108C235.728 81.9662 234.886 82.3939 233.977 82.3939ZM233.977 77.4481C234.591 77.4481 235.161 77.1682 235.687 76.6083C236.22 76.0328 236.683 75.2163 237.076 74.1587C237.47 73.0856 237.777 71.8102 237.997 70.3327C238.222 68.8396 238.335 67.1833 238.335 65.3636C238.335 62.9218 238.141 60.7989 237.753 58.9947C237.372 57.1751 236.851 55.7675 236.191 54.7722C235.531 53.7768 234.793 53.2791 233.977 53.2791C233.364 53.2791 232.791 53.5668 232.258 54.1423C231.732 54.7022 231.269 55.5109 230.869 56.5685C230.476 57.6261 230.166 58.9014 229.941 60.3945C229.721 61.872 229.611 63.5284 229.611 65.3636C229.611 67.8054 229.805 69.9361 230.192 71.7558C230.58 73.5599 231.101 74.9597 231.755 75.955C232.415 76.9504 233.155 77.4481 233.977 77.4481ZM219.961 49.034V81.6948H221.905V53.8165H226.845V49.034H219.961ZM211.173 82.3939C210.259 82.3939 209.411 81.9662 208.629 81.1108C207.854 80.2398 207.177 79.0345 206.598 77.4948C206.025 75.955 205.577 74.1509 205.252 72.0824C204.934 70.0139 204.775 67.7743 204.775 65.3636C204.775 62.9374 204.934 60.69 205.252 58.6215C205.577 56.553 206.025 54.7488 206.598 53.2091C207.177 51.6694 207.854 50.4718 208.629 49.6164C209.411 48.761 210.259 48.3333 211.173 48.3333C212.082 48.3333 212.924 48.7688 213.699 49.6397C214.475 50.5107 215.152 51.7238 215.73 53.2791C216.309 54.8344 216.758 56.6463 217.076 58.7148C217.4 60.7678 217.562 62.984 217.562 65.3636C217.562 67.7743 217.4 70.0139 217.076 72.0824C216.758 74.1509 216.309 75.955 215.73 77.4948C215.152 79.0345 214.475 80.2398 213.699 81.1108C212.924 81.9662 212.082 82.3939 211.173 82.3939ZM211.173 77.4481C211.786 77.4481 212.356 77.1682 212.883 76.6083C213.416 76.0328 213.879 75.2163 214.272 74.1587C214.666 73.0856 214.972 71.8102 215.192 70.3327C215.418 68.8396 215.531 67.1833 215.531 65.3636C215.531 62.9218 215.337 60.7989 214.949 58.9947C214.567 57.1751 214.046 55.7675 213.387 54.7722C212.727 53.7768 211.989 53.2791 211.173 53.2791C210.559 53.2791 209.986 53.5668 209.454 54.1423C208.927 54.7022 208.464 55.5109 208.065 56.5685C207.672 57.6261 207.362 58.9014 207.136 60.3945C206.916 61.872 206.806 63.5284 206.806 65.3636C206.806 67.8054 207 69.9361 207.388 71.7558C207.776 73.5599 208.297 74.9597 208.951 75.955C209.61 76.9504 210.351 77.4481 211.173 77.4481ZM186.592 49.034V81.6948H202.374V49.034H200.429V76.889H195.464V49.034H193.519V76.889H188.536V49.034H186.592ZM173.156 81.6948L177.879 49.034H179.988L184.832 81.6948H182.636L181.516 73.9029H176.368L175.292 81.6948H173.156ZM176.872 69.4004H180.995L178.894 55.1696L176.872 69.4004ZM163.548 49.034V81.6948H167.915C168.765 81.6948 169.5 81.306 170.12 80.5284C170.739 79.7352 171.216 78.6543 171.552 77.2856C171.888 75.9014 172.055 74.315 172.055 72.5265C172.055 70.4113 171.833 68.6305 171.387 67.1841C170.947 65.7377 170.397 64.7423 169.738 64.198C170.05 63.8713 170.351 63.3581 170.64 62.6582C170.93 61.9583 171.164 61.1496 171.344 60.232C171.529 59.2988 171.621 58.3112 171.621 57.2692C171.621 54.563 171.263 52.5178 170.545 51.1336C169.827 49.7339 168.887 49.034 167.724 49.034H163.548ZM167.585 77.5889H165.493V66.9041H167.55C168.401 66.9041 169.029 67.3629 169.434 68.2805C169.845 69.1982 170.05 70.5357 170.05 72.2932C170.05 74.0662 169.848 75.3959 169.442 76.2825C169.037 77.1534 168.418 77.5889 167.585 77.5889ZM167.42 62.9848H165.493V53.1399H167.394C168.14 53.1399 168.713 53.5521 169.113 54.3764C169.518 55.1851 169.72 56.3516 169.72 57.8757C169.72 58.9489 169.625 59.8665 169.434 60.6286C169.243 61.3907 168.977 61.9739 168.635 62.3783C168.294 62.7826 167.889 62.9848 167.42 62.9848ZM146.827 81.6948L150.533 67.884C149.55 67.4174 148.783 66.3987 148.233 64.8278C147.689 63.257 147.417 61.204 147.417 58.6689C147.417 56.7093 147.593 55.014 147.946 53.5832C148.299 52.1368 148.797 51.017 149.44 50.2238C150.082 49.4306 150.843 49.034 151.723 49.034H156.141V81.6948H154.197V68.5138H152.547L149.101 81.6948H146.827ZM151.74 64.1746H154.197V53.4665H151.862C151.086 53.4665 150.478 53.9176 150.039 54.8196C149.599 55.7061 149.379 56.997 149.379 58.6923C149.379 60.4186 149.576 61.7639 149.969 62.7282C150.363 63.6925 150.953 64.1746 151.74 64.1746ZM133.665 77.4489L134.394 82.2547C134.932 81.8348 135.401 81.2904 135.801 80.6217C136.206 79.9529 136.544 79.0742 136.816 77.9855C137.094 76.8812 137.317 75.4893 137.485 73.8096C137.658 72.1143 137.783 70.0458 137.858 67.604C137.933 65.1467 137.971 62.2227 137.971 58.8322V53.8165H142.659V81.6948H144.603V49.034H136.104V59.0189C136.104 61.8806 136.081 64.3068 136.035 66.2976C135.989 68.2728 135.911 69.9136 135.801 71.22C135.696 72.5109 135.549 73.5607 135.358 74.3695C135.173 75.1627 134.941 75.7925 134.663 76.2591C134.386 76.7257 134.053 77.1223 133.665 77.4489ZM128.536 76.889V53.8165H123.779V58.8322C123.779 62.7982 123.71 66.1343 123.571 68.8405C123.432 71.5466 123.215 73.7629 122.92 75.4893C122.833 75.9883 122.74 76.4548 122.638 76.889H128.536ZM130.481 49.034V76.889H132.417V90H130.585V81.6948H130.481H128.536H121.157V90H119.326V77.3323C119.847 77.0057 120.275 76.508 120.61 75.8392C120.946 75.1704 121.207 74.175 121.392 72.8531C121.583 71.5155 121.716 69.7192 121.791 67.464C121.872 65.1933 121.913 62.3161 121.913 58.8322V49.034H130.481ZM100.441 49.034V81.6948H102.221L102.196 57.7028L106.092 74.6494H107.516L111.273 57.9996L111.249 81.6948H113.15V49.034H111.301L106.899 69.0353L102.325 49.034H100.441ZM87.3857 81.6948V49.034H89.3215V73.1563L95.3983 49.034H97.2734V81.6948H95.3462V57.4092L89.2434 81.6948H87.3857ZM76.3832 49.034V81.6948H80.7498C81.6005 81.6948 82.3355 81.306 82.9548 80.5284C83.574 79.7352 84.0515 78.6543 84.3871 77.2856C84.7228 75.9014 84.8906 74.315 84.8906 72.5265C84.8906 70.4113 84.6678 68.6305 84.2222 67.1841C83.7824 65.7377 83.2326 64.7423 82.5728 64.198C82.8853 63.8713 83.1863 63.3581 83.4756 62.6582C83.765 61.9583 83.9994 61.1496 84.1788 60.232C84.364 59.2988 84.4566 58.3112 84.4566 57.2692C84.4566 54.563 84.0978 52.5178 83.3801 51.1336C82.6625 49.7339 81.7221 49.034 80.5588 49.034H76.3832ZM80.4199 77.5889H78.3278V66.9041H80.3852C81.2359 66.9041 81.8639 67.3629 82.269 68.2805C82.6799 69.1982 82.8853 70.5357 82.8853 72.2932C82.8853 74.0662 82.6828 75.3959 82.2777 76.2825C81.8725 77.1534 81.2533 77.5889 80.4199 77.5889ZM80.255 62.9848H78.3278V53.1399H80.2289C80.9755 53.1399 81.5484 53.5521 81.9478 54.3764C82.3529 55.1851 82.5554 56.3516 82.5554 57.8757C82.5554 58.9489 82.46 59.8665 82.269 60.6286C82.078 61.3907 81.8118 61.9739 81.4703 62.3783C81.1289 62.7826 80.7238 62.9848 80.255 62.9848ZM63.3279 81.6948V49.034H65.2638V73.1563L71.3405 49.034H73.2156V81.6948H71.2884V57.4092L65.1857 81.6948H63.3279ZM49.2278 77.4489L49.957 82.2547C50.4952 81.8348 50.964 81.2904 51.3633 80.6217C51.7684 79.9529 52.107 79.0742 52.379 77.9855C52.6568 76.8812 52.8796 75.4893 53.0474 73.8096C53.2211 72.1143 53.3455 70.0458 53.4207 67.604C53.496 65.1467 53.5336 62.2227 53.5336 58.8322V53.8165H58.2213V81.6948H60.1659V49.034H51.6672V59.0189C51.6672 61.8806 51.644 64.3068 51.5977 66.2976C51.5514 68.2728 51.4733 69.9136 51.3633 71.22C51.2591 72.5109 51.1116 73.5607 50.9206 74.3695C50.7354 75.1627 50.5039 75.7925 50.2261 76.2591C49.9483 76.7257 49.6155 77.1223 49.2278 77.4489ZM44.099 76.889V53.8165H39.3418V58.8322C39.3418 62.7982 39.2724 66.1343 39.1335 68.8405C38.9946 71.5466 38.7775 73.7629 38.4824 75.4893C38.3963 75.9883 38.3023 76.4548 38.2005 76.889H44.099ZM46.0436 49.034V76.889H47.9794V90H46.1477V81.6948H46.0436H44.099H36.7201V90H34.8884V77.3323C35.4093 77.0057 35.8376 76.508 36.1732 75.8392C36.5089 75.1704 36.7693 74.175 36.9545 72.8531C37.1455 71.5155 37.2786 69.7192 37.3539 67.464C37.4349 65.1933 37.4754 62.3161 37.4754 58.8322V49.034H46.0436ZM31.0117 49.034V81.6948H32.9563V49.034H31.0117ZM26.4664 81.6948L22.172 66.8108H20.8845V81.6948H18.9399V49.034H20.8845V62.005H22.194L25.9108 49.034H28.3067L23.8621 64.4312L28.9752 81.6948H26.4664ZM0 49.034V81.6948H15.7821V49.034H13.8376V76.889H8.87202V49.034H6.92748V76.889H1.94456V49.034H0Z" fill="white"/>
</svg>
