<svg preserveAspectRatio="none" width="780" height="120" viewBox="0 0 780 120" fill="none" xmlns="http://www.w3.org/2000/svg">
<g filter="url(#filter0_b_425_1978)">
<path d="M0 20C0 8.95431 8.95431 0 20 0H760C771.046 0 780 8.95431 780 20V120H0V20Z" fill="white" fill-opacity="0.1"/>
<path fill-rule="evenodd" clip-rule="evenodd" d="M57.677 59.0982C60.1022 60.8105 62.9364 61.6666 66.1798 61.6666C68.5752 61.6666 70.7325 61.2671 72.6517 60.468C74.5859 59.6689 76.3043 58.5179 77.807 57.0148L75.486 51.621C74.2065 52.9718 72.8303 53.9517 71.3574 54.5605C69.8993 55.1503 68.3818 55.4452 66.8047 55.4452C64.4391 55.4452 62.3859 54.8744 60.6452 53.7329C58.9194 52.5723 57.5803 50.898 56.6281 48.71C55.6908 46.5221 55.2222 43.887 55.2222 40.8048C55.2222 38.5407 55.4825 36.5145 56.0033 34.726C56.5389 32.9186 57.2977 31.387 58.2796 30.1313C59.2764 28.8565 60.4741 27.8767 61.8726 27.1918C63.2712 26.5068 64.8408 26.1644 66.5815 26.1644C68.1586 26.1644 69.6018 26.4498 70.911 27.0205C72.2203 27.5913 73.3659 28.457 74.3478 29.6176L76.9366 24.395C75.6422 22.9871 74.1247 21.9026 72.3839 21.1416C70.6581 20.3805 68.6049 20 66.2245 20C63.8589 20 61.6867 20.5137 59.7079 21.5411C57.7291 22.5685 56.0107 24.0145 54.5527 25.879C53.1095 27.7435 51.9862 29.9505 51.1828 32.5C50.3943 35.0304 50 37.8177 50 40.8619C50 45.0476 50.6695 48.71 52.0085 51.8493C53.3624 54.9695 55.2519 57.3858 57.677 59.0982ZM169.316 61.6666C166.965 61.6666 164.785 61.1434 162.777 60.097C160.783 59.0316 159.042 57.5571 157.555 55.6735C156.082 53.7899 154.929 51.5829 154.095 49.0525C153.277 46.5221 152.868 43.7823 152.868 40.8333C152.868 37.8653 153.277 35.1161 154.095 32.5856C154.929 30.0552 156.082 27.8482 157.555 25.9646C159.042 24.081 160.783 22.6161 162.777 21.5696C164.785 20.5232 166.965 20 169.316 20C171.651 20 173.816 20.5327 175.81 21.5982C177.803 22.6636 179.544 24.1476 181.032 26.0502C182.52 27.9528 183.673 30.1693 184.491 32.6998C185.324 35.2112 185.741 37.9224 185.741 40.8333C185.741 43.7823 185.324 46.5221 184.491 49.0525C183.673 51.5829 182.52 53.7899 181.032 55.6735C179.544 57.5571 177.803 59.0316 175.81 60.097C173.816 61.1434 171.651 61.6666 169.316 61.6666ZM169.316 55.6164C170.893 55.6164 172.358 55.274 173.712 54.589C175.081 53.8851 176.271 52.8862 177.283 51.5925C178.294 50.2797 179.083 48.7195 179.648 46.9121C180.229 45.0856 180.519 43.0593 180.519 40.8333C180.519 37.8463 180.02 35.2492 179.023 33.0422C178.042 30.8162 176.703 29.0944 175.006 27.8767C173.31 26.6591 171.413 26.0502 169.316 26.0502C167.739 26.0502 166.266 26.4022 164.897 27.1062C163.543 27.7911 162.353 28.7804 161.326 30.0742C160.314 31.368 159.518 32.9281 158.938 34.7546C158.373 36.562 158.09 38.5883 158.09 40.8333C158.09 43.8204 158.589 46.4269 159.585 48.653C160.582 50.86 161.921 52.5723 163.602 53.7899C165.299 55.0076 167.203 55.6164 169.316 55.6164ZM512.394 60.097C514.402 61.1434 516.582 61.6666 518.933 61.6666C521.268 61.6666 523.433 61.1434 525.427 60.097C527.421 59.0316 529.161 57.5571 530.649 55.6735C532.137 53.7899 533.29 51.5829 534.108 49.0525C534.941 46.5221 535.358 43.7823 535.358 40.8333C535.358 37.9224 534.941 35.2112 534.108 32.6998C533.29 30.1693 532.137 27.9528 530.649 26.0502C529.161 24.1476 527.421 22.6636 525.427 21.5982C523.433 20.5327 521.268 20 518.933 20C516.582 20 514.402 20.5232 512.394 21.5696C510.4 22.6161 508.659 24.081 507.172 25.9646C505.699 27.8482 504.546 30.0552 503.712 32.5856C502.894 35.1161 502.485 37.8653 502.485 40.8333C502.485 43.7823 502.894 46.5221 503.712 49.0525C504.546 51.5829 505.699 53.7899 507.172 55.6735C508.659 57.5571 510.4 59.0316 512.394 60.097ZM523.329 54.589C521.975 55.274 520.51 55.6164 518.933 55.6164C516.82 55.6164 514.916 55.0076 513.22 53.7899C511.538 52.5723 510.199 50.86 509.202 48.653C508.206 46.4269 507.707 43.8204 507.707 40.8333C507.707 38.5883 507.99 36.562 508.555 34.7546C509.136 32.9281 509.931 31.368 510.943 30.0742C511.97 28.7804 513.16 27.7911 514.514 27.1062C515.883 26.4022 517.356 26.0502 518.933 26.0502C521.03 26.0502 522.927 26.6591 524.624 27.8767C526.32 29.0944 527.659 30.8162 528.641 33.0422C529.637 35.2492 530.136 37.8463 530.136 40.8333C530.136 43.0593 529.846 45.0856 529.265 46.9121C528.7 48.7195 527.912 50.2797 526.9 51.5925C525.888 52.8862 524.698 53.8851 523.329 54.589ZM573.011 60.8121L562.991 42.3761H560.268V60.8121H555.269V42.3761H552.472L542.303 60.8121H536.522L548.284 39.9503L538.129 20.8578H544.043L552.481 36.8966H555.269V20.8578H560.268V36.8966H563.022L571.739 20.8578H577.474L567.186 39.6078L579.014 60.8121H573.011ZM584.061 20.8578V60.8121H604.392V55.1044H589.06V42.6329H602.183V37.2962H589.06V26.5085H604.258V20.8578H584.061ZM622.332 60.8121V20.8578H641.971V26.5085H627.331V37.3533H633.022C636.399 37.3533 639.107 38.3521 641.145 40.3498C643.184 42.3285 644.203 45.2395 644.203 49.0827C644.203 51.5941 643.756 53.725 642.864 55.4754C641.986 57.2067 640.706 58.529 639.025 59.4423C637.359 60.3555 635.35 60.8121 633 60.8121H622.332ZM627.331 55.7893H632.732C634.755 55.7893 636.31 55.2185 637.396 54.077C638.497 52.9354 639.047 51.2992 639.047 49.1683C639.047 47.0945 638.504 45.4488 637.418 44.2311C636.332 43.0135 634.837 42.4046 632.933 42.4046H627.331V55.7893ZM649.346 55.6181L651.31 61.4971C652.828 61.0595 654.234 60.4316 655.528 59.6135C656.837 58.7954 658.065 57.7204 659.21 56.3886C660.356 55.0568 661.457 53.4301 662.513 51.5085C663.57 49.5679 664.619 47.2848 665.66 44.6592L675.1 20.8578H669.32L662.271 39.3224L654.502 20.8578H648.409L659.438 46.2603C658.922 47.2983 658.385 48.239 657.827 49.0827C656.681 50.8141 655.409 52.2029 654.011 53.2494C652.627 54.2958 651.072 55.0854 649.346 55.6181ZM685.545 60.8121V26.7083H676.752V20.8578H699.337V26.7083H690.544V60.8121H685.545ZM704.581 60.8121V20.8578H709.557V50.367L725.179 20.8578H730V60.8121H725.045V31.1033L709.356 60.8121H704.581ZM463.629 60.8121V20.8578H468.472L480.232 45.3257L491.548 20.8578H496.301V60.8121H491.414L491.475 31.8253L481.817 52.1934H478.157L468.141 31.4627L468.204 60.8121H463.629ZM430.168 43.9172L420.639 60.8121H426.486L435.346 44.6877H439.586V60.8121H444.585V20.8578H433.226C430.965 20.8578 429.008 21.343 427.357 22.3133C425.705 23.2836 424.426 24.6535 423.518 26.4229C422.61 28.1733 422.157 30.2471 422.157 32.6444C422.157 35.7456 422.856 38.257 424.254 40.1786C425.668 42.1002 427.639 43.3464 430.168 43.9172ZM439.586 39.3795H433.271C431.247 39.3795 429.73 38.7897 428.718 37.6101C427.706 36.4305 427.2 34.7848 427.2 32.6729C427.2 30.5991 427.766 29.0199 428.896 27.9355C430.027 26.832 431.589 26.2802 433.583 26.2802H439.586V39.3795ZM389.793 60.8121V20.8578H394.792V36.7254H409.923V20.8578H414.922V60.8121H409.923V42.6044H394.792V60.8121H389.793ZM356.532 20.8578V60.8121H361.531V42.6044H376.662V60.8121H381.661V20.8578H376.662V36.7254H361.531V20.8578H356.532ZM321.992 60.8121L334.133 20.8578H339.556L352.009 60.8121H346.363L343.484 51.2802H330.25L327.482 60.8121H321.992ZM331.544 45.7722H342.145L336.744 28.3635L331.544 45.7722ZM297.298 20.8578V60.8121H308.523C310.71 60.8121 312.6 60.3365 314.191 59.3852C315.783 58.4149 317.011 57.0926 317.874 55.4183C318.737 53.725 319.168 51.7844 319.168 49.5964C319.168 47.0089 318.595 44.8304 317.45 43.061C316.319 41.2916 314.906 40.074 313.21 39.408C314.013 39.0085 314.787 38.3807 315.53 37.5245C316.274 36.6683 316.877 35.679 317.338 34.5565C317.814 33.4149 318.052 32.2068 318.052 30.932C318.052 27.6215 317.13 25.1196 315.285 23.4263C313.44 21.714 311.022 20.8578 308.032 20.8578H297.298ZM307.675 55.7893H302.296V42.7186H307.586C309.773 42.7186 311.387 43.2798 312.428 44.4023C313.485 45.5249 314.013 47.1611 314.013 49.311C314.013 51.48 313.492 53.1067 312.451 54.1911C311.409 55.2566 309.817 55.7893 307.675 55.7893ZM307.251 37.924H302.296V25.8807H307.184C309.103 25.8807 310.576 26.3848 311.603 27.3932C312.644 28.3826 313.165 29.8095 313.165 31.674C313.165 32.9868 312.919 34.1093 312.428 35.0416C311.937 35.9739 311.253 36.6874 310.375 37.182C309.497 37.6767 308.456 37.924 307.251 37.924ZM269.44 61.4971L267.476 55.6181C269.202 55.0854 270.757 54.2958 272.14 53.2494C273.539 52.2029 274.811 50.8141 275.957 49.0827C276.515 48.239 277.052 47.2982 277.568 46.2603L266.539 20.8578H272.631L280.4 39.3224L287.45 20.8578H293.23L283.79 44.6592C282.748 47.2848 281.7 49.5679 280.643 51.5085C279.587 53.4301 278.486 55.0568 277.34 56.3886C276.195 57.7204 274.967 58.7954 273.658 59.6135C272.364 60.4316 270.958 61.0595 269.44 61.4971ZM246.023 42.6044L257.063 60.8121H263.513L250.368 39.6934L261.794 20.8578H255.635L246.08 36.7254H242.713V20.8578H237.714V60.8121H242.713V42.6044H246.023ZM224.545 60.8121V20.8578H229.544V60.8121H224.545ZM188.304 55.6181L190.178 61.4971C191.562 60.9834 192.767 60.3175 193.794 59.4994C194.835 58.6813 195.706 57.6063 196.405 56.2745C197.119 54.9236 197.692 53.2208 198.123 51.166C198.57 49.0922 198.89 46.5618 199.083 43.5747C199.276 40.5686 199.373 36.9918 199.373 32.8441V26.7083H211.424V60.8121H216.423V20.8578H194.575V33.0724C194.575 36.5732 194.515 39.5412 194.396 41.9765C194.277 44.3928 194.076 46.4001 193.794 47.9982C193.526 49.5774 193.147 50.8616 192.656 51.851C192.18 52.8213 191.584 53.5918 190.87 54.1626C190.156 54.7334 189.301 55.2185 188.304 55.6181ZM114.012 20.8578V60.8121H118.587L118.524 31.4626L128.54 52.1934H132.2L141.858 31.8253L141.796 60.8121H146.684V20.8578H141.93L130.615 45.3257L118.854 20.8578H114.012ZM79.472 60.8121L91.6124 20.8578H97.0355L109.488 60.8121H103.842L100.963 51.2802H87.7293L84.962 60.8121H79.472ZM89.0237 45.7722H99.6242L94.2235 28.3635L89.0237 45.7722ZM711.093 101.695L718.617 87.884C716.62 87.4174 715.063 86.3987 713.947 84.8278C712.843 83.257 712.291 81.204 712.291 78.6689C712.291 76.7093 712.649 75.014 713.366 73.5832C714.082 72.1368 715.093 71.017 716.396 70.2238C717.701 69.4306 719.245 69.034 721.031 69.034H730V101.695H726.053V88.5138H722.705L715.709 101.695H711.093ZM721.066 84.1746H726.053V73.4665H721.313C719.739 73.4665 718.505 73.9176 717.612 74.8196C716.72 75.7061 716.273 76.997 716.273 78.6923C716.273 80.4186 716.673 81.7639 717.471 82.7282C718.27 83.6925 719.468 84.1746 721.066 84.1746ZM701.505 79.4626L702.862 81.8421C703.978 80.9712 704.906 80.0458 705.646 79.066C706.398 78.0706 706.962 77.0519 707.338 76.0098C707.714 74.9523 707.901 73.9102 707.901 72.8837C707.901 71.5462 707.631 70.4964 707.091 69.7343C706.562 68.9567 705.858 68.5678 704.977 68.5678C704.213 68.5678 703.579 68.8867 703.073 69.5243C702.58 70.1465 702.333 70.9552 702.333 71.9506C702.333 72.6193 702.463 73.2026 702.721 73.7003C702.979 74.1824 703.326 74.5557 703.761 74.8201C704.195 75.0689 704.683 75.17 705.223 75.1233C704.976 75.8854 704.512 76.6631 703.831 77.4563C703.161 78.2339 702.386 78.9027 701.505 79.4626ZM681.197 101.695V69.034H689.673C692.034 69.034 693.943 69.7339 695.4 71.1336C696.857 72.5178 697.585 74.563 697.585 77.2692C697.585 78.3112 697.397 79.2988 697.021 80.232C696.657 81.1496 696.181 81.9583 695.594 82.6582C695.006 83.3581 694.395 83.8713 693.761 84.198C695.1 84.7423 696.216 85.7377 697.109 87.1841C698.014 88.6305 698.466 90.4113 698.466 92.5265C698.466 94.315 698.125 95.9014 697.444 97.2856C696.763 98.6543 695.793 99.7352 694.536 100.528C693.279 101.306 691.787 101.695 690.061 101.695H681.197ZM685.144 97.5889H689.391C691.083 97.5889 692.34 97.1534 693.162 96.2825C693.984 95.3959 694.395 94.0662 694.395 92.2932C694.395 90.5357 693.978 89.1982 693.144 88.2805C692.322 87.3629 691.047 86.9041 689.321 86.9041H685.144V97.5889ZM685.144 82.9848H689.056C690.008 82.9848 690.83 82.7826 691.523 82.3783C692.216 81.9739 692.757 81.3907 693.144 80.6286C693.532 79.8665 693.726 78.9489 693.726 77.8757C693.726 76.3516 693.315 75.1851 692.492 74.3764C691.682 73.5521 690.519 73.1399 689.003 73.1399H685.144V82.9848ZM658.2 101.111C659.786 101.966 661.507 102.394 663.363 102.394C665.207 102.394 666.917 101.966 668.491 101.111C670.065 100.24 671.439 99.0345 672.614 97.4948C673.789 95.955 674.699 94.1509 675.345 92.0824C676.003 90.0139 676.332 87.7743 676.332 85.3636C676.332 82.984 676.003 80.7678 675.345 78.7148C674.699 76.6463 673.789 74.8344 672.614 73.2791C671.439 71.7238 670.065 70.5107 668.491 69.6397C666.917 68.7688 665.207 68.3333 663.363 68.3333C661.507 68.3333 659.786 68.761 658.2 69.6164C656.626 70.4718 655.251 71.6694 654.076 73.2091C652.913 74.7488 652.003 76.553 651.345 78.6215C650.699 80.69 650.376 82.9374 650.376 85.3636C650.376 87.7743 650.699 90.0139 651.345 92.0824C652.003 94.1509 652.913 95.955 654.076 97.4948C655.251 99.0345 656.626 100.24 658.2 101.111ZM666.834 96.6083C665.765 97.1682 664.608 97.4481 663.363 97.4481C661.695 97.4481 660.191 96.9504 658.852 95.955C657.524 94.9597 656.467 93.5599 655.68 91.7558C654.893 89.9361 654.499 87.8054 654.499 85.3636C654.499 83.5284 654.723 81.872 655.169 80.3945C655.627 78.9014 656.256 77.6261 657.054 76.5685C657.865 75.5109 658.805 74.7022 659.874 74.1423C660.955 73.5668 662.118 73.2791 663.363 73.2791C665.019 73.2791 666.517 73.7768 667.856 74.7722C669.195 75.7675 670.253 77.1751 671.028 78.9947C671.815 80.7989 672.209 82.9218 672.209 85.3636C672.209 87.1833 671.98 88.8396 671.521 90.3327C671.075 91.8102 670.452 93.0856 669.654 94.1587C668.855 95.2163 667.915 96.0328 666.834 96.6083ZM629.575 101.695V69.034H638.508C640.259 69.034 641.804 69.4384 643.143 70.2471C644.494 71.0403 645.551 72.1912 646.315 73.6998C647.078 75.1929 647.46 76.9892 647.46 79.0889C647.46 81.2507 647.108 83.0782 646.403 84.5712C645.698 86.0487 644.67 87.1763 643.319 87.9539C641.98 88.716 640.347 89.0971 638.42 89.0971H633.522V101.695H629.575ZM633.522 84.6179H638.473C640.071 84.6179 641.31 84.1746 642.191 83.2881C643.072 82.3861 643.513 81.0252 643.513 79.2055C643.513 77.4014 643.061 76.0172 642.156 75.0529C641.251 74.0886 640.036 73.6065 638.508 73.6065H633.522V84.6179ZM606.577 101.111C608.163 101.966 609.884 102.394 611.74 102.394C613.585 102.394 615.294 101.966 616.868 101.111C618.442 100.24 619.817 99.0345 620.992 97.4948C622.166 95.955 623.077 94.1509 623.723 92.0824C624.381 90.0139 624.71 87.7743 624.71 85.3636C624.71 82.984 624.381 80.7678 623.723 78.7148C623.077 76.6463 622.166 74.8344 620.992 73.2791C619.817 71.7238 618.442 70.5107 616.868 69.6397C615.294 68.7688 613.585 68.3333 611.74 68.3333C609.884 68.3333 608.163 68.761 606.577 69.6164C605.003 70.4718 603.629 71.6694 602.454 73.2091C601.291 74.7488 600.381 76.553 599.723 78.6215C599.077 80.69 598.754 82.9374 598.754 85.3636C598.754 87.7743 599.077 90.0139 599.723 92.0824C600.381 94.1509 601.291 95.955 602.454 97.4948C603.629 99.0345 605.003 100.24 606.577 101.111ZM615.212 96.6083C614.143 97.1682 612.986 97.4481 611.74 97.4481C610.072 97.4481 608.569 96.9504 607.229 95.955C605.902 94.9597 604.845 93.5599 604.058 91.7558C603.271 89.9361 602.877 87.8054 602.877 85.3636C602.877 83.5284 603.1 81.872 603.547 80.3945C604.005 78.9014 604.633 77.6261 605.432 76.5685C606.243 75.5109 607.182 74.7022 608.251 74.1423C609.332 73.5668 610.495 73.2791 611.74 73.2791C613.397 73.2791 614.895 73.7768 616.234 74.7722C617.573 75.7675 618.63 77.1751 619.406 78.9947C620.193 80.7989 620.586 82.9218 620.586 85.3636C620.586 87.1833 620.357 88.8396 619.899 90.3327C619.453 91.8102 618.83 93.0856 618.031 94.1587C617.232 95.2163 616.293 96.0328 615.212 96.6083ZM588.754 96.889V73.8165H579.097V78.8322C579.097 82.7982 578.956 86.1343 578.674 88.8405C578.393 91.5466 577.952 93.7629 577.353 95.4893C577.178 95.9883 576.987 96.4548 576.781 96.889H588.754ZM592.701 69.034V96.889H596.63V110H592.912V101.695H592.701H588.754H573.776V110H570.058V97.3323C571.115 97.0057 571.984 96.508 572.666 95.8392C573.347 95.1704 573.876 94.175 574.252 92.8531C574.639 91.5155 574.909 89.7192 575.062 87.464C575.227 85.1933 575.309 82.3161 575.309 78.8322V69.034H592.701ZM553.16 101.437C554.688 102.075 556.379 102.394 558.235 102.394C560.15 102.394 561.824 101.951 563.257 101.064C564.702 100.178 565.824 98.9878 566.623 97.4948C567.422 96.0017 567.827 94.3375 567.839 92.5023C567.851 90.356 567.416 88.583 566.535 87.1833C565.654 85.768 564.526 84.7726 563.152 84.1971C563.798 83.8394 564.409 83.2951 564.984 82.5641C565.572 81.8176 566.047 80.9622 566.412 79.9979C566.776 79.0181 566.958 78.0149 566.958 76.9884C566.958 75.1999 566.611 73.6601 565.918 72.3693C565.237 71.0628 564.256 70.0674 562.976 69.3831C561.695 68.6833 560.18 68.3333 558.429 68.3333C556.749 68.3333 555.175 68.6677 553.707 69.3365C552.25 69.9897 551.005 70.9306 549.971 72.1593L551.839 76.0086C552.614 75.1065 553.536 74.4067 554.605 73.909C555.674 73.3957 556.79 73.1391 557.953 73.1391C559.034 73.1391 559.951 73.3258 560.702 73.699C561.466 74.0567 562.042 74.5855 562.429 75.2854C562.829 75.9697 563.028 76.8174 563.028 77.8283C563.028 78.8703 562.829 79.7646 562.429 80.5111C562.03 81.2421 561.466 81.8098 560.738 82.2142C560.009 82.603 559.146 82.7974 558.147 82.7974H553.636V86.9966H558.447C560.268 86.9966 561.607 87.4477 562.464 88.3497C563.334 89.2362 563.768 90.5427 563.768 92.269C563.757 93.3733 563.51 94.3375 563.028 95.1618C562.558 95.9706 561.883 96.6005 561.002 97.0515C560.133 97.5025 559.099 97.7281 557.901 97.7281C556.561 97.7281 555.293 97.4481 554.094 96.8882C552.896 96.3128 551.874 95.5196 551.028 94.5086L549.16 98.7079C550.3 99.8899 551.633 100.8 553.16 101.437ZM524.939 102.394C523.083 102.394 521.362 101.966 519.776 101.111C518.202 100.24 516.827 99.0345 515.652 97.4948C514.49 95.955 513.579 94.1509 512.921 92.0824C512.275 90.0139 511.952 87.7743 511.952 85.3636C511.952 82.9374 512.275 80.69 512.921 78.6215C513.579 76.553 514.49 74.7488 515.652 73.2091C516.827 71.6694 518.202 70.4718 519.776 69.6164C521.362 68.761 523.083 68.3333 524.939 68.3333C526.783 68.3333 528.493 68.7688 530.067 69.6397C531.641 70.5107 533.015 71.7238 534.19 73.2791C535.365 74.8344 536.275 76.6463 536.921 78.7148C537.579 80.7678 537.908 82.984 537.908 85.3636C537.908 87.7743 537.579 90.0139 536.921 92.0824C536.275 94.1509 535.365 95.955 534.19 97.4948C533.015 99.0345 531.641 100.24 530.067 101.111C528.493 101.966 526.783 102.394 524.939 102.394ZM524.939 97.4481C526.184 97.4481 527.341 97.1682 528.41 96.6083C529.491 96.0328 530.431 95.2163 531.23 94.1587C532.029 93.0856 532.651 91.8102 533.098 90.3327C533.556 88.8396 533.785 87.1833 533.785 85.3636C533.785 82.9218 533.391 80.7989 532.604 78.9947C531.829 77.1751 530.772 75.7675 529.432 74.7722C528.093 73.7768 526.595 73.2791 524.939 73.2791C523.694 73.2791 522.531 73.5668 521.45 74.1423C520.381 74.7022 519.441 75.5109 518.63 76.5685C517.832 77.6261 517.203 78.9014 516.745 80.3945C516.299 81.872 516.075 83.5284 516.075 85.3636C516.075 87.8054 516.469 89.9361 517.256 91.7558C518.043 93.5599 519.1 94.9597 520.428 95.955C521.767 96.9504 523.271 97.4481 524.939 97.4481ZM496.488 69.034V101.695H500.435V73.8165H510.461V69.034H496.488ZM478.65 102.394C476.793 102.394 475.072 101.966 473.487 101.111C471.912 100.24 470.538 99.0345 469.363 97.4948C468.2 95.955 467.29 94.1509 466.632 92.0824C465.986 90.0139 465.663 87.7743 465.663 85.3636C465.663 82.9374 465.986 80.69 466.632 78.6215C467.29 76.553 468.2 74.7488 469.363 73.2091C470.538 71.6694 471.912 70.4718 473.487 69.6164C475.072 68.761 476.793 68.3333 478.65 68.3333C480.494 68.3333 482.203 68.7688 483.777 69.6397C485.351 70.5107 486.726 71.7238 487.901 73.2791C489.075 74.8344 489.986 76.6463 490.632 78.7148C491.29 80.7678 491.619 82.984 491.619 85.3636C491.619 87.7743 491.29 90.0139 490.632 92.0824C489.986 94.1509 489.075 95.955 487.901 97.4948C486.726 99.0345 485.351 100.24 483.777 101.111C482.203 101.966 480.494 102.394 478.65 102.394ZM478.65 97.4481C479.895 97.4481 481.052 97.1682 482.121 96.6083C483.202 96.0328 484.141 95.2163 484.94 94.1587C485.739 93.0856 486.362 91.8102 486.808 90.3327C487.266 88.8396 487.495 87.1833 487.495 85.3636C487.495 82.9218 487.102 80.7989 486.315 78.9947C485.539 77.1751 484.482 75.7675 483.143 74.7722C481.804 73.7768 480.306 73.2791 478.65 73.2791C477.404 73.2791 476.241 73.5668 475.16 74.1423C474.091 74.7022 473.152 75.5109 472.341 76.5685C471.542 77.6261 470.914 78.9014 470.456 80.3945C470.009 81.872 469.786 83.5284 469.786 85.3636C469.786 87.8054 470.18 89.9361 470.967 91.7558C471.754 93.5599 472.811 94.9597 474.138 95.955C475.478 96.9504 476.981 97.4481 478.65 97.4481ZM428.753 69.034V101.695H460.788V69.034H456.841V96.889H446.762V69.034H442.815V96.889H432.7V69.034H428.753ZM401.481 101.695L411.067 69.034H415.349L425.181 101.695H420.723L418.45 93.9029H408.001L405.816 101.695H401.481ZM409.023 89.4004H417.393L413.129 75.1696L409.023 89.4004ZM381.978 69.034V101.695H390.842C392.568 101.695 394.06 101.306 395.317 100.528C396.574 99.7352 397.543 98.6543 398.225 97.2856C398.906 95.9014 399.247 94.315 399.247 92.5265C399.247 90.4113 398.795 88.6305 397.89 87.1841C396.997 85.7377 395.881 84.7423 394.542 84.198C395.176 83.8713 395.787 83.3581 396.375 82.6582C396.962 81.9583 397.438 81.1496 397.802 80.232C398.178 79.2988 398.366 78.3112 398.366 77.2692C398.366 74.563 397.638 72.5178 396.181 71.1336C394.724 69.7339 392.815 69.034 390.454 69.034H381.978ZM390.172 97.5889H385.925V86.9041H390.102C391.828 86.9041 393.103 87.3629 393.925 88.2805C394.759 89.1982 395.176 90.5357 395.176 92.2932C395.176 94.0662 394.765 95.3959 393.943 96.2825C393.121 97.1534 391.864 97.5889 390.172 97.5889ZM389.837 82.9848H385.925V73.1399H389.784C391.3 73.1399 392.463 73.5521 393.273 74.3764C394.096 75.1851 394.507 76.3516 394.507 77.8757C394.507 78.9489 394.313 79.8665 393.925 80.6286C393.538 81.3907 392.997 81.9739 392.304 82.3783C391.611 82.7826 390.789 82.9848 389.837 82.9848ZM348.036 101.695L355.56 87.884C353.563 87.4174 352.007 86.3987 350.891 84.8278C349.786 83.257 349.234 81.204 349.234 78.6689C349.234 76.7093 349.593 75.014 350.309 73.5832C351.026 72.1368 352.036 71.017 353.34 70.2238C354.644 69.4306 356.189 69.034 357.975 69.034H366.944V101.695H362.997V88.5138H359.649L352.653 101.695H348.036ZM358.01 84.1746H362.997V73.4665H358.257C356.682 73.4665 355.449 73.9176 354.556 74.8196C353.663 75.7061 353.217 76.997 353.217 78.6923C353.217 80.4186 353.616 81.7639 354.415 82.7282C355.214 83.6925 356.412 84.1746 358.01 84.1746ZM321.32 97.4489L322.8 102.255C323.893 101.835 324.844 101.29 325.655 100.622C326.477 99.9529 327.164 99.0742 327.717 97.9855C328.28 96.8812 328.733 95.4893 329.073 93.8096C329.426 92.1143 329.678 90.0458 329.831 87.604C329.984 85.1467 330.06 82.2227 330.06 78.8322V73.8165H339.576V101.695H343.523V69.034H326.272V79.0189C326.272 81.8806 326.225 84.3068 326.131 86.2976C326.037 88.2728 325.878 89.9136 325.655 91.22C325.443 92.5109 325.144 93.5607 324.756 94.3695C324.38 95.1627 323.91 95.7925 323.346 96.2591C322.783 96.7257 322.107 97.1223 321.32 97.4489ZM310.909 96.889V73.8165H301.253V78.8322C301.253 82.7982 301.112 86.1343 300.83 88.8405C300.548 91.5466 300.107 93.7629 299.508 95.4893C299.334 95.9883 299.143 96.4548 298.936 96.889H310.909ZM314.856 69.034V96.889H318.786V110H315.068V101.695H314.856H310.909H295.931V110H292.213V97.3323C293.271 97.0057 294.14 96.508 294.821 95.8392C295.503 95.1704 296.031 94.175 296.407 92.8531C296.795 91.5155 297.065 89.7192 297.218 87.464C297.382 85.1933 297.464 82.3161 297.464 78.8322V69.034H314.856ZM253.88 69.034V101.695H257.492L257.443 77.7028L265.351 94.6494H268.241L275.867 77.9996L275.819 101.695H279.678V69.034H275.924L266.99 89.0353L257.704 69.034H253.88ZM227.38 101.695V69.034H231.309V93.1563L243.644 69.034H247.45V101.695H243.538V77.4092L231.151 101.695H227.38ZM205.047 69.034V101.695H213.91C215.637 101.695 217.129 101.306 218.386 100.528C219.643 99.7352 220.612 98.6543 221.293 97.2856C221.975 95.9014 222.315 94.315 222.315 92.5265C222.315 90.4113 221.863 88.6305 220.958 87.1841C220.066 85.7377 218.95 84.7423 217.61 84.198C218.245 83.8713 218.856 83.3581 219.443 82.6582C220.03 81.9583 220.506 81.1496 220.87 80.232C221.246 79.2988 221.434 78.3112 221.434 77.2692C221.434 74.563 220.706 72.5178 219.249 71.1336C217.793 69.7339 215.884 69.034 213.522 69.034H205.047ZM213.24 97.5889H208.994V86.9041H213.17C214.897 86.9041 216.171 87.3629 216.994 88.2805C217.828 89.1982 218.245 90.5357 218.245 92.2932C218.245 94.0662 217.834 95.3959 217.011 96.2825C216.189 97.1534 214.932 97.5889 213.24 97.5889ZM212.906 82.9848H208.994V73.1399H212.853C214.368 73.1399 215.531 73.5521 216.342 74.3764C217.164 75.1851 217.575 76.3516 217.575 77.8757C217.575 78.9489 217.381 79.8665 216.994 80.6286C216.606 81.3907 216.066 81.9739 215.373 82.3783C214.679 82.7826 213.857 82.9848 212.906 82.9848ZM178.546 101.695V69.034H182.476V93.1563L194.811 69.034H198.617V101.695H194.705V77.4092L182.317 101.695H178.546ZM149.925 97.4489L151.405 102.255C152.498 101.835 153.449 101.29 154.26 100.622C155.082 99.9529 155.769 99.0742 156.322 97.9855C156.885 96.8812 157.338 95.4893 157.678 93.8096C158.031 92.1143 158.283 90.0458 158.436 87.604C158.589 85.1467 158.665 82.2227 158.665 78.8322V73.8165H168.181V101.695H172.128V69.034H154.877V79.0189C154.877 81.8806 154.83 84.3068 154.736 86.2976C154.642 88.2728 154.483 89.9136 154.26 91.22C154.048 92.5109 153.749 93.5607 153.361 94.3695C152.985 95.1627 152.515 95.7925 151.952 96.2591C151.388 96.7257 150.712 97.1223 149.925 97.4489ZM139.514 96.889V73.8165H129.858V78.8322C129.858 82.7982 129.717 86.1343 129.435 88.8405C129.153 91.5466 128.713 93.7629 128.113 95.4893C127.939 95.9883 127.748 96.4548 127.541 96.889H139.514ZM143.462 69.034V96.889H147.391V110H143.673V101.695H143.462H139.514H124.536V110H120.818V97.3323C121.876 97.0057 122.745 96.508 123.426 95.8392C124.108 95.1704 124.636 94.175 125.012 92.8531C125.4 91.5155 125.67 89.7192 125.823 87.464C125.987 85.1933 126.069 82.3161 126.069 78.8322V69.034H143.462ZM112.949 69.034V101.695H116.896V69.034H112.949ZM103.723 101.695L95.0058 86.8108H92.3923V101.695H88.4452V69.034H92.3923V82.005H95.0506L102.595 69.034H107.458L98.4364 84.4312L108.815 101.695H103.723ZM50 69.034V101.695H82.0353V69.034H78.0882V96.889H68.0089V69.034H64.0617V96.889H53.9472V69.034H50Z" fill="white"/>
</g>
<defs>
<filter id="filter0_b_425_1978" x="-25" y="-25" width="830" height="170" filterUnits="userSpaceOnUse" color-interpolation-filters="sRGB">
<feFlood flood-opacity="0" result="BackgroundImageFix"/>
<feGaussianBlur in="BackgroundImageFix" stdDeviation="12.5"/>
<feComposite in2="SourceAlpha" operator="in" result="effect1_backgroundBlur_425_1978"/>
<feBlend mode="normal" in="SourceGraphic" in2="effect1_backgroundBlur_425_1978" result="shape"/>
</filter>
</defs>
</svg>
