<svg width="1280" height="120" viewBox="0 0 1280 120" fill="none" xmlns="http://www.w3.org/2000/svg">
<g filter="url(#filter0_b_422_1648)">
<path d="M0 20C0 8.95431 8.95431 0 20 0H1260C1271.05 0 1280 8.95431 1280 20V120H0V20Z" fill="white" fill-opacity="0.01"/>
<path fill-rule="evenodd" clip-rule="evenodd" d="M59.8454 96.8599C63.2146 96.8599 66.0472 94.2179 68.3432 88.934C68.5678 88.5169 68.6052 87.9259 68.4555 87.1611L67.2201 82.3639C67.0454 81.5991 66.8583 81.4948 66.6586 82.051C64.6621 86.3616 62.3661 88.5169 59.7706 88.5169C57.6742 88.5169 56.052 86.9525 54.904 83.8239C53.756 80.6953 53.182 76.4195 53.182 70.9966V45.8633C53.182 40.4403 53.7435 36.1646 54.8666 33.0359C56.0146 29.9073 57.6368 28.343 59.7331 28.343C62.0541 28.343 64.138 30.2202 65.9848 33.9745C66.2593 34.3917 66.4714 34.3221 66.6212 33.7659L67.8191 28.8644C67.9688 28.2387 67.9439 27.7173 67.7442 27.3001C65.3983 22.4334 62.7404 20 59.7706 20C56.9255 20 54.5796 22.2596 52.7328 26.7787C50.9109 31.2283 50 37.5898 50 45.8633V71.1008C50 79.3048 50.9234 85.6663 52.7702 90.1855C54.617 94.6351 56.9754 96.8599 59.8454 96.8599ZM147.466 69.5365C147.466 77.9491 146.555 84.6235 144.733 89.5597C142.911 94.4265 140.416 96.8599 137.246 96.8599C134.077 96.8599 131.581 94.4265 129.759 89.5597C127.937 84.6235 127.026 77.9491 127.026 69.5365V47.5319C127.026 38.9803 127.937 32.2712 129.759 27.4044C131.581 22.4681 134.077 20 137.246 20C140.416 20 142.911 22.4681 144.733 27.4044C146.555 32.2712 147.466 38.9803 147.466 47.5319V69.5365ZM130.246 69.5365C130.246 75.4462 130.857 80.0696 132.08 83.4068C133.303 86.744 135.025 88.4126 137.246 88.4126C139.467 88.4126 141.177 86.744 142.375 83.4068C143.598 80.0696 144.209 75.4462 144.209 69.5365V47.5319C144.209 41.4137 143.598 36.686 142.375 33.3488C141.177 29.9421 139.467 28.2387 137.246 28.2387C135.025 28.2387 133.303 29.9421 132.08 33.3488C130.857 36.686 130.246 41.4137 130.246 47.5319V69.5365ZM410.069 89.5597C411.891 84.6235 412.802 77.9491 412.802 69.5365V47.5319C412.802 38.9803 411.891 32.2712 410.069 27.4044C408.247 22.4681 405.751 20 402.582 20C399.412 20 396.917 22.4681 395.095 27.4044C393.273 32.2712 392.362 38.9803 392.362 47.5319V69.5365C392.362 77.9491 393.273 84.6235 395.095 89.5597C396.917 94.4265 399.412 96.8599 402.582 96.8599C405.751 96.8599 408.247 94.4265 410.069 89.5597ZM397.416 83.4068C396.193 80.0696 395.582 75.4462 395.582 69.5365V47.5319C395.582 41.4137 396.193 36.686 397.416 33.3488C398.639 29.9421 400.361 28.2387 402.582 28.2387C404.803 28.2387 406.513 29.9421 407.71 33.3488C408.933 36.686 409.545 41.4137 409.545 47.5319V69.5365C409.545 75.4462 408.933 80.0696 407.71 83.4068C406.513 86.744 404.803 88.4126 402.582 88.4126C400.361 88.4126 398.639 86.744 397.416 83.4068ZM998.684 89.5597C1000.51 84.6235 1001.42 77.9491 1001.42 69.5365V47.5319C1001.42 38.9803 1000.51 32.2712 998.684 27.4044C996.862 22.4681 994.367 20 991.197 20C988.028 20 985.532 22.4681 983.71 27.4044C981.888 32.2712 980.977 38.9803 980.977 47.5319V69.5365C980.977 77.9491 981.888 84.6235 983.71 89.5597C985.532 94.4265 988.028 96.8599 991.197 96.8599C994.367 96.8599 996.862 94.4265 998.684 89.5597ZM986.031 83.4068C984.808 80.0696 984.197 75.4462 984.197 69.5365V47.5319C984.197 41.4137 984.808 36.686 986.031 33.3488C987.254 29.9421 988.976 28.2387 991.197 28.2387C993.418 28.2387 995.128 29.9421 996.326 33.3488C997.549 36.686 998.16 41.4137 998.16 47.5319V69.5365C998.16 75.4462 997.549 80.0696 996.326 83.4068C995.128 86.744 993.418 88.4126 991.197 88.4126C988.976 88.4126 987.254 86.744 986.031 83.4068ZM1042.55 89.5597C1044.38 84.6235 1045.29 77.9491 1045.29 69.5365V47.5319C1045.29 38.9803 1044.38 32.2712 1042.55 27.4044C1040.73 22.4681 1038.24 20 1035.07 20C1031.9 20 1029.4 22.4681 1027.58 27.4044C1025.76 32.2712 1024.85 38.9803 1024.85 47.5319V69.5365C1024.85 77.9491 1025.76 84.6235 1027.58 89.5597C1029.4 94.4265 1031.9 96.8599 1035.07 96.8599C1038.24 96.8599 1040.73 94.4265 1042.55 89.5597ZM1029.9 83.4068C1028.68 80.0696 1028.07 75.4462 1028.07 69.5365V47.5319C1028.07 41.4137 1028.68 36.686 1029.9 33.3488C1031.12 29.9421 1032.85 28.2387 1035.07 28.2387C1037.29 28.2387 1039 29.9421 1040.2 33.3488C1041.42 36.686 1042.03 41.4137 1042.03 47.5319V69.5365C1042.03 75.4462 1041.42 80.0696 1040.2 83.4068C1039 86.744 1037.29 88.4126 1035.07 88.4126C1032.85 88.4126 1031.12 86.744 1029.9 83.4068ZM1075.44 40.5446C1075.41 44.0904 1075.08 47.2885 1074.43 50.1391C1073.78 52.9896 1072.84 55.0058 1071.62 56.1877C1073.07 57.6478 1074.18 59.9769 1074.95 63.175C1075.75 66.3731 1076.15 70.0232 1076.15 74.1252C1076.15 81.2863 1075.26 86.883 1073.49 90.9155C1071.74 94.8784 1069.46 96.8599 1066.64 96.8599C1062.8 96.8599 1059.69 93.8703 1057.32 87.8911C1057.12 87.3349 1057.09 86.744 1057.24 86.1182L1058.48 81.2167C1058.65 80.5215 1058.84 80.452 1059.04 81.0082C1061.06 86.014 1063.6 88.5169 1066.64 88.5169C1068.51 88.5169 1070.01 87.2306 1071.13 84.6582C1072.28 82.0163 1072.85 78.5053 1072.85 74.1252C1072.85 70.2318 1072.32 67.0684 1071.24 64.635C1070.2 62.2017 1068.6 60.985 1066.45 60.985H1062.82C1062.55 60.985 1062.41 60.6026 1062.41 59.8378V54.102C1062.41 53.3372 1062.55 52.9548 1062.82 52.9548H1066.57C1068.36 52.9548 1069.75 51.7729 1070.72 49.4091C1071.69 47.0452 1072.18 44.1599 1072.18 40.7532C1072.18 37.2074 1071.68 34.2526 1070.68 31.8888C1069.69 29.5249 1068.3 28.343 1066.53 28.343C1063.76 28.343 1061.45 30.6026 1059.6 35.1217C1059.35 35.6779 1059.14 35.6084 1058.97 34.9131L1057.77 30.2202C1057.62 29.5944 1057.63 29.0035 1057.81 28.4473C1060.08 22.8158 1062.98 20 1066.53 20C1069.2 20 1071.36 21.9815 1073 25.9444C1074.65 29.9073 1075.46 34.774 1075.44 40.5446ZM1126.3 69.5365C1126.3 77.9491 1125.39 84.6235 1123.57 89.5597C1121.74 94.4265 1119.25 96.8599 1116.08 96.8599C1112.91 96.8599 1110.41 94.4265 1108.59 89.5597C1106.77 84.6235 1105.86 77.9491 1105.86 69.5365V47.5319C1105.86 38.9803 1106.77 32.2712 1108.59 27.4044C1110.41 22.4681 1112.91 20 1116.08 20C1119.25 20 1121.74 22.4681 1123.57 27.4044C1125.39 32.2712 1126.3 38.9803 1126.3 47.5319V69.5365ZM1109.08 69.5365C1109.08 75.4462 1109.69 80.0696 1110.91 83.4068C1112.14 86.744 1113.86 88.4126 1116.08 88.4126C1118.3 88.4126 1120.01 86.744 1121.21 83.4068C1122.43 80.0696 1123.04 75.4462 1123.04 69.5365V47.5319C1123.04 41.4137 1122.43 36.686 1121.21 33.3488C1120.01 29.9421 1118.3 28.2387 1116.08 28.2387C1113.86 28.2387 1112.14 29.9421 1110.91 33.3488C1109.69 36.686 1109.08 41.4137 1109.08 47.5319V69.5365ZM1174.92 69.5365C1174.92 77.9491 1174.01 84.6235 1172.19 89.5597C1170.37 94.4265 1167.87 96.8599 1164.7 96.8599C1161.53 96.8599 1159.03 94.4265 1157.21 89.5597C1155.39 84.6235 1154.48 77.9491 1154.48 69.5365V47.5319C1154.48 38.9803 1155.39 32.2712 1157.21 27.4044C1159.03 22.4681 1161.53 20 1164.7 20C1167.87 20 1170.37 22.4681 1172.19 27.4044C1174.01 32.2712 1174.92 38.9803 1174.92 47.5319V69.5365ZM1157.7 69.5365C1157.7 75.4462 1158.31 80.0696 1159.53 83.4068C1160.76 86.744 1162.48 88.4126 1164.7 88.4126C1166.92 88.4126 1168.63 86.744 1169.83 83.4068C1171.05 80.0696 1171.66 75.4462 1171.66 69.5365V47.5319C1171.66 41.4137 1171.05 36.686 1169.83 33.3488C1168.63 29.9421 1166.92 28.2387 1164.7 28.2387C1162.48 28.2387 1160.76 29.9421 1159.53 33.3488C1158.31 36.686 1157.7 41.4137 1157.7 47.5319V69.5365ZM1197.34 50.0347C1197.91 47.3232 1198.2 44.2294 1198.2 40.7531C1198.2 34.7045 1197.51 29.942 1196.14 26.4658C1194.77 22.92 1192.77 21.1471 1190.15 21.1471H1181.09C1180.79 21.1471 1180.64 21.5295 1180.64 22.2943V94.5655C1180.64 95.3302 1180.79 95.7126 1181.09 95.7126H1190.11C1193.03 95.7126 1195.29 93.8355 1196.89 90.0811C1198.51 86.2572 1199.32 80.9386 1199.32 74.1251C1199.32 69.745 1198.95 65.9907 1198.2 62.8621C1197.45 59.6639 1196.39 57.3696 1195.02 55.9791C1196.01 54.6581 1196.79 52.6767 1197.34 50.0347ZM1190.15 87.6825H1183.82V60.3592H1190.37C1192.27 60.3592 1193.69 61.6106 1194.64 64.1135C1195.62 66.5469 1196.1 69.8841 1196.1 74.1251C1196.1 78.6442 1195.58 82.051 1194.53 84.3453C1193.51 86.5701 1192.05 87.6825 1190.15 87.6825ZM1193.74 32.3059C1194.57 34.3221 1194.98 37.1378 1194.98 40.7531C1194.98 44.577 1194.57 47.4623 1193.74 49.409C1192.92 51.3557 1191.8 52.329 1190.37 52.329H1183.82V29.1772H1190.15C1191.72 29.1772 1192.92 30.2201 1193.74 32.3059ZM1208.07 22.5028L1205.6 43.256C1205.52 43.8818 1205.36 44.1946 1205.11 44.1946H1203.28C1202.93 44.1946 1202.8 43.7427 1202.9 42.8389L1204.85 22.19C1204.93 21.4947 1205.09 21.1471 1205.34 21.1471H1207.7C1208.05 21.1471 1208.17 21.599 1208.07 22.5028ZM1211.32 44.5075C1211.32 37.2074 1212.13 31.5063 1213.75 27.4043C1215.38 23.2328 1217.63 21.1471 1220.53 21.1471H1229.59C1229.86 21.1471 1230 21.5295 1230 22.2943V94.5655C1230 95.3302 1229.86 95.7126 1229.59 95.7126H1227.27C1226.97 95.7126 1226.82 95.3302 1226.82 94.5655V67.555H1221.58L1214.39 94.9826C1214.24 95.4693 1214.07 95.7126 1213.87 95.7126H1210.87C1210.7 95.7126 1210.58 95.5736 1210.53 95.2955C1210.48 95.0174 1210.51 94.6697 1210.61 94.2526L1218.1 66.7207C1215.97 65.7474 1214.31 63.3488 1213.12 59.5249C1211.92 55.6315 1211.32 50.6257 1211.32 44.5075ZM1220.57 59.3163H1226.82V29.4901H1220.57C1218.62 29.4901 1217.13 30.7763 1216.11 33.3487C1215.09 35.9212 1214.58 39.6755 1214.58 44.6118C1214.58 49.409 1215.09 53.0591 1216.11 55.562C1217.13 58.0649 1218.62 59.3163 1220.57 59.3163ZM1141.45 21.1471H1132.43C1132.16 21.1471 1132.02 21.5295 1132.02 22.2943V94.5655C1132.02 95.3302 1132.16 95.7126 1132.43 95.7126H1134.79C1135.06 95.7126 1135.2 95.3302 1135.2 94.5655V70.0579H1141.45C1144.4 70.0579 1146.68 67.9026 1148.3 63.5921C1149.93 59.2815 1150.74 53.2676 1150.74 45.5504C1150.74 37.9026 1149.93 31.9235 1148.3 27.6129C1146.68 23.3024 1144.4 21.1471 1141.45 21.1471ZM1141.12 61.8192H1135.2V29.3858H1141.12C1145.38 29.3858 1147.52 34.774 1147.52 45.5504C1147.52 56.3963 1145.38 61.8192 1141.12 61.8192ZM1078.84 110H1081.13C1081.43 110 1081.58 109.583 1081.58 108.749V95.7126H1099.06V108.749C1099.06 109.583 1099.21 110 1099.51 110H1101.79C1102.09 110 1102.24 109.583 1102.24 108.749V88.6211C1102.24 87.8563 1102.09 87.4739 1101.79 87.4739H1099.58V22.2943C1099.58 21.5295 1099.43 21.1471 1099.13 21.1471H1085.02C1084.72 21.1471 1084.57 21.5642 1084.57 22.3986C1084.27 39.2236 1083.92 52.1205 1083.52 61.0892C1083.15 69.9884 1082.69 76.3847 1082.14 80.2781C1081.59 84.1715 1080.84 86.5701 1079.89 87.4739H1078.84C1078.54 87.4739 1078.39 87.8563 1078.39 88.6211V108.749C1078.39 109.583 1078.54 110 1078.84 110ZM1086.63 69.015C1087.1 60.3244 1087.45 47.0799 1087.68 29.2815H1096.36V87.4739H1084.42C1085.44 83.8586 1086.18 77.7057 1086.63 69.015ZM1009.91 95.7126H1007.59C1007.29 95.7126 1007.14 95.3302 1007.14 94.5655V22.2943C1007.14 21.5295 1007.29 21.1471 1007.59 21.1471H1022C1022.3 21.1471 1022.45 21.5295 1022.45 22.2943V28.1344C1022.45 28.8991 1022.3 29.2815 1022 29.2815H1010.36V94.5655C1010.36 95.3302 1010.21 95.7126 1009.91 95.7126ZM974.835 95.7126H946.608C946.334 95.7126 946.197 95.3302 946.197 94.5655V22.2943C946.197 21.5295 946.334 21.1471 946.608 21.1471H948.967C949.266 21.1471 949.416 21.5295 949.416 22.2943V87.4739H959.112V22.2943C959.112 21.5295 959.249 21.1471 959.524 21.1471H961.882C962.181 21.1471 962.331 21.5295 962.331 22.2943V87.4739H972.027V22.2943C972.027 21.5295 972.177 21.1471 972.476 21.1471H974.835C975.109 21.1471 975.246 21.5295 975.246 22.2943V94.5655C975.246 95.3302 975.109 95.7126 974.835 95.7126ZM920.361 95.7126H922.869C923.119 95.7126 923.281 95.3998 923.356 94.774L925.677 76.2109H936.907L939.191 94.774C939.266 95.3998 939.428 95.7126 939.678 95.7126H942.186C942.535 95.7126 942.648 95.2607 942.523 94.3569L933.239 22.0857C933.164 21.46 933.002 21.1471 932.752 21.1471H929.795C929.57 21.1471 929.42 21.46 929.346 22.0857L920.024 94.3569C919.949 95.2607 920.062 95.7126 920.361 95.7126ZM926.65 67.9722L931.217 31.0544H931.367L935.934 67.9722H926.65ZM916.923 40.7531C916.923 44.2294 916.636 47.3232 916.062 50.0347C915.513 52.6767 914.74 54.6581 913.741 55.9791C915.114 57.3696 916.175 59.6639 916.923 62.8621C917.672 65.9907 918.046 69.745 918.046 74.1251C918.046 80.9386 917.235 86.2572 915.613 90.0811C914.016 93.8355 911.757 95.7126 908.837 95.7126H899.816C899.516 95.7126 899.366 95.3302 899.366 94.5655V22.2943C899.366 21.5295 899.516 21.1471 899.816 21.1471H908.875C911.495 21.1471 913.492 22.92 914.864 26.4658C916.237 29.942 916.923 34.7045 916.923 40.7531ZM902.548 87.6825H908.875C910.771 87.6825 912.232 86.5701 913.255 84.3453C914.303 82.051 914.827 78.6442 914.827 74.1251C914.827 69.8841 914.34 66.5469 913.367 64.1135C912.419 61.6106 910.996 60.3592 909.099 60.3592H902.548V87.6825ZM913.704 40.7531C913.704 37.1378 913.292 34.3221 912.469 32.3059C911.645 30.2201 910.447 29.1772 908.875 29.1772H902.548V52.329H909.099C910.522 52.329 911.645 51.3557 912.469 49.409C913.292 47.4623 913.704 44.577 913.704 40.7531ZM868.027 27.4043C866.405 31.5063 865.594 37.2074 865.594 44.5075C865.594 50.6257 866.193 55.6315 867.391 59.5249C868.589 63.3488 870.248 65.7474 872.37 66.7207L864.883 94.2526C864.783 94.6697 864.758 95.0174 864.808 95.2955C864.858 95.5736 864.97 95.7126 865.145 95.7126H868.139C868.339 95.7126 868.514 95.4693 868.663 94.9826L875.851 67.555H881.092V94.5655C881.092 95.3302 881.242 95.7126 881.541 95.7126H883.862C884.137 95.7126 884.274 95.3302 884.274 94.5655V22.2943C884.274 21.5295 884.137 21.1471 883.862 21.1471H874.803C871.908 21.1471 869.649 23.2328 868.027 27.4043ZM881.092 59.3163H874.84C872.894 59.3163 871.409 58.0649 870.385 55.562C869.362 53.0591 868.851 49.409 868.851 44.6118C868.851 39.6755 869.362 35.9212 870.385 33.3487C871.409 30.7763 872.894 29.4901 874.84 29.4901H881.092V59.3163ZM846.612 72.7694C846.088 81.1819 845.277 87.1263 844.179 90.6025C843.081 94.0788 841.508 95.8864 839.462 96.0255C839.187 96.0255 839.05 95.6431 839.05 94.8783V88.9339C839.05 88.1692 839.187 87.7868 839.462 87.7868C840.66 87.5782 841.546 86.292 842.12 83.9281C842.719 81.4948 843.205 77.0799 843.58 70.6836C844.129 61.5063 844.528 45.3765 844.778 22.2943C844.778 21.5295 844.915 21.1471 845.189 21.1471H859.789C860.064 21.1471 860.201 21.5295 860.201 22.2943V94.5655C860.201 95.3302 860.064 95.7126 859.789 95.7126H857.431C857.156 95.7126 857.019 95.3302 857.019 94.5655V29.3858H847.81C847.635 47.6014 847.236 62.0625 846.612 72.7694ZM813.836 110H816.12C816.419 110 816.569 109.583 816.569 108.749V95.7126H834.051V108.749C834.051 109.583 834.201 110 834.501 110H836.784C837.084 110 837.233 109.583 837.233 108.749V88.6211C837.233 87.8563 837.084 87.4739 836.784 87.4739H834.576V22.2943C834.576 21.5295 834.426 21.1471 834.126 21.1471H820.013C819.714 21.1471 819.564 21.5642 819.564 22.3986C819.264 39.2236 818.915 52.1205 818.516 61.0892C818.141 69.9884 817.68 76.3847 817.131 80.2781C816.582 84.1715 815.833 86.5701 814.885 87.4739H813.836C813.537 87.4739 813.387 87.8563 813.387 88.6211V108.749C813.387 109.583 813.537 110 813.836 110ZM821.623 69.015C822.097 60.3244 822.446 47.0799 822.671 29.2815H831.356V87.4739H819.414C820.437 83.8586 821.174 77.7057 821.623 69.015ZM779.815 95.7126H777.494C777.194 95.7126 777.044 95.3302 777.044 94.5655V22.2943C777.044 21.5295 777.194 21.1471 777.494 21.1471H780.339C780.563 21.1471 780.725 21.4252 780.825 21.9814L786.628 51.3905C787.626 56.5353 788.624 62.0278 789.622 67.8679H789.735C790.783 61.7497 791.781 56.292 792.73 51.4947L798.569 21.9814C798.644 21.4252 798.807 21.1471 799.056 21.1471H801.901C802.176 21.1471 802.313 21.5295 802.313 22.2943V94.5655C802.313 95.3302 802.176 95.7126 801.901 95.7126H799.543C799.268 95.7126 799.131 95.3302 799.131 94.5655V63.0707C799.131 56.0486 799.206 46.628 799.356 34.8088L799.281 34.7045C798.657 38.1807 797.521 44.2989 795.874 53.0591L791.195 77.2537C791.07 77.8099 790.895 78.088 790.671 78.088H788.687C788.437 78.088 788.275 77.8099 788.2 77.2537L783.521 53.0591C782.073 45.5504 780.938 39.4322 780.114 34.7045L780.039 34.8088C780.164 49.548 780.226 58.9687 780.226 63.0707V94.5655C780.226 95.3302 780.089 95.7126 779.815 95.7126ZM767.644 95.7126H769.928C770.227 95.7126 770.377 95.3302 770.377 94.5655V22.2943C770.377 21.5295 770.227 21.1471 769.928 21.1471H767.307C767.083 21.1471 766.908 21.4252 766.783 21.9814L756.863 67.0336C755.166 75.0289 754.118 80.1043 753.718 82.2595L753.606 81.9467C753.756 73.3256 753.831 63.9745 753.831 53.8934V22.2943C753.831 21.5295 753.693 21.1471 753.419 21.1471H751.098C750.823 21.1471 750.686 21.5295 750.686 22.2943V94.5655C750.686 95.3302 750.823 95.7126 751.098 95.7126H753.718C753.968 95.7126 754.143 95.4693 754.242 94.9826L764.088 51.4947C765.336 45.8632 766.421 40.5793 767.345 35.6431L767.42 35.8516C767.27 46.8366 767.195 55.8748 767.195 62.9664V94.5655C767.195 95.3302 767.345 95.7126 767.644 95.7126ZM744.408 40.7531C744.408 44.2294 744.121 47.3232 743.547 50.0347C742.998 52.6767 742.224 54.6581 741.226 55.9791C742.598 57.3696 743.659 59.6639 744.408 62.8621C745.156 65.9907 745.531 69.745 745.531 74.1251C745.531 80.9386 744.72 86.2572 743.097 90.0811C741.5 93.8355 739.242 95.7126 736.322 95.7126H727.3C727 95.7126 726.851 95.3302 726.851 94.5655V22.2943C726.851 21.5295 727 21.1471 727.3 21.1471H736.359C738.98 21.1471 740.976 22.92 742.349 26.4658C743.721 29.942 744.408 34.7045 744.408 40.7531ZM730.033 87.6825H736.359C738.256 87.6825 739.716 86.5701 740.739 84.3453C741.787 82.051 742.311 78.6442 742.311 74.1251C742.311 69.8841 741.825 66.5469 740.851 64.1135C739.903 61.6106 738.48 60.3592 736.584 60.3592H730.033V87.6825ZM741.188 40.7531C741.188 37.1378 740.776 34.3221 739.953 32.3059C739.129 30.2201 737.931 29.1772 736.359 29.1772H730.033V52.329H736.584C738.006 52.329 739.129 51.3557 739.953 49.409C740.776 47.4623 741.188 44.577 741.188 40.7531ZM717.451 95.7126H719.734C720.034 95.7126 720.183 95.3302 720.183 94.5655V22.2943C720.183 21.5295 720.034 21.1471 719.734 21.1471H717.114C716.889 21.1471 716.714 21.4252 716.59 21.9814L706.669 67.0336C704.972 75.0289 703.924 80.1043 703.525 82.2595L703.412 81.9467C703.562 73.3256 703.637 63.9745 703.637 53.8934V22.2943C703.637 21.5295 703.5 21.1471 703.225 21.1471H700.904C700.63 21.1471 700.492 21.5295 700.492 22.2943V94.5655C700.492 95.3302 700.63 95.7126 700.904 95.7126H703.525C703.774 95.7126 703.949 95.4693 704.049 94.9826L713.894 51.4947C715.142 45.8632 716.228 40.5793 717.151 35.6431L717.226 35.8516C717.076 46.8366 717.001 55.8748 717.001 62.9664V94.5655C717.001 95.3302 717.151 95.7126 717.451 95.7126ZM680.237 72.7694C679.713 81.1819 678.902 87.1263 677.804 90.6025C676.706 94.0788 675.134 95.8864 673.087 96.0255C672.813 96.0255 672.675 95.6431 672.675 94.8783V88.9339C672.675 88.1692 672.813 87.7868 673.087 87.7868C674.285 87.5782 675.171 86.292 675.745 83.9281C676.344 81.4948 676.831 77.0799 677.205 70.6836C677.754 61.5063 678.153 45.3765 678.403 22.2943C678.403 21.5295 678.54 21.1471 678.815 21.1471H693.414C693.689 21.1471 693.826 21.5295 693.826 22.2943V94.5655C693.826 95.3302 693.689 95.7126 693.414 95.7126H691.056C690.781 95.7126 690.644 95.3302 690.644 94.5655V29.3858H681.435C681.26 47.6014 680.861 62.0625 680.237 72.7694ZM647.462 110H649.746C650.045 110 650.195 109.583 650.195 108.749V95.7126H667.677V108.749C667.677 109.583 667.827 110 668.127 110H670.41C670.71 110 670.859 109.583 670.859 108.749V88.6211C670.859 87.8563 670.71 87.4739 670.41 87.4739H668.201V22.2943C668.201 21.5295 668.052 21.1471 667.752 21.1471H653.639C653.34 21.1471 653.19 21.5642 653.19 22.3986C652.89 39.2236 652.541 52.1205 652.142 61.0892C651.767 69.9884 651.306 76.3847 650.757 80.2781C650.208 84.1715 649.459 86.5701 648.511 87.4739H647.462C647.163 87.4739 647.013 87.8563 647.013 88.6211V108.749C647.013 109.583 647.163 110 647.462 110ZM655.249 69.015C655.723 60.3244 656.072 47.0799 656.297 29.2815H664.982V87.4739H653.04C654.063 83.8586 654.8 77.7057 655.249 69.015ZM643.281 22.2943V94.5655C643.281 95.3302 643.144 95.7126 642.869 95.7126H640.548C640.249 95.7126 640.099 95.3302 640.099 94.5655V22.2943C640.099 21.5295 640.249 21.1471 640.548 21.1471H642.869C643.144 21.1471 643.281 21.5295 643.281 22.2943ZM617.554 95.7126H619.875C620.149 95.7126 620.286 95.3302 620.286 94.5655V68.1807L622.794 60.9849L632.603 94.9826C632.702 95.4693 632.877 95.7126 633.127 95.7126H636.159C636.334 95.7126 636.446 95.5736 636.496 95.2955C636.546 95.0174 636.521 94.6697 636.421 94.2526L624.928 54.7277L635.672 22.6071C635.797 22.2595 635.834 21.9466 635.784 21.6685C635.735 21.3209 635.61 21.1471 635.41 21.1471H632.415C632.216 21.1471 632.029 21.3904 631.854 21.8771L620.286 56.8134V22.2943C620.286 21.5295 620.149 21.1471 619.875 21.1471H617.554C617.254 21.1471 617.104 21.5295 617.104 22.2943V94.5655C617.104 95.3302 617.254 95.7126 617.554 95.7126ZM610.025 95.7126H581.799C581.525 95.7126 581.388 95.3302 581.388 94.5655V22.2943C581.388 21.5295 581.525 21.1471 581.799 21.1471H584.158C584.457 21.1471 584.607 21.5295 584.607 22.2943V87.4739H594.303V22.2943C594.303 21.5295 594.44 21.1471 594.714 21.1471H597.073C597.372 21.1471 597.522 21.5295 597.522 22.2943V87.4739H607.218V22.2943C607.218 21.5295 607.367 21.1471 607.667 21.1471H610.025C610.3 21.1471 610.437 21.5295 610.437 22.2943V94.5655C610.437 95.3302 610.3 95.7126 610.025 95.7126ZM563.579 95.7126H565.863C566.162 95.7126 566.312 95.3302 566.312 94.5655V22.2943C566.312 21.5295 566.162 21.1471 565.863 21.1471H563.242C563.018 21.1471 562.843 21.4252 562.718 21.9814L552.798 67.0336C551.101 75.0289 550.053 80.1043 549.653 82.2595L549.541 81.9467C549.691 73.3256 549.766 63.9745 549.766 53.8934V22.2943C549.766 21.5295 549.628 21.1471 549.354 21.1471H547.033C546.758 21.1471 546.621 21.5295 546.621 22.2943V94.5655C546.621 95.3302 546.758 95.7126 547.033 95.7126H549.653C549.903 95.7126 550.078 95.4693 550.178 94.9826L560.023 51.4947C561.271 45.8632 562.356 40.5793 563.28 35.6431L563.355 35.8516C563.205 46.8366 563.13 55.8748 563.13 62.9664V94.5655C563.13 95.3302 563.28 95.7126 563.579 95.7126ZM523.166 21.1471H542.408C542.707 21.1471 542.857 21.5295 542.857 22.2943V28.1344C542.857 28.8991 542.707 29.2815 542.408 29.2815H534.397V94.5655C534.397 95.3302 534.247 95.7126 533.947 95.7126H531.626C531.327 95.7126 531.177 95.3302 531.177 94.5655V29.2815H523.166C522.892 29.2815 522.754 28.8991 522.754 28.1344V22.2943C522.754 21.5295 522.892 21.1471 523.166 21.1471ZM507.485 95.7126H510.068C510.293 95.7126 510.467 95.3998 510.592 94.774L522.085 22.5028C522.134 22.1552 522.122 21.8423 522.047 21.5642C521.997 21.2861 521.897 21.1471 521.748 21.1471H519.165C518.915 21.1471 518.753 21.46 518.678 22.0857L512.464 62.7578L505.613 22.0857C505.513 21.46 505.339 21.1471 505.089 21.1471H502.469C502.119 21.1471 502.019 21.599 502.169 22.5028L510.854 72.0394L507.185 94.3569C507.036 95.2607 507.136 95.7126 507.485 95.7126ZM484.841 50.6604H491.28C494.399 50.6604 496.708 52.4681 498.205 56.0834C499.728 59.6292 500.489 65.2607 500.489 72.978C500.489 80.4171 499.678 86.0834 498.056 89.9768C496.433 93.8007 494.237 95.7126 491.467 95.7126H482.071C481.771 95.7126 481.622 95.3302 481.622 94.5655V22.2943C481.622 21.5295 481.771 21.1471 482.071 21.1471H498.056C498.355 21.1471 498.505 21.5295 498.505 22.2943V28.1344C498.505 28.8991 498.355 29.2815 498.056 29.2815H484.841V50.6604ZM484.841 87.5782H491.355C495.273 87.5782 497.232 82.7115 497.232 72.978C497.232 68.1112 496.758 64.5307 495.81 62.2364C494.886 59.942 493.389 58.7949 491.317 58.7949H484.841V87.5782ZM454.754 87.5782V61.9235H466.247C466.521 61.9235 466.658 61.5063 466.658 60.672V54.9362C466.658 54.1019 466.521 53.6848 466.247 53.6848H454.754V29.2815H467.108C467.382 29.2815 467.519 28.8991 467.519 28.1344V22.2943C467.519 21.5295 467.382 21.1471 467.108 21.1471H451.984C451.684 21.1471 451.535 21.5295 451.535 22.2943V94.5655C451.535 95.3302 451.684 95.7126 451.984 95.7126H467.632C467.906 95.7126 468.043 95.3302 468.043 94.5655V88.7254C468.043 87.9606 467.906 87.5782 467.632 87.5782H454.754ZM447.455 95.7126H444.422C444.198 95.7126 444.035 95.4693 443.936 94.9826L434.989 60.9849L432.63 68.3893V94.5655C432.63 95.3302 432.48 95.7126 432.181 95.7126H429.897C429.598 95.7126 429.448 95.3302 429.448 94.5655V68.3893L427.09 60.9849L418.143 94.9826C418.043 95.4693 417.868 95.7126 417.619 95.7126H414.624C414.449 95.7126 414.337 95.5736 414.287 95.2955C414.237 95.0174 414.262 94.6697 414.362 94.2526L425.068 54.4148L415.148 22.6071C414.898 21.6338 414.986 21.1471 415.41 21.1471H418.367C418.617 21.1471 418.792 21.3904 418.892 21.8771L429.448 57.2306V22.2943C429.448 21.5295 429.598 21.1471 429.897 21.1471H432.181C432.48 21.1471 432.63 21.5295 432.63 22.2943V57.2306C432.98 56.0486 436.499 44.2642 443.187 21.8771C443.287 21.3904 443.461 21.1471 443.711 21.1471H446.668C446.868 21.1471 446.98 21.2861 447.005 21.5642C447.055 21.8423 447.018 22.19 446.893 22.6071L437.01 54.4148L447.717 94.2526C447.816 94.6697 447.841 95.0174 447.791 95.2955C447.742 95.5736 447.629 95.7126 447.455 95.7126ZM364.154 95.7126H361.833C361.533 95.7126 361.383 95.3302 361.383 94.5655V22.2943C361.383 21.5295 361.533 21.1471 361.833 21.1471H364.678C364.902 21.1471 365.064 21.4252 365.164 21.9814L370.967 51.3905C371.965 56.5353 372.963 62.0278 373.962 67.8679H374.074C375.122 61.7497 376.12 56.292 377.069 51.4947L382.909 21.9814C382.983 21.4252 383.146 21.1471 383.395 21.1471H386.24C386.515 21.1471 386.652 21.5295 386.652 22.2943V94.5655C386.652 95.3302 386.515 95.7126 386.24 95.7126H383.882C383.607 95.7126 383.47 95.3302 383.47 94.5655V63.0707C383.47 56.0486 383.545 46.628 383.695 34.8088L383.62 34.7045C382.996 38.1807 381.86 44.2989 380.213 53.0591L375.534 77.2537C375.409 77.8099 375.234 78.088 375.01 78.088H373.026C372.776 78.088 372.614 77.8099 372.539 77.2537L367.86 53.0591C366.412 45.5504 365.277 39.4322 364.453 34.7045L364.378 34.8088C364.503 49.548 364.565 58.9687 364.565 63.0707V94.5655C364.565 95.3302 364.428 95.7126 364.154 95.7126ZM330.044 27.4043C328.421 31.5063 327.61 37.2074 327.61 44.5075C327.61 50.6257 328.209 55.6315 329.407 59.5249C330.605 63.3488 332.265 65.7474 334.386 66.7207L326.899 94.2526C326.799 94.6697 326.774 95.0174 326.824 95.2955C326.874 95.5736 326.986 95.7126 327.161 95.7126H330.156C330.355 95.7126 330.53 95.4693 330.68 94.9826L337.867 67.555H343.108V94.5655C343.108 95.3302 343.258 95.7126 343.558 95.7126H345.879C346.153 95.7126 346.29 95.3302 346.29 94.5655V22.2943C346.29 21.5295 346.153 21.1471 345.879 21.1471H336.819C333.924 21.1471 331.666 23.2328 330.044 27.4043ZM343.108 59.3163H336.857C334.91 59.3163 333.425 58.0649 332.402 55.562C331.379 53.0591 330.867 49.409 330.867 44.6118C330.867 39.6755 331.379 35.9212 332.402 33.3487C333.425 30.7763 334.91 29.4901 336.857 29.4901H343.108V59.3163ZM319.052 53.7891V22.2943C319.052 21.5295 319.201 21.1471 319.501 21.1471H321.822C322.096 21.1471 322.234 21.5295 322.234 22.2943V94.5655C322.234 95.3302 322.096 95.7126 321.822 95.7126H319.501C319.201 95.7126 319.052 95.3302 319.052 94.5655V61.9235H306.548V94.5655C306.548 95.3302 306.411 95.7126 306.137 95.7126H303.816C303.516 95.7126 303.366 95.3302 303.366 94.5655V22.2943C303.366 21.5295 303.516 21.1471 303.816 21.1471H306.137C306.411 21.1471 306.548 21.5295 306.548 22.2943V53.7891H319.052ZM293.534 22.2943V53.7891H281.031V22.2943C281.031 21.5295 280.894 21.1471 280.619 21.1471H278.298C277.999 21.1471 277.849 21.5295 277.849 22.2943V94.5655C277.849 95.3302 277.999 95.7126 278.298 95.7126H280.619C280.894 95.7126 281.031 95.3302 281.031 94.5655V61.9235H293.534V94.5655C293.534 95.3302 293.684 95.7126 293.984 95.7126H296.305C296.579 95.7126 296.716 95.3302 296.716 94.5655V22.2943C296.716 21.5295 296.579 21.1471 296.305 21.1471H293.984C293.684 21.1471 293.534 21.5295 293.534 22.2943ZM254.522 95.7126H252.014C251.714 95.7126 251.602 95.2607 251.677 94.3569L260.998 22.0857C261.073 21.46 261.223 21.1471 261.447 21.1471H264.405C264.654 21.1471 264.816 21.46 264.891 22.0857L274.175 94.3569C274.3 95.2607 274.188 95.7126 273.838 95.7126H271.33C271.08 95.7126 270.918 95.3998 270.843 94.774L268.56 76.2109H257.329L255.008 94.774C254.933 95.3998 254.771 95.7126 254.522 95.7126ZM262.87 31.0544L258.303 67.9722H267.587L263.019 31.0544H262.87ZM247.715 50.0347C248.289 47.3232 248.576 44.2294 248.576 40.7531C248.576 34.7045 247.889 29.942 246.517 26.4658C245.144 22.92 243.148 21.1471 240.527 21.1471H231.468C231.168 21.1471 231.019 21.5295 231.019 22.2943V94.5655C231.019 95.3302 231.168 95.7126 231.468 95.7126H240.49C243.41 95.7126 245.668 93.8355 247.265 90.0811C248.888 86.2572 249.699 80.9386 249.699 74.1251C249.699 69.745 249.324 65.9907 248.576 62.8621C247.827 59.6639 246.766 57.3696 245.394 55.9791C246.392 54.6581 247.166 52.6767 247.715 50.0347ZM240.527 87.6825H234.201V60.3592H240.752C242.648 60.3592 244.071 61.6106 245.019 64.1135C245.993 66.5469 246.479 69.8841 246.479 74.1251C246.479 78.6442 245.955 82.051 244.907 84.3453C243.884 86.5701 242.424 87.6825 240.527 87.6825ZM244.121 32.3059C244.945 34.3221 245.356 37.1378 245.356 40.7531C245.356 44.577 244.945 47.4623 244.121 49.409C243.297 51.3557 242.174 52.329 240.752 52.329H234.201V29.1772H240.527C242.099 29.1772 243.297 30.2201 244.121 32.3059ZM215.45 95.7126H212.867C212.517 95.7126 212.417 95.2607 212.567 94.3569L216.236 72.0394L207.551 22.5028C207.401 21.599 207.501 21.1471 207.85 21.1471H210.471C210.72 21.1471 210.895 21.46 210.995 22.0857L217.845 62.7578L224.06 22.0857C224.134 21.46 224.297 21.1471 224.546 21.1471H227.129C227.279 21.1471 227.379 21.2861 227.429 21.5642C227.504 21.8423 227.516 22.1552 227.466 22.5028L215.974 94.774C215.849 95.3998 215.674 95.7126 215.45 95.7126ZM188.037 95.7126H190.358C190.633 95.7126 190.77 95.3302 190.77 94.5655V68.1807L193.278 60.9849L203.086 94.9826C203.186 95.4693 203.361 95.7126 203.61 95.7126H206.643C206.817 95.7126 206.93 95.5736 206.979 95.2955C207.029 95.0174 207.004 94.6697 206.905 94.2526L195.412 54.7277L206.156 22.6071C206.281 22.2595 206.318 21.9466 206.268 21.6685C206.218 21.3209 206.094 21.1471 205.894 21.1471H202.899C202.699 21.1471 202.512 21.3904 202.338 21.8771L190.77 56.8134V22.2943C190.77 21.5295 190.633 21.1471 190.358 21.1471H188.037C187.738 21.1471 187.588 21.5295 187.588 22.2943V94.5655C187.588 95.3302 187.738 95.7126 188.037 95.7126ZM180.936 22.2943V94.5655C180.936 95.3302 180.799 95.7126 180.524 95.7126H178.203C177.904 95.7126 177.754 95.3302 177.754 94.5655V22.2943C177.754 21.5295 177.904 21.1471 178.203 21.1471H180.524C180.799 21.1471 180.936 21.5295 180.936 22.2943ZM155.066 90.6025C156.164 87.1263 156.975 81.1819 157.499 72.7694C158.123 62.0625 158.522 47.6014 158.697 29.3858H167.906V94.5655C167.906 95.3302 168.043 95.7126 168.318 95.7126H170.676C170.951 95.7126 171.088 95.3302 171.088 94.5655V22.2943C171.088 21.5295 170.951 21.1471 170.676 21.1471H156.076C155.802 21.1471 155.665 21.5295 155.665 22.2943C155.415 45.3765 155.016 61.5063 154.467 70.6836C154.092 77.0799 153.606 81.4948 153.007 83.9281C152.433 86.292 151.547 87.5782 150.349 87.7868C150.074 87.7868 149.937 88.1692 149.937 88.9339V94.8783C149.937 95.6431 150.074 96.0255 150.349 96.0255C152.395 95.8864 153.967 94.0788 155.066 90.6025ZM96.4969 95.7126H98.8179C99.0924 95.7126 99.2297 95.3302 99.2297 94.5655V63.0707C99.2297 58.9687 99.1673 49.548 99.0425 34.8088L99.1174 34.7045C99.9409 39.4322 101.076 45.5504 102.524 53.0591L107.203 77.2537C107.278 77.8099 107.44 78.088 107.69 78.088H109.674C109.899 78.088 110.073 77.8099 110.198 77.2537L114.878 53.0591C116.525 44.2989 117.66 38.1807 118.284 34.7045L118.359 34.8088C118.209 46.628 118.134 56.0486 118.134 63.0707V94.5655C118.134 95.3302 118.272 95.7126 118.546 95.7126H120.905C121.179 95.7126 121.316 95.3302 121.316 94.5655V22.2943C121.316 21.5295 121.179 21.1471 120.905 21.1471H118.059C117.81 21.1471 117.648 21.4252 117.573 21.9814L111.733 51.4947C110.785 56.292 109.786 61.7497 108.738 67.8679H108.626C107.628 62.0278 106.629 56.5353 105.631 51.3905L99.8286 21.9814C99.7288 21.4252 99.5666 21.1471 99.342 21.1471H96.4969C96.1974 21.1471 96.0477 21.5295 96.0477 22.2943V94.5655C96.0477 95.3302 96.1974 95.7126 96.4969 95.7126ZM72.7203 95.7126H70.2122C69.9127 95.7126 69.8004 95.2607 69.8752 94.3569L79.1966 22.0857C79.2714 21.46 79.4212 21.1471 79.6458 21.1471H82.6032C82.8527 21.1471 83.015 21.46 83.0898 22.0857L92.3737 94.3569C92.4985 95.2607 92.3862 95.7126 92.0368 95.7126H89.5287C89.2791 95.7126 89.1169 95.3998 89.042 94.774L86.7585 76.2109H75.5279L73.207 94.774C73.1321 95.3998 72.9699 95.7126 72.7203 95.7126ZM81.0683 31.0544L76.5013 67.9722H85.7851L81.2181 31.0544H81.0683Z" fill="#DCDDE0"/>
</g>
<defs>
<filter id="filter0_b_422_1648" x="-25" y="-25" width="1330" height="170" filterUnits="userSpaceOnUse" color-interpolation-filters="sRGB">
<feFlood flood-opacity="0" result="BackgroundImageFix"/>
<feGaussianBlur in="BackgroundImageFix" stdDeviation="12.5"/>
<feComposite in2="SourceAlpha" operator="in" result="effect1_backgroundBlur_422_1648"/>
<feBlend mode="normal" in="SourceGraphic" in2="effect1_backgroundBlur_422_1648" result="shape"/>
</filter>
</defs>
</svg>
