<svg preserveAspectRatio="none"  width="1920" height="120" viewBox="0 0 1920 120" fill="none" xmlns="http://www.w3.org/2000/svg">
<g filter="url(#filter0_b_202_7124)">
<path d="M0 20C0 8.95431 8.95431 0 20 0H1900C1911.05 0 1920 8.95431 1920 20V120H0V20Z" fill="white" fill-opacity="0.1"/>
<path fill-rule="evenodd" clip-rule="evenodd" d="M65.1853 96.8599C70.3818 96.8599 74.7507 94.2179 78.292 88.934C78.6385 88.5169 78.6962 87.9259 78.4652 87.1611L76.5599 82.3639C76.2904 81.5991 76.0017 81.4948 75.6938 82.051C72.6144 86.3616 69.0731 88.5169 65.0698 88.5169C61.8365 88.5169 59.3344 86.9525 57.5638 83.8239C55.7931 80.6953 54.9078 76.4195 54.9078 70.9966V45.8633C54.9078 40.4403 55.7739 36.1646 57.506 33.0359C59.2767 29.9073 61.7787 28.343 65.0121 28.343C68.5919 28.343 71.806 30.2202 74.6545 33.9745C75.0779 34.3917 75.4051 34.3221 75.636 33.7659L77.4837 28.8644C77.7146 28.2387 77.6762 27.7173 77.3682 27.3001C73.7499 22.4334 69.6505 20 65.0698 20C60.6817 20 57.0634 22.2596 54.2149 26.7787C51.405 31.2283 50 37.5898 50 45.8633V71.1008C50 79.3048 51.4242 85.6663 54.2727 90.1855C57.1211 94.6351 60.7587 96.8599 65.1853 96.8599ZM200.329 69.5365C200.329 77.9491 198.924 84.6235 196.114 89.5597C193.304 94.4265 189.455 96.8599 184.566 96.8599C179.678 96.8599 175.828 94.4265 173.018 89.5597C170.208 84.6235 168.803 77.9491 168.803 69.5365V47.5319C168.803 38.9803 170.208 32.2712 173.018 27.4044C175.828 22.4681 179.678 20 184.566 20C189.455 20 193.304 22.4681 196.114 27.4044C198.924 32.2712 200.329 38.9803 200.329 47.5319V69.5365ZM173.769 69.5365C173.769 75.4462 174.712 80.0696 176.598 83.4068C178.484 86.744 181.14 88.4126 184.566 88.4126C187.992 88.4126 190.629 86.744 192.476 83.4068C194.362 80.0696 195.306 75.4462 195.306 69.5365V47.5319C195.306 41.4137 194.362 36.686 192.476 33.3488C190.629 29.9421 187.992 28.2387 184.566 28.2387C181.14 28.2387 178.484 29.9421 176.598 33.3488C174.712 36.686 173.769 41.4137 173.769 47.5319V69.5365ZM605.36 89.5597C608.17 84.6235 609.575 77.9491 609.575 69.5365V47.5319C609.575 38.9803 608.17 32.2712 605.36 27.4044C602.551 22.4681 598.701 20 593.813 20C588.924 20 585.075 22.4681 582.265 27.4044C579.455 32.2712 578.05 38.9803 578.05 47.5319V69.5365C578.05 77.9491 579.455 84.6235 582.265 89.5597C585.075 94.4265 588.924 96.8599 593.813 96.8599C598.701 96.8599 602.551 94.4265 605.36 89.5597ZM585.845 83.4068C583.959 80.0696 583.016 75.4462 583.016 69.5365V47.5319C583.016 41.4137 583.959 36.686 585.845 33.3488C587.731 29.9421 590.387 28.2387 593.813 28.2387C597.239 28.2387 599.875 29.9421 601.723 33.3488C603.609 36.686 604.552 41.4137 604.552 47.5319V69.5365C604.552 75.4462 603.609 80.0696 601.723 83.4068C599.875 86.744 597.239 88.4126 593.813 88.4126C590.387 88.4126 587.731 86.744 585.845 83.4068ZM1513.22 89.5597C1516.03 84.6235 1517.44 77.9491 1517.44 69.5365V47.5319C1517.44 38.9803 1516.03 32.2712 1513.22 27.4044C1510.41 22.4681 1506.57 20 1501.68 20C1496.79 20 1492.94 22.4681 1490.13 27.4044C1487.32 32.2712 1485.91 38.9803 1485.91 47.5319V69.5365C1485.91 77.9491 1487.32 84.6235 1490.13 89.5597C1492.94 94.4265 1496.79 96.8599 1501.68 96.8599C1506.57 96.8599 1510.41 94.4265 1513.22 89.5597ZM1493.71 83.4068C1491.82 80.0696 1490.88 75.4462 1490.88 69.5365V47.5319C1490.88 41.4137 1491.82 36.686 1493.71 33.3488C1495.6 29.9421 1498.25 28.2387 1501.68 28.2387C1505.1 28.2387 1507.74 29.9421 1509.59 33.3488C1511.47 36.686 1512.42 41.4137 1512.42 47.5319V69.5365C1512.42 75.4462 1511.47 80.0696 1509.59 83.4068C1507.74 86.744 1505.1 88.4126 1501.68 88.4126C1498.25 88.4126 1495.6 86.744 1493.71 83.4068ZM1580.89 89.5597C1583.7 84.6235 1585.1 77.9491 1585.1 69.5365V47.5319C1585.1 38.9803 1583.7 32.2712 1580.89 27.4044C1578.08 22.4681 1574.23 20 1569.34 20C1564.45 20 1560.6 22.4681 1557.79 27.4044C1554.98 32.2712 1553.58 38.9803 1553.58 47.5319V69.5365C1553.58 77.9491 1554.98 84.6235 1557.79 89.5597C1560.6 94.4265 1564.45 96.8599 1569.34 96.8599C1574.23 96.8599 1578.08 94.4265 1580.89 89.5597ZM1561.37 83.4068C1559.49 80.0696 1558.54 75.4462 1558.54 69.5365V47.5319C1558.54 41.4137 1559.49 36.686 1561.37 33.3488C1563.26 29.9421 1565.91 28.2387 1569.34 28.2387C1572.77 28.2387 1575.4 29.9421 1577.25 33.3488C1579.14 36.686 1580.08 41.4137 1580.08 47.5319V69.5365C1580.08 75.4462 1579.14 80.0696 1577.25 83.4068C1575.4 86.744 1572.77 88.4126 1569.34 88.4126C1565.91 88.4126 1563.26 86.744 1561.37 83.4068ZM1631.61 40.5446C1631.57 44.0904 1631.05 47.2885 1630.05 50.1391C1629.05 52.9896 1627.6 55.0058 1625.72 56.1877C1627.95 57.6478 1629.66 59.9769 1630.86 63.175C1632.09 66.3731 1632.7 70.0232 1632.7 74.1252C1632.7 81.2863 1631.34 86.883 1628.6 90.9155C1625.91 94.8784 1622.39 96.8599 1618.04 96.8599C1612.11 96.8599 1607.32 93.8703 1603.66 87.8911C1603.35 87.3349 1603.32 86.744 1603.55 86.1182L1605.45 81.2167C1605.72 80.5215 1606.01 80.452 1606.32 81.0082C1609.44 86.014 1613.34 88.5169 1618.04 88.5169C1620.93 88.5169 1623.24 87.2306 1624.97 84.6582C1626.74 82.0163 1627.62 78.5053 1627.62 74.1252C1627.62 70.2318 1626.8 67.0684 1625.14 64.635C1623.52 62.2017 1621.06 60.985 1617.75 60.985H1612.15C1611.73 60.985 1611.51 60.6026 1611.51 59.8378V54.102C1611.51 53.3372 1611.73 52.9548 1612.15 52.9548H1617.92C1620.69 52.9548 1622.83 51.7729 1624.33 49.4091C1625.83 47.0452 1626.58 44.1599 1626.58 40.7532C1626.58 37.2074 1625.81 34.2526 1624.27 31.8888C1622.73 29.5249 1620.6 28.343 1617.87 28.343C1613.59 28.343 1610.03 30.6026 1607.18 35.1217C1606.8 35.6779 1606.47 35.6084 1606.2 34.9131L1604.35 30.2202C1604.12 29.5944 1604.14 29.0035 1604.41 28.4473C1607.92 22.8158 1612.4 20 1617.87 20C1621.98 20 1625.31 21.9815 1627.85 25.9444C1630.39 29.9073 1631.65 34.774 1631.61 40.5446ZM1710.05 69.5365C1710.05 77.9491 1708.65 84.6235 1705.84 89.5597C1703.03 94.4265 1699.18 96.8599 1694.29 96.8599C1689.4 96.8599 1685.55 94.4265 1682.74 89.5597C1679.93 84.6235 1678.53 77.9491 1678.53 69.5365V47.5319C1678.53 38.9803 1679.93 32.2712 1682.74 27.4044C1685.55 22.4681 1689.4 20 1694.29 20C1699.18 20 1703.03 22.4681 1705.84 27.4044C1708.65 32.2712 1710.05 38.9803 1710.05 47.5319V69.5365ZM1683.49 69.5365C1683.49 75.4462 1684.44 80.0696 1686.32 83.4068C1688.21 86.744 1690.86 88.4126 1694.29 88.4126C1697.72 88.4126 1700.35 86.744 1702.2 83.4068C1704.09 80.0696 1705.03 75.4462 1705.03 69.5365V47.5319C1705.03 41.4137 1704.09 36.686 1702.2 33.3488C1700.35 29.9421 1697.72 28.2387 1694.29 28.2387C1690.86 28.2387 1688.21 29.9421 1686.32 33.3488C1684.44 36.686 1683.49 41.4137 1683.49 47.5319V69.5365ZM1785.05 69.5365C1785.05 77.9491 1783.64 84.6235 1780.83 89.5597C1778.02 94.4265 1774.17 96.8599 1769.28 96.8599C1764.39 96.8599 1760.55 94.4265 1757.74 89.5597C1754.93 84.6235 1753.52 77.9491 1753.52 69.5365V47.5319C1753.52 38.9803 1754.93 32.2712 1757.74 27.4044C1760.55 22.4681 1764.39 20 1769.28 20C1774.17 20 1778.02 22.4681 1780.83 27.4044C1783.64 32.2712 1785.05 38.9803 1785.05 47.5319V69.5365ZM1758.49 69.5365C1758.49 75.4462 1759.43 80.0696 1761.32 83.4068C1763.2 86.744 1765.86 88.4126 1769.28 88.4126C1772.71 88.4126 1775.35 86.744 1777.19 83.4068C1779.08 80.0696 1780.02 75.4462 1780.02 69.5365V47.5319C1780.02 41.4137 1779.08 36.686 1777.19 33.3488C1775.35 29.9421 1772.71 28.2387 1769.28 28.2387C1765.86 28.2387 1763.2 29.9421 1761.32 33.3488C1759.43 36.686 1758.49 41.4137 1758.49 47.5319V69.5365ZM1819.62 50.0347C1820.51 47.3232 1820.95 44.2294 1820.95 40.7531C1820.95 34.7045 1819.89 29.942 1817.77 26.4658C1815.66 22.92 1812.58 21.1471 1808.54 21.1471H1794.56C1794.1 21.1471 1793.87 21.5295 1793.87 22.2943V94.5655C1793.87 95.3302 1794.1 95.7126 1794.56 95.7126H1808.48C1812.98 95.7126 1816.47 93.8355 1818.93 90.0811C1821.43 86.2572 1822.68 80.9386 1822.68 74.1251C1822.68 69.745 1822.1 65.9907 1820.95 62.8621C1819.79 59.6639 1818.16 57.3696 1816.04 55.9791C1817.58 54.6581 1818.77 52.6767 1819.62 50.0347ZM1808.54 87.6825H1798.78V60.3592H1808.88C1811.81 60.3592 1814 61.6106 1815.46 64.1135C1816.97 66.5469 1817.72 69.8841 1817.72 74.1251C1817.72 78.6442 1816.91 82.051 1815.29 84.3453C1813.71 86.5701 1811.46 87.6825 1808.54 87.6825ZM1814.08 32.3059C1815.35 34.3221 1815.98 37.1378 1815.98 40.7531C1815.98 44.577 1815.35 47.4623 1814.08 49.409C1812.81 51.3557 1811.08 52.329 1808.88 52.329H1798.78V29.1772H1808.54C1810.96 29.1772 1812.81 30.2201 1814.08 32.3059ZM1836.18 22.5028L1832.37 43.256C1832.25 43.8818 1832 44.1946 1831.61 44.1946H1828.79C1828.25 44.1946 1828.05 43.7427 1828.21 42.8389L1831.21 22.19C1831.33 21.4947 1831.58 21.1471 1831.96 21.1471H1835.6C1836.14 21.1471 1836.33 21.599 1836.18 22.5028ZM1841.19 44.5075C1841.19 37.2074 1842.44 31.5063 1844.94 27.4043C1847.44 23.2328 1850.93 21.1471 1855.39 21.1471H1869.36C1869.79 21.1471 1870 21.5295 1870 22.2943V94.5655C1870 95.3302 1869.79 95.7126 1869.36 95.7126H1865.78C1865.32 95.7126 1865.09 95.3302 1865.09 94.5655V67.555H1857.01L1845.92 94.9826C1845.69 95.4693 1845.42 95.7126 1845.11 95.7126H1840.5C1840.23 95.7126 1840.05 95.5736 1839.98 95.2955C1839.9 95.0174 1839.94 94.6697 1840.09 94.2526L1851.64 66.7207C1848.37 65.7474 1845.81 63.3488 1843.96 59.5249C1842.11 55.6315 1841.19 50.6257 1841.19 44.5075ZM1855.45 59.3163H1865.09V29.4901H1855.45C1852.45 29.4901 1850.16 30.7763 1848.58 33.3487C1847 35.9212 1846.21 39.6755 1846.21 44.6118C1846.21 49.409 1847 53.0591 1848.58 55.562C1850.16 58.0649 1852.45 59.3163 1855.45 59.3163ZM1733.43 21.1471H1719.51C1719.09 21.1471 1718.88 21.5295 1718.88 22.2943V94.5655C1718.88 95.3302 1719.09 95.7126 1719.51 95.7126H1723.15C1723.57 95.7126 1723.79 95.3302 1723.79 94.5655V70.0579H1733.43C1737.97 70.0579 1741.49 67.9026 1743.99 63.5921C1746.5 59.2815 1747.75 53.2676 1747.75 45.5504C1747.75 37.9026 1746.5 31.9235 1743.99 27.6129C1741.49 23.3024 1737.97 21.1471 1733.43 21.1471ZM1732.91 61.8192H1723.79V29.3858H1732.91C1739.49 29.3858 1742.78 34.774 1742.78 45.5504C1742.78 56.3963 1739.49 61.8192 1732.91 61.8192ZM1636.86 110H1640.38C1640.84 110 1641.07 109.583 1641.07 108.749V95.7126H1668.04V108.749C1668.04 109.583 1668.27 110 1668.73 110H1672.25C1672.72 110 1672.95 109.583 1672.95 108.749V88.6211C1672.95 87.8563 1672.72 87.4739 1672.25 87.4739H1668.85V22.2943C1668.85 21.5295 1668.62 21.1471 1668.15 21.1471H1646.39C1645.92 21.1471 1645.69 21.5642 1645.69 22.3986C1645.23 39.2236 1644.69 52.1205 1644.08 61.0892C1643.5 69.9884 1642.79 76.3847 1641.94 80.2781C1641.09 84.1715 1639.94 86.5701 1638.48 87.4739H1636.86C1636.4 87.4739 1636.17 87.8563 1636.17 88.6211V108.749C1636.17 109.583 1636.4 110 1636.86 110ZM1648.87 69.015C1649.6 60.3244 1650.14 47.0799 1650.49 29.2815H1663.88V87.4739H1645.46C1647.04 83.8586 1648.18 77.7057 1648.87 69.015ZM1530.54 95.7126H1526.96C1526.5 95.7126 1526.26 95.3302 1526.26 94.5655V22.2943C1526.26 21.5295 1526.5 21.1471 1526.96 21.1471H1549.19C1549.65 21.1471 1549.88 21.5295 1549.88 22.2943V28.1344C1549.88 28.8991 1549.65 29.2815 1549.19 29.2815H1531.23V94.5655C1531.23 95.3302 1531 95.7126 1530.54 95.7126ZM1476.44 95.7126H1432.9C1432.48 95.7126 1432.27 95.3302 1432.27 94.5655V22.2943C1432.27 21.5295 1432.48 21.1471 1432.9 21.1471H1436.54C1437 21.1471 1437.23 21.5295 1437.23 22.2943V87.4739H1452.19V22.2943C1452.19 21.5295 1452.4 21.1471 1452.82 21.1471H1456.46C1456.92 21.1471 1457.15 21.5295 1457.15 22.2943V87.4739H1472.11V22.2943C1472.11 21.5295 1472.34 21.1471 1472.8 21.1471H1476.44C1476.86 21.1471 1477.07 21.5295 1477.07 22.2943V94.5655C1477.07 95.3302 1476.86 95.7126 1476.44 95.7126ZM1392.42 95.7126H1396.29C1396.67 95.7126 1396.93 95.3998 1397.04 94.774L1400.62 76.2109H1417.94L1421.46 94.774C1421.58 95.3998 1421.83 95.7126 1422.21 95.7126H1426.08C1426.62 95.7126 1426.8 95.2607 1426.6 94.3569L1412.28 22.0857C1412.17 21.46 1411.92 21.1471 1411.53 21.1471H1406.97C1406.63 21.1471 1406.39 21.46 1406.28 22.0857L1391.9 94.3569C1391.79 95.2607 1391.96 95.7126 1392.42 95.7126ZM1402.12 67.9722L1409.17 31.0544H1409.4L1416.44 67.9722H1402.12ZM1387.12 40.7531C1387.12 44.2294 1386.68 47.3232 1385.79 50.0347C1384.94 52.6767 1383.75 54.6581 1382.21 55.9791C1384.33 57.3696 1385.96 59.6639 1387.12 62.8621C1388.27 65.9907 1388.85 69.745 1388.85 74.1251C1388.85 80.9386 1387.6 86.2572 1385.1 90.0811C1382.63 93.8355 1379.15 95.7126 1374.65 95.7126H1360.73C1360.27 95.7126 1360.04 95.3302 1360.04 94.5655V22.2943C1360.04 21.5295 1360.27 21.1471 1360.73 21.1471H1374.71C1378.75 21.1471 1381.83 22.92 1383.94 26.4658C1386.06 29.942 1387.12 34.7045 1387.12 40.7531ZM1364.95 87.6825H1374.71C1377.63 87.6825 1379.88 86.5701 1381.46 84.3453C1383.08 82.051 1383.89 78.6442 1383.89 74.1251C1383.89 69.8841 1383.14 66.5469 1381.63 64.1135C1380.17 61.6106 1377.98 60.3592 1375.05 60.3592H1364.95V87.6825ZM1382.15 40.7531C1382.15 37.1378 1381.52 34.3221 1380.25 32.3059C1378.98 30.2201 1377.13 29.1772 1374.71 29.1772H1364.95V52.329H1375.05C1377.25 52.329 1378.98 51.3557 1380.25 49.409C1381.52 47.4623 1382.15 44.577 1382.15 40.7531ZM1311.7 27.4043C1309.2 31.5063 1307.95 37.2074 1307.95 44.5075C1307.95 50.6257 1308.87 55.6315 1310.72 59.5249C1312.57 63.3488 1315.13 65.7474 1318.4 66.7207L1306.85 94.2526C1306.7 94.6697 1306.66 95.0174 1306.74 95.2955C1306.81 95.5736 1306.99 95.7126 1307.26 95.7126H1311.88C1312.18 95.7126 1312.45 95.4693 1312.68 94.9826L1323.77 67.555H1331.85V94.5655C1331.85 95.3302 1332.08 95.7126 1332.55 95.7126H1336.13C1336.55 95.7126 1336.76 95.3302 1336.76 94.5655V22.2943C1336.76 21.5295 1336.55 21.1471 1336.13 21.1471H1322.15C1317.69 21.1471 1314.2 23.2328 1311.7 27.4043ZM1331.85 59.3163H1322.21C1319.21 59.3163 1316.92 58.0649 1315.34 55.562C1313.76 53.0591 1312.97 49.409 1312.97 44.6118C1312.97 39.6755 1313.76 35.9212 1315.34 33.3487C1316.92 30.7763 1319.21 29.4901 1322.21 29.4901H1331.85V59.3163ZM1278.67 72.7694C1277.86 81.1819 1276.61 87.1263 1274.92 90.6025C1273.23 94.0788 1270.8 95.8864 1267.64 96.0255C1267.22 96.0255 1267.01 95.6431 1267.01 94.8783V88.9339C1267.01 88.1692 1267.22 87.7868 1267.64 87.7868C1269.49 87.5782 1270.86 86.292 1271.74 83.9281C1272.67 81.4948 1273.42 77.0799 1274 70.6836C1274.84 61.5063 1275.46 45.3765 1275.84 22.2943C1275.84 21.5295 1276.06 21.1471 1276.48 21.1471H1299C1299.42 21.1471 1299.63 21.5295 1299.63 22.2943V94.5655C1299.63 95.3302 1299.42 95.7126 1299 95.7126H1295.36C1294.94 95.7126 1294.72 95.3302 1294.72 94.5655V29.3858H1280.52C1280.25 47.6014 1279.63 62.0625 1278.67 72.7694ZM1228.12 110H1231.64C1232.1 110 1232.34 109.583 1232.34 108.749V95.7126H1259.3V108.749C1259.3 109.583 1259.53 110 1259.99 110H1263.51C1263.98 110 1264.21 109.583 1264.21 108.749V88.6211C1264.21 87.8563 1263.98 87.4739 1263.51 87.4739H1260.11V22.2943C1260.11 21.5295 1259.88 21.1471 1259.42 21.1471H1237.65C1237.19 21.1471 1236.95 21.5642 1236.95 22.3986C1236.49 39.2236 1235.95 52.1205 1235.34 61.0892C1234.76 69.9884 1234.05 76.3847 1233.2 80.2781C1232.35 84.1715 1231.2 86.5701 1229.74 87.4739H1228.12C1227.66 87.4739 1227.43 87.8563 1227.43 88.6211V108.749C1227.43 109.583 1227.66 110 1228.12 110ZM1240.13 69.015C1240.86 60.3244 1241.4 47.0799 1241.75 29.2815H1255.14V87.4739H1236.72C1238.3 83.8586 1239.44 77.7057 1240.13 69.015ZM1175.65 95.7126H1172.07C1171.6 95.7126 1171.37 95.3302 1171.37 94.5655V22.2943C1171.37 21.5295 1171.6 21.1471 1172.07 21.1471H1176.45C1176.8 21.1471 1177.05 21.4252 1177.2 21.9814L1186.15 51.3905C1187.69 56.5353 1189.23 62.0278 1190.77 67.8679H1190.95C1192.56 61.7497 1194.1 56.292 1195.57 51.4947L1204.57 21.9814C1204.69 21.4252 1204.94 21.1471 1205.32 21.1471H1209.71C1210.14 21.1471 1210.35 21.5295 1210.35 22.2943V94.5655C1210.35 95.3302 1210.14 95.7126 1209.71 95.7126H1206.07C1205.65 95.7126 1205.44 95.3302 1205.44 94.5655V63.0707C1205.44 56.0486 1205.55 46.628 1205.79 34.8088L1205.67 34.7045C1204.71 38.1807 1202.96 44.2989 1200.42 53.0591L1193.2 77.2537C1193.01 77.8099 1192.74 78.088 1192.39 78.088H1189.33C1188.95 78.088 1188.7 77.8099 1188.58 77.2537L1181.36 53.0591C1179.13 45.5504 1177.38 39.4322 1176.11 34.7045L1175.99 34.8088C1176.18 49.548 1176.28 58.9687 1176.28 63.0707V94.5655C1176.28 95.3302 1176.07 95.7126 1175.65 95.7126ZM1156.88 95.7126H1160.4C1160.86 95.7126 1161.09 95.3302 1161.09 94.5655V22.2943C1161.09 21.5295 1160.86 21.1471 1160.4 21.1471H1156.36C1156.01 21.1471 1155.74 21.4252 1155.55 21.9814L1140.25 67.0336C1137.63 75.0289 1136.01 80.1043 1135.4 82.2595L1135.22 81.9467C1135.45 73.3256 1135.57 63.9745 1135.57 53.8934V22.2943C1135.57 21.5295 1135.36 21.1471 1134.93 21.1471H1131.35C1130.93 21.1471 1130.72 21.5295 1130.72 22.2943V94.5655C1130.72 95.3302 1130.93 95.7126 1131.35 95.7126H1135.4C1135.78 95.7126 1136.05 95.4693 1136.2 94.9826L1151.39 51.4947C1153.31 45.8632 1154.99 40.5793 1156.41 35.6431L1156.53 35.8516C1156.3 46.8366 1156.18 55.8748 1156.18 62.9664V94.5655C1156.18 95.3302 1156.41 95.7126 1156.88 95.7126ZM1121.04 40.7531C1121.04 44.2294 1120.59 47.3232 1119.71 50.0347C1118.86 52.6767 1117.67 54.6581 1116.13 55.9791C1118.24 57.3696 1119.88 59.6639 1121.04 62.8621C1122.19 65.9907 1122.77 69.745 1122.77 74.1251C1122.77 80.9386 1121.52 86.2572 1119.01 90.0811C1116.55 93.8355 1113.07 95.7126 1108.56 95.7126H1094.65C1094.19 95.7126 1093.96 95.3302 1093.96 94.5655V22.2943C1093.96 21.5295 1094.19 21.1471 1094.65 21.1471H1108.62C1112.66 21.1471 1115.74 22.92 1117.86 26.4658C1119.98 29.942 1121.04 34.7045 1121.04 40.7531ZM1098.86 87.6825H1108.62C1111.55 87.6825 1113.8 86.5701 1115.38 84.3453C1116.99 82.051 1117.8 78.6442 1117.8 74.1251C1117.8 69.8841 1117.05 66.5469 1115.55 64.1135C1114.09 61.6106 1111.89 60.3592 1108.97 60.3592H1098.86V87.6825ZM1116.07 40.7531C1116.07 37.1378 1115.43 34.3221 1114.16 32.3059C1112.89 30.2201 1111.05 29.1772 1108.62 29.1772H1098.86V52.329H1108.97C1111.16 52.329 1112.89 51.3557 1114.16 49.409C1115.43 47.4623 1116.07 44.577 1116.07 40.7531ZM1079.46 95.7126H1082.98C1083.44 95.7126 1083.67 95.3302 1083.67 94.5655V22.2943C1083.67 21.5295 1083.44 21.1471 1082.98 21.1471H1078.94C1078.59 21.1471 1078.32 21.4252 1078.13 21.9814L1062.83 67.0336C1060.21 75.0289 1058.59 80.1043 1057.98 82.2595L1057.81 81.9467C1058.04 73.3256 1058.15 63.9745 1058.15 53.8934V22.2943C1058.15 21.5295 1057.94 21.1471 1057.52 21.1471H1053.94C1053.51 21.1471 1053.3 21.5295 1053.3 22.2943V94.5655C1053.3 95.3302 1053.51 95.7126 1053.94 95.7126H1057.98C1058.36 95.7126 1058.63 95.4693 1058.79 94.9826L1073.97 51.4947C1075.9 45.8632 1077.57 40.5793 1079 35.6431L1079.11 35.8516C1078.88 46.8366 1078.76 55.8748 1078.76 62.9664V94.5655C1078.76 95.3302 1079 95.7126 1079.46 95.7126ZM1022.06 72.7694C1021.25 81.1819 1020 87.1263 1018.31 90.6025C1016.61 94.0788 1014.19 95.8864 1011.03 96.0255C1010.61 96.0255 1010.4 95.6431 1010.4 94.8783V88.9339C1010.4 88.1692 1010.61 87.7868 1011.03 87.7868C1012.88 87.5782 1014.25 86.292 1015.13 83.9281C1016.06 81.4948 1016.81 77.0799 1017.38 70.6836C1018.23 61.5063 1018.85 45.3765 1019.23 22.2943C1019.23 21.5295 1019.44 21.1471 1019.87 21.1471H1042.38C1042.81 21.1471 1043.02 21.5295 1043.02 22.2943V94.5655C1043.02 95.3302 1042.81 95.7126 1042.38 95.7126H1038.75C1038.32 95.7126 1038.11 95.3302 1038.11 94.5655V29.3858H1023.91C1023.64 47.6014 1023.02 62.0625 1022.06 72.7694ZM971.51 110H975.032C975.494 110 975.725 109.583 975.725 108.749V95.7126H1002.69V108.749C1002.69 109.583 1002.92 110 1003.38 110H1006.9C1007.37 110 1007.6 109.583 1007.6 108.749V88.6211C1007.6 87.8563 1007.37 87.4739 1006.9 87.4739H1003.5V22.2943C1003.5 21.5295 1003.27 21.1471 1002.8 21.1471H981.037C980.575 21.1471 980.344 21.5642 980.344 22.3986C979.882 39.2236 979.343 52.1205 978.727 61.0892C978.15 69.9884 977.438 76.3847 976.591 80.2781C975.744 84.1715 974.589 86.5701 973.126 87.4739H971.51C971.048 87.4739 970.817 87.8563 970.817 88.6211V108.749C970.817 109.583 971.048 110 971.51 110ZM983.519 69.015C984.251 60.3244 984.79 47.0799 985.136 29.2815H998.531V87.4739H980.113C981.691 83.8586 982.826 77.7057 983.519 69.015ZM965.061 22.2943V94.5655C965.061 95.3302 964.849 95.7126 964.426 95.7126H960.846C960.384 95.7126 960.153 95.3302 960.153 94.5655V22.2943C960.153 21.5295 960.384 21.1471 960.846 21.1471H964.426C964.849 21.1471 965.061 21.5295 965.061 22.2943ZM925.379 95.7126H928.959C929.382 95.7126 929.594 95.3302 929.594 94.5655V68.1807L933.463 60.9849L948.59 94.9826C948.744 95.4693 949.014 95.7126 949.399 95.7126H954.075C954.345 95.7126 954.518 95.5736 954.595 95.2955C954.672 95.0174 954.634 94.6697 954.48 94.2526L936.754 54.7277L953.325 22.6071C953.517 22.2595 953.575 21.9466 953.498 21.6685C953.421 21.3209 953.229 21.1471 952.921 21.1471H948.302C947.994 21.1471 947.705 21.3904 947.435 21.8771L929.594 56.8134V22.2943C929.594 21.5295 929.382 21.1471 928.959 21.1471H925.379C924.917 21.1471 924.686 21.5295 924.686 22.2943V94.5655C924.686 95.3302 924.917 95.7126 925.379 95.7126ZM913.768 95.7126H870.233C869.809 95.7126 869.598 95.3302 869.598 94.5655V22.2943C869.598 21.5295 869.809 21.1471 870.233 21.1471H873.87C874.332 21.1471 874.563 21.5295 874.563 22.2943V87.4739H889.518V22.2943C889.518 21.5295 889.729 21.1471 890.153 21.1471H893.79C894.252 21.1471 894.483 21.5295 894.483 22.2943V87.4739H909.438V22.2943C909.438 21.5295 909.668 21.1471 910.13 21.1471H913.768C914.191 21.1471 914.403 21.5295 914.403 22.2943V94.5655C914.403 95.3302 914.191 95.7126 913.768 95.7126ZM842.131 95.7126H845.653C846.115 95.7126 846.346 95.3302 846.346 94.5655V22.2943C846.346 21.5295 846.115 21.1471 845.653 21.1471H841.611C841.265 21.1471 840.995 21.4252 840.803 21.9814L825.502 67.0336C822.884 75.0289 821.268 80.1043 820.652 82.2595L820.479 81.9467C820.71 73.3256 820.825 63.9745 820.825 53.8934V22.2943C820.825 21.5295 820.613 21.1471 820.19 21.1471H816.61C816.187 21.1471 815.975 21.5295 815.975 22.2943V94.5655C815.975 95.3302 816.187 95.7126 816.61 95.7126H820.652C821.037 95.7126 821.306 95.4693 821.46 94.9826L836.646 51.4947C838.57 45.8632 840.245 40.5793 841.669 35.6431L841.784 35.8516C841.553 46.8366 841.438 55.8748 841.438 62.9664V94.5655C841.438 95.3302 841.669 95.7126 842.131 95.7126ZM779.798 21.1471H809.476C809.938 21.1471 810.169 21.5295 810.169 22.2943V28.1344C810.169 28.8991 809.938 29.2815 809.476 29.2815H797.12V94.5655C797.12 95.3302 796.889 95.7126 796.427 95.7126H792.847C792.385 95.7126 792.154 95.3302 792.154 94.5655V29.2815H779.798C779.375 29.2815 779.163 28.8991 779.163 28.1344V22.2943C779.163 21.5295 779.375 21.1471 779.798 21.1471ZM755.612 95.7126H759.596C759.943 95.7126 760.212 95.3998 760.405 94.774L778.13 22.5028C778.207 22.1552 778.188 21.8423 778.073 21.5642C777.996 21.2861 777.842 21.1471 777.611 21.1471H773.627C773.242 21.1471 772.992 21.46 772.876 22.0857L763.292 62.7578L752.725 22.0857C752.571 21.46 752.302 21.1471 751.917 21.1471H747.875C747.336 21.1471 747.182 21.599 747.413 22.5028L760.809 72.0394L755.15 94.3569C754.919 95.2607 755.073 95.7126 755.612 95.7126ZM720.687 50.6604H730.618C735.43 50.6604 738.99 52.4681 741.3 56.0834C743.648 59.6292 744.822 65.2607 744.822 72.978C744.822 80.4171 743.571 86.0834 741.069 89.9768C738.567 93.8007 735.179 95.7126 730.907 95.7126H716.414C715.952 95.7126 715.721 95.3302 715.721 94.5655V22.2943C715.721 21.5295 715.952 21.1471 716.414 21.1471H741.069C741.531 21.1471 741.762 21.5295 741.762 22.2943V28.1344C741.762 28.8991 741.531 29.2815 741.069 29.2815H720.687V50.6604ZM720.687 87.5782H730.734C736.777 87.5782 739.799 82.7115 739.799 72.978C739.799 68.1112 739.067 64.5307 737.604 62.2364C736.18 59.942 733.871 58.7949 730.676 58.7949H720.687V87.5782ZM674.282 87.5782V61.9235H692.007C692.431 61.9235 692.643 61.5063 692.643 60.672V54.9362C692.643 54.1019 692.431 53.6848 692.007 53.6848H674.282V29.2815H693.335C693.759 29.2815 693.971 28.8991 693.971 28.1344V22.2943C693.971 21.5295 693.759 21.1471 693.335 21.1471H670.009C669.547 21.1471 669.316 21.5295 669.316 22.2943V94.5655C669.316 95.3302 669.547 95.7126 670.009 95.7126H694.144C694.567 95.7126 694.779 95.3302 694.779 94.5655V88.7254C694.779 87.9606 694.567 87.5782 694.144 87.5782H674.282ZM663.023 95.7126H658.346C658 95.7126 657.75 95.4693 657.596 94.9826L643.796 60.9849L640.159 68.3893V94.5655C640.159 95.3302 639.927 95.7126 639.466 95.7126H635.944C635.482 95.7126 635.251 95.3302 635.251 94.5655V68.3893L631.613 60.9849L617.814 94.9826C617.66 95.4693 617.39 95.7126 617.005 95.7126H612.386C612.117 95.7126 611.943 95.5736 611.867 95.2955C611.789 95.0174 611.828 94.6697 611.982 94.2526L628.495 54.4148L613.194 22.6071C612.81 21.6338 612.944 21.1471 613.599 21.1471H618.16C618.545 21.1471 618.814 21.3904 618.968 21.8771L635.251 57.2306V22.2943C635.251 21.5295 635.482 21.1471 635.944 21.1471H639.466C639.927 21.1471 640.159 21.5295 640.159 22.2943V57.2306C640.697 56.0486 646.125 44.2642 656.441 21.8771C656.595 21.3904 656.864 21.1471 657.249 21.1471H661.811C662.119 21.1471 662.292 21.2861 662.33 21.5642C662.407 21.8423 662.349 22.19 662.157 22.6071L646.914 54.4148L663.427 94.2526C663.581 94.6697 663.62 95.0174 663.543 95.2955C663.466 95.5736 663.292 95.7126 663.023 95.7126ZM534.542 95.7126H530.962C530.5 95.7126 530.269 95.3302 530.269 94.5655V22.2943C530.269 21.5295 530.5 21.1471 530.962 21.1471H535.35C535.697 21.1471 535.947 21.4252 536.101 21.9814L545.05 51.3905C546.59 56.5353 548.13 62.0278 549.669 67.8679H549.843C551.459 61.7497 552.999 56.292 554.462 51.4947L563.469 21.9814C563.585 21.4252 563.835 21.1471 564.22 21.1471H568.608C569.031 21.1471 569.243 21.5295 569.243 22.2943V94.5655C569.243 95.3302 569.031 95.7126 568.608 95.7126H564.97C564.547 95.7126 564.335 95.3302 564.335 94.5655V63.0707C564.335 56.0486 564.451 46.628 564.682 34.8088L564.566 34.7045C563.604 38.1807 561.852 44.2989 559.312 53.0591L552.095 77.2537C551.902 77.8099 551.633 78.088 551.286 78.088H548.226C547.841 78.088 547.591 77.8099 547.475 77.2537L540.258 53.0591C538.025 45.5504 536.274 39.4322 535.004 34.7045L534.888 34.8088C535.081 49.548 535.177 58.9687 535.177 63.0707V94.5655C535.177 95.3302 534.965 95.7126 534.542 95.7126ZM481.932 27.4043C479.43 31.5063 478.178 37.2074 478.178 44.5075C478.178 50.6257 479.102 55.6315 480.95 59.5249C482.798 63.3488 485.357 65.7474 488.629 66.7207L477.081 94.2526C476.927 94.6697 476.889 95.0174 476.966 95.2955C477.043 95.5736 477.216 95.7126 477.486 95.7126H482.105C482.413 95.7126 482.682 95.4693 482.913 94.9826L493.999 67.555H502.082V94.5655C502.082 95.3302 502.313 95.7126 502.775 95.7126H506.355C506.778 95.7126 506.99 95.3302 506.99 94.5655V22.2943C506.99 21.5295 506.778 21.1471 506.355 21.1471H492.382C487.917 21.1471 484.434 23.2328 481.932 27.4043ZM502.082 59.3163H492.44C489.438 59.3163 487.147 58.0649 485.569 55.562C483.991 53.0591 483.202 49.409 483.202 44.6118C483.202 39.6755 483.991 35.9212 485.569 33.3487C487.147 30.7763 489.438 29.4901 492.44 29.4901H502.082V59.3163ZM464.978 53.7891V22.2943C464.978 21.5295 465.209 21.1471 465.671 21.1471H469.251C469.674 21.1471 469.886 21.5295 469.886 22.2943V94.5655C469.886 95.3302 469.674 95.7126 469.251 95.7126H465.671C465.209 95.7126 464.978 95.3302 464.978 94.5655V61.9235H445.693V94.5655C445.693 95.3302 445.481 95.7126 445.058 95.7126H441.478C441.016 95.7126 440.785 95.3302 440.785 94.5655V22.2943C440.785 21.5295 441.016 21.1471 441.478 21.1471H445.058C445.481 21.1471 445.693 21.5295 445.693 22.2943V53.7891H464.978ZM425.621 22.2943V53.7891H406.336V22.2943C406.336 21.5295 406.124 21.1471 405.701 21.1471H402.121C401.659 21.1471 401.428 21.5295 401.428 22.2943V94.5655C401.428 95.3302 401.659 95.7126 402.121 95.7126H405.701C406.124 95.7126 406.336 95.3302 406.336 94.5655V61.9235H425.621V94.5655C425.621 95.3302 425.852 95.7126 426.314 95.7126H429.893C430.317 95.7126 430.529 95.3302 430.529 94.5655V22.2943C430.529 21.5295 430.317 21.1471 429.893 21.1471H426.314C425.852 21.1471 425.621 21.5295 425.621 22.2943ZM365.449 95.7126H361.58C361.118 95.7126 360.945 95.2607 361.061 94.3569L375.438 22.0857C375.553 21.46 375.784 21.1471 376.13 21.1471H380.692C381.077 21.1471 381.327 21.46 381.442 22.0857L395.762 94.3569C395.954 95.2607 395.781 95.7126 395.242 95.7126H391.373C390.989 95.7126 390.738 95.3998 390.623 94.774L387.101 76.2109H369.779L366.199 94.774C366.084 95.3998 365.834 95.7126 365.449 95.7126ZM378.324 31.0544L371.28 67.9722H385.6L378.555 31.0544H378.324ZM354.95 50.0347C355.835 47.3232 356.278 44.2294 356.278 40.7531C356.278 34.7045 355.219 29.942 353.102 26.4658C350.985 22.92 347.906 21.1471 343.864 21.1471H329.891C329.429 21.1471 329.198 21.5295 329.198 22.2943V94.5655C329.198 95.3302 329.429 95.7126 329.891 95.7126H343.806C348.31 95.7126 351.793 93.8355 354.257 90.0811C356.759 86.2572 358.01 80.9386 358.01 74.1251C358.01 69.745 357.433 65.9907 356.278 62.8621C355.123 59.6639 353.487 57.3696 351.37 55.9791C352.91 54.6581 354.103 52.6767 354.95 50.0347ZM343.864 87.6825H334.106V60.3592H344.21C347.136 60.3592 349.33 61.6106 350.793 64.1135C352.294 66.5469 353.044 69.8841 353.044 74.1251C353.044 78.6442 352.236 82.051 350.619 84.3453C349.041 86.5701 346.789 87.6825 343.864 87.6825ZM349.407 32.3059C350.677 34.3221 351.312 37.1378 351.312 40.7531C351.312 44.577 350.677 47.4623 349.407 49.409C348.137 51.3557 346.404 52.329 344.21 52.329H334.106V29.1772H343.864C346.289 29.1772 348.137 30.2201 349.407 32.3059ZM305.185 95.7126H301.201C300.662 95.7126 300.508 95.2607 300.739 94.3569L306.397 72.0394L293.002 22.5028C292.771 21.599 292.925 21.1471 293.464 21.1471H297.506C297.891 21.1471 298.16 21.46 298.314 22.0857L308.88 62.7578L318.465 22.0857C318.58 21.46 318.83 21.1471 319.215 21.1471H323.199C323.43 21.1471 323.584 21.2861 323.661 21.5642C323.777 21.8423 323.796 22.1552 323.719 22.5028L305.993 94.774C305.801 95.3998 305.531 95.7126 305.185 95.7126ZM262.905 95.7126H266.485C266.908 95.7126 267.12 95.3302 267.12 94.5655V68.1807L270.988 60.9849L286.116 94.9826C286.27 95.4693 286.539 95.7126 286.924 95.7126H291.601C291.871 95.7126 292.044 95.5736 292.121 95.2955C292.198 95.0174 292.159 94.6697 292.005 94.2526L274.28 54.7277L290.851 22.6071C291.043 22.2595 291.101 21.9466 291.024 21.6685C290.947 21.3209 290.754 21.1471 290.446 21.1471H285.827C285.519 21.1471 285.231 21.3904 284.961 21.8771L267.12 56.8134V22.2943C267.12 21.5295 266.908 21.1471 266.485 21.1471H262.905C262.443 21.1471 262.212 21.5295 262.212 22.2943V94.5655C262.212 95.3302 262.443 95.7126 262.905 95.7126ZM251.952 22.2943V94.5655C251.952 95.3302 251.741 95.7126 251.317 95.7126H247.737C247.275 95.7126 247.044 95.3302 247.044 94.5655V22.2943C247.044 21.5295 247.275 21.1471 247.737 21.1471H251.317C251.741 21.1471 251.952 21.5295 251.952 22.2943ZM212.05 90.6025C213.744 87.1263 214.995 81.1819 215.803 72.7694C216.766 62.0625 217.382 47.6014 217.651 29.3858H231.855V94.5655C231.855 95.3302 232.066 95.7126 232.49 95.7126H236.127C236.551 95.7126 236.763 95.3302 236.763 94.5655V22.2943C236.763 21.5295 236.551 21.1471 236.127 21.1471H213.609C213.186 21.1471 212.974 21.5295 212.974 22.2943C212.589 45.3765 211.973 61.5063 211.126 70.6836C210.549 77.0799 209.798 81.4948 208.875 83.9281C207.989 86.292 206.623 87.5782 204.775 87.7868C204.352 87.7868 204.14 88.1692 204.14 88.9339V94.8783C204.14 95.6431 204.352 96.0255 204.775 96.0255C207.932 95.8864 210.357 94.0788 212.05 90.6025ZM121.716 95.7126H125.295C125.719 95.7126 125.93 95.3302 125.93 94.5655V63.0707C125.93 58.9687 125.834 49.548 125.642 34.8088L125.757 34.7045C127.028 39.4322 128.779 45.5504 131.011 53.0591L138.229 77.2537C138.344 77.8099 138.595 78.088 138.979 78.088H142.04C142.386 78.088 142.655 77.8099 142.848 77.2537L150.065 53.0591C152.606 44.2989 154.357 38.1807 155.32 34.7045L155.435 34.8088C155.204 46.628 155.089 56.0486 155.089 63.0707V94.5655C155.089 95.3302 155.3 95.7126 155.724 95.7126H159.361C159.785 95.7126 159.996 95.3302 159.996 94.5655V22.2943C159.996 21.5295 159.785 21.1471 159.361 21.1471H154.973C154.588 21.1471 154.338 21.4252 154.223 21.9814L145.215 51.4947C143.753 56.292 142.213 61.7497 140.596 67.8679H140.423C138.883 62.0278 137.344 56.5353 135.804 51.3905L126.854 21.9814C126.7 21.4252 126.45 21.1471 126.104 21.1471H121.716C121.254 21.1471 121.023 21.5295 121.023 22.2943V94.5655C121.023 95.3302 121.254 95.7126 121.716 95.7126ZM85.0432 95.7126H81.1747C80.7128 95.7126 80.5396 95.2607 80.655 94.3569L95.032 22.0857C95.1475 21.46 95.3784 21.1471 95.7249 21.1471H100.286C100.671 21.1471 100.921 21.46 101.037 22.0857L115.356 94.3569C115.549 95.2607 115.375 95.7126 114.836 95.7126H110.968C110.583 95.7126 110.333 95.3998 110.217 94.774L106.695 76.2109H89.3736L85.7938 94.774C85.6783 95.3998 85.4281 95.7126 85.0432 95.7126ZM97.9189 31.0544L90.8748 67.9722H105.194L98.1499 31.0544H97.9189Z" fill="white"/>
</g>
<defs>
<filter id="filter0_b_202_7124" x="-25" y="-25" width="1970" height="170" filterUnits="userSpaceOnUse" color-interpolation-filters="sRGB">
<feFlood flood-opacity="0" result="BackgroundImageFix"/>
<feGaussianBlur in="BackgroundImageFix" stdDeviation="12.5"/>
<feComposite in2="SourceAlpha" operator="in" result="effect1_backgroundBlur_202_7124"/>
<feBlend mode="normal" in="SourceGraphic" in2="effect1_backgroundBlur_202_7124" result="shape"/>
</filter>
</defs>
</svg>
