<svg preserveAspectRatio="none" width="1820" height="350" viewBox="0 0 1820 350" fill="none" xmlns="http://www.w3.org/2000/svg">
<path fill-rule="evenodd" clip-rule="evenodd" d="M1237.05 161.509C1242.4 165.724 1248.21 167.831 1254.48 167.831C1260.7 167.831 1266.47 165.724 1271.79 161.509C1277.11 157.217 1281.74 151.278 1285.68 143.691C1289.62 136.104 1292.69 127.215 1294.9 117.022C1297.11 106.83 1298.21 95.7941 1298.21 83.9156C1298.21 72.1904 1297.11 61.2699 1294.9 51.1541C1292.69 40.9616 1289.62 32.0336 1285.68 24.37C1281.74 16.7065 1277.11 10.7289 1271.79 6.43736C1266.47 2.14579 1260.7 0 1254.48 0C1248.21 0 1242.4 2.10747 1237.05 6.32241C1231.73 10.5374 1227.1 16.4383 1223.16 24.0252C1219.22 31.6121 1216.17 40.5018 1214 50.6942C1211.83 60.8867 1210.75 71.9605 1210.75 83.9156C1210.75 95.7941 1211.83 106.83 1214 117.022C1216.17 127.215 1219.22 136.104 1223.16 143.691C1227.1 151.278 1231.73 157.217 1237.05 161.509ZM1265.35 135.759C1262 138.365 1258.38 139.668 1254.48 139.668C1249.24 139.668 1244.53 137.369 1240.36 132.771C1236.18 128.173 1232.87 121.697 1230.43 113.344C1228.02 104.99 1226.82 95.181 1226.82 83.9156C1226.82 75.4091 1227.51 67.7456 1228.89 60.9251C1230.31 54.1045 1232.26 48.2419 1234.74 43.3373C1237.26 38.4326 1240.2 34.6775 1243.55 32.0719C1246.9 29.4663 1250.54 28.1635 1254.48 28.1635C1259.68 28.1635 1264.37 30.4625 1268.54 35.0607C1272.72 39.6588 1276.03 46.1344 1278.47 54.4877C1280.91 62.8409 1282.14 72.6503 1282.14 83.9156C1282.14 92.3455 1281.43 100.009 1280.01 106.906C1278.63 113.727 1276.68 119.589 1274.16 124.494C1271.68 129.322 1268.74 133.077 1265.35 135.759ZM1750.98 3.44865V164.383H1765.87L1804.75 50.6943V164.383H1820V3.44865H1804.99L1766.22 116.217V3.44865H1750.98ZM1134.96 315.455C1139.2 318.788 1143.8 320.455 1148.75 320.455C1153.67 320.455 1158.24 318.788 1162.44 315.455C1166.65 312.061 1170.31 307.364 1173.42 301.364C1176.54 295.364 1178.97 288.334 1180.72 280.274C1182.46 272.213 1183.33 263.486 1183.33 254.092C1183.33 244.82 1182.46 236.184 1180.72 228.184C1178.97 220.123 1176.54 213.063 1173.42 207.002C1170.31 200.942 1166.65 196.214 1162.44 192.821C1158.24 189.427 1153.67 187.73 1148.75 187.73C1143.8 187.73 1139.2 189.396 1134.96 192.73C1130.76 196.063 1127.1 200.73 1123.98 206.729C1120.86 212.729 1118.45 219.76 1116.74 227.82C1115.02 235.88 1114.17 244.638 1114.17 254.092C1114.17 263.486 1115.02 272.213 1116.74 280.274C1118.45 288.334 1120.86 295.364 1123.98 301.364C1127.1 307.364 1130.76 312.061 1134.96 315.455ZM1157.35 295.092C1154.7 297.152 1151.83 298.182 1148.75 298.182C1144.61 298.182 1140.88 296.364 1137.58 292.728C1134.28 289.092 1131.66 283.971 1129.73 277.365C1127.83 270.759 1126.88 263.001 1126.88 254.092C1126.88 247.365 1127.42 241.305 1128.51 235.911C1129.64 230.517 1131.18 225.881 1133.14 222.002C1135.13 218.123 1137.46 215.154 1140.1 213.093C1142.75 211.032 1145.63 210.002 1148.75 210.002C1152.86 210.002 1156.57 211.82 1159.87 215.457C1163.17 219.093 1165.79 224.214 1167.72 230.82C1169.65 237.426 1170.62 245.183 1170.62 254.092C1170.62 260.759 1170.06 266.819 1168.94 272.274C1167.85 277.668 1166.31 282.304 1164.31 286.183C1162.35 290.001 1160.03 292.97 1157.35 295.092ZM1258.19 315.455C1262.42 318.788 1267.02 320.455 1271.97 320.455C1276.9 320.455 1281.46 318.788 1285.67 315.455C1289.87 312.061 1293.53 307.364 1296.65 301.364C1299.76 295.364 1302.2 288.334 1303.94 280.274C1305.68 272.213 1306.56 263.486 1306.56 254.092C1306.56 244.82 1305.68 236.184 1303.94 228.184C1302.2 220.123 1299.76 213.063 1296.65 207.002C1293.53 200.942 1289.87 196.214 1285.67 192.821C1281.46 189.427 1276.9 187.73 1271.97 187.73C1267.02 187.73 1262.42 189.396 1258.19 192.73C1253.98 196.063 1250.32 200.73 1247.21 206.729C1244.09 212.729 1241.68 219.76 1239.96 227.82C1238.25 235.88 1237.39 244.638 1237.39 254.092C1237.39 263.486 1238.25 272.213 1239.96 280.274C1241.68 288.334 1244.09 295.364 1247.21 301.364C1250.32 307.364 1253.98 312.061 1258.19 315.455ZM1280.57 295.092C1277.92 297.152 1275.06 298.182 1271.97 298.182C1267.83 298.182 1264.11 296.364 1260.8 292.728C1257.5 289.092 1254.89 283.971 1252.95 277.365C1251.05 270.759 1250.1 263.001 1250.1 254.092C1250.1 247.365 1250.65 241.305 1251.74 235.911C1252.86 230.517 1254.4 225.881 1256.36 222.002C1258.36 218.123 1260.68 215.154 1263.33 213.093C1265.98 211.032 1268.86 210.002 1271.97 210.002C1276.09 210.002 1279.79 211.82 1283.1 215.457C1286.4 219.093 1289.02 224.214 1290.95 230.82C1292.88 237.426 1293.85 245.183 1293.85 254.092C1293.85 260.759 1293.28 266.819 1292.16 272.274C1291.07 277.668 1289.53 282.304 1287.54 286.183C1285.57 290.001 1283.25 292.97 1280.57 295.092ZM1360.14 320.455C1355.09 320.455 1350.5 319.212 1346.35 316.728C1342.21 314.243 1338.55 310.667 1335.37 306.001L1340.93 287.274C1343.17 291.092 1345.87 294.122 1349.02 296.364C1352.19 298.546 1355.51 299.637 1358.97 299.637C1361.96 299.637 1364.55 298.819 1366.73 297.183C1368.91 295.546 1370.59 293.273 1371.78 290.364C1372.99 287.455 1373.6 284.062 1373.6 280.183C1373.6 274.122 1372.54 269.547 1370.42 266.456C1368.3 263.304 1365.01 261.729 1360.56 261.729H1347.61V243.092H1359.62C1362.12 243.092 1364.25 242.396 1366.03 241.002C1367.83 239.608 1369.22 237.638 1370.19 235.093C1371.15 232.487 1371.64 229.365 1371.64 225.729C1371.64 222.153 1371.15 219.153 1370.19 216.729C1369.25 214.305 1367.83 212.487 1365.93 211.275C1364.06 210.002 1361.77 209.366 1359.06 209.366C1356.04 209.366 1353.11 210.335 1350.28 212.275C1347.47 214.214 1345.08 216.911 1343.08 220.366L1337.43 203.002C1340.26 198.093 1343.69 194.336 1347.71 191.73C1351.73 189.063 1356.03 187.73 1360.61 187.73C1365.4 187.73 1369.53 189.093 1372.99 191.821C1376.45 194.487 1379.1 198.336 1380.94 203.366C1382.8 208.396 1383.74 214.426 1383.74 221.456C1383.74 225.335 1383.29 229.123 1382.38 232.82C1381.48 236.456 1380.28 239.729 1378.79 242.638C1377.32 245.486 1375.72 247.668 1373.97 249.183C1377.62 251.486 1380.56 255.335 1382.8 260.729C1385.08 266.122 1386.2 272.91 1386.17 281.092C1386.17 288.486 1385.08 295.152 1382.9 301.092C1380.75 307.031 1377.71 311.758 1373.78 315.273C1369.89 318.728 1365.34 320.455 1360.14 320.455ZM1503.54 320.455C1498.59 320.455 1493.99 318.788 1489.76 315.455C1485.55 312.061 1481.89 307.364 1478.77 301.364C1475.66 295.364 1473.24 288.334 1471.53 280.274C1469.82 272.213 1468.96 263.486 1468.96 254.092C1468.96 244.638 1469.82 235.88 1471.53 227.82C1473.24 219.76 1475.66 212.729 1478.77 206.729C1481.89 200.73 1485.55 196.063 1489.76 192.73C1493.99 189.396 1498.59 187.73 1503.54 187.73C1508.47 187.73 1513.03 189.427 1517.24 192.821C1521.44 196.214 1525.1 200.942 1528.22 207.002C1531.33 213.063 1533.76 220.123 1535.51 228.184C1537.25 236.184 1538.13 244.82 1538.13 254.092C1538.13 263.486 1537.25 272.213 1535.51 280.274C1533.76 288.334 1531.33 295.364 1528.22 301.364C1525.1 307.364 1521.44 312.061 1517.24 315.455C1513.03 318.788 1508.47 320.455 1503.54 320.455ZM1503.54 298.182C1506.63 298.182 1509.49 297.152 1512.14 295.092C1514.82 292.97 1517.14 290.001 1519.11 286.183C1521.1 282.304 1522.64 277.668 1523.73 272.274C1524.85 266.819 1525.41 260.759 1525.41 254.092C1525.41 245.183 1524.45 237.426 1522.52 230.82C1520.59 224.214 1517.97 219.093 1514.67 215.457C1511.36 211.82 1507.66 210.002 1503.54 210.002C1500.43 210.002 1497.55 211.032 1494.9 213.093C1492.25 215.154 1489.93 218.123 1487.93 222.002C1485.97 225.881 1484.43 230.517 1483.31 235.911C1482.22 241.305 1481.67 247.365 1481.67 254.092C1481.67 263.001 1482.62 270.759 1484.52 277.365C1486.45 283.971 1489.07 289.092 1492.37 292.728C1495.68 296.364 1499.4 298.182 1503.54 298.182ZM1641.01 320.455C1636.05 320.455 1631.46 318.788 1627.22 315.455C1623.02 312.061 1619.35 307.364 1616.24 301.364C1613.12 295.364 1610.71 288.334 1609 280.274C1607.28 272.213 1606.42 263.486 1606.42 254.092C1606.42 244.638 1607.28 235.88 1609 227.82C1610.71 219.76 1613.12 212.729 1616.24 206.729C1619.35 200.73 1623.02 196.063 1627.22 192.73C1631.46 189.396 1636.05 187.73 1641.01 187.73C1645.93 187.73 1650.49 189.427 1654.7 192.821C1658.91 196.214 1662.57 200.942 1665.68 207.002C1668.8 213.063 1671.23 220.123 1672.97 228.184C1674.72 236.184 1675.59 244.82 1675.59 254.092C1675.59 263.486 1674.72 272.213 1672.97 280.274C1671.23 288.334 1668.8 295.364 1665.68 301.364C1662.57 307.364 1658.91 312.061 1654.7 315.455C1650.49 318.788 1645.93 320.455 1641.01 320.455ZM1641.01 298.182C1644.09 298.182 1646.96 297.152 1649.61 295.092C1652.29 292.97 1654.61 290.001 1656.57 286.183C1658.56 282.304 1660.11 277.668 1661.2 272.274C1662.32 266.819 1662.88 260.759 1662.88 254.092C1662.88 245.183 1661.91 237.426 1659.98 230.82C1658.05 224.214 1655.43 219.093 1652.13 215.457C1648.83 211.82 1645.12 210.002 1641.01 210.002C1637.89 210.002 1635.01 211.032 1632.36 213.093C1629.71 215.154 1627.39 218.123 1625.4 222.002C1623.44 225.881 1621.89 230.517 1620.77 235.911C1619.68 241.305 1619.14 247.365 1619.14 254.092C1619.14 263.001 1620.09 270.759 1621.99 277.365C1623.92 283.971 1626.54 289.092 1629.84 292.728C1633.14 296.364 1636.86 298.182 1641.01 298.182ZM1746.45 244.818L1742.53 234.454C1744.99 232.272 1747.17 229.576 1749.07 226.363C1750.97 223.151 1752.3 220 1753.04 216.909C1751.48 217.091 1750.07 216.636 1748.79 215.545C1747.51 214.455 1746.48 212.849 1745.71 210.727C1744.96 208.606 1744.58 206.121 1744.58 203.273C1744.58 198.909 1745.3 195.394 1746.73 192.728C1748.2 190 1750.07 188.637 1752.34 188.637C1754.9 188.637 1756.97 190.303 1758.56 193.637C1760.15 196.909 1760.94 201.394 1760.94 207.091C1760.94 211.515 1760.4 215.939 1759.31 220.364C1758.25 224.727 1756.64 228.969 1754.49 233.091C1752.34 237.212 1749.66 241.121 1746.45 244.818ZM1768.5 317.728L1787.66 264.638C1782.68 262.456 1778.78 258.335 1775.98 252.274C1773.2 246.214 1771.82 238.456 1771.82 229.002C1771.82 220.941 1772.78 214.032 1774.72 208.275C1776.68 202.517 1779.44 198.124 1782.99 195.093C1786.57 192.002 1790.78 190.457 1795.61 190.457H1820V317.728H1807.85V267.91H1799.95L1782.57 317.728H1768.5ZM1795.89 248.547H1807.85V210.275H1796.4C1792.54 210.275 1789.51 211.851 1787.33 215.002C1785.15 218.093 1784.06 222.76 1784.06 229.002C1784.06 235.305 1785.06 240.153 1787.05 243.547C1789.05 246.88 1791.99 248.547 1795.89 248.547ZM1687.98 190.457V317.728H1712.28C1716.95 317.728 1721 316.213 1724.43 313.182C1727.85 310.091 1730.49 305.819 1732.33 300.364C1734.19 294.91 1735.13 288.607 1735.13 281.456C1735.13 273.335 1733.98 266.456 1731.67 260.82C1729.37 255.183 1726.44 251.274 1722.89 249.092C1724.57 247.699 1726.16 245.699 1727.65 243.093C1729.15 240.426 1730.36 237.335 1731.3 233.82C1732.23 230.305 1732.7 226.578 1732.7 222.638C1732.7 212.032 1730.74 204.033 1726.81 198.639C1722.92 193.184 1717.78 190.457 1711.39 190.457H1687.98ZM1710.36 299.637H1700.13V261.183H1710.41C1714.49 261.183 1717.53 262.85 1719.52 266.183C1721.55 269.516 1722.56 274.304 1722.56 280.547C1722.56 286.91 1721.55 291.698 1719.52 294.91C1717.5 298.061 1714.44 299.637 1710.36 299.637ZM1709.61 244.093H1700.13V208.548H1709.43C1713.1 208.548 1715.92 210.033 1717.88 213.002C1719.88 215.911 1720.88 220.154 1720.88 225.729C1720.88 229.547 1720.41 232.85 1719.47 235.638C1718.54 238.365 1717.23 240.456 1715.55 241.911C1713.87 243.365 1711.89 244.093 1709.61 244.093ZM1550.52 190.457V317.728H1562.67V270.638H1574.77C1579.97 270.638 1584.4 269.092 1588.04 266.001C1591.69 262.85 1594.46 258.304 1596.36 252.365C1598.29 246.426 1599.26 239.184 1599.26 230.638C1599.26 222.214 1598.22 215.002 1596.13 209.002C1594.07 203.002 1591.22 198.427 1587.58 195.275C1583.93 192.063 1579.76 190.457 1575.05 190.457H1550.52ZM1574.73 250.547H1562.67V211.002H1574.82C1578.56 211.002 1581.53 212.699 1583.74 216.093C1585.99 219.426 1587.11 224.426 1587.11 231.093C1587.11 237.759 1586.02 242.668 1583.84 245.82C1581.66 248.971 1578.62 250.547 1574.73 250.547ZM1440.89 212.093V296.092H1411.5C1411.81 295.013 1412.1 293.892 1412.38 292.728C1414.03 285.88 1415.23 277.183 1415.98 266.638C1416.76 256.032 1417.15 243.183 1417.15 228.093V212.093H1440.89ZM1453.04 296.092V190.457H1405.56V228.093C1405.56 241.184 1405.35 251.971 1404.95 260.456C1404.54 268.941 1403.84 275.698 1402.85 280.728C1401.85 285.759 1400.45 289.546 1398.64 292.092C1396.86 294.637 1394.59 296.546 1391.82 297.819V350H1403.31V317.728H1440.89H1452.01V350H1463.51V296.092H1453.04ZM1195.72 317.728V190.457H1233.76V212.093H1207.87V317.728H1195.72ZM1015.36 317.728V190.457H1027.51V296.092H1052.51V190.457H1064.66V296.092H1089.62V190.457H1101.77V317.728H1015.36ZM967.167 190.457L942.071 317.728H955.39L960.765 288.91H987.076L992.637 317.728H1006.33L980.72 190.457H967.167ZM983.992 268.819H963.756L973.71 217.184L983.992 268.819ZM889.583 317.728V190.457H912.997C919.384 190.457 924.524 193.184 928.419 198.639C932.344 204.033 934.307 212.032 934.307 222.638C934.307 226.578 933.84 230.305 932.905 233.82C931.97 237.335 930.755 240.426 929.26 243.093C927.765 245.699 926.176 247.699 924.493 249.092C928.045 251.274 930.973 255.183 933.279 260.82C935.585 266.456 936.737 273.335 936.737 281.456C936.737 288.607 935.803 294.91 933.933 300.364C932.095 305.819 929.463 310.091 926.035 313.182C922.608 316.213 918.558 317.728 913.885 317.728H889.583ZM901.734 299.637H911.968C916.05 299.637 919.103 298.061 921.128 294.91C923.153 291.698 924.166 286.91 924.166 280.547C924.166 274.304 923.153 269.516 921.128 266.183C919.134 262.85 916.097 261.183 912.015 261.183H901.734V299.637ZM901.734 244.093H911.221C913.495 244.093 915.474 243.365 917.156 241.911C918.838 240.456 920.147 238.365 921.082 235.638C922.016 232.85 922.484 229.547 922.484 225.729C922.484 220.154 921.487 215.911 919.493 213.002C917.53 210.033 914.71 208.548 911.034 208.548H901.734V244.093ZM818.307 264.638L799.147 317.728H813.213L830.598 267.91H838.496V317.728H850.647V190.457H826.252C821.423 190.457 817.217 192.002 813.634 195.093C810.082 198.124 807.325 202.517 805.362 208.275C803.43 214.032 802.465 220.941 802.465 229.002C802.465 238.456 803.851 246.214 806.624 252.274C809.428 258.335 813.322 262.456 818.307 264.638ZM838.496 248.547H826.532C822.638 248.547 819.694 246.88 817.7 243.547C815.706 240.153 814.709 235.305 814.709 229.002C814.709 222.76 815.799 218.093 817.98 215.002C820.161 211.851 823.183 210.275 827.046 210.275H838.496V248.547ZM732.223 320L727.877 298.273C729.996 297.001 731.787 295.516 733.251 293.819C734.747 292.061 735.993 289.698 736.99 286.728C737.987 283.759 738.766 279.85 739.327 275.001C739.919 270.092 740.324 263.91 740.542 256.456C740.791 248.941 740.916 239.79 740.916 229.002V190.457H787.836V317.728H775.686V212.093H752.506V228.093C752.506 241.184 752.287 252.517 751.851 262.092C751.446 271.668 750.776 279.789 749.842 286.456C748.907 293.122 747.645 298.637 746.056 303.001C744.499 307.364 742.583 310.879 740.308 313.546C738.034 316.213 735.339 318.364 732.223 320ZM698.902 212.093V296.092H669.513C669.822 295.013 670.116 293.892 670.394 292.728C672.045 285.88 673.245 277.183 673.993 266.638C674.771 256.032 675.161 243.183 675.161 228.093V212.093H698.902ZM711.052 296.092V190.457H663.571V228.093C663.571 241.184 663.368 251.971 662.963 260.456C662.558 268.941 661.857 275.698 660.86 280.728C659.863 285.759 658.461 289.546 656.654 292.092C654.878 294.637 652.604 296.546 649.831 297.819V350H661.328V317.728H698.902H710.024V350H721.521V296.092H711.052ZM547.758 317.728V190.457H559.488L583.144 265.833L605.801 190.457H617.391V317.728H605.567L605.737 230.246L586.874 291.455H578.322L558.709 229.326L558.881 317.728H547.758ZM476.647 190.457V317.728H488.424L519.175 227.82V317.728H531.232V190.457H519.362L488.705 279.637V190.457H476.647ZM416.679 317.728V190.457H440.093C446.48 190.457 451.621 193.184 455.515 198.639C459.441 204.033 461.404 212.032 461.404 222.638C461.404 226.578 460.936 230.305 460.002 233.82C459.067 237.335 457.852 240.426 456.356 243.093C454.861 245.699 453.272 247.699 451.59 249.092C455.141 251.274 458.07 255.183 460.375 260.82C462.681 266.456 463.834 273.335 463.834 281.456C463.834 288.607 462.899 294.91 461.03 300.364C459.192 305.819 456.559 310.091 453.132 313.182C449.705 316.213 445.654 317.728 440.981 317.728H416.679ZM428.83 299.637H439.065C443.146 299.637 446.2 298.061 448.225 294.91C450.25 291.698 451.262 286.91 451.262 280.547C451.262 274.304 450.25 269.516 448.225 266.183C446.231 262.85 443.193 261.183 439.112 261.183H428.83V299.637ZM428.83 244.093H438.317C440.592 244.093 442.57 243.365 444.252 241.911C445.935 240.456 447.243 238.365 448.178 235.638C449.113 232.85 449.58 229.547 449.58 225.729C449.58 220.154 448.583 215.911 446.589 213.002C444.626 210.033 441.807 208.548 438.13 208.548H428.83V244.093ZM345.574 190.457V317.728H357.351L388.102 227.82V317.728H400.159V190.457H388.288L357.631 279.637V190.457H345.574ZM273.468 320L269.121 298.273C271.24 297.001 273.032 295.516 274.496 293.819C275.991 292.061 277.238 289.698 278.235 286.728C279.232 283.759 280.011 279.85 280.571 275.001C281.163 270.092 281.568 263.91 281.786 256.456C282.036 248.941 282.16 239.79 282.16 229.002V190.457H329.081V317.728H316.93V212.093H293.75V228.093C293.75 241.184 293.532 252.517 293.096 262.092C292.691 271.668 292.021 279.789 291.086 286.456C290.152 293.122 288.89 298.637 287.301 303.001C285.743 307.364 283.827 310.879 281.553 313.546C279.278 316.213 276.583 318.364 273.468 320ZM240.14 212.093V296.092H210.751C211.061 295.013 211.355 293.892 211.633 292.728C213.284 285.88 214.483 277.183 215.231 266.638C216.01 256.032 216.399 243.183 216.399 228.093V212.093H240.14ZM252.291 296.092V190.457H204.81V228.093C204.81 241.184 204.607 251.971 204.202 260.456C203.797 268.941 203.096 275.698 202.099 280.728C201.102 285.759 199.7 289.546 197.893 292.092C196.117 294.637 193.843 296.546 191.07 297.819V350H202.566V317.728H240.14H251.263V350H262.759V296.092H252.291ZM168.953 317.728V190.457H181.104V317.728H168.953ZM120.864 261.547L143.292 317.728H158.948L131.469 250.911L155.49 190.457H140.441L121.012 239.911H115.018V190.457H102.868V317.728H115.018V261.547H120.864ZM0 317.728V190.457H12.1508V296.092H37.1532V190.457H49.3039V296.092H74.2597V190.457H86.4105V317.728H0ZM1699.34 164.383V30.8075H1676.47V3.44865H1737.63V30.8075H1714.76V164.383H1699.34ZM1602.58 139.898L1608.37 167.257C1612.58 165.724 1616.49 163.348 1620.07 160.13C1623.69 156.911 1627.08 152.619 1630.23 147.255C1633.43 141.814 1636.48 135.108 1639.39 127.138C1642.31 119.168 1645.19 109.703 1648.02 98.7446L1672.78 3.44865H1655L1637.55 73.6125L1618.65 3.44865H1599.98L1628.76 105.702C1627.73 108.665 1626.66 111.404 1625.57 113.918C1622.57 120.892 1619.18 126.448 1615.4 130.587C1611.66 134.725 1607.38 137.829 1602.58 139.898ZM1530.18 164.383V3.44865H1583.6V29.6579H1545.54V68.9718H1559.79C1568.89 68.9718 1576.16 72.9952 1581.59 81.0419C1587.07 89.0886 1589.81 100.967 1589.81 116.677C1589.81 126.793 1588.6 135.415 1586.2 142.542C1583.8 149.592 1580.35 154.995 1575.86 158.75C1571.41 162.505 1566.03 164.383 1559.73 164.383H1530.18ZM1545.54 141.507H1558.54C1563.47 141.507 1567.25 139.4 1569.89 135.185C1572.57 130.97 1573.91 124.877 1573.91 116.907C1573.91 109.167 1572.61 103.075 1570.01 98.6297C1567.41 94.1082 1563.8 91.8475 1559.19 91.8475H1545.54V141.507ZM1428.49 3.44865V164.383H1483.92V137.944H1443.86V93.112H1477.78V68.627H1443.86V29.6579H1483.51V3.44865H1428.49ZM1397.91 164.383L1372.04 92.0774H1366.06V164.383H1350.69V92.0774H1344.54L1318.19 164.383H1300.64L1331.72 81.1568L1304.78 3.44865H1322.86L1344.5 66.7877H1350.69V3.44865H1366.06V66.7877H1372.17L1394.66 3.44865H1412.21L1384.85 79.5475L1416.11 164.383H1397.91ZM1106.94 164.383V3.44865H1121.77L1151.69 98.7617L1180.33 3.44865H1194.99V164.383H1180.04L1180.25 53.762L1156.4 131.161H1145.59L1120.79 52.5985L1121 164.383H1106.94ZM1016.8 97.2502L992.575 164.383H1010.36L1032.35 101.389H1042.33V164.383H1057.7V3.44865H1026.85C1020.74 3.44865 1015.42 5.40285 1010.89 9.31125C1006.4 13.143 1002.92 18.6991 1000.43 25.9794C997.992 33.2598 996.771 41.9962 996.771 52.1887C996.771 64.1438 998.524 73.9531 1002.03 81.6167C1005.58 89.2802 1010.5 94.4914 1016.8 97.2502ZM1042.33 76.9036H1027.2C1022.28 76.9036 1018.56 74.7961 1016.04 70.5812C1013.51 66.2896 1012.25 60.1588 1012.25 52.1887C1012.25 44.2953 1013.63 38.3944 1016.39 34.486C1019.15 30.5009 1022.97 28.5084 1027.85 28.5084H1042.33V76.9036ZM909.911 164.383V3.44865H925.276V65.9831H962.86V3.44865H978.225V164.383H962.86V93.3419H925.276V164.383H909.911ZM820.695 3.44865V164.383H836.059V93.3419H873.644V164.383H889.008V3.44865H873.644V65.9831H836.059V3.44865H820.695ZM728.021 164.383L759.755 3.44865H776.892L809.276 164.383H791.961L784.929 127.943H751.659L744.863 164.383H728.021ZM755.441 102.538H781.029L768.028 37.2448L755.441 102.538ZM661.649 3.44865V164.383H692.379C698.288 164.383 703.41 162.467 707.743 158.635C712.077 154.727 715.406 149.324 717.73 142.427C720.094 135.53 721.276 127.56 721.276 118.517C721.276 108.247 719.818 99.5493 716.903 92.4222C713.988 85.2952 710.284 80.3522 705.793 77.5933C707.921 75.8307 709.93 73.3017 711.821 70.0064C713.712 66.6344 715.248 62.726 716.43 58.2812C717.612 53.8363 718.203 49.1233 718.203 44.142C718.203 30.7308 715.721 20.615 710.757 13.7944C705.833 6.89724 699.332 3.44865 691.256 3.44865H661.649ZM689.956 141.507H677.014V92.882H690.015C695.176 92.882 699.017 94.9895 701.538 99.2045C704.099 103.419 705.38 109.474 705.38 117.367C705.38 125.414 704.099 131.468 701.538 135.53C698.978 139.515 695.117 141.507 689.956 141.507ZM689.01 71.2709H677.014V26.3243H688.774C693.423 26.3243 696.988 28.2018 699.47 31.957C701.991 35.6355 703.252 40.9999 703.252 48.0504C703.252 52.8784 702.661 57.055 701.479 60.5803C700.297 64.0288 698.643 66.6728 696.515 68.512C694.388 70.3513 691.886 71.2709 689.01 71.2709ZM587.141 167.257L581.35 139.898C586.156 137.829 590.431 134.725 594.173 130.587C597.955 126.448 601.343 120.892 604.338 113.918C605.431 111.404 606.497 108.665 607.534 105.702L578.749 3.44865H597.423L616.322 73.6124L633.767 3.44865H651.554L626.794 98.7446C623.957 109.703 621.081 119.168 618.166 127.138C615.25 135.108 612.197 141.814 609.006 147.255C605.854 152.619 602.466 156.911 598.842 160.13C595.257 163.348 591.356 165.724 587.141 167.257ZM523.97 93.3419L552.331 164.383H572.128L537.38 79.8924L567.755 3.44865H548.726L524.157 65.9831H516.578V3.44865H501.214V164.383H516.578V93.3419H523.97ZM464.966 164.383V3.44865H480.33V164.383H464.966ZM368.298 139.783L373.794 167.257C377.734 165.187 381.142 162.467 384.018 159.095C386.894 155.723 389.316 151.278 391.286 145.76C393.296 140.243 394.891 133.269 396.073 124.839C397.255 116.409 398.102 106.14 398.614 94.0316C399.166 81.9232 399.441 67.5924 399.441 51.0392V30.8074H428.752V164.383H444.117V3.44865H384.786V52.1887C384.786 65.8298 384.628 77.4017 384.313 86.9045C384.037 96.3306 383.525 104.147 382.777 110.355C382.068 116.486 381.083 121.429 379.822 125.184C378.561 128.939 376.985 131.928 375.094 134.15C373.243 136.296 370.977 138.173 368.298 139.783ZM318.43 167.831C312.166 167.831 306.355 165.724 300.997 161.509C295.678 157.217 291.049 151.278 287.11 143.691C283.17 136.104 280.117 127.215 277.95 117.022C275.783 106.83 274.7 95.7941 274.7 83.9156C274.7 71.9605 275.783 60.8867 277.95 50.6942C280.117 40.5018 283.17 31.6121 287.11 24.0252C291.049 16.4383 295.678 10.5374 300.997 6.32241C306.355 2.10747 312.166 0 318.43 0C324.655 0 330.426 2.14579 335.745 6.43736C341.063 10.7289 345.692 16.7065 349.632 24.37C353.572 32.0336 356.644 40.9616 358.851 51.1541C361.057 61.2699 362.16 72.1904 362.16 83.9156C362.16 95.7941 361.057 106.83 358.851 117.022C356.644 127.215 353.572 136.104 349.632 143.691C345.692 151.278 341.063 157.217 335.745 161.509C330.426 165.724 324.655 167.831 318.43 167.831ZM318.43 139.668C322.33 139.668 325.955 138.365 329.303 135.759C332.691 133.077 335.626 129.322 338.108 124.494C340.63 119.589 342.58 113.727 343.959 106.906C345.377 100.009 346.086 92.3455 346.086 83.9156C346.086 72.6503 344.865 62.8409 342.422 54.4877C339.98 46.1344 336.67 39.6588 332.494 35.0607C328.318 30.4625 323.63 28.1635 318.43 28.1635C314.49 28.1635 310.846 29.4663 307.497 32.0719C304.149 34.6775 301.214 38.4326 298.692 43.3373C296.21 48.2419 294.26 54.1045 292.842 60.9251C291.463 67.7456 290.773 75.4091 290.773 83.9156C290.773 95.181 291.975 104.99 294.378 113.344C296.821 121.697 300.13 128.173 304.306 132.771C308.482 137.369 313.19 139.668 318.43 139.668ZM170.883 3.44865V164.383H184.948L184.731 52.5984L209.531 131.161H220.346L244.198 53.7619L243.984 164.383H258.935V3.44865H244.279L215.63 98.7617L185.716 3.44865H170.883ZM78.2107 164.383L109.945 3.44865H127.082L159.466 164.383H142.151L135.119 127.943H101.849L95.0527 164.383H78.2107ZM105.631 102.538H131.219L118.218 37.2448L105.631 102.538ZM20.4468 157.486C26.9078 164.383 34.4326 167.831 43.021 167.831C49.6003 167.831 55.4703 166.184 60.6313 162.888C65.8316 159.593 70.4016 154.957 74.3413 148.979L67.2499 123.804C63.8618 129.016 60.257 132.809 56.4356 135.185C52.6535 137.56 48.7729 138.748 44.7939 138.748C38.8844 138.748 33.7825 136.564 29.4883 132.196C25.1941 127.828 21.8848 121.582 19.5604 113.459C17.236 105.259 16.0738 95.3726 16.0738 83.8007C16.0738 75.3708 16.7238 67.7839 18.0239 61.04C19.324 54.2961 21.1953 48.5485 23.6379 43.7971C26.0805 38.969 29.0353 35.2905 32.5022 32.7616C35.969 30.2326 39.889 28.9681 44.262 28.9681C48.3593 28.9681 52.0822 30.1177 55.4309 32.4167C58.819 34.6392 61.7738 38.0877 64.2952 42.7625L72.1548 18.2775C68.5697 12.4532 64.4724 7.97007 59.863 4.82803C55.2537 1.60934 49.6987 0 43.1983 0C36.8949 0 31.1036 2.06915 25.8244 6.20746C20.5847 10.2691 16.0147 16.0934 12.1144 23.6803C8.25358 31.1906 5.25944 40.0803 3.13203 50.3494C1.04401 60.5419 0 71.8073 0 84.1456C0 101.082 1.79254 115.834 5.37763 128.402C8.96271 140.894 13.9858 150.588 20.4468 157.486Z" fill="white"/>
</svg>
