<svg preserveAspectRatio="none" width="676" height="250" viewBox="0 0 676 250" fill="none" xmlns="http://www.w3.org/2000/svg">
<path fill-rule="evenodd" clip-rule="evenodd" d="M459.474 115.364C461.464 118.374 463.623 119.88 465.949 119.88C468.261 119.88 470.405 118.374 472.38 115.364C474.356 112.298 476.075 108.056 477.539 102.637C479.002 97.2174 480.143 90.8676 480.963 83.5872C481.782 76.3069 482.192 68.4244 482.192 59.9398C482.192 51.5646 481.782 43.7642 480.963 36.5386C480.143 29.2583 479.002 22.8811 477.539 17.4072C476.075 11.9332 474.356 7.66353 472.38 4.59812C470.405 1.53271 468.261 0 465.949 0C463.623 0 461.464 1.50533 459.474 4.516C457.499 7.52668 455.779 11.7416 454.316 17.1608C452.853 22.58 451.719 28.9298 450.914 36.2102C450.109 43.4905 449.707 51.4004 449.707 59.9398C449.707 68.4244 450.109 76.3069 450.914 83.5872C451.719 90.8676 452.853 97.2174 454.316 102.637C455.779 108.056 457.499 112.298 459.474 115.364ZM469.988 96.971C468.744 98.8322 467.398 99.7627 465.949 99.7627C464.003 99.7627 462.254 98.1206 460.703 94.8362C459.152 91.5518 457.923 86.9263 457.016 80.9597C456.123 74.9931 455.677 67.9865 455.677 59.9398C455.677 53.8637 455.933 48.3897 456.445 43.5179C456.972 38.6461 457.696 34.4585 458.618 30.9552C459.555 27.4519 460.645 24.7696 461.889 22.9085C463.132 21.0473 464.486 20.1168 465.949 20.1168C467.881 20.1168 469.622 21.759 471.173 25.0433C472.724 28.3277 473.953 32.9532 474.861 38.9198C475.768 44.8864 476.222 51.893 476.222 59.9398C476.222 65.9611 475.958 71.4351 475.431 76.3616C474.919 81.2334 474.195 85.421 473.258 88.9243C472.337 92.3729 471.246 95.0551 469.988 96.971ZM650.363 2.46332V117.416H655.894L670.337 36.2102V117.416H676V2.46332H670.425L656.026 83.0125V2.46332H650.363ZM421.558 225.325C423.131 227.706 424.838 228.896 426.678 228.896C428.507 228.896 430.202 227.706 431.764 225.325C433.326 222.901 434.686 219.546 435.843 215.26C437.001 210.975 437.903 205.953 438.551 200.196C439.199 194.438 439.523 188.204 439.523 181.495C439.523 174.871 439.199 168.703 438.551 162.988C437.903 157.231 437.001 152.188 435.843 147.859C434.686 143.53 433.326 140.153 431.764 137.729C430.202 135.305 428.507 134.093 426.678 134.093C424.838 134.093 423.131 135.283 421.558 137.664C419.995 140.045 418.636 143.378 417.478 147.664C416.321 151.95 415.424 156.971 414.788 162.729C414.151 168.486 413.833 174.741 413.833 181.495C413.833 188.204 414.151 194.438 414.788 200.196C415.424 205.953 416.321 210.975 417.478 215.26C418.636 219.546 419.995 222.901 421.558 225.325ZM429.872 210.78C428.889 212.252 427.824 212.988 426.678 212.988C425.139 212.988 423.756 211.689 422.53 209.092C421.303 206.494 420.331 202.836 419.613 198.118C418.908 193.399 418.555 187.858 418.555 181.495C418.555 176.689 418.757 172.36 419.162 168.508C419.579 164.655 420.152 161.343 420.881 158.573C421.621 155.802 422.483 153.681 423.467 152.209C424.451 150.737 425.521 150.002 426.678 150.002C428.206 150.002 429.583 151.3 430.81 153.898C432.036 156.495 433.008 160.153 433.726 164.871C434.443 169.59 434.802 175.131 434.802 181.495C434.802 186.256 434.594 190.585 434.177 194.481C433.772 198.334 433.199 201.646 432.459 204.416C431.73 207.143 430.867 209.265 429.872 210.78ZM467.327 225.325C468.901 227.706 470.608 228.896 472.447 228.896C474.276 228.896 475.971 227.706 477.533 225.325C479.096 222.901 480.455 219.546 481.613 215.26C482.77 210.975 483.672 205.953 484.32 200.196C484.969 194.438 485.293 188.204 485.293 181.495C485.293 174.871 484.969 168.703 484.32 162.988C483.672 157.231 482.77 152.188 481.613 147.859C480.455 143.53 479.096 140.153 477.533 137.729C475.971 135.305 474.276 134.093 472.447 134.093C470.608 134.093 468.901 135.283 467.327 137.664C465.765 140.045 464.405 143.378 463.248 147.664C462.09 151.95 461.194 156.971 460.557 162.729C459.921 168.486 459.602 174.741 459.602 181.495C459.602 188.204 459.921 194.438 460.557 200.196C461.194 205.953 462.09 210.975 463.248 215.26C464.405 219.546 465.765 222.901 467.327 225.325ZM475.641 210.78C474.658 212.252 473.593 212.988 472.447 212.988C470.908 212.988 469.525 211.689 468.299 209.092C467.072 206.494 466.1 202.836 465.383 198.118C464.677 193.399 464.324 187.858 464.324 181.495C464.324 176.689 464.526 172.36 464.931 168.508C465.348 164.655 465.921 161.343 466.65 158.573C467.39 155.802 468.253 153.681 469.236 152.209C470.22 150.737 471.29 150.002 472.447 150.002C473.975 150.002 475.352 151.3 476.579 153.898C477.805 156.495 478.777 160.153 479.495 164.871C480.212 169.59 480.571 175.131 480.571 181.495C480.571 186.256 480.363 190.585 479.946 194.481C479.541 198.334 478.968 201.646 478.228 204.416C477.499 207.143 476.637 209.265 475.641 210.78ZM505.194 228.896C503.32 228.896 501.613 228.009 500.074 226.234C498.535 224.459 497.175 221.905 495.995 218.572L498.06 205.195C498.893 207.923 499.894 210.087 501.063 211.689C502.243 213.247 503.476 214.026 504.76 214.026C505.871 214.026 506.832 213.442 507.642 212.273C508.452 211.104 509.077 209.481 509.517 207.403C509.968 205.325 510.194 202.901 510.194 200.131C510.194 195.802 509.8 192.533 509.013 190.326C508.226 188.075 507.005 186.949 505.351 186.949H500.542V173.638H505.003C505.929 173.638 506.722 173.14 507.381 172.144C508.053 171.148 508.568 169.741 508.926 167.923C509.285 166.062 509.464 163.832 509.464 161.235C509.464 158.681 509.285 156.538 508.926 154.807C508.579 153.075 508.053 151.776 507.347 150.911C506.652 150.002 505.802 149.547 504.795 149.547C503.673 149.547 502.585 150.24 501.532 151.625C500.49 153.01 499.599 154.937 498.859 157.404L496.758 145.002C497.811 141.495 499.084 138.811 500.577 136.95C502.07 135.045 503.667 134.093 505.368 134.093C507.15 134.093 508.683 135.067 509.968 137.015C511.252 138.919 512.236 141.668 512.919 145.261C513.613 148.854 513.96 153.162 513.96 158.183C513.96 160.954 513.792 163.659 513.457 166.3C513.121 168.897 512.676 171.235 512.12 173.313C511.576 175.347 510.98 176.906 510.332 177.988C511.686 179.633 512.78 182.382 513.613 186.235C514.458 190.087 514.874 194.936 514.863 200.78C514.863 206.061 514.458 210.823 513.648 215.065C512.849 219.308 511.721 222.684 510.263 225.195C508.816 227.663 507.127 228.896 505.194 228.896ZM558.459 228.896C556.619 228.896 554.912 227.706 553.338 225.325C551.776 222.901 550.416 219.546 549.259 215.26C548.102 210.975 547.205 205.953 546.569 200.196C545.932 194.438 545.614 188.204 545.614 181.495C545.614 174.741 545.932 168.486 546.569 162.729C547.205 156.971 548.102 151.95 549.259 147.664C550.416 143.378 551.776 140.045 553.338 137.664C554.912 135.283 556.619 134.093 558.459 134.093C560.288 134.093 561.983 135.305 563.545 137.729C565.107 140.153 566.467 143.53 567.624 147.859C568.781 152.188 569.684 157.231 570.332 162.988C570.98 168.703 571.304 174.871 571.304 181.495C571.304 188.204 570.98 194.438 570.332 200.196C569.684 205.953 568.781 210.975 567.624 215.26C566.467 219.546 565.107 222.901 563.545 225.325C561.983 227.706 560.288 228.896 558.459 228.896ZM558.459 212.988C559.605 212.988 560.669 212.252 561.653 210.78C562.648 209.265 563.51 207.143 564.239 204.416C564.98 201.646 565.553 198.334 565.958 194.481C566.374 190.585 566.583 186.256 566.583 181.495C566.583 175.131 566.224 169.59 565.507 164.871C564.789 160.153 563.817 156.495 562.59 153.898C561.364 151.3 559.987 150.002 558.459 150.002C557.302 150.002 556.231 150.737 555.248 152.209C554.264 153.681 553.402 155.802 552.661 158.573C551.932 161.343 551.36 164.655 550.943 168.508C550.538 172.36 550.335 176.689 550.335 181.495C550.335 187.858 550.688 193.399 551.394 198.118C552.112 202.836 553.084 206.494 554.31 209.092C555.537 211.689 556.92 212.988 558.459 212.988ZM609.517 228.896C607.677 228.896 605.97 227.706 604.397 225.325C602.834 222.901 601.475 219.546 600.317 215.26C599.16 210.975 598.263 205.953 597.627 200.196C596.99 194.438 596.672 188.204 596.672 181.495C596.672 174.741 596.99 168.486 597.627 162.729C598.263 156.971 599.16 151.95 600.317 147.664C601.475 143.378 602.834 140.045 604.397 137.664C605.97 135.283 607.677 134.093 609.517 134.093C611.346 134.093 613.041 135.305 614.603 137.729C616.165 140.153 617.525 143.53 618.682 147.859C619.839 152.188 620.742 157.231 621.39 162.988C622.038 168.703 622.362 174.871 622.362 181.495C622.362 188.204 622.038 194.438 621.39 200.196C620.742 205.953 619.839 210.975 618.682 215.26C617.525 219.546 616.165 222.901 614.603 225.325C613.041 227.706 611.346 228.896 609.517 228.896ZM609.517 212.988C610.663 212.988 611.727 212.252 612.711 210.78C613.706 209.265 614.568 207.143 615.297 204.416C616.038 201.646 616.611 198.334 617.016 194.481C617.432 190.585 617.641 186.256 617.641 181.495C617.641 175.131 617.282 169.59 616.565 164.871C615.847 160.153 614.875 156.495 613.648 153.898C612.422 151.3 611.045 150.002 609.517 150.002C608.36 150.002 607.289 150.737 606.306 152.209C605.322 153.681 604.46 155.802 603.72 158.573C602.99 161.343 602.418 164.655 602.001 168.508C601.596 172.36 601.393 176.689 601.393 181.495C601.393 187.858 601.746 193.399 602.452 198.118C603.17 202.836 604.142 206.494 605.369 209.092C606.595 211.689 607.978 212.988 609.517 212.988ZM648.682 174.87L647.224 167.467C648.139 165.909 648.949 163.983 649.655 161.688C650.36 159.394 650.852 157.143 651.13 154.935C650.552 155.065 650.025 154.74 649.551 153.961C649.076 153.182 648.694 152.035 648.405 150.52C648.127 149.004 647.988 147.23 647.988 145.195C647.988 142.078 648.254 139.567 648.787 137.663C649.331 135.715 650.025 134.741 650.87 134.741C651.819 134.741 652.588 135.931 653.178 138.312C653.768 140.65 654.064 143.853 654.064 147.922C654.064 151.082 653.861 154.242 653.456 157.403C653.063 160.519 652.467 163.55 651.668 166.493C650.87 169.437 649.874 172.229 648.682 174.87ZM656.871 226.948L663.988 189.027C662.136 187.469 660.69 184.525 659.648 180.196C658.619 175.867 658.104 170.326 658.104 163.573C658.104 157.815 658.462 152.88 659.18 148.768C659.909 144.655 660.933 141.517 662.252 139.352C663.583 137.145 665.145 136.041 666.939 136.041H676V226.948H671.487V191.365H668.553L662.096 226.948H656.871ZM667.043 177.534H671.487V150.196H667.234C665.799 150.196 664.677 151.322 663.867 153.573C663.057 155.781 662.652 159.114 662.652 163.573C662.652 168.075 663.022 171.538 663.762 173.962C664.503 176.343 665.597 177.534 667.043 177.534ZM626.962 136.041V226.948H635.989C637.724 226.948 639.229 225.866 640.502 223.702C641.775 221.494 642.752 218.442 643.435 214.546C644.129 210.65 644.477 206.148 644.477 201.04C644.477 195.239 644.048 190.326 643.192 186.3C642.336 182.274 641.248 179.482 639.929 177.923C640.554 176.928 641.144 175.499 641.699 173.638C642.255 171.733 642.706 169.525 643.053 167.014C643.401 164.504 643.574 161.841 643.574 159.027C643.574 151.452 642.845 145.738 641.387 141.885C639.94 137.989 638.031 136.041 635.659 136.041H626.962ZM635.277 214.027H631.475V186.559H635.294C636.81 186.559 637.938 187.75 638.679 190.131C639.431 192.512 639.807 195.932 639.807 200.39C639.807 204.936 639.431 208.356 638.679 210.65C637.927 212.901 636.793 214.027 635.277 214.027ZM634.999 174.352H631.475V148.963H634.93C636.295 148.963 637.342 150.023 638.071 152.144C638.812 154.222 639.182 157.253 639.182 161.235C639.182 163.962 639.009 166.322 638.662 168.313C638.314 170.261 637.828 171.755 637.204 172.793C636.579 173.832 635.844 174.352 634.999 174.352ZM575.906 136.041V226.948H580.419V193.313H584.915C586.848 193.313 588.491 192.209 589.845 190.001C591.199 187.75 592.229 184.503 592.935 180.261C593.652 176.018 594.011 170.845 594.011 164.742C594.011 158.724 593.623 153.573 592.848 149.287C592.084 145.002 591.025 141.733 589.671 139.482C588.317 137.188 586.767 136.041 585.019 136.041H575.906ZM584.898 178.962H580.419V150.716H584.932C586.321 150.716 587.426 151.928 588.248 154.352C589.081 156.733 589.498 160.304 589.498 165.066C589.498 169.828 589.093 173.335 588.283 175.586C587.473 177.837 586.344 178.962 584.898 178.962ZM535.186 151.495V211.494H524.271C524.386 210.724 524.495 209.923 524.598 209.092C525.211 204.2 525.657 197.988 525.935 190.455C526.224 182.88 526.368 173.703 526.368 162.923V151.495H535.186ZM539.7 211.494V136.041H522.064V162.923C522.064 172.274 521.988 179.979 521.838 186.04C521.688 192.1 521.427 196.927 521.057 200.52C520.687 204.113 520.166 206.819 519.495 208.637C518.835 210.455 517.99 211.819 516.96 212.728V250H521.23V226.948H535.186H539.318V250H543.588V211.494H539.7ZM444.126 226.948V136.041H458.255V151.495H448.639V226.948H444.126ZM377.134 226.948V136.041H381.647V211.494H390.934V136.041H395.447V211.494H404.716V136.041H409.229V226.948H377.134ZM359.234 136.041L349.912 226.948H354.859L356.855 206.364H366.628L368.694 226.948H373.78L364.267 136.041H359.234ZM365.483 192.014H357.966L361.664 155.131L365.483 192.014ZM330.417 226.948V136.041H339.113C341.485 136.041 343.395 137.989 344.841 141.885C346.299 145.738 347.028 151.452 347.028 159.027C347.028 161.841 346.855 164.504 346.508 167.014C346.16 169.525 345.709 171.733 345.154 173.638C344.598 175.499 344.008 176.928 343.383 177.923C344.702 179.482 345.79 182.274 346.646 186.3C347.503 190.326 347.931 195.239 347.931 201.04C347.931 206.148 347.584 210.65 346.889 214.546C346.207 218.442 345.229 221.494 343.956 223.702C342.683 225.866 341.179 226.948 339.443 226.948H330.417ZM334.93 214.027H338.731C340.247 214.027 341.381 212.901 342.133 210.65C342.886 208.356 343.262 204.936 343.262 200.39C343.262 195.932 342.886 192.512 342.133 190.131C341.393 187.75 340.264 186.559 338.749 186.559H334.93V214.027ZM334.93 174.352H338.453C339.298 174.352 340.033 173.832 340.658 172.793C341.283 171.755 341.769 170.261 342.116 168.313C342.463 166.322 342.637 163.962 342.637 161.235C342.637 157.253 342.266 154.222 341.526 152.144C340.797 150.023 339.75 148.963 338.384 148.963H334.93V174.352ZM303.943 189.027L296.826 226.948H302.051L308.508 191.365H311.441V226.948H315.955V136.041H306.894C305.1 136.041 303.538 137.145 302.207 139.352C300.888 141.517 299.863 144.655 299.134 148.768C298.417 152.88 298.058 157.815 298.058 163.573C298.058 170.326 298.573 175.867 299.603 180.196C300.645 184.525 302.091 187.469 303.943 189.027ZM311.441 177.534H306.998C305.551 177.534 304.458 176.343 303.717 173.962C302.976 171.538 302.606 168.075 302.606 163.573C302.606 159.114 303.011 155.781 303.821 153.573C304.631 151.322 305.754 150.196 307.189 150.196H311.441V177.534ZM271.969 228.572L270.354 213.053C271.141 212.143 271.807 211.083 272.35 209.871C272.906 208.615 273.369 206.927 273.739 204.806C274.109 202.685 274.399 199.893 274.607 196.429C274.827 192.923 274.977 188.507 275.058 183.183C275.151 177.815 275.197 171.278 275.197 163.573V136.041H292.625V226.948H288.112V151.495H279.502V162.923C279.502 172.274 279.421 180.369 279.259 187.209C279.109 194.049 278.86 199.849 278.513 204.611C278.165 209.373 277.697 213.312 277.107 216.429C276.528 219.546 275.816 222.057 274.972 223.961C274.127 225.866 273.126 227.403 271.969 228.572ZM259.592 151.495V211.494H248.676C248.791 210.724 248.9 209.923 249.003 209.092C249.617 204.2 250.062 197.988 250.34 190.455C250.629 182.88 250.774 173.703 250.774 162.923V151.495H259.592ZM264.105 211.494V136.041H246.469V162.923C246.469 172.274 246.394 179.979 246.244 186.04C246.093 192.1 245.833 196.927 245.462 200.52C245.092 204.113 244.571 206.819 243.9 208.637C243.241 210.455 242.396 211.819 241.366 212.728V250H245.636V226.948H259.592H263.723V250H267.993V211.494H264.105ZM203.453 226.948V136.041H207.81L216.596 189.881L225.012 136.041H229.317V226.948H224.925L224.988 164.462L217.982 208.182H214.805L207.52 163.804L207.584 226.948H203.453ZM177.04 136.041V226.948H181.415L192.836 162.729V226.948H197.315V136.041H192.906L181.519 199.741V136.041H177.04ZM154.767 226.948V136.041H163.463C165.835 136.041 167.745 137.989 169.191 141.885C170.649 145.738 171.378 151.452 171.378 159.027C171.378 161.841 171.205 164.504 170.858 167.014C170.511 169.525 170.059 171.733 169.504 173.638C168.948 175.499 168.358 176.928 167.733 177.923C169.052 179.482 170.14 182.274 170.997 186.3C171.853 190.326 172.281 195.239 172.281 201.04C172.281 206.148 171.934 210.65 171.24 214.546C170.557 218.442 169.579 221.494 168.306 223.702C167.033 225.866 165.529 226.948 163.793 226.948H154.767ZM159.28 214.027H163.081C164.597 214.027 165.731 212.901 166.483 210.65C167.236 208.356 167.612 204.936 167.612 200.39C167.612 195.932 167.236 192.512 166.483 190.131C165.743 187.75 164.615 186.559 163.099 186.559H159.28V214.027ZM159.28 174.352H162.804C163.648 174.352 164.383 173.832 165.008 172.793C165.633 171.755 166.119 170.261 166.466 168.313C166.813 166.322 166.987 163.962 166.987 161.235C166.987 157.253 166.617 154.222 165.876 152.144C165.147 150.023 164.1 148.963 162.734 148.963H159.28V174.352ZM128.356 136.041V226.948H132.73L144.152 162.729V226.948H148.63V136.041H144.221L132.834 199.741V136.041H128.356ZM101.574 228.572L99.9594 213.053C100.746 212.143 101.412 211.083 101.956 209.871C102.511 208.615 102.974 206.927 103.344 204.806C103.715 202.685 104.004 199.893 104.212 196.429C104.432 192.923 104.583 188.507 104.664 183.183C104.756 177.815 104.802 171.278 104.802 163.573V136.041H122.23V226.948H117.717V151.495H109.107V162.923C109.107 172.274 109.026 180.369 108.864 187.209C108.714 194.049 108.465 199.849 108.118 204.611C107.771 209.373 107.302 213.312 106.712 216.429C106.133 219.546 105.421 222.057 104.577 223.961C103.732 225.866 102.731 227.403 101.574 228.572ZM89.1949 151.495V211.494H78.279C78.3941 210.724 78.5032 209.923 78.6064 209.092C79.2197 204.2 79.6653 197.988 79.943 190.455C80.2323 182.88 80.3769 173.703 80.3769 162.923V151.495H89.1949ZM93.708 211.494V136.041H76.0721V162.923C76.0721 172.274 75.9969 179.979 75.8464 186.04C75.696 192.1 75.4356 196.927 75.0653 200.52C74.695 204.113 74.1742 206.819 73.503 208.637C72.8434 210.455 71.9987 211.819 70.9688 212.728V250H75.2389V226.948H89.1949H93.3262V250H97.5963V211.494H93.708ZM62.754 226.948V136.041H67.2672V226.948H62.754ZM44.8923 186.819L53.2228 226.948H59.0378L48.8312 179.222L57.7533 136.041H52.164L44.9471 171.365H42.7211V136.041H38.2079V226.948H42.7211V186.819H44.8923ZM0 226.948V136.041H4.51314V211.494H13.7998V136.041H18.3129V211.494H27.5822V136.041H32.0953V226.948H0ZM631.182 117.416V22.0053H622.688V2.46332H645.406V22.0053H636.911V117.416H631.182ZM595.243 99.927L597.394 119.469C598.96 118.374 600.409 116.677 601.74 114.378C603.087 112.079 604.345 109.014 605.516 105.182C606.701 101.295 607.835 96.5058 608.918 90.8129C610.001 85.12 611.069 78.3596 612.122 70.5319L621.319 2.46332H614.713L608.233 52.5804L601.214 2.46332H594.278L604.969 75.5015C604.584 77.6179 604.188 79.5742 603.782 81.3703C602.67 86.3516 601.411 90.3202 600.006 93.2762C598.616 96.2321 597.029 98.449 595.243 99.927ZM568.352 117.416V2.46332H588.195V21.1842H574.059V49.2656H579.349C582.729 49.2656 585.429 52.1394 587.448 57.8871C589.482 63.6347 590.499 72.1194 590.499 83.341C590.499 90.5666 590.053 96.7248 589.16 101.816C588.268 106.852 586.987 110.711 585.319 113.393C583.666 116.075 581.668 117.416 579.327 117.416H568.352ZM574.059 101.077H578.888C580.717 101.077 582.122 99.5712 583.102 96.5605C584.097 93.5499 584.595 89.1981 584.595 83.5052C584.595 77.9765 584.112 73.6247 583.146 70.4498C582.18 67.2202 580.842 65.6053 579.129 65.6053H574.059V101.077ZM530.583 2.46332V117.416H551.172V98.5312H536.29V66.5086H548.889V49.0193H536.29V21.1842H551.018V2.46332H530.583ZM519.224 117.416L509.614 65.7696H507.393V117.416H501.686V65.7696H499.4L489.614 117.416H483.095L494.64 57.9692L484.631 2.46332H491.348L499.386 47.7055H501.686V2.46332H507.393V47.7055H509.662L518.016 2.46332H524.535L514.373 56.8197L525.984 117.416H519.224ZM411.149 117.416V2.46332H416.658L427.769 70.5441L438.41 2.46332H443.854V117.416H438.3L438.38 38.4015L429.521 93.6867H425.504L416.292 37.5703L416.373 117.416H411.149ZM377.67 69.4645L368.671 117.416H375.277L383.443 72.4204H387.152V117.416H392.859V2.46332H381.401C379.133 2.46332 377.158 3.85918 375.475 6.65089C373.807 9.38787 372.512 13.3565 371.59 18.5567C370.683 23.757 370.229 29.9973 370.229 37.2776C370.229 45.817 370.88 52.8237 372.183 58.2976C373.5 63.7716 375.329 67.4939 377.67 69.4645ZM387.152 54.9311H381.533C379.704 54.9311 378.321 53.4258 377.385 50.4151C376.448 47.3497 375.98 42.9706 375.98 37.2776C375.98 31.6395 376.492 27.4245 377.516 24.6328C378.541 21.7864 379.96 20.3631 381.775 20.3631H387.152V54.9311ZM337.967 117.416V2.46332H343.674V47.1308H357.634V2.46332H363.341V117.416H357.634V66.6728H343.674V117.416H337.967ZM304.829 2.46332V117.416H310.536V66.6728H324.496V117.416H330.203V2.46332H324.496V47.1308H310.536V2.46332H304.829ZM270.408 117.416L282.195 2.46332H288.56L300.588 117.416H294.157L291.545 91.3876H279.187L276.663 117.416H270.408ZM280.592 73.2415H290.096L285.267 26.6034L280.592 73.2415ZM245.755 2.46332V117.416H257.169C259.364 117.416 261.266 116.048 262.876 113.311C264.486 110.519 265.722 106.66 266.586 101.733C267.464 96.8069 267.902 91.114 267.902 84.6547C267.902 77.3196 267.361 71.1067 266.278 66.0159C265.195 60.9251 263.82 57.3944 262.152 55.4238C262.942 54.1648 263.688 52.3584 264.391 50.0046C265.093 47.596 265.664 44.8043 266.103 41.6294C266.542 38.4545 266.761 35.0881 266.761 31.53C266.761 21.9506 265.839 14.725 263.995 9.85316C262.166 4.9266 259.752 2.46332 256.752 2.46332H245.755ZM256.269 101.077H251.462V66.3443H256.291C258.208 66.3443 259.635 67.8497 260.571 70.8603C261.523 73.871 261.998 78.1954 261.998 83.8336C261.998 89.5813 261.523 93.9057 260.571 96.8069C259.62 99.6533 258.186 101.077 256.269 101.077ZM255.918 50.9078H251.462V18.8031H255.83C257.557 18.8031 258.881 20.1442 259.803 22.8264C260.74 25.4539 261.208 29.2857 261.208 34.3217C261.208 37.7703 260.988 40.7536 260.549 43.2716C260.11 45.7349 259.496 47.6234 258.706 48.9372C257.915 50.2509 256.986 50.9078 255.918 50.9078ZM218.081 119.469L215.93 99.927C217.715 98.449 219.303 96.2321 220.693 93.2762C222.098 90.3202 223.356 86.3516 224.468 81.3703C224.874 79.5742 225.27 77.6179 225.656 75.5015L214.964 2.46332H221.9L228.919 52.5803L235.399 2.46332H242.006L232.809 70.5319C231.755 78.3596 230.687 85.12 229.604 90.8129C228.522 96.5058 227.387 101.295 226.202 105.182C225.032 109.014 223.773 112.079 222.427 114.378C221.095 116.677 219.647 118.374 218.081 119.469ZM194.617 66.6728L205.151 117.416H212.505L199.598 57.066L210.88 2.46332H203.812L194.687 47.1308H191.872V2.46332H186.165V117.416H191.872V66.6728H194.617ZM172.701 117.416V2.46332H178.408V117.416H172.701ZM136.797 99.8449L138.838 119.469C140.301 117.991 141.567 116.048 142.635 113.639C143.703 111.231 144.603 108.056 145.335 104.115C146.081 100.173 146.674 95.192 147.113 89.1707C147.552 83.1493 147.866 75.8143 148.057 67.1654C148.261 58.5166 148.364 48.2803 148.364 36.4565V22.0053H159.251V117.416H164.958V2.46332H142.92V37.2776C142.92 47.0213 142.862 55.2869 142.745 62.0746C142.642 68.8076 142.452 74.391 142.174 78.8249C141.911 83.2041 141.545 86.7348 141.077 89.417C140.608 92.0992 140.023 94.2341 139.321 95.8215C138.633 97.3542 137.792 98.6954 136.797 99.8449ZM118.274 119.88C115.947 119.88 113.789 118.374 111.799 115.364C109.823 112.298 108.104 108.056 106.641 102.637C105.177 97.2174 104.043 90.8676 103.239 83.5872C102.434 76.3069 102.031 68.4244 102.031 59.9398C102.031 51.4004 102.434 43.4905 103.239 36.2102C104.043 28.9298 105.177 22.58 106.641 17.1608C108.104 11.7416 109.823 7.52668 111.799 4.516C113.789 1.50533 115.947 0 118.274 0C120.586 0 122.73 1.53271 124.705 4.59812C126.681 7.66353 128.4 11.9332 129.863 17.4072C131.327 22.8811 132.468 29.2583 133.287 36.5386C134.107 43.7642 134.517 51.5646 134.517 59.9398C134.517 68.4244 134.107 76.3069 133.287 83.5872C132.468 90.8676 131.327 97.2174 129.863 102.637C128.4 108.056 126.681 112.298 124.705 115.364C122.73 118.374 120.586 119.88 118.274 119.88ZM118.274 99.7627C119.723 99.7627 121.069 98.8322 122.313 96.971C123.571 95.0551 124.661 92.3729 125.583 88.9243C126.52 85.421 127.244 81.2334 127.756 76.3616C128.283 71.4351 128.546 65.9611 128.546 59.9398C128.546 51.893 128.093 44.8864 127.185 38.9198C126.278 32.9532 125.049 28.3277 123.498 25.0433C121.947 21.759 120.205 20.1168 118.274 20.1168C116.811 20.1168 115.457 21.0473 114.213 22.9085C112.969 24.7696 111.879 27.4519 110.943 30.9552C110.021 34.4585 109.297 38.6461 108.77 43.5179C108.258 48.3897 108.002 53.8637 108.002 59.9398C108.002 67.9865 108.448 74.9931 109.34 80.9597C110.248 86.9263 111.477 91.5518 113.028 94.8362C114.579 98.1206 116.328 99.7627 118.274 99.7627ZM63.4709 2.46332V117.416H68.6949L68.6144 37.5703L77.8259 93.6867H81.8427L90.7022 38.4014L90.6225 117.416H96.1757V2.46332H90.7322L80.091 70.5441L68.9803 2.46332H63.4709ZM29.0497 117.416L40.8366 2.46332H47.2019L59.2302 117.416H52.799L50.187 91.3876H37.8295L35.3053 117.416H29.0497ZM39.2342 73.2415H48.7384L43.9095 26.6034L39.2342 73.2415ZM7.59453 112.49C9.99434 117.416 12.7892 119.88 15.9792 119.88C18.4229 119.88 20.6033 118.703 22.5202 116.349C24.4517 113.995 26.1492 110.683 27.6125 106.414L24.9785 88.4317C23.7201 92.154 22.3812 94.8636 20.9618 96.5605C19.557 98.2574 18.1157 99.1059 16.6377 99.1059C14.4428 99.1059 12.5478 97.5458 10.9528 94.4257C9.3578 91.3055 8.12863 86.8442 7.26529 81.0418C6.40194 75.1847 5.97026 68.1233 5.97026 59.8577C5.97026 53.8363 6.21171 48.4171 6.6946 43.6C7.17749 38.7829 7.87255 34.6775 8.7798 31.2836C9.68705 27.835 10.7845 25.2075 12.0722 23.4011C13.3599 21.5947 14.8159 20.6915 16.4402 20.6915C17.962 20.6915 19.3448 21.5126 20.5886 23.1548C21.8471 24.7423 22.9445 27.2055 23.8811 30.5446L26.8003 13.0554C25.4687 8.89517 23.9469 5.69291 22.2348 3.44859C20.5228 1.14953 18.4595 0 16.0451 0C13.7038 0 11.5528 1.47797 9.59193 4.4339C7.64574 7.33509 5.94832 11.4953 4.49965 16.9145C3.06561 22.279 1.95351 28.6288 1.16332 35.9639C0.387775 43.2442 0 51.2909 0 60.104C0 72.2014 0.665802 82.7388 1.9974 91.716C3.32901 100.639 5.19472 107.563 7.59453 112.49Z" fill="white"/>
</svg>
