<svg preserveAspectRatio="none" width="1180" height="350" viewBox="0 0 1180 350" fill="none" xmlns="http://www.w3.org/2000/svg">
<path fill-rule="evenodd" clip-rule="evenodd" d="M802.041 161.509C805.514 165.724 809.282 167.831 813.343 167.831C817.379 167.831 821.121 165.724 824.569 161.509C828.018 157.217 831.019 151.278 833.573 143.691C836.127 136.104 838.12 127.215 839.55 117.022C840.981 106.83 841.696 95.7941 841.696 83.9156C841.696 72.1904 840.981 61.2699 839.55 51.1541C838.12 40.9616 836.127 32.0336 833.573 24.37C831.019 16.7065 828.018 10.7289 824.569 6.43736C821.121 2.14579 817.379 0 813.343 0C809.282 0 805.514 2.10747 802.041 6.32241C798.592 10.5374 795.591 16.4383 793.037 24.0252C790.482 31.6121 788.503 40.5018 787.098 50.6942C785.693 60.8867 784.991 71.9605 784.991 83.9156C784.991 95.7941 785.693 106.83 787.098 117.022C788.503 127.215 790.482 136.104 793.037 143.691C795.591 151.278 798.592 157.217 802.041 161.509ZM820.393 135.759C818.222 138.365 815.872 139.668 813.343 139.668C809.946 139.668 806.894 137.369 804.186 132.771C801.479 128.173 799.333 121.697 797.749 113.344C796.191 104.99 795.412 95.181 795.412 83.9156C795.412 75.4091 795.859 67.7456 796.753 60.9251C797.673 54.1045 798.937 48.2419 800.546 43.3373C802.181 38.4326 804.084 34.6775 806.255 32.0719C808.426 29.4663 810.789 28.1635 813.343 28.1635C816.715 28.1635 819.755 30.4625 822.462 35.0607C825.17 39.6588 827.315 46.1344 828.899 54.4877C830.483 62.8409 831.274 72.6503 831.274 83.9156C831.274 92.3455 830.815 100.009 829.895 106.906C829.001 113.727 827.737 119.589 826.102 124.494C824.493 129.322 822.59 133.077 820.393 135.759ZM1135.25 3.44865V164.383H1144.9L1170.11 50.6943V164.383H1180V3.44865H1170.27L1145.13 116.217V3.44865H1135.25ZM735.855 315.455C738.602 318.788 741.582 320.455 744.793 320.455C747.985 320.455 750.944 318.788 753.671 315.455C756.398 312.061 758.772 307.364 760.792 301.364C762.812 295.364 764.387 288.334 765.518 280.274C766.65 272.213 767.215 263.486 767.215 254.092C767.215 244.82 766.65 236.184 765.518 228.184C764.387 220.123 762.812 213.063 760.792 207.002C758.772 200.942 756.398 196.214 753.671 192.821C750.944 189.427 747.985 187.73 744.793 187.73C741.582 187.73 738.602 189.396 735.855 192.73C733.128 196.063 730.754 200.73 728.734 206.729C726.714 212.729 725.149 219.76 724.038 227.82C722.927 235.88 722.372 244.638 722.372 254.092C722.372 263.486 722.927 272.213 724.038 280.274C725.149 288.334 726.714 295.364 728.734 301.364C730.754 307.364 733.128 312.061 735.855 315.455ZM750.369 295.092C748.652 297.152 746.793 298.182 744.793 298.182C742.107 298.182 739.693 296.364 737.552 292.728C735.411 289.092 733.714 283.971 732.461 277.365C731.229 270.759 730.613 263.001 730.613 254.092C730.613 247.365 730.967 241.305 731.674 235.911C732.401 230.517 733.401 225.881 734.673 222.002C735.966 218.123 737.471 215.154 739.188 213.093C740.905 211.032 742.773 210.002 744.793 210.002C747.46 210.002 749.864 211.82 752.005 215.457C754.146 219.093 755.843 224.214 757.095 230.82C758.348 237.426 758.974 245.183 758.974 254.092C758.974 260.759 758.61 266.819 757.883 272.274C757.176 277.668 756.176 282.304 754.883 286.183C753.611 290.001 752.106 292.97 750.369 295.092ZM815.748 315.455C818.495 318.788 821.475 320.455 824.686 320.455C827.878 320.455 830.837 318.788 833.564 315.455C836.291 312.061 838.665 307.364 840.685 301.364C842.705 295.364 844.28 288.334 845.411 280.274C846.543 272.213 847.108 263.486 847.108 254.092C847.108 244.82 846.543 236.184 845.411 228.184C844.28 220.123 842.705 213.063 840.685 207.002C838.665 200.942 836.291 196.214 833.564 192.821C830.837 189.427 827.878 187.73 824.686 187.73C821.475 187.73 818.495 189.396 815.748 192.73C813.021 196.063 810.647 200.73 808.627 206.729C806.607 212.729 805.042 219.76 803.931 227.82C802.82 235.88 802.265 244.638 802.265 254.092C802.265 263.486 802.82 272.213 803.931 280.274C805.042 288.334 806.607 295.364 808.627 301.364C810.647 307.364 813.021 312.061 815.748 315.455ZM830.262 295.092C828.545 297.152 826.686 298.182 824.686 298.182C822 298.182 819.586 296.364 817.445 292.728C815.304 289.092 813.607 283.971 812.354 277.365C811.122 270.759 810.506 263.001 810.506 254.092C810.506 247.365 810.86 241.305 811.567 235.911C812.294 230.517 813.294 225.881 814.566 222.002C815.859 218.123 817.364 215.154 819.081 213.093C820.798 211.032 822.666 210.002 824.686 210.002C827.353 210.002 829.757 211.82 831.898 215.457C834.039 219.093 835.736 224.214 836.988 230.82C838.241 237.426 838.867 245.183 838.867 254.092C838.867 260.759 838.503 266.819 837.776 272.274C837.069 277.668 836.069 282.304 834.776 286.183C833.504 290.001 831.999 292.97 830.262 295.092ZM881.848 320.455C878.576 320.455 875.596 319.212 872.91 316.728C870.223 314.243 867.85 310.667 865.789 306.001L869.395 287.274C870.849 291.092 872.597 294.122 874.637 296.364C876.697 298.546 878.849 299.637 881.091 299.637C883.03 299.637 884.706 298.819 886.12 297.183C887.534 295.546 888.625 293.273 889.393 290.364C890.181 287.455 890.575 284.062 890.575 280.183C890.575 274.122 889.888 269.547 888.514 266.456C887.141 263.304 885.009 261.729 882.121 261.729H873.728V243.092H881.515C883.131 243.092 884.514 242.396 885.666 241.002C886.837 239.608 887.736 237.638 888.363 235.093C888.989 232.487 889.302 229.365 889.302 225.729C889.302 222.153 888.989 219.153 888.363 216.729C887.757 214.305 886.838 212.487 885.605 211.275C884.393 210.002 882.909 209.366 881.151 209.366C879.192 209.366 877.293 210.335 875.455 212.275C873.637 214.214 872.082 216.911 870.789 220.366L867.122 203.002C868.961 198.093 871.183 194.336 873.788 191.73C876.394 189.063 879.182 187.73 882.151 187.73C885.262 187.73 887.938 189.093 890.181 191.821C892.423 194.487 894.14 198.336 895.332 203.366C896.544 208.396 897.15 214.426 897.15 221.456C897.15 225.335 896.857 229.123 896.271 232.82C895.685 236.456 894.907 239.729 893.938 242.638C892.988 245.486 891.948 247.668 890.817 249.183C893.18 251.486 895.089 255.335 896.544 260.729C898.018 266.122 898.745 272.91 898.725 281.092C898.725 288.486 898.018 295.152 896.604 301.092C895.21 307.031 893.241 311.758 890.696 315.273C888.171 318.728 885.221 320.455 881.848 320.455ZM974.825 320.455C971.613 320.455 968.634 318.788 965.887 315.455C963.16 312.061 960.786 307.364 958.766 301.364C956.746 295.364 955.181 288.334 954.07 280.274C952.959 272.213 952.403 263.486 952.403 254.092C952.403 244.638 952.959 235.88 954.07 227.82C955.181 219.76 956.746 212.729 958.766 206.729C960.786 200.73 963.16 196.063 965.887 192.73C968.634 189.396 971.613 187.73 974.825 187.73C978.017 187.73 980.976 189.427 983.703 192.821C986.43 196.214 988.803 200.942 990.823 207.002C992.843 213.063 994.419 220.123 995.55 228.184C996.681 236.184 997.247 244.82 997.247 254.092C997.247 263.486 996.681 272.213 995.55 280.274C994.419 288.334 992.843 295.364 990.823 301.364C988.803 307.364 986.43 312.061 983.703 315.455C980.976 318.788 978.017 320.455 974.825 320.455ZM974.825 298.182C976.825 298.182 978.683 297.152 980.4 295.092C982.137 292.97 983.642 290.001 984.915 286.183C986.208 282.304 987.208 277.668 987.915 272.274C988.642 266.819 989.005 260.759 989.005 254.092C989.005 245.183 988.379 237.426 987.127 230.82C985.874 224.214 984.178 219.093 982.036 215.457C979.895 211.82 977.492 210.002 974.825 210.002C972.805 210.002 970.937 211.032 969.22 213.093C967.503 215.154 965.998 218.123 964.705 222.002C963.432 225.881 962.432 230.517 961.705 235.911C960.998 241.305 960.645 247.365 960.645 254.092C960.645 263.001 961.261 270.759 962.493 277.365C963.745 283.971 965.442 289.092 967.583 292.728C969.725 296.364 972.139 298.182 974.825 298.182ZM1063.95 320.455C1060.74 320.455 1057.76 318.788 1055.01 315.455C1052.28 312.061 1049.91 307.364 1047.89 301.364C1045.87 295.364 1044.31 288.334 1043.19 280.274C1042.08 272.213 1041.53 263.486 1041.53 254.092C1041.53 244.638 1042.08 235.88 1043.19 227.82C1044.31 219.76 1045.87 212.729 1047.89 206.729C1049.91 200.73 1052.28 196.063 1055.01 192.73C1057.76 189.396 1060.74 187.73 1063.95 187.73C1067.14 187.73 1070.1 189.427 1072.83 192.821C1075.55 196.214 1077.93 200.942 1079.95 207.002C1081.97 213.063 1083.54 220.123 1084.68 228.184C1085.81 236.184 1086.37 244.82 1086.37 254.092C1086.37 263.486 1085.81 272.213 1084.68 280.274C1083.54 288.334 1081.97 295.364 1079.95 301.364C1077.93 307.364 1075.55 312.061 1072.83 315.455C1070.1 318.788 1067.14 320.455 1063.95 320.455ZM1063.95 298.182C1065.95 298.182 1067.81 297.152 1069.53 295.092C1071.26 292.97 1072.77 290.001 1074.04 286.183C1075.33 282.304 1076.33 277.668 1077.04 272.274C1077.77 266.819 1078.13 260.759 1078.13 254.092C1078.13 245.183 1077.5 237.426 1076.25 230.82C1075 224.214 1073.3 219.093 1071.16 215.457C1069.02 211.82 1066.62 210.002 1063.95 210.002C1061.93 210.002 1060.06 211.032 1058.34 213.093C1056.63 215.154 1055.12 218.123 1053.83 222.002C1052.56 225.881 1051.56 230.517 1050.83 235.911C1050.12 241.305 1049.77 247.365 1049.77 254.092C1049.77 263.001 1050.39 270.759 1051.62 277.365C1052.87 283.971 1054.57 289.092 1056.71 292.728C1058.85 296.364 1061.26 298.182 1063.95 298.182ZM1132.32 244.818L1129.77 234.454C1131.37 232.272 1132.78 229.576 1134.01 226.363C1135.24 223.151 1136.1 220 1136.59 216.909C1135.58 217.091 1134.66 216.636 1133.83 215.545C1133 214.455 1132.34 212.849 1131.83 210.727C1131.35 208.606 1131.1 206.121 1131.1 203.273C1131.1 198.909 1131.57 195.394 1132.5 192.728C1133.45 190 1134.66 188.637 1136.13 188.637C1137.79 188.637 1139.13 190.303 1140.16 193.637C1141.19 196.909 1141.71 201.394 1141.71 207.091C1141.71 211.515 1141.36 215.939 1140.65 220.364C1139.96 224.727 1138.92 228.969 1137.53 233.091C1136.13 237.212 1134.4 241.121 1132.32 244.818ZM1146.61 317.728L1159.03 264.638C1155.8 262.456 1153.28 258.335 1151.46 252.274C1149.66 246.214 1148.76 238.456 1148.76 229.002C1148.76 220.941 1149.39 214.032 1150.64 208.275C1151.91 202.517 1153.7 198.124 1156 195.093C1158.33 192.002 1161.05 190.457 1164.18 190.457H1180V317.728H1172.12V267.91H1167L1155.73 317.728H1146.61ZM1164.37 248.547H1172.12V210.275H1164.7C1162.19 210.275 1160.23 211.851 1158.82 215.002C1157.41 218.093 1156.7 222.76 1156.7 229.002C1156.7 235.305 1157.35 240.153 1158.64 243.547C1159.93 246.88 1161.84 248.547 1164.37 248.547ZM1094.4 190.457V317.728H1110.16C1113.19 317.728 1115.81 316.213 1118.04 313.182C1120.26 310.091 1121.96 305.819 1123.16 300.364C1124.37 294.91 1124.97 288.607 1124.97 281.456C1124.97 273.335 1124.23 266.456 1122.73 260.82C1121.24 255.183 1119.34 251.274 1117.04 249.092C1118.13 247.699 1119.16 245.699 1120.13 243.093C1121.1 240.426 1121.88 237.335 1122.49 233.82C1123.1 230.305 1123.4 226.578 1123.4 222.638C1123.4 212.032 1122.13 204.033 1119.58 198.639C1117.06 193.184 1113.72 190.457 1109.58 190.457H1094.4ZM1108.92 299.637H1102.28V261.183H1108.95C1111.59 261.183 1113.56 262.85 1114.85 266.183C1116.17 269.516 1116.82 274.304 1116.82 280.547C1116.82 286.91 1116.17 291.698 1114.85 294.91C1113.54 298.061 1111.56 299.637 1108.92 299.637ZM1108.43 244.093H1102.28V208.548H1108.31C1110.69 208.548 1112.52 210.033 1113.79 213.002C1115.09 215.911 1115.73 220.154 1115.73 225.729C1115.73 229.547 1115.43 232.85 1114.82 235.638C1114.22 238.365 1113.37 240.456 1112.28 241.911C1111.19 243.365 1109.9 244.093 1108.43 244.093ZM1005.28 190.457V317.728H1013.16V270.638H1021.01C1024.38 270.638 1027.25 269.092 1029.61 266.001C1031.97 262.85 1033.77 258.304 1035 252.365C1036.26 246.426 1036.88 239.184 1036.88 230.638C1036.88 222.214 1036.21 215.002 1034.85 209.002C1033.52 203.002 1031.67 198.427 1029.31 195.275C1026.94 192.063 1024.24 190.457 1021.19 190.457H1005.28ZM1020.98 250.547H1013.16V211.002H1021.04C1023.46 211.002 1025.39 212.699 1026.82 216.093C1028.28 219.426 1029.01 224.426 1029.01 231.093C1029.01 237.759 1028.3 242.668 1026.88 245.82C1025.47 248.971 1023.5 250.547 1020.98 250.547ZM934.201 212.093V296.092H915.147C915.348 295.013 915.538 293.892 915.718 292.728C916.789 285.88 917.567 277.183 918.051 266.638C918.556 256.032 918.809 243.183 918.809 228.093V212.093H934.201ZM942.079 296.092V190.457H911.295V228.093C911.295 241.184 911.163 251.971 910.901 260.456C910.638 268.941 910.184 275.698 909.537 280.728C908.891 285.759 907.982 289.546 906.81 292.092C905.659 294.637 904.184 296.546 902.386 297.819V350H909.84V317.728H934.201H941.413V350H948.866V296.092H942.079ZM775.249 317.728V190.457H799.913V212.093H783.127V317.728H775.249ZM658.31 317.728V190.457H666.188V296.092H682.399V190.457H690.277V296.092H706.457V190.457H714.335V317.728H658.31ZM627.065 190.457L610.793 317.728H619.429L622.913 288.91H639.972L643.578 317.728H652.456L635.852 190.457H627.065ZM637.972 268.819H624.853L631.307 217.184L637.972 268.819ZM576.763 317.728V190.457H591.943C596.084 190.457 599.417 193.184 601.942 198.639C604.487 204.033 605.76 212.032 605.76 222.638C605.76 226.578 605.457 230.305 604.851 233.82C604.245 237.335 603.457 240.426 602.487 243.093C601.518 245.699 600.487 247.699 599.397 249.092C601.699 251.274 603.598 255.183 605.093 260.82C606.588 266.456 607.335 273.335 607.335 281.456C607.335 288.607 606.729 294.91 605.517 300.364C604.325 305.819 602.619 310.091 600.397 313.182C598.175 316.213 595.548 317.728 592.518 317.728H576.763ZM584.641 299.637H591.276C593.922 299.637 595.902 298.061 597.215 294.91C598.528 291.698 599.185 286.91 599.185 280.547C599.185 274.304 598.528 269.516 597.215 266.183C595.922 262.85 593.953 261.183 591.307 261.183H584.641V299.637ZM584.641 244.093H590.791C592.266 244.093 593.549 243.365 594.639 241.911C595.73 240.456 596.579 238.365 597.185 235.638C597.791 232.85 598.094 229.547 598.094 225.729C598.094 220.154 597.447 215.911 596.155 213.002C594.882 210.033 593.054 208.548 590.67 208.548H584.641V244.093ZM530.551 264.638L518.128 317.728H527.248L538.52 267.91H543.64V317.728H551.518V190.457H535.702C532.571 190.457 529.844 192.002 527.521 195.093C525.218 198.124 523.43 202.517 522.158 208.275C520.905 214.032 520.279 220.941 520.279 229.002C520.279 238.456 521.178 246.214 522.976 252.274C524.794 258.335 527.319 262.456 530.551 264.638ZM543.64 248.547H535.884C533.359 248.547 531.45 246.88 530.157 243.547C528.864 240.153 528.218 235.305 528.218 229.002C528.218 222.76 528.925 218.093 530.339 215.002C531.753 211.851 533.712 210.275 536.217 210.275H543.64V248.547ZM474.738 320L471.92 298.273C473.294 297.001 474.455 295.516 475.405 293.819C476.374 292.061 477.182 289.698 477.829 286.728C478.475 283.759 478.98 279.85 479.344 275.001C479.728 270.092 479.99 263.91 480.132 256.456C480.293 248.941 480.374 239.79 480.374 229.002V190.457H510.795V317.728H502.917V212.093H487.888V228.093C487.888 241.184 487.747 252.517 487.464 262.092C487.201 271.668 486.767 279.789 486.161 286.456C485.555 293.122 484.737 298.637 483.707 303.001C482.697 307.364 481.455 310.879 479.98 313.546C478.505 316.213 476.758 318.364 474.738 320ZM453.134 212.093V296.092H434.08C434.28 295.013 434.471 293.892 434.651 292.728C435.722 285.88 436.499 277.183 436.984 266.638C437.489 256.032 437.742 243.183 437.742 228.093V212.093H453.134ZM461.012 296.092V190.457H430.227V228.093C430.227 241.184 430.096 251.971 429.833 260.456C429.571 268.941 429.116 275.698 428.47 280.728C427.823 285.759 426.914 289.546 425.743 292.092C424.591 294.637 423.117 296.546 421.319 297.819V350H428.773V317.728H453.134H460.345V350H467.799V296.092H461.012ZM355.14 317.728V190.457H362.745L378.083 265.833L392.772 190.457H400.286V317.728H392.621L392.731 230.246L380.501 291.455H374.956L362.24 229.326L362.351 317.728H355.14ZM309.035 190.457V317.728H316.671L336.608 227.82V317.728H344.425V190.457H336.729L316.852 279.637V190.457H309.035ZM270.155 317.728V190.457H285.335C289.476 190.457 292.809 193.184 295.334 198.639C297.879 204.033 299.152 212.032 299.152 222.638C299.152 226.578 298.849 230.305 298.243 233.82C297.637 237.335 296.849 240.426 295.879 243.093C294.91 245.699 293.88 247.699 292.789 249.092C295.092 251.274 296.99 255.183 298.485 260.82C299.98 266.456 300.727 273.335 300.727 281.456C300.727 288.607 300.121 294.91 298.909 300.364C297.718 305.819 296.011 310.091 293.789 313.182C291.567 316.213 288.941 317.728 285.911 317.728H270.155ZM278.033 299.637H284.668C287.315 299.637 289.294 298.061 290.607 294.91C291.92 291.698 292.577 286.91 292.577 280.547C292.577 274.304 291.92 269.516 290.607 266.183C289.314 262.85 287.345 261.183 284.699 261.183H278.033V299.637ZM278.033 244.093H284.184C285.658 244.093 286.941 243.365 288.032 241.911C289.122 240.456 289.971 238.365 290.577 235.638C291.183 232.85 291.486 229.547 291.486 225.729C291.486 220.154 290.84 215.911 289.547 213.002C288.274 210.033 286.446 208.548 284.062 208.548H278.033V244.093ZM224.053 190.457V317.728H231.689L251.626 227.82V317.728H259.444V190.457H251.747L231.871 279.637V190.457H224.053ZM177.303 320L174.485 298.273C175.859 297.001 177.02 295.516 177.97 293.819C178.939 292.061 179.748 289.698 180.394 286.728C181.04 283.759 181.545 279.85 181.909 275.001C182.293 270.092 182.555 263.91 182.697 256.456C182.858 248.941 182.939 239.79 182.939 229.002V190.457H213.36V317.728H205.482V212.093H190.453V228.093C190.453 241.184 190.312 252.517 190.029 262.092C189.767 271.668 189.332 279.789 188.726 286.456C188.12 293.122 187.302 298.637 186.272 303.001C185.262 307.364 184.02 310.879 182.545 313.546C181.071 316.213 179.323 318.364 177.303 320ZM155.695 212.093V296.092H136.641C136.842 295.013 137.032 293.892 137.212 292.728C138.283 285.88 139.061 277.183 139.545 266.638C140.05 256.032 140.303 243.183 140.303 228.093V212.093H155.695ZM163.573 296.092V190.457H132.789V228.093C132.789 241.184 132.657 251.971 132.395 260.456C132.132 268.941 131.678 275.698 131.031 280.728C130.385 285.759 129.476 289.546 128.304 292.092C127.153 294.637 125.678 296.546 123.88 297.819V350H131.334V317.728H155.695H162.907V350H170.36V296.092H163.573ZM109.541 317.728V190.457H117.419V317.728H109.541ZM78.3623 261.547L92.9037 317.728H103.054L85.2379 250.911L100.812 190.457H91.0554L78.458 239.911H74.5724V190.457H66.6943V317.728H74.5724V261.547H78.3623ZM0 317.728V190.457H7.87796V296.092H24.0884V190.457H31.9663V296.092H48.1464V190.457H56.0244V317.728H0ZM1101.77 164.383V30.8075H1086.94V3.44865H1126.6V30.8075H1111.77V164.383H1101.77ZM1039.03 139.898L1042.79 167.257C1045.52 165.724 1048.05 163.348 1050.38 160.13C1052.73 156.911 1054.92 152.619 1056.97 147.255C1059.03 141.814 1061.01 135.108 1062.9 127.138C1064.79 119.168 1066.66 109.703 1068.5 98.7446L1084.55 3.44865H1073.02L1061.71 73.6125L1049.46 3.44865H1037.35L1056.01 105.702C1055.34 108.665 1054.65 111.404 1053.94 113.918C1052 120.892 1049.8 126.448 1047.35 130.587C1044.92 134.725 1042.15 137.829 1039.03 139.898ZM992.094 164.383V3.44865H1026.73V29.6579H1002.06V68.9718H1011.29C1017.19 68.9718 1021.9 72.9952 1025.43 81.0419C1028.98 89.0886 1030.75 100.967 1030.75 116.677C1030.75 126.793 1029.97 135.415 1028.42 142.542C1026.86 149.592 1024.62 154.995 1021.71 158.75C1018.82 162.505 1015.34 164.383 1011.25 164.383H992.094ZM1002.06 141.507H1010.49C1013.68 141.507 1016.13 139.4 1017.84 135.185C1019.58 130.97 1020.45 124.877 1020.45 116.907C1020.45 109.167 1019.6 103.075 1017.92 98.6297C1016.23 94.1082 1013.9 91.8475 1010.91 91.8475H1002.06V141.507ZM926.165 3.44865V164.383H962.104V137.944H936.127V93.112H958.119V68.627H936.127V29.6579H961.836V3.44865H926.165ZM906.337 164.383L889.562 92.0774H885.686V164.383H875.724V92.0774H871.734L854.651 164.383H843.272L863.425 81.1568L845.954 3.44865H857.678L871.71 66.7877H875.724V3.44865H885.686V66.7877H889.646L904.23 3.44865H915.609L897.87 79.5475L918.138 164.383H906.337ZM717.686 164.383V3.44865H727.303L746.697 98.7617L765.272 3.44865H774.774V164.383H765.08L765.22 53.762L749.755 131.161H742.743L726.664 52.5985L726.805 164.383H717.686ZM659.246 97.2502L643.538 164.383H655.07L669.323 101.389H675.798V164.383H685.76V3.44865H665.76C661.801 3.44865 658.352 5.40285 655.415 9.31125C652.503 13.143 650.243 18.6991 648.633 25.9794C647.05 33.2598 646.258 41.9962 646.258 52.1887C646.258 64.1438 647.395 73.9531 649.668 81.6167C651.967 89.2802 655.16 94.4914 659.246 97.2502ZM675.798 76.9036H665.99C662.797 76.9036 660.383 74.7961 658.748 70.5812C657.114 66.2896 656.296 60.1588 656.296 52.1887C656.296 44.2953 657.19 38.3944 658.978 34.486C660.766 30.5009 663.244 28.5084 666.411 28.5084H675.798V76.9036ZM589.943 164.383V3.44865H599.904V65.9831H624.272V3.44865H634.234V164.383H624.272V93.3419H599.904V164.383H589.943ZM532.099 3.44865V164.383H542.06V93.3419H566.428V164.383H576.39V3.44865H566.428V65.9831H542.06V3.44865H532.099ZM472.013 164.383L492.588 3.44865H503.699L524.695 164.383H513.469L508.91 127.943H487.339L482.933 164.383H472.013ZM489.791 102.538H506.381L497.952 37.2448L489.791 102.538ZM428.981 3.44865V164.383H448.905C452.736 164.383 456.057 162.467 458.867 158.635C461.676 154.727 463.835 149.324 465.342 142.427C466.874 135.53 467.64 127.56 467.64 118.517C467.64 108.247 466.695 99.5493 464.805 92.4222C462.915 85.2952 460.514 80.3522 457.602 77.5933C458.981 75.8307 460.284 73.3017 461.51 70.0064C462.736 66.6344 463.732 62.726 464.499 58.2812C465.265 53.8363 465.648 49.1233 465.648 44.142C465.648 30.7308 464.039 20.615 460.821 13.7944C457.628 6.89724 453.413 3.44865 448.177 3.44865H428.981ZM447.334 141.507H438.943V92.882H447.372C450.718 92.882 453.209 94.9895 454.844 99.2045C456.504 103.419 457.334 109.474 457.334 117.367C457.334 125.414 456.504 131.468 454.844 135.53C453.183 139.515 450.68 141.507 447.334 141.507ZM446.721 71.2709H438.943V26.3243H446.568C449.582 26.3243 451.893 28.2018 453.503 31.957C455.137 35.6355 455.955 40.9999 455.955 48.0504C455.955 52.8784 455.572 57.055 454.805 60.5803C454.039 64.0288 452.966 66.6728 451.587 68.512C450.208 70.3513 448.586 71.2709 446.721 71.2709ZM380.674 167.257L376.919 139.898C380.035 137.829 382.807 134.725 385.233 130.587C387.685 126.448 389.882 120.892 391.823 113.918C392.532 111.404 393.223 108.665 393.896 105.702L375.233 3.44865H387.34L399.593 73.6124L410.904 3.44865H422.436L406.383 98.7446C404.544 109.703 402.679 119.168 400.789 127.138C398.899 135.108 396.919 141.814 394.85 147.255C392.807 152.619 390.61 156.911 388.26 160.13C385.936 163.348 383.407 165.724 380.674 167.257ZM339.717 93.3419L358.105 164.383H370.94L348.411 79.8924L368.105 3.44865H355.767L339.838 65.9831H334.924V3.44865H324.963V164.383H334.924V93.3419H339.717ZM301.461 164.383V3.44865H311.423V164.383H301.461ZM238.787 139.783L242.35 167.257C244.904 165.187 247.114 162.467 248.978 159.095C250.843 155.723 252.414 151.278 253.691 145.76C254.994 140.243 256.028 133.269 256.795 124.839C257.561 116.409 258.11 106.14 258.442 94.0316C258.8 81.9232 258.978 67.5924 258.978 51.0392V30.8074H277.982V164.383H287.944V3.44865H249.477V52.1887C249.477 65.8298 249.374 77.4017 249.17 86.9045C248.991 96.3306 248.659 104.147 248.174 110.355C247.714 116.486 247.076 121.429 246.258 125.184C245.441 128.939 244.419 131.928 243.193 134.15C241.992 136.296 240.524 138.173 238.787 139.783ZM206.454 167.831C202.393 167.831 198.626 165.724 195.152 161.509C191.704 157.217 188.702 151.278 186.148 143.691C183.594 136.104 181.614 127.215 180.209 117.022C178.804 106.83 178.102 95.7941 178.102 83.9156C178.102 71.9605 178.804 60.8867 180.209 50.6942C181.614 40.5018 183.594 31.6121 186.148 24.0252C188.702 16.4383 191.704 10.5374 195.152 6.32241C198.626 2.10747 202.393 0 206.454 0C210.49 0 214.232 2.14579 217.681 6.43736C221.129 10.7289 224.13 16.7065 226.684 24.37C229.239 32.0336 231.231 40.9616 232.661 51.1541C234.092 61.2699 234.807 72.1904 234.807 83.9156C234.807 95.7941 234.092 106.83 232.661 117.022C231.231 127.215 229.239 136.104 226.684 143.691C224.13 151.278 221.129 157.217 217.681 161.509C214.232 165.724 210.49 167.831 206.454 167.831ZM206.454 139.668C208.983 139.668 211.333 138.365 213.504 135.759C215.701 133.077 217.604 129.322 219.213 124.494C220.848 119.589 222.112 113.727 223.006 106.906C223.926 100.009 224.386 92.3455 224.386 83.9156C224.386 72.6503 223.594 62.8409 222.01 54.4877C220.426 46.1344 218.281 39.6588 215.573 35.0607C212.866 30.4625 209.826 28.1635 206.454 28.1635C203.9 28.1635 201.538 29.4663 199.366 32.0719C197.195 34.6775 195.292 38.4326 193.658 43.3373C192.048 48.2419 190.784 54.1045 189.864 60.9251C188.97 67.7456 188.523 75.4091 188.523 83.9156C188.523 95.181 189.303 104.99 190.861 113.344C192.444 121.697 194.59 128.173 197.297 132.771C200.005 137.369 203.057 139.668 206.454 139.668ZM110.792 3.44865V164.383H119.911L119.771 52.5984L135.85 131.161H142.861L158.326 53.7619L158.187 164.383H167.881V3.44865H158.379L139.804 98.7617L120.409 3.44865H110.792ZM50.708 164.383L71.2827 3.44865H82.3939L103.39 164.383H92.164L87.6046 127.943H66.0337L61.6276 164.383H50.708ZM68.4858 102.538H85.0759L76.6467 37.2448L68.4858 102.538ZM13.2567 157.486C17.4457 164.383 22.3244 167.831 27.8928 167.831C32.1584 167.831 35.9643 166.184 39.3104 162.888C42.682 159.593 45.645 154.957 48.1993 148.979L43.6016 123.804C41.4049 129.016 39.0677 132.809 36.5901 135.185C34.138 137.56 31.622 138.748 29.0422 138.748C25.2108 138.748 21.903 136.564 19.1188 132.196C16.3346 127.828 14.189 121.582 12.682 113.459C11.175 105.259 10.4215 95.3726 10.4215 83.8007C10.4215 75.3708 10.8429 67.7839 11.6858 61.04C12.5287 54.2961 13.742 48.5485 15.3257 43.7971C16.9093 38.969 18.8251 35.2905 21.0728 32.7616C23.3206 30.2326 25.8621 28.9681 28.6974 28.9681C31.3538 28.9681 33.7676 30.1177 35.9387 32.4167C38.1354 34.6392 40.0511 38.0877 41.6859 42.7625L46.7817 18.2775C44.4573 12.4532 41.8008 7.97007 38.8123 4.82803C35.8238 1.60934 32.2223 0 28.0077 0C23.9208 0 20.166 2.06915 16.7433 6.20746C13.3461 10.2691 10.3832 16.0934 7.85441 23.6803C5.35122 31.1906 3.40997 40.0803 2.03065 50.3494C0.676885 60.5419 0 71.8073 0 84.1456C0 101.082 1.1622 115.834 3.48659 128.402C5.81099 140.894 9.0677 150.588 13.2567 157.486Z" fill="white"/>
</svg>
