<svg width="106" height="118" viewBox="0 0 106 118" fill="none" xmlns="http://www.w3.org/2000/svg">
<g clip-path="url(#clip0_202_7145)">
<path d="M53.03 103.645L52.08 103.165C51.45 102.845 49.14 101.625 45.93 99.305C42.57 96.875 37.51 92.705 32.46 86.615C23.59 75.915 13.01 57.065 12.98 28.035V26.435L14.54 26.085C27.9 23.095 35.81 18.865 41.59 15.775C46.56 13.125 49.52 11.635 52.97 11.635C56.42 11.635 59.39 13.125 64.33 15.765L64.49 15.845C70.25 18.915 78.15 23.115 91.41 26.085L92.98 26.435V28.035C92.93 80.045 57.93 100.925 53.94 103.135L53.01 103.645H53.03ZM17.01 29.615C17.32 51.275 23.55 69.585 35.55 84.055C40.33 89.825 45.12 93.765 48.28 96.065C50.32 97.535 51.96 98.535 52.94 99.085C55.7 97.405 63.63 92.075 71.31 82.265C82.72 67.695 88.66 49.985 88.97 29.615C76.13 26.555 68.35 22.425 62.62 19.375L62.46 19.285C58.08 16.945 55.48 15.625 52.98 15.625C50.48 15.625 47.88 16.945 43.5 19.285C37.73 22.375 29.93 26.535 16.99 29.615H17.01Z" fill="#009A9D"/>
<path d="M104.86 26.755L100.87 26.525C100.99 24.465 101.06 22.345 101.09 20.235C98.95 19.735 96.84 19.185 94.8 18.615L95.88 14.765C98.35 15.465 100.92 16.105 103.53 16.695L105.1 17.045V18.645C105.1 21.375 105.02 24.105 104.87 26.755H104.86Z" fill="#FF7330"/>
<path d="M71.67 103.255L68.86 100.405C72.09 97.215 75.15 93.765 77.95 90.145L81.11 92.595C78.2 96.355 75.02 99.935 71.67 103.245V103.255ZM89.09 80.815L85.64 78.795C87.93 74.875 90.01 70.755 91.8 66.545L95.48 68.105C93.62 72.475 91.47 76.745 89.09 80.815ZM100.22 54.705L96.37 53.605C97.61 49.275 98.62 44.765 99.37 40.205L103.32 40.855C102.54 45.575 101.5 50.235 100.22 54.715V54.705Z" fill="#FF7330"/>
<path d="M53.03 117.605L52.08 117.125C51.36 116.755 48.72 115.365 45.03 112.775L47.33 109.505C49.84 111.265 51.8 112.425 52.94 113.055C54.07 112.385 56 111.155 58.47 109.335L60.85 112.555C57.25 115.215 54.66 116.705 53.96 117.095L53.03 117.605Z" fill="#FF7330"/>
<path d="M34.01 103.645C31.36 101.085 28.81 98.335 26.43 95.475C25.77 94.675 25.11 93.855 24.45 93.015L27.61 90.555C28.24 91.365 28.88 92.155 29.51 92.925C31.8 95.675 34.24 98.325 36.78 100.775L34 103.655L34.01 103.645ZM16.48 81.145C14.13 77.065 12 72.755 10.18 68.335L13.88 66.805C15.64 71.065 17.68 75.215 19.95 79.145L16.49 81.145H16.48ZM5.57 54.835C4.34 50.345 3.34 45.665 2.59 40.905L6.54 40.285C7.26 44.895 8.23 49.425 9.42 53.775L5.56 54.835H5.57Z" fill="#FF7330"/>
<path d="M1.11999 26.745C0.979994 24.095 0.899994 21.365 0.899994 18.645V17.045L2.45999 16.695C5.06999 16.115 7.63999 15.465 10.11 14.765L11.19 18.615C9.14999 19.185 7.03999 19.735 4.89999 20.235C4.91999 22.355 4.98999 24.465 5.09999 26.535L1.10999 26.745H1.11999Z" fill="#FF7330"/>
<path d="M28.72 12.295L27.09 8.645C31.51 6.665 35.11 4.745 38.29 3.045C40.09 2.085 41.81 1.175 43.4 0.405004L45.14 4.005C43.62 4.735 41.94 5.635 40.21 6.555C36.94 8.305 33.27 10.265 28.72 12.295ZM77.26 12.285C72.81 10.295 69.2 8.365 66.01 6.675L65.79 6.555C64.05 5.625 62.36 4.725 60.84 3.995L62.58 0.395004C64.16 1.165 65.89 2.075 67.67 3.025L67.88 3.135C71.02 4.805 74.57 6.695 78.89 8.635L77.26 12.285Z" fill="#FF7330"/>
<path d="M70.95 34.965C62.74 31.665 54.99 35.085 55.53 42.065C55.7 44.145 58.81 51.105 58.88 57.815C58.93 65.525 51.25 74.585 51.25 77.615H44.4C45.83 77.155 53.7 66.975 55.55 62.755C56.91 59.625 58.63 49.715 53.05 44.215C46.98 38.225 45.18 40.845 44.86 41.235C44.42 41.765 43.74 43.975 44.3 46.375C44.81 48.535 46.19 51.075 46.19 52.995C46.19 56.945 43.3 61.135 39.95 61.135C38.59 61.135 34.99 59.145 34.99 53.885C34.99 48.625 36.91 42.085 43.49 39.075C45.82 38.005 48.4 38.735 50.49 40.575C52.51 42.345 54.38 44.845 54.13 43.455C53.84 41.855 53.96 41.245 53.98 40.955C54.1 39.375 55.32 34.335 61.56 33.055C63.7 32.615 66.39 32.185 70.99 33.345V34.945H70.94L70.95 34.965Z" fill="#009A9D"/>
</g>
<defs>
<clipPath id="clip0_202_7145">
<rect width="104.2" height="117.21" fill="white" transform="translate(0.899994 0.395004)"/>
</clipPath>
</defs>
</svg>
