<svg width="225" height="224" viewBox="0 0 225 224" fill="none" xmlns="http://www.w3.org/2000/svg">
<g filter="url(#filter0_bd_200_5273)">
<rect x="24.8252" y="24" width="176" height="176" rx="16" fill="#FAFBFF" shape-rendering="crispEdges"/>
<g clip-path="url(#clip0_200_5273)">
<path d="M112.856 156.645L111.906 156.165C111.276 155.845 108.966 154.625 105.756 152.305C102.396 149.875 97.3357 145.705 92.2857 139.615C83.4157 128.915 72.8357 110.065 72.8057 81.035V79.435L74.3657 79.085C87.7257 76.095 95.6357 71.865 101.416 68.775C106.386 66.125 109.346 64.635 112.796 64.635C116.246 64.635 119.216 66.125 124.156 68.765L124.316 68.845C130.076 71.915 137.976 76.115 151.236 79.085L152.806 79.435V81.035C152.756 133.045 117.756 153.925 113.766 156.135L112.836 156.645H112.856ZM76.8357 82.615C77.1457 104.275 83.3757 122.585 95.3757 137.055C100.156 142.825 104.946 146.765 108.106 149.065C110.146 150.535 111.786 151.535 112.766 152.085C115.526 150.405 123.456 145.075 131.136 135.265C142.546 120.695 148.486 102.985 148.796 82.615C135.956 79.555 128.176 75.425 122.446 72.375L122.286 72.285C117.906 69.945 115.306 68.625 112.806 68.625C110.306 68.625 107.706 69.945 103.326 72.285C97.5557 75.375 89.7557 79.535 76.8157 82.615H76.8357Z" fill="#009A9D"/>
<path d="M164.686 79.755L160.696 79.525C160.816 77.465 160.886 75.345 160.916 73.235C158.776 72.735 156.666 72.185 154.626 71.615L155.706 67.765C158.176 68.465 160.746 69.105 163.356 69.695L164.926 70.045V71.645C164.926 74.375 164.846 77.105 164.696 79.755H164.686Z" fill="#FF7330"/>
<path d="M131.496 156.255L128.686 153.405C131.916 150.215 134.976 146.765 137.776 143.145L140.936 145.595C138.026 149.355 134.846 152.935 131.496 156.245V156.255ZM148.916 133.815L145.466 131.795C147.756 127.875 149.836 123.755 151.626 119.545L155.306 121.105C153.446 125.475 151.296 129.745 148.916 133.815ZM160.046 107.705L156.196 106.605C157.436 102.275 158.446 97.765 159.196 93.205L163.146 93.855C162.366 98.575 161.326 103.235 160.046 107.715V107.705Z" fill="#FF7330"/>
<path d="M112.855 170.605L111.905 170.125C111.185 169.755 108.545 168.365 104.855 165.775L107.155 162.505C109.665 164.265 111.625 165.425 112.765 166.055C113.895 165.385 115.825 164.155 118.295 162.335L120.675 165.555C117.075 168.215 114.485 169.705 113.785 170.095L112.855 170.605Z" fill="#FF7330"/>
<path d="M93.836 156.645C91.186 154.085 88.636 151.335 86.256 148.475C85.596 147.675 84.936 146.855 84.276 146.015L87.436 143.555C88.066 144.365 88.706 145.155 89.336 145.925C91.626 148.675 94.066 151.325 96.606 153.775L93.826 156.655L93.836 156.645ZM76.306 134.145C73.956 130.065 71.826 125.755 70.006 121.335L73.706 119.805C75.466 124.065 77.506 128.215 79.776 132.145L76.316 134.145H76.306ZM65.396 107.835C64.166 103.345 63.166 98.665 62.416 93.905L66.366 93.285C67.086 97.895 68.056 102.425 69.246 106.775L65.386 107.835H65.396Z" fill="#FF7330"/>
<path d="M60.9456 79.745C60.8056 77.095 60.7256 74.365 60.7256 71.645V70.045L62.2856 69.695C64.8956 69.115 67.4656 68.465 69.9356 67.765L71.0156 71.615C68.9756 72.185 66.8656 72.735 64.7256 73.235C64.7456 75.355 64.8156 77.465 64.9256 79.535L60.9356 79.745H60.9456Z" fill="#FF7330"/>
<path d="M88.546 65.295L86.916 61.645C91.336 59.665 94.936 57.745 98.116 56.045C99.916 55.085 101.636 54.175 103.226 53.405L104.966 57.005C103.446 57.735 101.766 58.635 100.036 59.555C96.766 61.305 93.096 63.265 88.546 65.295ZM137.086 65.285C132.636 63.295 129.026 61.365 125.836 59.675L125.616 59.555C123.876 58.625 122.186 57.725 120.666 56.995L122.406 53.395C123.986 54.165 125.716 55.075 127.496 56.025L127.706 56.135C130.846 57.805 134.396 59.695 138.716 61.635L137.086 65.285Z" fill="#FF7330"/>
<path d="M130.775 87.965C122.565 84.665 114.815 88.085 115.355 95.065C115.525 97.145 118.635 104.105 118.705 110.815C118.755 118.525 111.075 127.585 111.075 130.615H104.225C105.655 130.155 113.525 119.975 115.375 115.755C116.735 112.625 118.455 102.715 112.875 97.215C106.805 91.225 105.005 93.845 104.685 94.235C104.245 94.765 103.565 96.975 104.125 99.375C104.635 101.535 106.015 104.075 106.015 105.995C106.015 109.945 103.125 114.135 99.7754 114.135C98.4154 114.135 94.8154 112.145 94.8154 106.885C94.8154 101.625 96.7354 95.085 103.315 92.075C105.645 91.005 108.225 91.735 110.315 93.575C112.335 95.345 114.205 97.845 113.955 96.455C113.665 94.855 113.785 94.245 113.805 93.955C113.925 92.375 115.145 87.335 121.385 86.055C123.525 85.615 126.215 85.185 130.815 86.345V87.945H130.765L130.775 87.965Z" fill="#009A9D"/>
</g>
</g>
<defs>
<filter id="filter0_bd_200_5273" x="0.825195" y="0" width="224" height="224" filterUnits="userSpaceOnUse" color-interpolation-filters="sRGB">
<feFlood flood-opacity="0" result="BackgroundImageFix"/>
<feGaussianBlur in="BackgroundImageFix" stdDeviation="4"/>
<feComposite in2="SourceAlpha" operator="in" result="effect1_backgroundBlur_200_5273"/>
<feColorMatrix in="SourceAlpha" type="matrix" values="0 0 0 0 0 0 0 0 0 0 0 0 0 0 0 0 0 0 127 0" result="hardAlpha"/>
<feOffset/>
<feGaussianBlur stdDeviation="12"/>
<feComposite in2="hardAlpha" operator="out"/>
<feColorMatrix type="matrix" values="0 0 0 0 0 0 0 0 0 0.603922 0 0 0 0 0.615686 0 0 0 0.1 0"/>
<feBlend mode="normal" in2="effect1_backgroundBlur_200_5273" result="effect2_dropShadow_200_5273"/>
<feBlend mode="normal" in="SourceGraphic" in2="effect2_dropShadow_200_5273" result="shape"/>
</filter>
<clipPath id="clip0_200_5273">
<rect width="104.2" height="117.21" fill="white" transform="translate(60.7256 53.395)"/>
</clipPath>
</defs>
</svg>
