<svg width="225" height="224" viewBox="0 0 225 224" fill="none" xmlns="http://www.w3.org/2000/svg">
<g filter="url(#filter0_bd_200_5286)">
<rect x="24.8252" y="24" width="176" height="176" rx="16" fill="#FAFBFF" shape-rendering="crispEdges"/>
<g clip-path="url(#clip0_200_5286)">
<path d="M101.291 76.65L101.161 76.58C99.6806 75.81 98.3406 75 97.1606 74.16C96.9206 75.6 96.5606 77.11 96.0506 78.73V78.86C95.8106 79.46 95.6806 80.37 96.1206 81.45C96.9306 83.36 99.1106 84.27 101.021 83.46C102.931 82.65 103.841 80.47 103.041 78.56C102.601 77.52 101.861 76.95 101.291 76.68" fill="#009A9D"/>
<path d="M88.7903 67.31H88.8603C91.1803 68.08 93.5603 69.12 95.6403 70.57C96.0803 68.09 97.0503 65.67 98.1603 63.49V63.42C99.2303 61.37 99.3403 58.99 98.4603 56.87C96.8103 52.87 92.2103 50.96 88.2203 52.64C84.2203 54.29 82.3103 58.89 83.9903 62.88C84.8603 65 86.6103 66.61 88.8303 67.35" fill="#FF7330"/>
<path d="M124.39 147.36H124.46C125.97 148.17 127.31 149.01 128.49 149.84C128.73 148.4 129.1 146.89 129.6 145.27V145.13C129.84 144.53 129.97 143.62 129.53 142.55C128.72 140.64 126.54 139.73 124.63 140.54C122.72 141.35 121.81 143.53 122.61 145.44C123.05 146.48 123.79 147.05 124.36 147.35" fill="#009A9D"/>
<path d="M136.85 156.69H136.78C134.46 155.92 132.08 154.88 130 153.43C129.56 155.91 128.59 158.33 127.48 160.51C126.44 162.59 126.34 165.01 127.21 167.13C128.86 171.12 133.46 173.04 137.45 171.36C141.45 169.71 143.36 165.12 141.68 161.12C140.81 159 139.03 157.36 136.84 156.66" fill="#FF7330"/>
<path d="M64.2807 126.64H64.2107C62.1607 125.57 59.7807 125.46 57.6607 126.34C53.6607 127.99 51.7507 132.59 53.4307 136.58C55.0807 140.57 59.6807 142.49 63.6707 140.81C65.7907 139.94 67.4007 138.19 68.1407 136.01V135.91C69.0107 133.26 70.0907 130.97 71.3607 129.13C69.1407 128.73 66.7907 127.89 64.3107 126.61" fill="#FF7330"/>
<path d="M79.3602 121.81C78.3202 122.25 77.7502 122.99 77.4802 123.56L77.4102 123.69C76.6402 125.17 75.8702 126.48 74.9902 127.69C76.4302 127.93 77.9502 128.33 79.5202 128.83L79.6502 128.86C80.2502 129.06 81.1602 129.2 82.2402 128.76C84.1502 127.95 85.0602 125.77 84.2602 123.86C83.4502 121.95 81.2702 121.04 79.3602 121.85" fill="#009A9D"/>
<path d="M145.99 95.18C145.39 94.98 144.48 94.84 143.4 95.28C141.49 96.09 140.58 98.27 141.39 100.18C142.2 102.09 144.38 103 146.29 102.19C147.33 101.75 147.9 101.01 148.17 100.44L148.24 100.31C149.01 98.83 149.78 97.52 150.66 96.31C149.22 96.07 147.7 95.67 146.13 95.2H145.99V95.17V95.18Z" fill="#009A9D"/>
<path d="M162.01 83.16C159.89 84.03 158.25 85.81 157.54 87.99V88.06C156.67 90.71 155.59 93 154.32 94.84C156.54 95.24 158.89 96.08 161.37 97.36H161.44C163.49 98.43 165.87 98.54 167.99 97.66C171.99 96.01 173.9 91.41 172.22 87.42C170.57 83.42 165.97 81.51 161.98 83.19" fill="#FF7330"/>
<path d="M79.6602 95.18H79.5602C77.9502 95.72 76.4402 96.09 74.9902 96.32C75.8302 97.5 76.6402 98.84 77.4102 100.32L77.4802 100.45C77.7502 101.02 78.3202 101.76 79.3602 102.2C80.3002 102.57 81.3102 102.57 82.2102 102.2C83.1502 101.83 83.8602 101.09 84.2302 100.19C84.6002 99.25 84.6002 98.24 84.2302 97.34C83.8602 96.4 83.1202 95.69 82.2102 95.33C81.1702 94.89 80.2302 95.03 79.6202 95.23" fill="#009A9D"/>
<path d="M63.6704 97.63C63.8704 97.56 64.0404 97.46 64.2104 97.36H64.2804C65.1204 96.89 65.9304 96.52 66.7304 96.18C68.1704 95.58 69.7504 95.07 71.3604 94.77C69.9204 92.69 68.8704 90.3 68.1404 87.99V87.92C67.4004 85.74 65.7904 83.99 63.6704 83.12C61.7204 82.31 59.6104 82.31 57.6604 83.12C55.7104 83.93 54.2304 85.44 53.4304 87.35C51.7804 91.35 53.6704 95.95 57.6604 97.59C59.6104 98.4 61.7204 98.4 63.6704 97.59" fill="#FF7330"/>
<path d="M145.99 128.82H146.13C147.71 128.28 149.22 127.91 150.66 127.68C149.82 126.5 149.01 125.16 148.24 123.68L148.17 123.55C147.9 122.98 147.33 122.24 146.29 121.8C145.35 121.43 144.34 121.43 143.43 121.8C142.49 122.17 141.78 122.91 141.42 123.81C141.05 124.75 141.05 125.76 141.42 126.66C141.79 127.6 142.53 128.31 143.43 128.67C144.47 129.11 145.41 128.97 146.02 128.77" fill="#009A9D"/>
<path d="M162.01 126.37C161.84 126.44 161.67 126.54 161.47 126.61H161.37C160.53 127.08 159.72 127.45 158.92 127.78C157.48 128.38 155.9 128.89 154.29 129.19C155.73 131.27 156.78 133.65 157.51 135.97V136.07C158.25 138.25 159.86 140 161.98 140.87C163.93 141.68 166.04 141.68 167.99 140.87C169.94 140.06 171.42 138.55 172.22 136.64C173.87 132.64 171.98 128.04 167.99 126.4C166.04 125.59 163.93 125.59 161.98 126.4" fill="#FF7330"/>
<path d="M96.0506 145.28C96.5506 146.89 96.9206 148.4 97.1606 149.85C98.3406 149.01 99.6806 148.21 101.161 147.43L101.291 147.36C101.861 147.09 102.601 146.52 103.041 145.48C103.411 144.54 103.411 143.53 103.041 142.63C102.671 141.69 101.931 140.98 101.021 140.62C100.081 140.25 99.0706 140.25 98.1706 140.62C97.2306 140.99 96.5206 141.73 96.1506 142.63C95.7106 143.67 95.8506 144.61 96.0506 145.21V145.35V145.28Z" fill="#009A9D"/>
<path d="M91.38 155.75C90.57 156.09 89.73 156.39 88.86 156.66H88.76C88.59 156.76 88.39 156.83 88.22 156.9C86.27 157.71 84.79 159.22 83.99 161.13C82.34 165.13 84.23 169.73 88.22 171.37C90.17 172.18 92.28 172.18 94.23 171.37C96.18 170.56 97.66 169.05 98.46 167.14C99.33 165.02 99.23 162.64 98.19 160.59V160.52C97.05 158.34 96.11 155.92 95.64 153.44C94.3 154.38 92.82 155.15 91.37 155.72" fill="#FF7330"/>
<path d="M134.27 68.25C135.04 67.91 135.92 67.61 136.79 67.34H136.86C137.06 67.24 137.23 67.17 137.43 67.1C139.38 66.29 140.86 64.78 141.66 62.87C143.31 58.87 141.42 54.27 137.43 52.63C135.48 51.82 133.37 51.82 131.42 52.63C129.47 53.44 127.99 54.95 127.19 56.86C126.32 58.98 126.42 61.33 127.43 63.37L127.5 63.47C128.61 65.65 129.55 68.07 130.02 70.55C131.36 69.61 132.84 68.84 134.28 68.27" fill="#FF7330"/>
<path d="M129.6 78.69C129.1 77.11 128.73 75.6 128.49 74.16C127.31 75 125.97 75.81 124.49 76.58L124.36 76.65C123.79 76.92 123.05 77.49 122.61 78.53C121.8 80.44 122.74 82.63 124.63 83.43C125.57 83.8 126.58 83.8 127.48 83.43C128.42 83.06 129.13 82.32 129.49 81.42C129.93 80.38 129.79 79.44 129.59 78.83V78.7L129.6 78.69Z" fill="#009A9D"/>
<path d="M96.7205 95.88C97.7905 94.81 97.7905 93.06 96.7205 91.99C96.1205 91.39 95.4405 91.22 95.0105 91.18H94.9105C93.7005 91.08 92.5605 90.88 91.5205 90.64C91.7605 91.68 91.9605 92.82 92.0605 94.06V94.16C92.0905 94.63 92.2605 95.3 92.8705 95.87C93.9405 96.94 95.6905 96.94 96.7705 95.87" fill="#009A9D"/>
<path d="M83.8904 88.36H83.9604C85.7403 88.23 87.6904 88.26 89.5004 88.63C89.1004 86.82 89.0604 84.9 89.2004 83.09V83.02C89.3304 81.34 88.7304 79.7 87.5204 78.49C85.2704 76.24 81.6104 76.24 79.3604 78.49C77.1104 80.74 77.1104 84.4 79.3604 86.65C80.5704 87.86 82.2104 88.46 83.8904 88.33" fill="#009A9D"/>
<path d="M128.93 128.08C127.86 129.15 127.86 130.9 128.93 131.97C129.54 132.57 130.21 132.74 130.68 132.78H130.75C131.99 132.88 133.13 133.08 134.18 133.32C133.94 132.28 133.74 131.14 133.64 129.9V129.8C133.61 129.33 133.44 128.66 132.83 128.09C131.76 127.02 130.01 127.02 128.93 128.09V128.08Z" fill="#009A9D"/>
<path d="M141.791 135.64H141.721C139.941 135.78 138.031 135.74 136.181 135.37C136.581 137.18 136.621 139.1 136.481 140.91C136.341 142.66 136.951 144.3 138.161 145.51C140.411 147.76 144.071 147.76 146.321 145.51C148.571 143.26 148.571 139.6 146.321 137.35C145.111 136.14 143.471 135.54 141.791 135.67" fill="#009A9D"/>
<path d="M83.8601 135.64C82.1801 135.51 80.5401 136.11 79.3301 137.32C77.0801 139.57 77.0801 143.23 79.3301 145.48C81.5801 147.73 85.2401 147.73 87.4901 145.48C88.6701 144.31 89.2701 142.66 89.1701 140.95V140.88C89.0001 138.83 89.1001 136.99 89.4401 135.37C87.8301 135.71 85.9801 135.81 83.9301 135.64H83.8601Z" fill="#009A9D"/>
<path d="M95.0107 132.78C95.4807 132.75 96.1507 132.58 96.7207 131.97C97.7907 130.9 97.7907 129.15 96.7207 128.08C95.6507 127.01 93.9007 127.01 92.8207 128.08C92.2207 128.68 92.0507 129.36 92.0107 129.79V129.89C91.9107 131.1 91.7407 132.24 91.5107 133.28C92.5507 133.04 93.6907 132.88 94.9007 132.78H95.0007H95.0107Z" fill="#009A9D"/>
<path d="M130.64 91.18C130.17 91.21 129.5 91.38 128.93 91.99C127.86 93.06 127.86 94.81 128.93 95.88C130.01 96.95 131.75 96.95 132.83 95.88C133.44 95.28 133.6 94.6 133.64 94.17V94.07C133.74 92.86 133.91 91.72 134.14 90.68C133.1 90.92 131.96 91.08 130.75 91.18H130.65H130.64Z" fill="#009A9D"/>
<path d="M141.79 88.36C143.47 88.49 145.15 87.89 146.32 86.68C148.57 84.43 148.57 80.77 146.32 78.52C144.07 76.27 140.41 76.27 138.16 78.52C136.95 79.73 136.35 81.37 136.48 83.05V83.12C136.65 85.17 136.55 87.01 136.21 88.63C137.82 88.29 139.67 88.19 141.72 88.36H141.79Z" fill="#009A9D"/>
<path d="M85.5006 114.12C85.8406 114.42 86.4406 114.76 87.2806 114.76C88.0206 114.76 88.7206 114.46 89.2306 113.95C89.7706 113.41 90.0406 112.74 90.0406 112C90.0406 111.26 89.7406 110.56 89.2306 110.05C88.6906 109.51 88.0206 109.24 87.2806 109.24C86.4406 109.24 85.8406 109.61 85.5006 109.88L85.4306 109.95C84.4906 110.76 83.5506 111.43 82.6406 112C83.5506 112.57 84.4506 113.24 85.3906 114.05L85.4906 114.12H85.5006Z" fill="#009A9D"/>
<path d="M75.6302 108.24C74.5202 106.96 72.9402 106.23 71.2302 106.23C69.6902 106.23 68.2402 106.83 67.1302 107.91C66.0602 108.98 65.4502 110.46 65.4502 112.01C65.4502 115.2 68.0402 117.79 71.2302 117.79C72.7702 117.79 74.2202 117.19 75.3302 116.11C75.4302 116.01 75.5302 115.91 75.6302 115.77H75.6602C76.1002 115.2 76.5702 114.7 77.0002 114.26C77.8102 113.45 78.7502 112.65 79.7502 112.01C78.1702 111 76.7902 109.69 75.6502 108.32H75.6202V108.25L75.6302 108.24Z" fill="#009A9D"/>
<path d="M140.15 109.89C139.81 109.59 139.21 109.25 138.37 109.25C137.63 109.25 136.93 109.55 136.42 110.06C135.88 110.6 135.61 111.27 135.61 112.01C135.61 112.75 135.91 113.45 136.42 113.96C136.96 114.5 137.63 114.77 138.37 114.77C139.21 114.77 139.81 114.4 140.15 114.13L140.25 114.06C141.19 113.25 142.13 112.58 143.04 112.05C142.13 111.48 141.19 110.81 140.25 110L140.15 109.93V109.9V109.89Z" fill="#009A9D"/>
<path d="M150.05 115.76C151.16 117.04 152.74 117.77 154.42 117.77C155.96 117.77 157.41 117.17 158.52 116.09C159.59 115.02 160.2 113.54 160.2 111.99C160.2 108.8 157.61 106.21 154.42 106.21C152.88 106.21 151.43 106.81 150.32 107.89C150.22 107.99 150.12 108.09 150.02 108.19L149.95 108.26C149.51 108.8 149.04 109.27 148.61 109.7C147.8 110.51 146.86 111.31 145.86 111.95C147.44 112.96 148.82 114.27 149.96 115.64L150.03 115.71L150.06 115.74L150.05 115.76Z" fill="#009A9D"/>
<path d="M114.92 139.3C115.22 138.96 115.56 138.36 115.56 137.52C115.56 136.78 115.26 136.08 114.75 135.57C114.21 135.03 113.54 134.76 112.8 134.76C112.06 134.76 111.36 135.06 110.85 135.57C110.31 136.11 110.04 136.78 110.04 137.52C110.04 138.36 110.41 138.96 110.68 139.3L110.75 139.37C111.56 140.31 112.23 141.25 112.8 142.16C113.37 141.25 114.04 140.31 114.85 139.37L114.92 139.3Z" fill="#009A9D"/>
<path d="M116.54 149.14C115.16 147.96 113.85 146.59 112.85 145.04C112.18 146.08 111.41 146.99 110.6 147.79C110.16 148.23 109.66 148.7 109.16 149.13L109.09 149.2C109.09 149.2 108.89 149.4 108.79 149.5C107.72 150.58 107.11 152.05 107.11 153.6C107.11 156.79 109.7 159.37 112.89 159.37C114.43 159.37 115.88 158.77 116.99 157.69C118.06 156.61 118.67 155.14 118.67 153.59C118.67 151.91 117.93 150.3 116.65 149.19H116.62L116.55 149.12L116.54 149.14Z" fill="#009A9D"/>
<path d="M109.11 74.83C110.49 76.01 111.8 77.38 112.8 78.93C113.47 77.89 114.24 76.98 115.05 76.18C115.49 75.74 115.99 75.27 116.49 74.84H116.52L116.86 74.5C117.93 73.43 118.54 71.95 118.54 70.4C118.54 67.21 115.95 64.62 112.76 64.62C111.22 64.62 109.77 65.22 108.66 66.3C107.59 67.37 106.98 68.85 106.98 70.4C106.98 72.08 107.72 73.66 109 74.76L109.07 74.83H109.1H109.11Z" fill="#009A9D"/>
<path d="M110.73 84.7C110.43 85.04 110.09 85.64 110.09 86.48C110.09 87.99 111.33 89.23 112.84 89.23C113.58 89.23 114.28 88.93 114.79 88.42C115.33 87.88 115.6 87.21 115.6 86.47C115.6 85.63 115.23 85.03 114.96 84.69L114.89 84.59C114.08 83.65 113.41 82.71 112.87 81.8C112.3 82.71 111.63 83.65 110.82 84.59L110.75 84.69H110.72L110.73 84.7Z" fill="#009A9D"/>
<path d="M93.8706 101.83C93.5706 100.86 92.9006 100.12 91.9906 99.75C90.3106 99.04 88.3606 99.85 87.6606 101.56C86.9506 103.24 87.7606 105.19 89.4706 105.89C90.3806 106.26 91.3806 106.23 92.2606 105.79C93.1706 105.29 94.2106 104.92 95.2806 104.72C94.6806 103.85 94.2406 102.84 93.9006 101.83" fill="#009A9D"/>
<path d="M131.78 122.17C132.08 123.11 132.75 123.85 133.66 124.22C135.34 124.93 137.29 124.12 137.99 122.41C138.7 120.73 137.89 118.78 136.18 118.08C135.27 117.71 134.26 117.74 133.39 118.18C132.48 118.65 131.44 119.05 130.37 119.25C130.98 120.12 131.41 121.13 131.75 122.14L131.78 122.17Z" fill="#009A9D"/>
<path d="M102.67 130.94H102.64C101.7 131.24 100.96 131.95 100.59 132.85C99.8803 134.53 100.69 136.48 102.4 137.18C104.08 137.89 106.03 137.08 106.73 135.37C107.1 134.46 107.07 133.46 106.63 132.58C106.09 131.51 105.72 130.5 105.56 129.56C104.79 130.1 103.81 130.57 102.67 130.9" fill="#009A9D"/>
<path d="M122.98 93.03C123.92 92.73 124.66 92.02 125.03 91.12C125.74 89.44 124.93 87.49 123.22 86.79C121.54 86.08 119.59 86.89 118.89 88.6C118.52 89.51 118.55 90.51 118.99 91.39C119.53 92.46 119.9 93.47 120.06 94.41C120.83 93.87 121.81 93.4 122.95 93.07" fill="#009A9D"/>
<path d="M92.2505 118.21C91.3805 117.74 90.3705 117.71 89.4605 118.08C88.6505 118.42 88.0205 119.05 87.6505 119.89C87.3105 120.7 87.3105 121.6 87.6505 122.44C88.3605 124.12 90.3005 124.93 91.9805 124.25C92.7905 123.91 93.4205 123.28 93.7905 122.44C93.7905 122.44 93.8605 122.27 93.8905 122.2C94.0205 121.8 94.1605 121.43 94.2905 121.09C94.5605 120.49 94.8605 119.85 95.2605 119.28C94.2205 119.08 93.1805 118.68 92.2705 118.21" fill="#009A9D"/>
<path d="M133.43 105.79H133.46C134.33 106.26 135.34 106.29 136.21 105.92C137.02 105.58 137.65 104.95 138.02 104.11C138.35 103.3 138.35 102.4 138.02 101.56C137.31 99.88 135.37 99.08 133.69 99.75C132.88 100.09 132.25 100.72 131.88 101.56C131.88 101.63 131.81 101.69 131.78 101.8C131.64 102.2 131.51 102.57 131.38 102.91C131.11 103.51 130.81 104.15 130.41 104.72C131.45 104.92 132.49 105.32 133.4 105.79" fill="#009A9D"/>
<path d="M123.25 137.18C124.06 136.84 124.69 136.21 125.06 135.37C125.4 134.56 125.4 133.66 125.06 132.82C124.69 131.91 123.95 131.24 123.01 130.94C122.04 130.6 121.03 130.17 120.12 129.56C119.99 130.27 119.78 130.9 119.52 131.54C119.39 131.88 119.22 132.21 119.05 132.58C119.05 132.58 118.98 132.78 118.95 132.85C118.61 133.66 118.61 134.56 118.95 135.4C119.66 137.08 121.6 137.89 123.28 137.21" fill="#009A9D"/>
<path d="M102.67 93.03C103.64 93.33 104.65 93.8 105.56 94.41C105.69 93.7 105.9 93.07 106.16 92.43C106.29 92.09 106.46 91.76 106.63 91.39C106.63 91.39 106.7 91.19 106.73 91.12C107.07 90.31 107.07 89.41 106.73 88.57C106.02 86.89 104.08 86.09 102.4 86.76C101.59 87.1 100.96 87.73 100.59 88.57C100.25 89.38 100.25 90.28 100.59 91.12C100.96 92.03 101.7 92.7 102.61 93H102.64L102.67 93.03Z" fill="#009A9D"/>
<path d="M94.8401 110.05C94.2401 110.05 93.8301 110.29 93.6001 110.52L93.5301 110.59C92.8601 111.16 92.2201 111.63 91.5801 112.03C92.2201 112.43 92.8901 112.9 93.5301 113.47H93.6001C93.8401 113.74 94.2701 113.97 94.8401 113.97C95.9101 113.97 96.7901 113.1 96.7901 112.02C96.7901 110.94 95.9201 110.07 94.8401 110.07" fill="#009A9D"/>
<path d="M130.811 113.95C131.411 113.95 131.821 113.71 132.091 113.48H132.121C132.791 112.88 133.431 112.41 134.101 112C133.461 111.6 132.791 111.13 132.151 110.56H132.081C131.841 110.29 131.411 110.06 130.841 110.06C129.771 110.06 128.891 110.93 128.891 112.01C128.891 113.09 129.761 113.96 130.841 113.96" fill="#009A9D"/>
<path d="M112.841 128.02C111.771 128.02 110.891 128.89 110.891 129.97C110.891 130.57 111.131 130.98 111.361 131.21V131.28C111.961 131.92 112.431 132.59 112.841 133.23C113.241 132.59 113.711 131.92 114.281 131.28L114.311 131.21C114.511 130.97 114.781 130.54 114.781 129.97C114.781 128.9 113.911 128.02 112.831 128.02H112.841Z" fill="#009A9D"/>
<path d="M114.32 92.76V92.69C113.72 92.05 113.25 91.38 112.84 90.74C112.44 91.38 111.97 92.02 111.4 92.69V92.76C111.13 93 110.9 93.43 110.9 94C110.9 95.07 111.77 95.95 112.85 95.95C113.93 95.95 114.8 95.08 114.8 94C114.8 93.4 114.56 92.99 114.33 92.76H114.32Z" fill="#009A9D"/>
<path d="M100.11 122.75C99.61 122.75 99.1 122.95 98.73 123.32C98.33 123.72 98.19 124.19 98.16 124.53V124.6C98.09 125.47 97.96 126.28 97.79 127.02C98.53 126.85 99.33 126.72 100.17 126.65H100.24C100.58 126.65 101.05 126.48 101.45 126.08C101.82 125.71 102.02 125.24 102.02 124.7C102.02 124.16 101.82 123.69 101.45 123.32C101.08 122.95 100.61 122.75 100.07 122.75" fill="#009A9D"/>
<path d="M125.54 101.22C126.04 101.22 126.55 101.02 126.92 100.65C127.32 100.25 127.46 99.78 127.49 99.44V99.37C127.56 98.5 127.69 97.72 127.86 96.99C127.12 97.16 126.32 97.29 125.48 97.36H125.41C125.07 97.36 124.6 97.53 124.2 97.93C123.83 98.3 123.63 98.77 123.63 99.31C123.63 99.81 123.83 100.32 124.2 100.69C124.57 101.06 125.04 101.26 125.58 101.26" fill="#009A9D"/>
<path d="M125.54 122.75C125.04 122.75 124.53 122.95 124.16 123.32C123.79 123.69 123.59 124.16 123.59 124.7C123.59 125.2 123.79 125.71 124.16 126.08C124.56 126.48 125.03 126.62 125.37 126.65H125.44C126.31 126.72 127.12 126.85 127.86 127.02C127.69 126.28 127.56 125.48 127.49 124.64V124.57C127.49 124.24 127.32 123.76 126.92 123.36C126.55 122.99 126.08 122.79 125.54 122.79" fill="#009A9D"/>
<path d="M101.49 97.9C101.09 97.5 100.62 97.36 100.28 97.33H100.21C99.3401 97.26 98.5601 97.13 97.8301 96.96C98.0001 97.7 98.1301 98.5 98.2001 99.34V99.41C98.2001 99.75 98.3701 100.22 98.7701 100.62C99.5401 101.39 100.75 101.39 101.52 100.62C101.89 100.25 102.09 99.78 102.09 99.24C102.09 98.7 101.89 98.23 101.52 97.86" fill="#009A9D"/>
</g>
</g>
<defs>
<filter id="filter0_bd_200_5286" x="0.825195" y="0" width="224" height="224" filterUnits="userSpaceOnUse" color-interpolation-filters="sRGB">
<feFlood flood-opacity="0" result="BackgroundImageFix"/>
<feGaussianBlur in="BackgroundImageFix" stdDeviation="4"/>
<feComposite in2="SourceAlpha" operator="in" result="effect1_backgroundBlur_200_5286"/>
<feColorMatrix in="SourceAlpha" type="matrix" values="0 0 0 0 0 0 0 0 0 0 0 0 0 0 0 0 0 0 127 0" result="hardAlpha"/>
<feOffset/>
<feGaussianBlur stdDeviation="12"/>
<feComposite in2="hardAlpha" operator="out"/>
<feColorMatrix type="matrix" values="0 0 0 0 0 0 0 0 0 0.603922 0 0 0 0 0.615686 0 0 0 0.1 0"/>
<feBlend mode="normal" in2="effect1_backgroundBlur_200_5286" result="effect2_dropShadow_200_5286"/>
<feBlend mode="normal" in="SourceGraphic" in2="effect2_dropShadow_200_5286" result="shape"/>
</filter>
<clipPath id="clip0_200_5286">
<rect width="120.01" height="119.94" fill="white" transform="translate(52.8203 52.03)"/>
</clipPath>
</defs>
</svg>
