<svg width="225" height="224" viewBox="0 0 225 224" fill="none" xmlns="http://www.w3.org/2000/svg">
<g filter="url(#filter0_bd_200_5346)">
<rect x="24.8252" y="24" width="176" height="176" rx="16" fill="#FAFBFF" shape-rendering="crispEdges"/>
<g clip-path="url(#clip0_200_5346)">
<path d="M56.826 156.985C55.796 156.825 55.516 156.575 55.516 156.575C54.626 155.495 55.766 149.065 56.456 145.225C56.816 143.215 57.186 141.145 57.526 138.885C59.636 125.105 54.186 108.795 53.246 106.135C52.816 103.985 50.366 88.855 62.976 76.455C70.926 68.645 82.486 67.005 90.786 67.005C95.126 67.005 98.546 67.465 99.996 67.695L101.756 62.925C101.756 62.925 97.216 62.005 90.786 62.005C81.636 62.005 68.656 63.865 59.476 72.885C43.846 88.245 48.436 107.505 48.436 107.505C48.436 107.505 54.676 124.495 52.586 138.135C50.506 151.765 47.096 160.695 56.326 161.975C56.466 161.995 56.616 162.005 56.776 162.005C60.426 162.005 68.246 156.845 77.716 150.175C76.746 149.035 75.626 147.695 74.496 146.325C67.186 151.455 59.426 156.655 56.826 157.005V156.985Z" fill="#009A9D"/>
<path d="M177.366 71.785C177.366 71.785 176.826 66.755 173.186 66.755C172.786 66.755 172.356 66.815 171.886 66.945C168.206 67.975 165.096 69.515 158.356 69.515C156.276 69.515 153.846 69.365 150.936 69.015C147.976 68.655 143.586 68.115 138.636 67.495C139.136 69.015 139.626 70.805 140.036 72.705C144.166 73.215 147.786 73.665 150.336 73.975C153.306 74.335 155.926 74.515 158.356 74.515C164.496 74.515 168.196 73.335 171.176 72.395C171.576 72.265 171.966 72.145 172.346 72.025C172.376 72.135 172.396 72.235 172.416 72.335V72.365L172.446 72.545C173.956 82.285 171.386 90.995 164.346 99.945C158.786 107.015 150.686 113.815 129.236 115.695C127.386 115.855 125.426 116.265 123.376 116.875L126.086 121.305C127.336 120.995 128.536 120.775 129.676 120.675C150.796 118.825 160.836 112.505 168.286 103.025C175.736 93.545 179.226 83.575 177.396 71.765L177.366 71.785Z" fill="#009A9D"/>
<path fill-rule="evenodd" clip-rule="evenodd" d="M119.025 128.165L119.655 122.475L119.565 122.525C119.655 121.845 119.155 121.155 118.485 120.975L112.795 119.335C112.565 118.195 112.255 117.105 111.845 116.055L115.775 111.545C116.275 110.995 116.315 110.175 115.865 109.635L112.295 105.125C111.845 104.535 111.075 104.395 110.445 104.765L105.305 107.675C104.405 107.035 103.405 106.495 102.375 106.035L102.015 100.075C101.965 99.345 101.425 98.755 100.705 98.665L95.0652 98.025C94.3852 97.975 93.6652 98.435 93.4852 99.115L91.9552 104.805C90.8252 104.985 89.6952 105.305 88.6652 105.715L84.2852 101.795C83.7452 101.295 82.9352 101.245 82.3852 101.705L77.9152 105.305C77.3252 105.765 77.1952 106.535 77.5552 107.175L80.3552 112.365C79.7252 113.325 79.1352 114.325 78.6852 115.375L72.9052 115.645C72.1852 115.695 71.5952 116.235 71.5052 116.965L70.8752 122.655C70.8252 123.335 71.2352 124.065 71.9152 124.245L77.5552 125.885C77.7352 127.025 78.0952 128.115 78.5052 129.205L74.6252 133.625C74.1252 134.175 74.0852 134.995 74.5352 135.535L78.1052 140.045C78.5552 140.635 79.3252 140.775 79.9552 140.405L85.0952 137.585C85.9952 138.225 86.9952 138.765 88.0252 139.225L88.3452 145.145C88.3952 145.875 88.9352 146.465 89.6552 146.555L95.2952 147.195C95.9752 147.235 96.6952 146.835 96.8752 146.145L98.5452 140.365C99.6752 140.135 100.755 139.815 101.795 139.405L106.265 143.365C106.805 143.865 107.615 143.915 108.165 143.455L112.635 139.855C113.225 139.395 113.355 138.575 112.995 137.945L110.105 132.805C110.735 131.895 111.275 130.895 111.725 129.845L117.685 129.485C118.405 129.435 118.945 128.895 119.035 128.165H119.025ZM134.505 82.725L138.525 80.675V80.535C139.205 80.215 139.515 79.485 139.335 78.805L138.025 74.475C137.845 73.795 137.165 73.335 136.445 73.425L132.025 74.015C131.575 73.375 131.125 72.785 130.585 72.195L131.985 67.865C132.215 67.185 131.945 66.455 131.305 66.085L127.335 63.895C127.155 63.805 127.015 63.755 126.835 63.755C126.335 63.665 125.795 63.895 125.485 64.305L122.735 67.855C121.965 67.675 121.205 67.585 120.435 67.585L118.495 63.535C118.175 62.855 117.415 62.575 116.735 62.765L112.445 64.035C111.765 64.215 111.315 64.905 111.405 65.625L111.905 70.085C111.225 70.545 110.595 71.045 110.005 71.585L105.805 70.085C105.085 69.855 104.405 70.175 104.045 70.815L101.875 74.825C101.555 75.465 101.695 76.235 102.235 76.695L105.705 79.475C105.565 80.295 105.475 81.115 105.475 81.935L101.455 83.845C100.775 84.165 100.465 84.935 100.685 85.625L101.945 89.955C102.125 90.635 102.755 91.095 103.475 91.005L107.895 90.545C108.345 91.225 108.845 91.815 109.385 92.415L107.945 96.695C107.715 97.375 107.995 98.105 108.625 98.475L112.595 100.665C112.775 100.755 112.955 100.805 113.135 100.805C113.635 100.855 114.125 100.665 114.445 100.255L117.285 96.705C118.095 96.845 118.905 96.935 119.675 96.935L121.665 101.035C121.985 101.715 122.705 101.995 123.375 101.805L127.705 100.525C128.385 100.345 128.785 99.655 128.695 98.935L128.105 94.475C128.785 94.065 129.365 93.515 129.955 92.975L134.245 94.435C134.925 94.665 135.645 94.385 136.005 93.755L138.175 89.745C138.495 89.105 138.355 88.285 137.765 87.835L134.195 85.055C134.335 84.285 134.465 83.505 134.465 82.735L134.505 82.725ZM123.045 77.075C122.325 76.665 121.555 76.485 120.785 76.395C119.635 76.285 118.495 76.495 117.485 77.005C116.425 77.535 115.525 78.375 114.925 79.495C113.345 82.455 114.425 86.145 117.315 87.735C120.255 89.325 123.905 88.235 125.485 85.325C127.065 82.365 125.985 78.675 123.095 77.085H123.055L123.045 77.075ZM96.1952 115.145C92.0452 114.685 88.2952 117.695 87.8452 121.885C87.3952 126.075 90.3752 129.855 94.5252 130.305C98.6752 130.765 102.425 127.755 102.875 123.565C103.325 119.375 100.345 115.595 96.1952 115.145Z" fill="#FF7330"/>
</g>
</g>
<defs>
<filter id="filter0_bd_200_5346" x="0.825195" y="0" width="224" height="224" filterUnits="userSpaceOnUse" color-interpolation-filters="sRGB">
<feFlood flood-opacity="0" result="BackgroundImageFix"/>
<feGaussianBlur in="BackgroundImageFix" stdDeviation="4"/>
<feComposite in2="SourceAlpha" operator="in" result="effect1_backgroundBlur_200_5346"/>
<feColorMatrix in="SourceAlpha" type="matrix" values="0 0 0 0 0 0 0 0 0 0 0 0 0 0 0 0 0 0 127 0" result="hardAlpha"/>
<feOffset/>
<feGaussianBlur stdDeviation="12"/>
<feComposite in2="hardAlpha" operator="out"/>
<feColorMatrix type="matrix" values="0 0 0 0 0 0 0 0 0 0.603922 0 0 0 0 0.615686 0 0 0 0.1 0"/>
<feBlend mode="normal" in2="effect1_backgroundBlur_200_5346" result="effect2_dropShadow_200_5346"/>
<feBlend mode="normal" in="SourceGraphic" in2="effect2_dropShadow_200_5346" result="shape"/>
</filter>
<clipPath id="clip0_200_5346">
<rect width="130.04" height="99.99" fill="white" transform="translate(47.8057 62.005)"/>
</clipPath>
</defs>
</svg>
