<svg width="108" height="120" viewBox="0 0 108 120" fill="none" xmlns="http://www.w3.org/2000/svg">
<g clip-path="url(#clip0_202_7210)">
<path fill-rule="evenodd" clip-rule="evenodd" d="M81.78 11.56C64.38 14.68 61.03 26.93 60.68 30.79C60.61 31.46 60.3 32.93 61.1 36.86C61.8 40.26 56.59 34.16 50.97 29.84C45.13 25.35 37.97 23.56 31.47 26.16C13.16 33.53 7.81 48.93 7.81 62.23C7.81 75.53 17.84 79.88 21.65 79.88C31.01 79.88 39.05 69.63 39.05 60.02C39.05 55.32 35.17 49.14 33.74 43.88C32.13 38.09 34.09 32.69 35.28 31.39C36.15 30.44 41.18 24.09 58.1 38.65C73.65 52.02 68.9 76.19 65.05 83.81C59.91 94.06 37.97 118.86 33.99 119.99H53.07C53.07 112.62 74.49 90.55 74.31 71.78C74.17 55.46 65.43 38.48 65.02 33.43C63.55 16.41 85.15 8.10001 108 16.13V12.24C95.21 9.43001 87.77 10.49 81.76 11.54M22.96 71.43C17.54 71.43 13.14 67.61 13.14 62.87C13.14 58.13 19.46 49.08 22.05 46.2V46.16C22.26 45.91 22.57 45.77 22.92 45.77C23.27 45.77 23.58 45.91 23.79 46.16L23.82 46.2C26.41 49.11 32.69 58.13 32.69 62.87C32.69 67.61 28.29 71.43 22.87 71.43" fill="#009A9D"/>
<path d="M13.05 26.55C-2.63 36.34 0.200005 52.2 0.230005 52.37C0.330005 52.97 0.860005 53.39 1.45001 53.39H1.69001C2.35001 53.25 2.81001 52.58 2.67001 51.92C2.67001 51.78 0.0800056 37.39 14.65 28.52L16.08 30.2L19.01 24.31L11.67 25.05L13 26.59L13.03 26.55H13.05Z" fill="#FF7330"/>
<path d="M104.7 4.83L99.81 0.0200043L99.11 1.81C80.98 -3.87 67.8 7.28 67.66 7.39C67.14 7.85 67.07 8.65 67.52 9.14C67.77 9.42 68.11 9.56 68.46 9.56C68.74 9.56 69.05 9.45 69.26 9.24C69.4 9.13 81.45 -1.04 98.19 4.08L97.46 6.04L104.69 4.74V4.81L104.7 4.83Z" fill="#FF7330"/>
<path d="M83.91 62.13C83.56 61.53 82.83 61.32 82.2 61.64C81.61 61.96 81.36 62.73 81.71 63.36C81.78 63.5 88.73 76.73 77.48 88.66L75.52 87.36L74.51 93.71L81.32 91.29L79.54 90.1C91.63 76.94 83.98 62.31 83.87 62.17L83.9 62.13H83.91Z" fill="#FF7330"/>
</g>
<defs>
<clipPath id="clip0_202_7210">
<rect width="107.98" height="119.96" fill="white" transform="translate(0.0100098 0.0200043)"/>
</clipPath>
</defs>
</svg>
