<svg width="225" height="224" viewBox="0 0 225 224" fill="none" xmlns="http://www.w3.org/2000/svg">
<g filter="url(#filter0_bd_200_5338)">
<rect x="24.8252" y="24" width="176" height="176" rx="16" fill="#FAFBFF" shape-rendering="crispEdges"/>
<g clip-path="url(#clip0_200_5338)">
<path fill-rule="evenodd" clip-rule="evenodd" d="M140.605 63.56C123.205 66.68 119.855 78.93 119.505 82.79C119.435 83.46 119.125 84.93 119.925 88.86C120.625 92.26 115.415 86.16 109.795 81.84C103.955 77.35 96.7948 75.56 90.2948 78.16C71.9848 85.53 66.6348 100.93 66.6348 114.23C66.6348 127.53 76.6648 131.88 80.4748 131.88C89.8348 131.88 97.8748 121.63 97.8748 112.02C97.8748 107.32 93.9948 101.14 92.5648 95.88C90.9548 90.09 92.9148 84.69 94.1048 83.39C94.9748 82.44 100.005 76.09 116.925 90.65C132.475 104.02 127.725 128.19 123.875 135.81C118.735 146.06 96.7948 170.86 92.8148 171.99H111.895C111.895 164.62 133.315 142.55 133.135 123.78C132.995 107.46 124.255 90.48 123.845 85.43C122.375 68.41 143.975 60.1 166.825 68.13V64.24C154.035 61.43 146.595 62.49 140.585 63.54M81.7848 123.43C76.3648 123.43 71.9648 119.61 71.9648 114.87C71.9648 110.13 78.2848 101.08 80.8748 98.2V98.16C81.0848 97.91 81.3948 97.77 81.7448 97.77C82.0948 97.77 82.4048 97.91 82.6148 98.16L82.6448 98.2C85.2348 101.11 91.5148 110.13 91.5148 114.87C91.5148 119.61 87.1148 123.43 81.6948 123.43" fill="#009A9D"/>
<path d="M71.8751 78.55C56.1951 88.34 59.0251 104.2 59.0551 104.37C59.1551 104.97 59.6851 105.39 60.2751 105.39H60.5151C61.1751 105.25 61.6351 104.58 61.4951 103.92C61.4951 103.78 58.9051 89.39 73.4751 80.52L74.9051 82.2L77.8351 76.31L70.4951 77.05L71.8251 78.59L71.8551 78.55H71.8751Z" fill="#FF7330"/>
<path d="M163.525 56.83L158.635 52.02L157.935 53.81C139.805 48.13 126.625 59.28 126.485 59.39C125.965 59.85 125.895 60.65 126.345 61.14C126.595 61.42 126.935 61.56 127.285 61.56C127.565 61.56 127.875 61.45 128.085 61.24C128.225 61.13 140.275 50.96 157.015 56.08L156.285 58.04L163.515 56.74V56.81L163.525 56.83Z" fill="#FF7330"/>
<path d="M142.735 114.13C142.385 113.53 141.655 113.32 141.025 113.64C140.435 113.96 140.185 114.73 140.535 115.36C140.605 115.5 147.555 128.73 136.305 140.66L134.345 139.36L133.335 145.71L140.145 143.29L138.365 142.1C150.455 128.94 142.805 114.31 142.695 114.17L142.725 114.13H142.735Z" fill="#FF7330"/>
</g>
</g>
<defs>
<filter id="filter0_bd_200_5338" x="0.825195" y="0" width="224" height="224" filterUnits="userSpaceOnUse" color-interpolation-filters="sRGB">
<feFlood flood-opacity="0" result="BackgroundImageFix"/>
<feGaussianBlur in="BackgroundImageFix" stdDeviation="4"/>
<feComposite in2="SourceAlpha" operator="in" result="effect1_backgroundBlur_200_5338"/>
<feColorMatrix in="SourceAlpha" type="matrix" values="0 0 0 0 0 0 0 0 0 0 0 0 0 0 0 0 0 0 127 0" result="hardAlpha"/>
<feOffset/>
<feGaussianBlur stdDeviation="12"/>
<feComposite in2="hardAlpha" operator="out"/>
<feColorMatrix type="matrix" values="0 0 0 0 0 0 0 0 0 0.603922 0 0 0 0 0.615686 0 0 0 0.1 0"/>
<feBlend mode="normal" in2="effect1_backgroundBlur_200_5338" result="effect2_dropShadow_200_5338"/>
<feBlend mode="normal" in="SourceGraphic" in2="effect2_dropShadow_200_5338" result="shape"/>
</filter>
<clipPath id="clip0_200_5338">
<rect width="107.98" height="119.96" fill="white" transform="translate(58.835 52.02)"/>
</clipPath>
</defs>
</svg>
