<svg width="132" height="100" viewBox="0 0 132 100" fill="none" xmlns="http://www.w3.org/2000/svg">
<g clip-path="url(#clip0_202_7218)">
<path d="M9.99998 94.985C8.96998 94.825 8.68998 94.575 8.68998 94.575C7.79998 93.495 8.93998 87.065 9.62998 83.225C9.98998 81.215 10.36 79.145 10.7 76.885C12.81 63.105 7.35998 46.795 6.41998 44.135C5.98998 41.985 3.53998 26.855 16.15 14.455C24.1 6.645 35.66 5.005 43.96 5.005C48.3 5.005 51.72 5.465 53.17 5.695L54.93 0.925005C54.93 0.925005 50.39 0.00500488 43.96 0.00500488C34.81 0.00500488 21.83 1.865 12.65 10.885C-2.98002 26.245 1.60998 45.505 1.60998 45.505C1.60998 45.505 7.84998 62.495 5.75998 76.135C3.67998 89.765 0.26998 98.695 9.49998 99.975C9.63998 99.995 9.78998 100.005 9.94998 100.005C13.6 100.005 21.42 94.845 30.89 88.175C29.92 87.035 28.8 85.695 27.67 84.325C20.36 89.455 12.6 94.655 9.99998 95.005V94.985Z" fill="#009A9D"/>
<path d="M130.54 9.785C130.54 9.785 130 4.755 126.36 4.755C125.96 4.755 125.53 4.815 125.06 4.945C121.38 5.975 118.27 7.51501 111.53 7.51501C109.45 7.51501 107.02 7.36501 104.11 7.01501C101.15 6.65501 96.7599 6.115 91.8099 5.495C92.3099 7.015 92.7999 8.805 93.2099 10.705C97.3399 11.215 100.96 11.665 103.51 11.975C106.48 12.335 109.1 12.515 111.53 12.515C117.67 12.515 121.37 11.335 124.35 10.395C124.75 10.265 125.14 10.145 125.52 10.025C125.55 10.135 125.57 10.235 125.59 10.335V10.365L125.62 10.545C127.13 20.285 124.56 28.995 117.52 37.945C111.96 45.015 103.86 51.815 82.4099 53.695C80.5599 53.855 78.5999 54.265 76.5499 54.875L79.2599 59.305C80.5099 58.995 81.7099 58.775 82.8499 58.675C103.97 56.825 114.01 50.505 121.46 41.025C128.91 31.545 132.4 21.575 130.57 9.76501L130.54 9.785Z" fill="#009A9D"/>
<path fill-rule="evenodd" clip-rule="evenodd" d="M72.2 66.165L72.83 60.475L72.74 60.525C72.83 59.845 72.33 59.155 71.66 58.975L65.97 57.335C65.74 56.195 65.43 55.105 65.02 54.055L68.95 49.545C69.45 48.995 69.49 48.175 69.04 47.635L65.47 43.125C65.02 42.535 64.25 42.395 63.62 42.765L58.48 45.675C57.58 45.035 56.58 44.495 55.55 44.035L55.19 38.075C55.14 37.345 54.6 36.755 53.88 36.665L48.24 36.025C47.56 35.975 46.84 36.435 46.66 37.115L45.13 42.805C44 42.985 42.87 43.305 41.84 43.715L37.46 39.795C36.92 39.295 36.11 39.245 35.56 39.705L31.09 43.305C30.5 43.765 30.37 44.535 30.73 45.175L33.53 50.365C32.9 51.325 32.31 52.325 31.86 53.375L26.08 53.645C25.36 53.695 24.77 54.235 24.68 54.965L24.05 60.655C24 61.335 24.41 62.065 25.09 62.245L30.73 63.885C30.91 65.025 31.27 66.115 31.68 67.205L27.8 71.625C27.3 72.175 27.26 72.995 27.71 73.535L31.28 78.045C31.73 78.635 32.5 78.775 33.13 78.405L38.27 75.585C39.17 76.225 40.17 76.765 41.2 77.225L41.52 83.145C41.57 83.875 42.11 84.465 42.83 84.555L48.47 85.195C49.15 85.235 49.87 84.835 50.05 84.145L51.72 78.365C52.85 78.135 53.93 77.815 54.97 77.405L59.44 81.365C59.98 81.865 60.79 81.915 61.34 81.455L65.81 77.855C66.4 77.395 66.53 76.575 66.17 75.945L63.28 70.805C63.91 69.895 64.45 68.895 64.9 67.845L70.86 67.485C71.58 67.435 72.12 66.895 72.21 66.165H72.2ZM87.68 20.725L91.7 18.675V18.535C92.38 18.215 92.69 17.485 92.51 16.805L91.2 12.475C91.02 11.795 90.34 11.335 89.62 11.425L85.2 12.015C84.75 11.375 84.3 10.785 83.76 10.195L85.16 5.865C85.39 5.185 85.12 4.455 84.48 4.085L80.51 1.895C80.33 1.805 80.19 1.755 80.01 1.755C79.51 1.665 78.97 1.895 78.66 2.305L75.91 5.855C75.14 5.675 74.38 5.585 73.61 5.585L71.67 1.535C71.35 0.855 70.59 0.575 69.91 0.765L65.62 2.035C64.94 2.215 64.49 2.905 64.58 3.625L65.08 8.085C64.4 8.545 63.77 9.045 63.18 9.585L58.98 8.085C58.26 7.855 57.58 8.175 57.22 8.815L55.05 12.825C54.73 13.465 54.87 14.235 55.41 14.695L58.88 17.475C58.74 18.295 58.65 19.115 58.65 19.935L54.63 21.845C53.95 22.165 53.64 22.935 53.86 23.625L55.12 27.955C55.3 28.635 55.93 29.095 56.65 29.005L61.07 28.545C61.52 29.225 62.02 29.815 62.56 30.415L61.12 34.695C60.89 35.375 61.17 36.105 61.8 36.475L65.77 38.665C65.95 38.755 66.13 38.805 66.31 38.805C66.81 38.855 67.3 38.665 67.62 38.255L70.46 34.705C71.27 34.845 72.08 34.935 72.85 34.935L74.84 39.035C75.16 39.715 75.88 39.995 76.55 39.805L80.88 38.525C81.56 38.345 81.96 37.655 81.87 36.935L81.28 32.475C81.96 32.065 82.54 31.515 83.13 30.975L87.42 32.435C88.1 32.665 88.82 32.385 89.18 31.755L91.35 27.745C91.67 27.105 91.53 26.285 90.94 25.835L87.37 23.055C87.51 22.285 87.64 21.505 87.64 20.735L87.68 20.725ZM76.22 15.075C75.5 14.665 74.73 14.485 73.96 14.395C72.81 14.285 71.67 14.495 70.66 15.005C69.6 15.535 68.7 16.375 68.1 17.495C66.52 20.455 67.6 24.145 70.49 25.735C73.43 27.325 77.08 26.235 78.66 23.325C80.24 20.365 79.16 16.675 76.27 15.085H76.23L76.22 15.075ZM49.37 53.145C45.22 52.685 41.47 55.695 41.02 59.885C40.57 64.075 43.55 67.855 47.7 68.305C51.85 68.765 55.6 65.755 56.05 61.565C56.5 57.375 53.52 53.595 49.37 53.145Z" fill="#FF7330"/>
</g>
<defs>
<clipPath id="clip0_202_7218">
<rect width="130.04" height="99.99" fill="white" transform="translate(0.97998 0.00500488)"/>
</clipPath>
</defs>
</svg>
