<svg width="120" height="120" viewBox="0 0 120 120" fill="none" xmlns="http://www.w3.org/2000/svg">
<g clip-path="url(#clip0_202_7158)">
<path d="M48.465 24.65L48.335 24.58C46.855 23.81 45.515 23 44.335 22.16C44.095 23.6 43.735 25.11 43.225 26.73V26.86C42.985 27.46 42.855 28.37 43.295 29.45C44.105 31.36 46.285 32.27 48.195 31.46C50.105 30.65 51.015 28.47 50.215 26.56C49.775 25.52 49.035 24.95 48.465 24.68" fill="#009A9D"/>
<path d="M35.965 15.31H36.035C38.355 16.08 40.735 17.12 42.815 18.57C43.255 16.09 44.225 13.67 45.335 11.49V11.42C46.405 9.37 46.515 6.99 45.635 4.87C43.985 0.870005 39.385 -1.04 35.395 0.640005C31.395 2.29 29.485 6.89001 31.165 10.88C32.035 13 33.785 14.61 36.005 15.35" fill="#FF7330"/>
<path d="M71.565 95.36H71.635C73.145 96.17 74.485 97.01 75.665 97.84C75.905 96.4 76.275 94.89 76.775 93.27V93.13C77.015 92.53 77.145 91.62 76.705 90.55C75.895 88.64 73.715 87.73 71.805 88.54C69.895 89.35 68.985 91.53 69.785 93.44C70.225 94.48 70.965 95.05 71.535 95.35" fill="#009A9D"/>
<path d="M84.025 104.69H83.955C81.635 103.92 79.255 102.88 77.175 101.43C76.735 103.91 75.765 106.33 74.655 108.51C73.615 110.59 73.515 113.01 74.385 115.13C76.035 119.12 80.635 121.04 84.625 119.36C88.625 117.71 90.535 113.12 88.855 109.12C87.985 107 86.205 105.36 84.015 104.66" fill="#FF7330"/>
<path d="M11.455 74.64H11.385C9.33499 73.57 6.95499 73.46 4.83499 74.34C0.834986 75.99 -1.07501 80.59 0.604986 84.58C2.25499 88.57 6.85499 90.49 10.845 88.81C12.965 87.94 14.575 86.19 15.315 84.01V83.91C16.185 81.26 17.265 78.97 18.535 77.13C16.315 76.73 13.965 75.89 11.485 74.61" fill="#FF7330"/>
<path d="M26.535 69.81C25.495 70.25 24.925 70.99 24.655 71.56L24.585 71.69C23.815 73.17 23.045 74.48 22.165 75.69C23.605 75.93 25.125 76.33 26.695 76.83L26.825 76.86C27.425 77.06 28.335 77.2 29.415 76.76C31.325 75.95 32.235 73.77 31.435 71.86C30.625 69.95 28.445 69.04 26.535 69.85" fill="#009A9D"/>
<path d="M93.165 43.18C92.565 42.98 91.655 42.84 90.575 43.28C88.665 44.09 87.755 46.27 88.565 48.18C89.375 50.09 91.555 51 93.465 50.19C94.505 49.75 95.075 49.01 95.345 48.44L95.415 48.31C96.185 46.83 96.955 45.52 97.835 44.31C96.395 44.07 94.875 43.67 93.305 43.2H93.165V43.17V43.18Z" fill="#009A9D"/>
<path d="M109.185 31.16C107.065 32.03 105.425 33.81 104.715 35.99V36.06C103.845 38.71 102.765 41 101.495 42.84C103.715 43.24 106.065 44.08 108.545 45.36H108.615C110.665 46.43 113.045 46.54 115.165 45.66C119.165 44.01 121.075 39.41 119.395 35.42C117.745 31.42 113.145 29.51 109.155 31.19" fill="#FF7330"/>
<path d="M26.835 43.18H26.735C25.125 43.72 23.615 44.09 22.165 44.32C23.005 45.5 23.815 46.84 24.585 48.32L24.655 48.45C24.925 49.02 25.495 49.76 26.535 50.2C27.475 50.57 28.485 50.57 29.385 50.2C30.325 49.83 31.035 49.09 31.405 48.19C31.775 47.25 31.775 46.24 31.405 45.34C31.035 44.4 30.295 43.69 29.385 43.33C28.345 42.89 27.405 43.03 26.795 43.23" fill="#009A9D"/>
<path d="M10.845 45.63C11.045 45.56 11.215 45.46 11.385 45.36H11.455C12.295 44.89 13.105 44.52 13.905 44.18C15.345 43.58 16.925 43.07 18.535 42.77C17.095 40.69 16.045 38.3 15.315 35.99V35.92C14.575 33.74 12.965 31.99 10.845 31.12C8.89501 30.31 6.78501 30.31 4.83501 31.12C2.88501 31.93 1.40501 33.44 0.605007 35.35C-1.04499 39.35 0.845007 43.95 4.83501 45.59C6.78501 46.4 8.89501 46.4 10.845 45.59" fill="#FF7330"/>
<path d="M93.165 76.82H93.305C94.885 76.28 96.395 75.91 97.835 75.68C96.995 74.5 96.185 73.16 95.415 71.68L95.345 71.55C95.075 70.98 94.505 70.24 93.465 69.8C92.525 69.43 91.515 69.43 90.605 69.8C89.665 70.17 88.955 70.91 88.595 71.81C88.225 72.75 88.225 73.76 88.595 74.66C88.965 75.6 89.705 76.31 90.605 76.67C91.645 77.11 92.585 76.97 93.195 76.77" fill="#009A9D"/>
<path d="M109.185 74.37C109.015 74.44 108.845 74.54 108.645 74.61H108.545C107.705 75.08 106.895 75.45 106.095 75.78C104.655 76.38 103.075 76.89 101.465 77.19C102.905 79.27 103.955 81.65 104.685 83.97V84.07C105.425 86.25 107.035 88 109.155 88.87C111.105 89.68 113.215 89.68 115.165 88.87C117.115 88.06 118.595 86.55 119.395 84.64C121.045 80.64 119.155 76.04 115.165 74.4C113.215 73.59 111.105 73.59 109.155 74.4" fill="#FF7330"/>
<path d="M43.225 93.28C43.725 94.89 44.095 96.4 44.335 97.85C45.515 97.01 46.855 96.21 48.335 95.43L48.465 95.36C49.035 95.09 49.775 94.52 50.215 93.48C50.585 92.54 50.585 91.53 50.215 90.63C49.845 89.69 49.105 88.98 48.195 88.62C47.255 88.25 46.245 88.25 45.345 88.62C44.405 88.99 43.695 89.73 43.325 90.63C42.885 91.67 43.025 92.61 43.225 93.21V93.35V93.28Z" fill="#009A9D"/>
<path d="M38.555 103.75C37.745 104.09 36.905 104.39 36.035 104.66H35.935C35.765 104.76 35.565 104.83 35.395 104.9C33.445 105.71 31.965 107.22 31.165 109.13C29.515 113.13 31.405 117.73 35.395 119.37C37.345 120.18 39.455 120.18 41.405 119.37C43.355 118.56 44.835 117.05 45.635 115.14C46.505 113.02 46.405 110.64 45.365 108.59V108.52C44.225 106.34 43.285 103.92 42.815 101.44C41.475 102.38 39.995 103.15 38.545 103.72" fill="#FF7330"/>
<path d="M81.445 16.25C82.215 15.91 83.095 15.61 83.965 15.34H84.035C84.235 15.24 84.405 15.17 84.605 15.1C86.555 14.29 88.035 12.78 88.835 10.87C90.485 6.86999 88.595 2.26999 84.605 0.629991C82.655 -0.180009 80.545 -0.180009 78.595 0.629991C76.645 1.43999 75.165 2.94999 74.365 4.85999C73.495 6.97999 73.595 9.32999 74.605 11.37L74.675 11.47C75.785 13.65 76.725 16.07 77.195 18.55C78.535 17.61 80.015 16.84 81.455 16.27" fill="#FF7330"/>
<path d="M76.775 26.69C76.275 25.11 75.905 23.6 75.665 22.16C74.485 23 73.145 23.81 71.665 24.58L71.535 24.65C70.965 24.92 70.225 25.49 69.785 26.53C68.975 28.44 69.915 30.63 71.805 31.43C72.745 31.8 73.755 31.8 74.655 31.43C75.595 31.06 76.305 30.32 76.665 29.42C77.105 28.38 76.965 27.44 76.765 26.83V26.7L76.775 26.69Z" fill="#009A9D"/>
<path d="M43.895 43.88C44.965 42.81 44.965 41.06 43.895 39.99C43.295 39.39 42.615 39.22 42.185 39.18H42.085C40.875 39.08 39.735 38.88 38.695 38.64C38.935 39.68 39.135 40.82 39.235 42.06V42.16C39.265 42.63 39.435 43.3 40.045 43.87C41.115 44.94 42.865 44.94 43.945 43.87" fill="#009A9D"/>
<path d="M31.065 36.36H31.135C32.915 36.23 34.865 36.26 36.675 36.63C36.275 34.82 36.235 32.9 36.375 31.09V31.02C36.505 29.34 35.905 27.7 34.695 26.49C32.445 24.24 28.785 24.24 26.535 26.49C24.285 28.74 24.285 32.4 26.535 34.65C27.745 35.86 29.385 36.46 31.065 36.33" fill="#009A9D"/>
<path d="M76.105 76.08C75.035 77.15 75.035 78.9 76.105 79.97C76.715 80.57 77.385 80.74 77.855 80.78H77.925C79.165 80.88 80.305 81.08 81.355 81.32C81.115 80.28 80.915 79.14 80.815 77.9V77.8C80.785 77.33 80.615 76.66 80.005 76.09C78.935 75.02 77.185 75.02 76.105 76.09V76.08Z" fill="#009A9D"/>
<path d="M88.965 83.64H88.895C87.115 83.78 85.205 83.74 83.355 83.37C83.755 85.18 83.795 87.1 83.655 88.91C83.515 90.66 84.125 92.3 85.335 93.51C87.585 95.76 91.245 95.76 93.495 93.51C95.745 91.26 95.745 87.6 93.495 85.35C92.285 84.14 90.645 83.54 88.965 83.67" fill="#009A9D"/>
<path d="M31.035 83.64C29.355 83.51 27.715 84.11 26.505 85.32C24.255 87.57 24.255 91.23 26.505 93.48C28.755 95.73 32.415 95.73 34.665 93.48C35.845 92.31 36.445 90.66 36.345 88.95V88.88C36.175 86.83 36.275 84.99 36.615 83.37C35.005 83.71 33.155 83.81 31.105 83.64H31.035Z" fill="#009A9D"/>
<path d="M42.185 80.78C42.655 80.75 43.325 80.58 43.895 79.97C44.965 78.9 44.965 77.15 43.895 76.08C42.825 75.01 41.075 75.01 39.995 76.08C39.395 76.68 39.225 77.36 39.185 77.79V77.89C39.085 79.1 38.915 80.24 38.685 81.28C39.725 81.04 40.865 80.88 42.075 80.78H42.175H42.185Z" fill="#009A9D"/>
<path d="M77.815 39.18C77.345 39.21 76.675 39.38 76.105 39.99C75.035 41.06 75.035 42.81 76.105 43.88C77.185 44.95 78.925 44.95 80.005 43.88C80.615 43.28 80.775 42.6 80.815 42.17V42.07C80.915 40.86 81.085 39.72 81.315 38.68C80.275 38.92 79.135 39.08 77.925 39.18H77.825H77.815Z" fill="#009A9D"/>
<path d="M88.965 36.36C90.645 36.49 92.325 35.89 93.495 34.68C95.745 32.43 95.745 28.77 93.495 26.52C91.245 24.27 87.585 24.27 85.335 26.52C84.125 27.73 83.525 29.37 83.655 31.05V31.12C83.825 33.17 83.725 35.01 83.385 36.63C84.995 36.29 86.845 36.19 88.895 36.36H88.965Z" fill="#009A9D"/>
<path d="M32.675 62.12C33.015 62.42 33.615 62.76 34.455 62.76C35.195 62.76 35.895 62.46 36.405 61.95C36.945 61.41 37.215 60.74 37.215 60C37.215 59.26 36.915 58.56 36.405 58.05C35.865 57.51 35.195 57.24 34.455 57.24C33.615 57.24 33.015 57.61 32.675 57.88L32.605 57.95C31.665 58.76 30.725 59.43 29.815 60C30.725 60.57 31.625 61.24 32.565 62.05L32.665 62.12H32.675Z" fill="#009A9D"/>
<path d="M22.805 56.24C21.695 54.96 20.115 54.23 18.405 54.23C16.865 54.23 15.415 54.83 14.305 55.91C13.235 56.98 12.625 58.46 12.625 60.01C12.625 63.2 15.215 65.79 18.405 65.79C19.945 65.79 21.395 65.19 22.505 64.11C22.605 64.01 22.705 63.91 22.805 63.77H22.835C23.275 63.2 23.745 62.7 24.175 62.26C24.985 61.45 25.925 60.65 26.925 60.01C25.345 59 23.965 57.69 22.825 56.32H22.795V56.25L22.805 56.24Z" fill="#009A9D"/>
<path d="M87.325 57.89C86.985 57.59 86.385 57.25 85.545 57.25C84.805 57.25 84.105 57.55 83.595 58.06C83.055 58.6 82.785 59.27 82.785 60.01C82.785 60.75 83.085 61.45 83.595 61.96C84.135 62.5 84.805 62.77 85.545 62.77C86.385 62.77 86.985 62.4 87.325 62.13L87.425 62.06C88.365 61.25 89.305 60.58 90.215 60.05C89.305 59.48 88.365 58.81 87.425 58L87.325 57.93V57.9V57.89Z" fill="#009A9D"/>
<path d="M97.225 63.76C98.335 65.04 99.915 65.77 101.595 65.77C103.135 65.77 104.585 65.17 105.695 64.09C106.765 63.02 107.375 61.54 107.375 59.99C107.375 56.8 104.785 54.21 101.595 54.21C100.055 54.21 98.605 54.81 97.495 55.89C97.395 55.99 97.295 56.09 97.195 56.19L97.125 56.26C96.685 56.8 96.215 57.27 95.785 57.7C94.975 58.51 94.035 59.31 93.035 59.95C94.615 60.96 95.995 62.27 97.135 63.64L97.205 63.71L97.235 63.74L97.225 63.76Z" fill="#009A9D"/>
<path d="M62.095 87.3C62.395 86.96 62.735 86.36 62.735 85.52C62.735 84.78 62.435 84.08 61.925 83.57C61.385 83.03 60.715 82.76 59.975 82.76C59.235 82.76 58.535 83.06 58.025 83.57C57.485 84.11 57.215 84.78 57.215 85.52C57.215 86.36 57.585 86.96 57.855 87.3L57.925 87.37C58.735 88.31 59.405 89.25 59.975 90.16C60.545 89.25 61.215 88.31 62.025 87.37L62.095 87.3Z" fill="#009A9D"/>
<path d="M63.715 97.14C62.335 95.96 61.025 94.59 60.025 93.04C59.355 94.08 58.585 94.99 57.775 95.79C57.335 96.23 56.835 96.7 56.335 97.13L56.265 97.2C56.265 97.2 56.065 97.4 55.965 97.5C54.895 98.58 54.285 100.05 54.285 101.6C54.285 104.79 56.875 107.37 60.065 107.37C61.605 107.37 63.055 106.77 64.165 105.69C65.235 104.61 65.845 103.14 65.845 101.59C65.845 99.91 65.105 98.3 63.825 97.19H63.795L63.725 97.12L63.715 97.14Z" fill="#009A9D"/>
<path d="M56.285 22.83C57.665 24.01 58.975 25.38 59.975 26.93C60.645 25.89 61.415 24.98 62.225 24.18C62.665 23.74 63.165 23.27 63.665 22.84H63.695L64.035 22.5C65.105 21.43 65.715 19.95 65.715 18.4C65.715 15.21 63.125 12.62 59.935 12.62C58.395 12.62 56.945 13.22 55.835 14.3C54.765 15.37 54.155 16.85 54.155 18.4C54.155 20.08 54.895 21.66 56.175 22.76L56.245 22.83H56.275H56.285Z" fill="#009A9D"/>
<path d="M57.905 32.7C57.605 33.04 57.265 33.64 57.265 34.48C57.265 35.99 58.505 37.23 60.015 37.23C60.755 37.23 61.455 36.93 61.965 36.42C62.505 35.88 62.775 35.21 62.775 34.47C62.775 33.63 62.405 33.03 62.135 32.69L62.065 32.59C61.255 31.65 60.585 30.71 60.045 29.8C59.475 30.71 58.805 31.65 57.995 32.59L57.925 32.69H57.895L57.905 32.7Z" fill="#009A9D"/>
<path d="M41.045 49.83C40.745 48.86 40.075 48.12 39.165 47.75C37.485 47.04 35.535 47.85 34.835 49.56C34.125 51.24 34.935 53.19 36.645 53.89C37.555 54.26 38.555 54.23 39.435 53.79C40.345 53.29 41.385 52.92 42.455 52.72C41.855 51.85 41.415 50.84 41.075 49.83" fill="#009A9D"/>
<path d="M78.955 70.17C79.255 71.11 79.925 71.85 80.835 72.22C82.515 72.93 84.465 72.12 85.165 70.41C85.875 68.73 85.065 66.78 83.355 66.08C82.445 65.71 81.435 65.74 80.565 66.18C79.655 66.65 78.615 67.05 77.545 67.25C78.155 68.12 78.585 69.13 78.925 70.14L78.955 70.17Z" fill="#009A9D"/>
<path d="M49.845 78.94H49.815C48.875 79.24 48.135 79.95 47.765 80.85C47.055 82.53 47.865 84.48 49.575 85.18C51.255 85.89 53.205 85.08 53.905 83.37C54.275 82.46 54.245 81.46 53.805 80.58C53.265 79.51 52.895 78.5 52.735 77.56C51.965 78.1 50.985 78.57 49.845 78.9" fill="#009A9D"/>
<path d="M70.155 41.03C71.095 40.73 71.835 40.02 72.205 39.12C72.915 37.44 72.105 35.49 70.395 34.79C68.715 34.08 66.765 34.89 66.065 36.6C65.695 37.51 65.725 38.51 66.165 39.39C66.705 40.46 67.075 41.47 67.235 42.41C68.005 41.87 68.985 41.4 70.125 41.07" fill="#009A9D"/>
<path d="M39.425 66.21C38.555 65.74 37.545 65.71 36.635 66.08C35.825 66.42 35.195 67.05 34.825 67.89C34.485 68.7 34.485 69.6 34.825 70.44C35.535 72.12 37.475 72.93 39.155 72.25C39.965 71.91 40.595 71.28 40.965 70.44C40.965 70.44 41.035 70.27 41.065 70.2C41.195 69.8 41.335 69.43 41.465 69.09C41.735 68.49 42.035 67.85 42.435 67.28C41.395 67.08 40.355 66.68 39.445 66.21" fill="#009A9D"/>
<path d="M80.605 53.79H80.635C81.505 54.26 82.515 54.29 83.385 53.92C84.195 53.58 84.825 52.95 85.195 52.11C85.525 51.3 85.525 50.4 85.195 49.56C84.485 47.88 82.545 47.08 80.865 47.75C80.055 48.09 79.425 48.72 79.055 49.56C79.055 49.63 78.985 49.69 78.955 49.8C78.815 50.2 78.685 50.57 78.555 50.91C78.285 51.51 77.985 52.15 77.585 52.72C78.625 52.92 79.665 53.32 80.575 53.79" fill="#009A9D"/>
<path d="M70.425 85.18C71.235 84.84 71.865 84.21 72.235 83.37C72.575 82.56 72.575 81.66 72.235 80.82C71.865 79.91 71.125 79.24 70.185 78.94C69.215 78.6 68.205 78.17 67.295 77.56C67.165 78.27 66.955 78.9 66.695 79.54C66.565 79.88 66.395 80.21 66.225 80.58C66.225 80.58 66.155 80.78 66.125 80.85C65.785 81.66 65.785 82.56 66.125 83.4C66.835 85.08 68.775 85.89 70.455 85.21" fill="#009A9D"/>
<path d="M49.845 41.03C50.815 41.33 51.825 41.8 52.735 42.41C52.865 41.7 53.075 41.07 53.335 40.43C53.465 40.09 53.635 39.76 53.805 39.39C53.805 39.39 53.875 39.19 53.905 39.12C54.245 38.31 54.245 37.41 53.905 36.57C53.195 34.89 51.255 34.09 49.575 34.76C48.765 35.1 48.135 35.73 47.765 36.57C47.425 37.38 47.425 38.28 47.765 39.12C48.135 40.03 48.875 40.7 49.785 41H49.815L49.845 41.03Z" fill="#009A9D"/>
<path d="M42.015 58.05C41.415 58.05 41.005 58.29 40.775 58.52L40.705 58.59C40.035 59.16 39.395 59.63 38.755 60.03C39.395 60.43 40.065 60.9 40.705 61.47H40.775C41.015 61.74 41.445 61.97 42.015 61.97C43.085 61.97 43.965 61.1 43.965 60.02C43.965 58.94 43.095 58.07 42.015 58.07" fill="#009A9D"/>
<path d="M77.985 61.95C78.585 61.95 78.995 61.71 79.265 61.48H79.295C79.965 60.88 80.605 60.41 81.275 60C80.635 59.6 79.965 59.13 79.325 58.56H79.255C79.015 58.29 78.585 58.06 78.015 58.06C76.945 58.06 76.065 58.93 76.065 60.01C76.065 61.09 76.935 61.96 78.015 61.96" fill="#009A9D"/>
<path d="M60.015 76.02C58.945 76.02 58.065 76.89 58.065 77.97C58.065 78.57 58.305 78.98 58.535 79.21V79.28C59.135 79.92 59.605 80.59 60.015 81.23C60.415 80.59 60.885 79.92 61.455 79.28L61.485 79.21C61.685 78.97 61.955 78.54 61.955 77.97C61.955 76.9 61.085 76.02 60.005 76.02H60.015Z" fill="#009A9D"/>
<path d="M61.495 40.76V40.69C60.895 40.05 60.425 39.38 60.015 38.74C59.615 39.38 59.145 40.02 58.575 40.69V40.76C58.305 41 58.075 41.43 58.075 42C58.075 43.07 58.945 43.95 60.025 43.95C61.105 43.95 61.975 43.08 61.975 42C61.975 41.4 61.735 40.99 61.505 40.76H61.495Z" fill="#009A9D"/>
<path d="M47.285 70.75C46.785 70.75 46.275 70.95 45.905 71.32C45.505 71.72 45.365 72.19 45.335 72.53V72.6C45.265 73.47 45.135 74.28 44.965 75.02C45.705 74.85 46.505 74.72 47.345 74.65H47.415C47.755 74.65 48.225 74.48 48.625 74.08C48.995 73.71 49.195 73.24 49.195 72.7C49.195 72.16 48.995 71.69 48.625 71.32C48.255 70.95 47.785 70.75 47.245 70.75" fill="#009A9D"/>
<path d="M72.715 49.22C73.215 49.22 73.725 49.02 74.095 48.65C74.495 48.25 74.635 47.78 74.665 47.44V47.37C74.735 46.5 74.865 45.72 75.035 44.99C74.295 45.16 73.495 45.29 72.655 45.36H72.585C72.245 45.36 71.775 45.53 71.375 45.93C71.005 46.3 70.805 46.77 70.805 47.31C70.805 47.81 71.005 48.32 71.375 48.69C71.745 49.06 72.215 49.26 72.755 49.26" fill="#009A9D"/>
<path d="M72.715 70.75C72.215 70.75 71.705 70.95 71.335 71.32C70.965 71.69 70.765 72.16 70.765 72.7C70.765 73.2 70.965 73.71 71.335 74.08C71.735 74.48 72.205 74.62 72.545 74.65H72.615C73.485 74.72 74.295 74.85 75.035 75.02C74.865 74.28 74.735 73.48 74.665 72.64V72.57C74.665 72.24 74.495 71.76 74.095 71.36C73.725 70.99 73.255 70.79 72.715 70.79" fill="#009A9D"/>
<path d="M48.665 45.9C48.265 45.5 47.795 45.36 47.455 45.33H47.385C46.515 45.26 45.735 45.13 45.005 44.96C45.175 45.7 45.305 46.5 45.375 47.34V47.41C45.375 47.75 45.545 48.22 45.945 48.62C46.715 49.39 47.925 49.39 48.695 48.62C49.065 48.25 49.265 47.78 49.265 47.24C49.265 46.7 49.065 46.23 48.695 45.86" fill="#009A9D"/>
</g>
<defs>
<clipPath id="clip0_202_7158">
<rect width="120.01" height="119.94" fill="white" transform="translate(-0.00500488 0.0299988)"/>
</clipPath>
</defs>
</svg>
