<svg width="224" height="224" viewBox="0 0 224 224" fill="none" xmlns="http://www.w3.org/2000/svg">
<g filter="url(#filter0_bd_422_1724)">
<rect x="24" y="24" width="176" height="176" rx="16" fill="#FAFBFF" shape-rendering="crispEdges"/>
<g clip-path="url(#clip0_422_1724)">
<path d="M55.9999 156.985C54.9699 156.825 54.6899 156.575 54.6899 156.575C53.7999 155.495 54.9399 149.065 55.6299 145.225C55.9899 143.215 56.3599 141.145 56.6999 138.885C58.8099 125.105 53.3599 108.795 52.4199 106.135C51.9899 103.985 49.5399 88.855 62.1499 76.455C70.0999 68.645 81.6599 67.005 89.9599 67.005C94.2999 67.005 97.7199 67.465 99.1699 67.695L100.93 62.925C100.93 62.925 96.3899 62.005 89.9599 62.005C80.8099 62.005 67.8299 63.865 58.6499 72.885C43.0199 88.245 47.6099 107.505 47.6099 107.505C47.6099 107.505 53.8499 124.495 51.7599 138.135C49.6799 151.765 46.2699 160.695 55.4999 161.975C55.6399 161.995 55.7899 162.005 55.9499 162.005C59.5999 162.005 67.4199 156.845 76.8899 150.175C75.9199 149.035 74.7999 147.695 73.6699 146.325C66.3599 151.455 58.5999 156.655 55.9999 157.005V156.985Z" fill="#009A9D"/>
<path d="M176.54 71.785C176.54 71.785 176 66.755 172.36 66.755C171.96 66.755 171.53 66.815 171.06 66.945C167.38 67.975 164.27 69.515 157.53 69.515C155.45 69.515 153.02 69.365 150.11 69.015C147.15 68.655 142.76 68.115 137.81 67.495C138.31 69.015 138.8 70.805 139.21 72.705C143.34 73.215 146.96 73.665 149.51 73.975C152.48 74.335 155.1 74.515 157.53 74.515C163.67 74.515 167.37 73.335 170.35 72.395C170.75 72.265 171.14 72.145 171.52 72.025C171.55 72.135 171.57 72.235 171.59 72.335V72.365L171.62 72.545C173.13 82.285 170.56 90.995 163.52 99.945C157.96 107.015 149.86 113.815 128.41 115.695C126.56 115.855 124.6 116.265 122.55 116.875L125.26 121.305C126.51 120.995 127.71 120.775 128.85 120.675C149.97 118.825 160.01 112.505 167.46 103.025C174.91 93.545 178.4 83.575 176.57 71.765L176.54 71.785Z" fill="#009A9D"/>
<path fill-rule="evenodd" clip-rule="evenodd" d="M118.2 128.165L118.83 122.475L118.74 122.525C118.83 121.845 118.33 121.155 117.66 120.975L111.97 119.335C111.74 118.195 111.43 117.105 111.02 116.055L114.95 111.545C115.45 110.995 115.49 110.175 115.04 109.635L111.47 105.125C111.02 104.535 110.25 104.395 109.62 104.765L104.48 107.675C103.58 107.035 102.58 106.495 101.55 106.035L101.19 100.075C101.14 99.345 100.6 98.755 99.88 98.665L94.24 98.025C93.56 97.975 92.84 98.435 92.66 99.115L91.13 104.805C90 104.985 88.87 105.305 87.84 105.715L83.46 101.795C82.92 101.295 82.11 101.245 81.56 101.705L77.09 105.305C76.5 105.765 76.37 106.535 76.73 107.175L79.53 112.365C78.9 113.325 78.31 114.325 77.86 115.375L72.08 115.645C71.36 115.695 70.77 116.235 70.68 116.965L70.05 122.655C70 123.335 70.41 124.065 71.09 124.245L76.73 125.885C76.91 127.025 77.27 128.115 77.68 129.205L73.8 133.625C73.3 134.175 73.26 134.995 73.71 135.535L77.28 140.045C77.73 140.635 78.5 140.775 79.13 140.405L84.27 137.585C85.17 138.225 86.17 138.765 87.2 139.225L87.52 145.145C87.57 145.875 88.11 146.465 88.83 146.555L94.47 147.195C95.15 147.235 95.87 146.835 96.05 146.145L97.72 140.365C98.85 140.135 99.93 139.815 100.97 139.405L105.44 143.365C105.98 143.865 106.79 143.915 107.34 143.455L111.81 139.855C112.4 139.395 112.53 138.575 112.17 137.945L109.28 132.805C109.91 131.895 110.45 130.895 110.9 129.845L116.86 129.485C117.58 129.435 118.12 128.895 118.21 128.165H118.2ZM133.68 82.725L137.7 80.675V80.535C138.38 80.215 138.69 79.485 138.51 78.805L137.2 74.475C137.02 73.795 136.34 73.335 135.62 73.425L131.2 74.015C130.75 73.375 130.3 72.785 129.76 72.195L131.16 67.865C131.39 67.185 131.12 66.455 130.48 66.085L126.51 63.895C126.33 63.805 126.19 63.755 126.01 63.755C125.51 63.665 124.97 63.895 124.66 64.305L121.91 67.855C121.14 67.675 120.38 67.585 119.61 67.585L117.67 63.535C117.35 62.855 116.59 62.575 115.91 62.765L111.62 64.035C110.94 64.215 110.49 64.905 110.58 65.625L111.08 70.085C110.4 70.545 109.77 71.045 109.18 71.585L104.98 70.085C104.26 69.855 103.58 70.175 103.22 70.815L101.05 74.825C100.73 75.465 100.87 76.235 101.41 76.695L104.88 79.475C104.74 80.295 104.65 81.115 104.65 81.935L100.63 83.845C99.95 84.165 99.64 84.935 99.86 85.625L101.12 89.955C101.3 90.635 101.93 91.095 102.65 91.005L107.07 90.545C107.52 91.225 108.02 91.815 108.56 92.415L107.12 96.695C106.89 97.375 107.17 98.105 107.8 98.475L111.77 100.665C111.95 100.755 112.13 100.805 112.31 100.805C112.81 100.855 113.3 100.665 113.62 100.255L116.46 96.705C117.27 96.845 118.08 96.935 118.85 96.935L120.84 101.035C121.16 101.715 121.88 101.995 122.55 101.805L126.88 100.525C127.56 100.345 127.96 99.655 127.87 98.935L127.28 94.475C127.96 94.065 128.54 93.515 129.13 92.975L133.42 94.435C134.1 94.665 134.82 94.385 135.18 93.755L137.35 89.745C137.67 89.105 137.53 88.285 136.94 87.835L133.37 85.055C133.51 84.285 133.64 83.505 133.64 82.735L133.68 82.725ZM122.22 77.075C121.5 76.665 120.73 76.485 119.96 76.395C118.81 76.285 117.67 76.495 116.66 77.005C115.6 77.535 114.7 78.375 114.1 79.495C112.52 82.455 113.6 86.145 116.49 87.735C119.43 89.325 123.08 88.235 124.66 85.325C126.24 82.365 125.16 78.675 122.27 77.085H122.23L122.22 77.075ZM95.37 115.145C91.22 114.685 87.47 117.695 87.02 121.885C86.57 126.075 89.55 129.855 93.7 130.305C97.85 130.765 101.6 127.755 102.05 123.565C102.5 119.375 99.52 115.595 95.37 115.145Z" fill="#FF7330"/>
</g>
</g>
<defs>
<filter id="filter0_bd_422_1724" x="0" y="0" width="224" height="224" filterUnits="userSpaceOnUse" color-interpolation-filters="sRGB">
<feFlood flood-opacity="0" result="BackgroundImageFix"/>
<feGaussianBlur in="BackgroundImageFix" stdDeviation="4"/>
<feComposite in2="SourceAlpha" operator="in" result="effect1_backgroundBlur_422_1724"/>
<feColorMatrix in="SourceAlpha" type="matrix" values="0 0 0 0 0 0 0 0 0 0 0 0 0 0 0 0 0 0 127 0" result="hardAlpha"/>
<feOffset/>
<feGaussianBlur stdDeviation="12"/>
<feComposite in2="hardAlpha" operator="out"/>
<feColorMatrix type="matrix" values="0 0 0 0 0 0 0 0 0 0.603922 0 0 0 0 0.615686 0 0 0 0.1 0"/>
<feBlend mode="normal" in2="effect1_backgroundBlur_422_1724" result="effect2_dropShadow_422_1724"/>
<feBlend mode="normal" in="SourceGraphic" in2="effect2_dropShadow_422_1724" result="shape"/>
</filter>
<clipPath id="clip0_422_1724">
<rect width="130.04" height="99.99" fill="white" transform="translate(46.98 62.005)"/>
</clipPath>
</defs>
</svg>
