<svg width="32" height="32" viewBox="0 0 32 32" fill="none" xmlns="http://www.w3.org/2000/svg">
<path fill-rule="evenodd" clip-rule="evenodd" d="M28.9867 12.1613C29.0347 11.872 28.952 11.576 28.7627 11.352C28.572 11.1293 28.2934 11 28 11H4.00004C3.70671 11 3.42804 11.1293 3.23738 11.352C3.04804 11.576 2.96538 11.872 3.01338 12.1613C3.01338 12.1613 4.37604 20.4867 5.04671 24.592C5.33738 26.3653 6.86938 27.6667 8.66538 27.6667H23.3347C25.1307 27.6667 26.6627 26.3653 26.9534 24.592L28.9867 12.1613ZM26.8227 13L24.9787 24.2693C24.8467 25.0747 24.1507 25.6667 23.3347 25.6667C19.64 25.6667 12.36 25.6667 8.66538 25.6667C7.84938 25.6667 7.15338 25.0747 7.02138 24.2693L5.17738 13H26.8227Z" fill="white"/>
<path fill-rule="evenodd" clip-rule="evenodd" d="M24.8573 11.4853L20.8573 4.81867C20.5733 4.34533 19.9586 4.192 19.4853 4.476C19.012 4.76 18.8586 5.37467 19.1426 5.848L23.1426 12.5147C23.4266 12.988 24.0413 13.1413 24.5146 12.8573C24.988 12.5733 25.1413 11.9587 24.8573 11.4853Z" fill="white"/>
<path fill-rule="evenodd" clip-rule="evenodd" d="M8.85729 12.5147L12.8573 5.848C13.1413 5.37467 12.988 4.76 12.5146 4.476C12.0413 4.192 11.4266 4.34533 11.1426 4.81867L7.14262 11.4853C6.85862 11.9587 7.01196 12.5733 7.48529 12.8573C7.95862 13.1413 8.57329 12.988 8.85729 12.5147Z" fill="white"/>
<path fill-rule="evenodd" clip-rule="evenodd" d="M15 16.6667V22C15 22.552 15.448 23 16 23C16.552 23 17 22.552 17 22V16.6667C17 16.1147 16.552 15.6667 16 15.6667C15.448 15.6667 15 16.1147 15 16.6667Z" fill="white"/>
<path fill-rule="evenodd" clip-rule="evenodd" d="M9.66699 16.6667V22C9.66699 22.552 10.115 23 10.667 23C11.219 23 11.667 22.552 11.667 22V16.6667C11.667 16.1147 11.219 15.6667 10.667 15.6667C10.115 15.6667 9.66699 16.1147 9.66699 16.6667Z" fill="white"/>
<path fill-rule="evenodd" clip-rule="evenodd" d="M20.334 16.6667V22C20.334 22.552 20.782 23 21.334 23C21.886 23 22.334 22.552 22.334 22V16.6667C22.334 16.1147 21.886 15.6667 21.334 15.6667C20.782 15.6667 20.334 16.1147 20.334 16.6667Z" fill="white"/>
<path fill-rule="evenodd" clip-rule="evenodd" d="M29.3337 11H2.66699C2.11499 11 1.66699 11.448 1.66699 12C1.66699 12.552 2.11499 13 2.66699 13H29.3337C29.8857 13 30.3337 12.552 30.3337 12C30.3337 11.448 29.8857 11 29.3337 11Z" fill="white"/>
</svg>
