<svg width="180" height="34" viewBox="0 0 180 34" fill="none" xmlns="http://www.w3.org/2000/svg">
<path fill-rule="evenodd" clip-rule="evenodd" d="M16.7603 0.292969C17.5864 0.292969 18.1949 0.510931 18.9301 0.774354L18.9371 0.776903C19.1292 0.845521 19.3293 0.917325 19.5447 0.989129C24.4176 2.38134 27.202 11.0828 18.1526 15.6075C18.1526 15.6075 17.8044 15.9556 17.4564 15.9556C17.4564 15.9556 17.1082 16.3037 16.7603 16.3037C16.2349 16.52 15.7316 16.7225 15.2494 16.9148C14.9297 17.0422 14.6191 17.1651 14.3174 17.2845C9.94863 19.0138 7.45397 20.0014 5.97051 23.2649C4.23021 28.4858 8.05878 33.7067 16.7603 33.7067C15.9341 33.7067 15.3257 33.4887 14.5904 33.2253L14.5834 33.2227C14.3914 33.1541 14.1912 33.0823 13.9758 33.0105C9.10291 31.6183 6.31848 23.2649 15.3679 18.3921C15.3679 18.3921 15.7161 18.044 16.0641 18.044C16.4123 18.044 16.7603 17.6959 16.7603 17.6959C17.6338 17.3362 18.4468 17.0143 19.2035 16.7148C23.5719 14.9856 26.0668 13.9981 27.55 10.7347C29.6385 5.86194 25.4617 0.292969 16.7603 0.292969ZM53.3065 26.0493H52.2623V26.7454H59.2235V26.0493C57.4832 26.0493 57.1352 25.7012 56.0909 23.2648C55.0468 20.1323 53.6546 16.3036 52.2623 12.475L50.1741 6.55799L49.4779 6.90607L43.2129 22.9168C42.5167 25.3532 42.1685 25.7012 40.7764 26.0493H40.0803V27.0935H46.6935V26.3974H45.6491C44.257 26.0493 43.9088 25.7012 44.605 23.9609C44.9532 22.5687 45.6491 20.1323 45.9973 19.4362H52.2623C52.9245 20.7603 53.4467 22.2245 53.8288 23.2962C53.8856 23.4553 53.9391 23.6057 53.9897 23.7457C54.0402 23.8858 54.0878 24.0155 54.1322 24.1331C54.2159 24.3549 54.2888 24.5335 54.3506 24.6571C54.6988 25.7012 54.3506 26.0493 53.3065 26.0493ZM51.5662 18.392H46.3453L49.1297 10.7347L51.5662 18.392ZM70.6104 23.9118L70.6123 23.9146C70.8887 24.2776 71.1473 24.6174 71.4058 25.0052C71.5511 25.1505 71.6813 25.2959 71.8058 25.4349C72.2776 25.9617 72.6679 26.3974 73.4941 26.3974V27.0936H73.1461C69.6655 27.0936 68.6214 26.0493 67.9252 23.9609C66.8811 22.9168 65.4887 20.4804 64.7926 19.0881C64.0964 18.3921 63.7484 18.044 62.7043 18.044H58.5276V16.9998H62.7043C64.0964 16.9998 65.1408 16.9998 65.8367 16.3037C67.229 15.6075 67.577 13.8673 67.577 12.475C67.577 9.34253 65.4887 8.29829 63.0523 8.29829H61.312H58.5276V7.25415H63.4005C65.1408 7.25415 66.8811 7.60223 67.9252 8.29829C69.3173 8.99445 70.0135 10.3867 70.0135 12.127C70.0135 14.5634 68.6214 16.3037 66.1849 17.3478C66.5613 17.7243 67.0398 18.508 67.5645 19.3688L67.5664 19.3713C68.0117 20.1013 68.4905 20.8861 68.9693 21.5246C69.6247 22.617 70.1431 23.2979 70.6104 23.9118ZM72.2761 9.50982L72.2755 9.51651L72.2749 9.5232C72.1882 10.3041 72.1015 11.0847 72.1015 11.7789H72.7977C73.1455 10.3877 73.4934 9.69167 73.8412 8.99604L73.8418 8.99445C74.1898 8.29829 75.2341 7.95031 77.6704 7.95031H79.0627V22.2206C79.0627 25.3533 78.7147 25.7012 75.9301 26.0493V26.7455H84.6316V26.0493C83.1192 25.8813 82.337 25.7944 81.9325 25.3576C81.4992 24.8898 81.4992 24.0207 81.4992 22.2206V8.29829H83.5874C85.3277 8.29829 86.3719 8.64637 87.068 8.99445C87.4162 9.34253 87.7642 10.3867 88.1122 11.7789H88.8083C88.8083 11.0827 88.7214 10.2997 88.6343 9.51651C88.5472 8.73336 88.4603 7.95031 88.4603 7.25415H72.4495C72.4495 7.94829 72.3628 8.7289 72.2761 9.50982ZM90.2006 7.60223C92.6371 7.95031 92.9851 8.29829 92.9851 11.4309H92.6371V22.2206C92.6371 25.7012 92.2889 26.0493 89.5045 26.0493V26.7455H103.775C104.123 25.7012 104.819 22.5687 104.819 21.8727H104.123C103.853 22.9523 103.374 23.8225 103.01 24.4835L103.007 24.4899C102.903 24.6788 102.808 24.8505 102.731 25.0052C102.035 26.0493 100.642 26.0493 98.9021 26.0493C97.5098 26.0493 96.4657 26.0493 95.7695 25.7012C95.4215 25.3533 95.0733 24.309 95.0733 22.5687V17.3478H98.206C99.5983 17.3478 100.294 17.3478 100.642 17.6959C100.99 18.044 101.339 18.7401 101.339 19.7843H102.035V13.8673H101.339C100.99 15.9556 100.642 16.3037 98.206 16.3037H95.0733V9.34253C95.0733 8.29829 95.4215 8.29829 96.1177 8.29829H98.5539C100.642 8.29829 101.687 8.64637 102.035 8.99445C102.383 9.34253 102.731 10.3867 103.079 11.7789H103.775C103.775 10.5764 103.609 9.0415 103.506 8.09296L103.503 8.06609L103.491 7.96146C103.478 7.83081 103.465 7.71387 103.455 7.61317C103.437 7.43961 103.427 7.31501 103.427 7.25415H90.2006V7.60223ZM130.924 26.3974C128.487 26.0493 128.139 25.7012 128.139 22.5687H127.791V11.7789C127.791 8.34715 128.129 8.29892 130.474 7.96476L130.575 7.95031V7.25415H122.57V7.60223C125.007 7.95031 125.355 8.29829 125.355 11.4309V22.5687C125.355 25.7012 125.355 26.0493 122.918 26.0493V27.0936H130.924V26.3974ZM140.669 7.95031L140.568 7.96476C138.223 8.29892 137.885 8.34725 137.885 11.7789V18.044C137.885 20.4804 138.233 22.5687 139.277 23.9609C140.321 25.3533 141.714 26.0493 143.802 26.0493C145.542 26.0493 147.282 25.3533 148.327 23.613C149.371 22.2206 149.719 19.4362 149.719 16.9998V15.2595C149.719 12.127 149.719 10.3867 149.371 9.34253C149.371 8.29829 148.327 7.95031 146.238 7.60223V7.25415H153.547V7.95031C151.807 7.95031 151.111 8.29829 150.763 9.69061C150.763 10.0728 150.716 10.5482 150.657 11.1511C150.555 12.1953 150.415 13.6216 150.415 15.6075V17.6959C150.415 21.1765 149.719 23.613 147.979 25.7012C146.586 27.0936 144.498 27.7896 142.41 27.7896C140.669 27.7896 138.929 27.4415 137.537 26.3974C135.797 25.0052 135.1 22.9168 135.1 19.4362V11.4309C135.1 8.29829 134.752 7.95031 132.316 7.60223V7.25415H140.669V7.95031ZM167.47 22.9168L160.161 7.25415H155.288V7.60223C158.072 7.60223 158.42 7.95031 158.072 12.127L157.724 18.3921C157.724 21.5246 157.724 23.2649 157.376 24.309C157.376 25.7012 156.68 26.0493 154.94 26.0493V27.0936H161.901V26.3974C160.161 26.0493 159.117 25.7012 159.117 24.6571V19.0881L159.464 10.7347L166.426 26.3974H167.122L174.431 10.0386V22.2206C174.774 25.653 174.441 25.7006 172.095 26.0351L171.995 26.0493V27.0936H180V26.3974L179.899 26.383C177.554 26.0487 177.216 26.0004 177.216 22.5687L176.867 11.7789C176.867 9.90846 176.867 9.0432 177.3 8.5889C177.672 8.1978 178.364 8.11134 179.652 7.95031V7.25415H174.779L167.47 22.9168ZM118.992 23.9146L118.99 23.9118C118.523 23.2979 118.005 22.617 117.349 21.5246C117.057 21.135 116.765 20.691 116.48 20.2382C116.299 19.9499 116.121 19.658 115.948 19.3745L115.946 19.3713L115.944 19.3688C115.42 18.508 114.941 17.7243 114.565 17.3478C117.001 16.3037 118.393 14.5634 118.393 12.127C118.393 10.3867 117.697 8.99445 116.305 8.29829C115.261 7.60223 113.521 7.25415 111.78 7.25415H106.907V8.29829H109.692H111.432C113.869 8.29829 115.957 9.34253 115.957 12.475C115.957 13.8673 115.609 15.6075 114.217 16.3037C113.521 16.9998 112.476 16.9998 111.084 16.9998H106.907V18.044H111.084C112.128 18.044 112.476 18.3921 113.172 19.0881C113.869 20.4804 115.261 22.9168 116.305 23.9609C117.349 25.7012 118.393 26.7455 121.874 26.7455V26.0493C121.012 26.3367 120.624 25.9123 120.124 25.3637L120.122 25.3621L120.121 25.3605C120.016 25.2458 119.906 25.1254 119.786 25.0052C119.527 24.6174 119.269 24.2776 118.992 23.9146ZM28.5939 14.9115C31.3784 13.1712 31.7265 9.34253 30.3342 7.25415C32.4225 10.0386 33.8148 13.8673 33.4668 18.044C33.1187 21.1765 32.0745 24.309 30.3342 27.0936C27.7166 30.3656 24.7913 31.7921 23.8716 32.2404C23.813 32.269 23.7626 32.2936 23.721 32.3144C21.6327 33.3586 19.1963 33.3586 17.108 32.3144C13.2792 30.2261 11.8871 25.7012 13.9754 22.2206C15.0195 20.4804 16.4119 19.0881 18.1522 18.7401C19.0333 18.4096 20.0887 18.1489 21.2191 17.8697C23.6609 17.2665 26.4525 16.5769 28.5939 14.9115Z" fill="white"/>
<path d="M16.4121 2.03313C14.3237 0.988956 11.8873 0.988956 9.79896 2.03313C9.10284 2.03313 5.97031 3.77343 3.53389 6.90596C1.44554 9.69043 0.401362 12.823 0.0533031 15.9555C-0.294756 20.1322 1.09748 23.9609 3.18583 27.0934C1.7936 24.657 2.14166 20.8283 4.92613 19.088C8.40672 16.6516 12.9315 16.3036 15.3679 15.2594C17.1082 14.5633 18.5004 13.5191 19.5446 11.7788C21.2849 8.2982 19.8927 3.77343 16.4121 2.03313Z" fill="white"/>
</svg>
