<svg width="180" height="26" viewBox="0 0 180 26" fill="none" xmlns="http://www.w3.org/2000/svg">
<g clip-path="url(#clip0_422_1547)">
<path d="M10.0622 15.4599L4.14237 25.6096H0L8.16927 12.467L0.512148 0H4.73486L10.1425 9.364L15.6255 0H19.6926L12.0355 12.3919L20.1646 25.6096H15.982L10.0622 15.4599Z" fill="#FF7330"/>
<path d="M30.0057 8.96859C29.1872 8.96859 28.4642 9.14876 27.8466 9.5041C27.224 9.85944 26.6968 10.3549 26.265 10.9855C25.8281 11.6211 25.4968 12.3568 25.2758 13.2027C25.0499 14.0435 24.9394 14.9543 24.9394 15.9303C24.9394 18.1424 25.3612 19.8941 26.2047 21.1703C27.0483 22.4516 28.3035 23.0872 29.9705 23.0872C30.789 23.0872 31.522 22.897 32.1697 22.5116C32.8175 22.1312 33.3648 21.6157 33.8116 20.9701C34.2585 20.3245 34.5999 19.5738 34.8209 18.713C35.0468 17.8571 35.1573 16.9513 35.1573 16.0054C35.1573 14.9794 35.0518 14.0335 34.8409 13.1776C34.6301 12.3218 34.3037 11.5811 33.8719 10.9605C33.4351 10.3399 32.9028 9.85444 32.2651 9.4991C31.6325 9.14375 30.8793 8.96358 30.0057 8.96358M29.8299 25.995C28.5646 25.995 27.4248 25.7697 26.3955 25.3243C25.3712 24.8789 24.4875 24.2283 23.7544 23.3774C23.0164 22.5266 22.454 21.4956 22.0573 20.2895C21.6607 19.0833 21.4648 17.722 21.4648 16.2005C21.4648 14.574 21.6807 13.1326 22.1176 11.8714C22.5494 10.6152 23.1569 9.54915 23.9352 8.68832C24.7084 7.82249 25.6273 7.16685 26.6767 6.72143C27.7311 6.276 28.886 6.05078 30.1513 6.05078C31.4166 6.05078 32.5262 6.276 33.5656 6.72143C34.605 7.16685 35.4987 7.80747 36.2468 8.64828C36.995 9.48909 37.5824 10.5101 38.0042 11.7162C38.426 12.9224 38.6369 14.2887 38.6369 15.8052C38.6369 17.4317 38.4109 18.8731 37.9641 20.1343C37.5172 21.3955 36.8996 22.4566 36.1113 23.3224C35.323 24.1882 34.3941 24.8489 33.3296 25.3093C32.2651 25.7647 31.1003 26 29.835 26" fill="#FF7330"/>
<path d="M47.1775 15.9553C47.1775 17.1064 47.1574 18.2775 47.1173 19.4687C47.0771 20.6598 46.8562 21.7359 46.4445 22.7068C46.0378 23.6727 45.38 24.4685 44.4712 25.0791C43.5624 25.6947 42.2418 26 40.5045 26L40.2686 23.1672C41.082 23.0071 41.7347 22.8119 42.2217 22.5767C42.7088 22.3415 43.0753 22.0061 43.3264 21.5707C43.5774 21.1403 43.7381 20.5848 43.8184 19.9191C43.8988 19.2485 43.939 18.4177 43.939 17.4217V6.41113H57.5561V25.6046H54.0815V9.32393H47.1775V15.9553Z" fill="#FF7330"/>
<path d="M74.4927 14.6691C74.4927 13.8833 74.3922 13.1426 74.1964 12.4469C74.0006 11.7513 73.7094 11.1507 73.3278 10.6352C72.9462 10.1247 72.4541 9.71931 71.8466 9.41401C71.239 9.11373 70.516 8.96358 69.6775 8.96358C68.4122 8.96358 67.3276 9.48408 66.4238 10.5151C65.515 11.5511 64.9978 12.9324 64.8673 14.6641H74.4977L74.4927 14.6691ZM69.8181 6.05579C71.1637 6.05579 72.3437 6.29101 73.3579 6.76647C74.3722 7.23692 75.2207 7.90256 75.9086 8.75338C76.5965 9.6042 77.1086 10.6352 77.4501 11.8413C77.7915 13.0475 77.9622 14.3838 77.9622 15.8552V17.2315H64.8623C64.9928 19.1484 65.5552 20.5998 66.5393 21.5957C67.5234 22.5917 68.7285 23.0922 70.1494 23.0922C70.9629 23.0922 71.7712 22.937 72.5746 22.6217C73.378 22.3064 74.0809 21.886 74.6885 21.3605L76.5011 23.5226C75.527 24.4134 74.4927 25.049 73.4031 25.4294C72.3135 25.8098 71.1085 26 69.7929 26C68.4774 26 67.3879 25.7898 66.3585 25.3694C65.3342 24.949 64.4505 24.3284 63.7175 23.5026C62.9794 22.6768 62.407 21.6508 62.0003 20.4346C61.5936 19.2134 61.3877 17.8171 61.3877 16.2456C61.3877 14.6741 61.5986 13.2627 62.0203 12.0165C62.4421 10.7703 63.0296 9.70429 63.7777 8.80843C64.5309 7.91758 65.4196 7.23692 66.4489 6.76146C67.4782 6.29101 68.5979 6.05078 69.813 6.05078" fill="#FF7330"/>
<path d="M86.533 15.9553C86.533 17.1064 86.5129 18.2775 86.4727 19.4687C86.4326 20.6598 86.2117 21.7359 85.7999 22.7068C85.3932 23.6727 84.7355 24.4685 83.8266 25.0791C82.9178 25.6947 81.5973 26 79.86 26L79.624 23.1672C80.4374 23.0071 81.0902 22.8119 81.5772 22.5767C82.0643 22.3415 82.4308 22.0061 82.6818 21.5707C82.9329 21.1403 83.0986 20.5848 83.1739 19.9191C83.2542 19.2485 83.2944 18.4177 83.2944 17.4217V6.41113H96.9065V25.6046H93.4319V9.32393H86.528V15.9553H86.533Z" fill="#FF7330"/>
<path d="M113.848 14.6691C113.848 13.8833 113.748 13.1426 113.552 12.4469C113.356 11.7513 113.065 11.1507 112.683 10.6352C112.302 10.1247 111.809 9.71931 111.202 9.41401C110.594 9.11373 109.871 8.96358 109.033 8.96358C107.767 8.96358 106.683 9.48408 105.779 10.5151C104.87 11.5511 104.353 12.9324 104.218 14.6641H113.848V14.6691ZM109.173 6.05579C110.519 6.05579 111.699 6.29101 112.713 6.76647C113.727 7.23692 114.576 7.90256 115.264 8.75338C115.952 9.6042 116.464 10.6352 116.805 11.8413C117.147 13.0475 117.323 14.3838 117.323 15.8552V17.2315H104.223C104.353 19.1484 104.916 20.5998 105.9 21.5957C106.884 22.5917 108.089 23.0922 109.51 23.0922C110.323 23.0922 111.132 22.937 111.935 22.6217C112.738 22.3064 113.441 21.886 114.044 21.3605L115.861 23.5226C114.887 24.4134 113.853 25.049 112.763 25.4294C111.674 25.8098 110.469 26 109.153 26C107.838 26 106.748 25.7898 105.719 25.3694C104.695 24.949 103.811 24.3284 103.078 23.5026C102.34 22.6768 101.767 21.6508 101.361 20.4346C100.954 19.2134 100.748 17.8171 100.748 16.2456C100.748 14.6741 100.959 13.2627 101.381 12.0165C101.802 10.7703 102.39 9.70429 103.143 8.80843C103.896 7.91758 104.785 7.23692 105.814 6.76146C106.844 6.29101 107.963 6.05078 109.178 6.05078" fill="#FF7330"/>
<path d="M128.68 6.05591C130.02 6.05591 131.22 6.27111 132.27 6.70653C133.324 7.13695 134.298 7.85264 135.192 8.84859L132.983 11.0907C132.27 10.355 131.577 9.83454 130.889 9.51924C130.206 9.20394 129.458 9.04879 128.639 9.04879C127.821 9.04879 127.158 9.23897 126.566 9.61933C125.973 9.9997 125.471 10.5202 125.064 11.1708C124.658 11.8265 124.346 12.6122 124.135 13.5331C123.925 14.454 123.819 15.4349 123.819 16.4809C123.819 18.3677 124.246 19.9242 125.1 21.1404C125.953 22.3616 127.173 22.9672 128.75 22.9672C129.563 22.9672 130.316 22.797 130.999 22.4567C131.682 22.1164 132.365 21.5908 133.053 20.8802L135.262 22.9672C134.419 23.9131 133.475 24.6538 132.42 25.1893C131.366 25.7248 130.09 25.9951 128.594 25.9951C127.434 25.9951 126.36 25.7999 125.361 25.4045C124.361 25.0091 123.488 24.4186 122.75 23.6328C122.007 22.8471 121.424 21.8711 120.992 20.705C120.566 19.5389 120.35 18.1826 120.35 16.6311C120.35 14.9545 120.55 13.453 120.952 12.1267C121.354 10.8055 121.921 9.69441 122.649 8.80355C123.377 7.91269 124.256 7.23204 125.28 6.75658C126.305 6.28613 127.439 6.0459 128.675 6.0459" fill="#FF7330"/>
<path d="M149.99 17.5418C149.307 17.1464 148.594 16.8261 147.861 16.5759C147.128 16.3257 146.254 16.2005 145.255 16.2005C144.125 16.2005 143.156 16.5058 142.352 17.1214C141.549 17.737 141.147 18.6129 141.147 19.7389C141.147 20.865 141.484 21.7309 142.152 22.3364C142.824 22.942 143.789 23.2423 145.054 23.2423C145.973 23.1923 146.871 22.942 147.735 22.4966C148.604 22.0512 149.352 21.5006 149.984 20.845V17.5418H149.99ZM149.99 25.6046V23.7928H149.909C148.935 24.6837 147.951 25.2743 146.952 25.5645C145.953 25.8498 145.019 25.995 144.15 25.995C143.387 25.995 142.619 25.8798 141.84 25.6596C141.062 25.4344 140.369 25.0891 139.747 24.6186C139.129 24.1482 138.627 23.5326 138.245 22.7669C137.864 22.0061 137.673 21.0902 137.673 20.0142C137.673 19.0182 137.859 18.1274 138.225 17.3416C138.592 16.5559 139.099 15.8852 139.742 15.3347C140.384 14.7842 141.157 14.3638 142.051 14.0785C142.945 13.7882 143.919 13.6431 144.973 13.6431C145.787 13.6431 146.605 13.7232 147.419 13.8783C148.232 14.0385 149.091 14.3488 149.984 14.8242V12.7772C149.984 10.2048 148.589 8.92354 145.802 8.92354C144.883 8.92354 144.004 9.03365 143.176 9.25886C142.347 9.48408 141.509 9.78938 140.67 10.1848L139.606 7.54722C140.58 7.07677 141.599 6.70141 142.664 6.42614C143.728 6.15088 144.908 6.01074 146.199 6.01074C148.513 6.01074 150.301 6.54626 151.566 7.62229C152.826 8.69833 153.459 10.2949 153.459 12.4219V25.5996H149.984L149.99 25.6046Z" fill="#FF7330"/>
<path d="M170.676 25.6046V17.0313H161.367V25.6046H157.893V6.37109H161.367V14.1235H170.676V6.37109H174.151V25.6046H170.676Z" fill="#FF7330"/>
<path d="M177.665 6.82164V7.37717H178.087C178.298 7.37717 178.398 7.28208 178.398 7.0969C178.398 7.00681 178.368 6.93675 178.308 6.8917C178.247 6.84666 178.172 6.82164 178.082 6.82164H177.66H177.665ZM178.037 7.83761H177.665V8.64839H177.138V6.35619H178.137C178.363 6.35619 178.554 6.41625 178.709 6.54137C178.86 6.66649 178.94 6.85167 178.94 7.0969C178.94 7.25706 178.905 7.39719 178.83 7.5123C178.755 7.62741 178.654 7.70749 178.534 7.76254L178.976 8.64839H178.418L178.047 7.83761H178.037ZM177.966 5.92578C177.745 5.92578 177.539 5.96581 177.344 6.04589C177.153 6.12597 176.987 6.23607 176.847 6.37621C176.706 6.51634 176.596 6.6815 176.52 6.87669C176.44 7.07188 176.405 7.28208 176.405 7.5123C176.405 7.74252 176.445 7.94772 176.52 8.14291C176.596 8.33309 176.706 8.50325 176.847 8.64339C176.987 8.78853 177.153 8.89863 177.344 8.97871C177.534 9.05879 177.74 9.09883 177.966 9.09883C178.192 9.09883 178.393 9.05879 178.584 8.97871C178.775 8.89863 178.935 8.78352 179.076 8.64339C179.217 8.50325 179.327 8.33309 179.402 8.14291C179.478 7.95272 179.518 7.74252 179.518 7.5123C179.518 7.28208 179.478 7.08189 179.402 6.8867C179.322 6.69151 179.217 6.52135 179.076 6.38121C178.935 6.24108 178.77 6.12597 178.584 6.04589C178.393 5.96581 178.187 5.92578 177.966 5.92578ZM177.966 9.54425C177.68 9.54425 177.414 9.49421 177.163 9.38911C176.917 9.284 176.701 9.14387 176.515 8.9637C176.334 8.78352 176.189 8.57332 176.083 8.32808C175.978 8.08285 175.928 7.81259 175.928 7.51731C175.928 7.22202 175.978 6.95677 176.083 6.70653C176.189 6.46129 176.329 6.24608 176.515 6.06591C176.696 5.88574 176.912 5.7456 177.163 5.6405C177.409 5.5354 177.68 5.48535 177.966 5.48535C178.252 5.48535 178.519 5.5404 178.77 5.6405C179.016 5.7456 179.232 5.88574 179.417 6.06591C179.598 6.24608 179.744 6.45628 179.849 6.70653C179.955 6.95176 180.005 7.22202 180.005 7.51731C180.005 7.81259 179.955 8.07784 179.849 8.32808C179.744 8.57833 179.603 8.78853 179.417 8.9637C179.237 9.14387 179.021 9.284 178.77 9.38911C178.524 9.49421 178.252 9.54425 177.966 9.54425Z" fill="#FF7330"/>
</g>
<defs>
<clipPath id="clip0_422_1547">
<rect width="180" height="26" fill="white"/>
</clipPath>
</defs>
</svg>
