<svg width="180" height="26" viewBox="0 0 180 26" fill="none" xmlns="http://www.w3.org/2000/svg">
<g clip-path="url(#clip0_202_7074)">
<path d="M10.0622 15.4599L4.14237 25.6096H0L8.16927 12.467L0.512148 0H4.73486L10.1425 9.364L15.6255 0H19.6926L12.0355 12.3919L20.1646 25.6096H15.982L10.0622 15.4599Z" fill="white"/>
<path d="M30.0059 8.96865C29.1874 8.96865 28.4644 9.14882 27.8468 9.50416C27.2242 9.8595 26.697 10.355 26.2652 10.9856C25.8283 11.6212 25.4969 12.3569 25.276 13.2027C25.0501 14.0435 24.9396 14.9544 24.9396 15.9303C24.9396 18.1425 25.3614 19.8942 26.2049 21.1704C27.0485 22.4516 28.3037 23.0872 29.9707 23.0872C30.7891 23.0872 31.5222 22.897 32.1699 22.5117C32.8177 22.1313 33.3649 21.6158 33.8118 20.9702C34.2587 20.3246 34.6001 19.5738 34.8211 18.713C35.047 17.8572 35.1575 16.9513 35.1575 16.0054C35.1575 14.9794 35.052 14.0335 34.8411 13.1777C34.6303 12.3219 34.3039 11.5812 33.8721 10.9606C33.4352 10.34 32.903 9.8545 32.2653 9.49916C31.6327 9.14382 30.8795 8.96364 30.0059 8.96364M29.8301 25.995C28.5648 25.995 27.425 25.7698 26.3957 25.3244C25.3714 24.8789 24.4877 24.2283 23.7546 23.3775C23.0165 22.5267 22.4542 21.4957 22.0575 20.2895C21.6609 19.0834 21.465 17.7221 21.465 16.2006C21.465 14.574 21.6809 13.1327 22.1178 11.8714C22.5496 10.6152 23.1571 9.54921 23.9354 8.68838C24.7086 7.82255 25.6275 7.16692 26.6769 6.72149C27.7313 6.27606 28.8862 6.05084 30.1515 6.05084C31.4168 6.05084 32.5264 6.27606 33.5658 6.72149C34.6051 7.16692 35.4989 7.80753 36.247 8.64834C36.9952 9.48915 37.5826 10.5101 38.0044 11.7163C38.4262 12.9224 38.6371 14.2888 38.6371 15.8052C38.6371 17.4318 38.4111 18.8732 37.9642 20.1344C37.5174 21.3956 36.8998 22.4566 36.1115 23.3224C35.3232 24.1883 34.3943 24.8489 33.3298 25.3094C32.2653 25.7648 31.1004 26 29.8351 26" fill="white"/>
<path d="M47.1775 15.9554C47.1775 17.1065 47.1574 18.2776 47.1173 19.4688C47.0771 20.6599 46.8562 21.7359 46.4445 22.7069C46.0378 23.6728 45.38 24.4686 44.4712 25.0791C43.5624 25.6947 42.2418 26 40.5045 26L40.2686 23.1673C41.082 23.0072 41.7347 22.812 42.2217 22.5767C42.7088 22.3415 43.0753 22.0062 43.3264 21.5708C43.5774 21.1404 43.7381 20.5848 43.8184 19.9192C43.8988 19.2485 43.939 18.4177 43.939 17.4218V6.41119H57.5561V25.6046H54.0815V9.32399H47.1775V15.9554Z" fill="white"/>
<path d="M74.4925 14.6691C74.4925 13.8834 74.392 13.1427 74.1962 12.447C74.0004 11.7513 73.7092 11.1507 73.3276 10.6353C72.946 10.1248 72.4539 9.71937 71.8464 9.41408C71.2388 9.11379 70.5158 8.96364 69.6773 8.96364C68.412 8.96364 67.3274 9.48414 66.4236 10.5151C65.5148 11.5511 64.9976 12.9325 64.8671 14.6641H74.4975L74.4925 14.6691ZM69.8179 6.05585C71.1635 6.05585 72.3434 6.29107 73.3577 6.76653C74.372 7.23698 75.2205 7.90262 75.9084 8.75344C76.5963 9.60426 77.1084 10.6353 77.4499 11.8414C77.7913 13.0476 77.962 14.3839 77.962 15.8553V17.2316H64.8621C64.9926 19.1484 65.555 20.5998 66.5391 21.5958C67.5232 22.5917 68.7283 23.0922 70.1492 23.0922C70.9627 23.0922 71.771 22.9371 72.5744 22.6218C73.3778 22.3065 74.0807 21.8861 74.6883 21.3606L76.5009 23.5226C75.5268 24.4135 74.4925 25.0491 73.4029 25.4295C72.3133 25.8098 71.1083 26 69.7927 26C68.4772 26 67.3877 25.7898 66.3583 25.3694C65.334 24.949 64.4503 24.3284 63.7173 23.5026C62.9792 22.6768 62.4068 21.6508 62.0001 20.4347C61.5934 19.2135 61.3875 17.8172 61.3875 16.2456C61.3875 14.6741 61.5984 13.2628 62.0201 12.0166C62.4419 10.7704 63.0294 9.70436 63.7775 8.80849C64.5307 7.91764 65.4194 7.23698 66.4487 6.76153C67.478 6.29107 68.5977 6.05084 69.8128 6.05084" fill="white"/>
<path d="M86.533 15.9554C86.533 17.1065 86.5129 18.2776 86.4727 19.4688C86.4325 20.6599 86.2116 21.7359 85.7999 22.7069C85.3932 23.6728 84.7354 24.4686 83.8266 25.0791C82.9178 25.6947 81.5973 26 79.86 26L79.624 23.1673C80.4374 23.0072 81.0901 22.812 81.5772 22.5767C82.0642 22.3415 82.4308 22.0062 82.6818 21.5708C82.9329 21.1404 83.0986 20.5848 83.1739 19.9192C83.2542 19.2485 83.2944 18.4177 83.2944 17.4218V6.41119H96.9065V25.6046H93.4319V9.32399H86.5279V15.9554H86.533Z" fill="white"/>
<path d="M113.848 14.6691C113.848 13.8834 113.748 13.1427 113.552 12.447C113.356 11.7513 113.065 11.1507 112.683 10.6353C112.302 10.1248 111.809 9.71937 111.202 9.41408C110.594 9.11379 109.871 8.96364 109.033 8.96364C107.767 8.96364 106.683 9.48414 105.779 10.5151C104.87 11.5511 104.353 12.9325 104.218 14.6641H113.848V14.6691ZM109.173 6.05585C110.519 6.05585 111.699 6.29107 112.713 6.76653C113.727 7.23698 114.576 7.90262 115.264 8.75344C115.952 9.60426 116.464 10.6353 116.805 11.8414C117.147 13.0476 117.323 14.3839 117.323 15.8553V17.2316H104.223C104.353 19.1484 104.916 20.5998 105.9 21.5958C106.884 22.5917 108.089 23.0922 109.51 23.0922C110.323 23.0922 111.132 22.9371 111.935 22.6218C112.738 22.3065 113.441 21.8861 114.044 21.3606L115.861 23.5226C114.887 24.4135 113.853 25.0491 112.763 25.4295C111.674 25.8098 110.469 26 109.153 26C107.838 26 106.748 25.7898 105.719 25.3694C104.695 24.949 103.811 24.3284 103.078 23.5026C102.34 22.6768 101.767 21.6508 101.361 20.4347C100.954 19.2135 100.748 17.8172 100.748 16.2456C100.748 14.6741 100.959 13.2628 101.381 12.0166C101.802 10.7704 102.39 9.70436 103.143 8.80849C103.896 7.91764 104.785 7.23698 105.814 6.76153C106.844 6.29107 107.963 6.05084 109.178 6.05084" fill="white"/>
<path d="M128.68 6.05585C130.02 6.05585 131.22 6.27105 132.27 6.70647C133.324 7.13689 134.298 7.85257 135.192 8.84853L132.983 11.0907C132.27 10.355 131.577 9.83448 130.889 9.51918C130.206 9.20387 129.458 9.04872 128.64 9.04872C127.821 9.04872 127.158 9.23891 126.566 9.61927C125.973 9.99964 125.471 10.5201 125.065 11.1708C124.658 11.8264 124.347 12.6122 124.136 13.533C123.925 14.4539 123.819 15.4349 123.819 16.4809C123.819 18.3677 124.246 19.9242 125.1 21.1404C125.953 22.3615 127.173 22.9671 128.75 22.9671C129.563 22.9671 130.317 22.7969 130.999 22.4566C131.682 22.1163 132.365 21.5908 133.053 20.8801L135.262 22.9671C134.419 23.913 133.475 24.6537 132.42 25.1892C131.366 25.7248 130.091 25.995 128.594 25.995C127.435 25.995 126.36 25.7998 125.361 25.4045C124.362 25.0091 123.488 24.4185 122.75 23.6327C122.007 22.847 121.424 21.8711 120.992 20.7049C120.566 19.5388 120.35 18.1825 120.35 16.631C120.35 14.9544 120.551 13.453 120.952 12.1267C121.354 10.8054 121.921 9.69435 122.649 8.80349C123.378 7.91263 124.256 7.23198 125.28 6.75652C126.305 6.28607 127.44 6.04584 128.675 6.04584" fill="white"/>
<path d="M149.99 17.5419C149.307 17.1465 148.594 16.8262 147.861 16.576C147.128 16.3257 146.254 16.2006 145.255 16.2006C144.125 16.2006 143.156 16.5059 142.352 17.1215C141.549 17.7371 141.147 18.6129 141.147 19.739C141.147 20.8651 141.484 21.7309 142.152 22.3365C142.824 22.9421 143.789 23.2424 145.054 23.2424C145.973 23.1923 146.871 22.9421 147.735 22.4967C148.604 22.0512 149.352 21.5007 149.984 20.8451V17.5419H149.99ZM149.99 25.6046V23.7929H149.909C148.935 24.6838 147.951 25.2743 146.952 25.5646C145.953 25.8499 145.019 25.995 144.15 25.995C143.387 25.995 142.619 25.8799 141.84 25.6597C141.062 25.4345 140.369 25.0891 139.747 24.6187C139.129 24.1482 138.627 23.5327 138.245 22.7669C137.864 22.0062 137.673 21.0903 137.673 20.0143C137.673 19.0183 137.859 18.1275 138.225 17.3417C138.592 16.5559 139.099 15.8853 139.742 15.3348C140.384 14.7842 141.157 14.3638 142.051 14.0786C142.945 13.7883 143.919 13.6431 144.973 13.6431C145.787 13.6431 146.605 13.7232 147.419 13.8784C148.232 14.0385 149.091 14.3488 149.984 14.8243V12.7773C149.984 10.2048 148.589 8.9236 145.802 8.9236C144.883 8.9236 144.004 9.03371 143.176 9.25893C142.347 9.48414 141.509 9.78944 140.67 10.1848L139.606 7.54728C140.58 7.07683 141.599 6.70147 142.664 6.4262C143.728 6.15094 144.908 6.0108 146.199 6.0108C148.513 6.0108 150.301 6.54632 151.566 7.62235C152.826 8.69839 153.459 10.2949 153.459 12.422V25.5996H149.984L149.99 25.6046Z" fill="white"/>
<path d="M170.676 25.6046V17.0314H161.367V25.6046H157.893V6.37115H161.367V14.1236H170.676V6.37115H174.151V25.6046H170.676Z" fill="white"/>
<path d="M177.665 6.82158V7.37711H178.087C178.298 7.37711 178.398 7.28202 178.398 7.09684C178.398 7.00675 178.368 6.93669 178.308 6.89164C178.248 6.8466 178.172 6.82158 178.082 6.82158H177.66H177.665ZM178.037 7.83755H177.665V8.64833H177.138V6.35613H178.137C178.363 6.35613 178.554 6.41619 178.71 6.54131C178.86 6.66643 178.941 6.8516 178.941 7.09684C178.941 7.25699 178.905 7.39713 178.83 7.51224C178.755 7.62735 178.654 7.70743 178.534 7.76248L178.976 8.64833H178.418L178.047 7.83755H178.037ZM177.966 5.92571C177.746 5.92571 177.54 5.96575 177.344 6.04583C177.153 6.12591 176.987 6.23601 176.847 6.37615C176.706 6.51628 176.596 6.68144 176.52 6.87663C176.44 7.07182 176.405 7.28202 176.405 7.51224C176.405 7.74246 176.445 7.94766 176.52 8.14285C176.596 8.33303 176.706 8.50319 176.847 8.64333C176.987 8.78847 177.153 8.89857 177.344 8.97865C177.535 9.05873 177.741 9.09877 177.966 9.09877C178.192 9.09877 178.393 9.05873 178.584 8.97865C178.775 8.89857 178.936 8.78346 179.076 8.64333C179.217 8.50319 179.327 8.33303 179.402 8.14285C179.478 7.95266 179.518 7.74246 179.518 7.51224C179.518 7.28202 179.478 7.08183 179.402 6.88664C179.322 6.69145 179.217 6.52129 179.076 6.38115C178.936 6.24102 178.77 6.12591 178.584 6.04583C178.393 5.96575 178.187 5.92571 177.966 5.92571ZM177.966 9.54419C177.68 9.54419 177.414 9.49415 177.163 9.38904C176.917 9.28394 176.701 9.14381 176.515 8.96364C176.335 8.78346 176.189 8.57326 176.084 8.32802C175.978 8.08279 175.928 7.81253 175.928 7.51724C175.928 7.22196 175.978 6.95671 176.084 6.70646C176.189 6.46123 176.33 6.24602 176.515 6.06585C176.696 5.88568 176.912 5.74554 177.163 5.64044C177.409 5.53534 177.68 5.48529 177.966 5.48529C178.253 5.48529 178.519 5.54034 178.77 5.64044C179.016 5.74554 179.232 5.88568 179.418 6.06585C179.598 6.24602 179.744 6.45622 179.849 6.70646C179.955 6.9517 180.005 7.22196 180.005 7.51724C180.005 7.81253 179.955 8.07778 179.849 8.32802C179.744 8.57826 179.603 8.78847 179.418 8.96364C179.237 9.14381 179.021 9.28394 178.77 9.38904C178.524 9.49415 178.253 9.54419 177.966 9.54419Z" fill="white"/>
</g>
<defs>
<clipPath id="clip0_202_7074">
<rect width="180" height="26" fill="white"/>
</clipPath>
</defs>
</svg>
