<svg width="32" height="32" viewBox="0 0 32 32" fill="none" xmlns="http://www.w3.org/2000/svg">
<g clip-path="url(#clip0_392_1478)">
<path d="M8.00004 13.333C6.53337 13.333 5.33337 14.533 5.33337 15.9997C5.33337 17.4663 6.53337 18.6663 8.00004 18.6663C9.46671 18.6663 10.6667 17.4663 10.6667 15.9997C10.6667 14.533 9.46671 13.333 8.00004 13.333ZM24 13.333C22.5334 13.333 21.3334 14.533 21.3334 15.9997C21.3334 17.4663 22.5334 18.6663 24 18.6663C25.4667 18.6663 26.6667 17.4663 26.6667 15.9997C26.6667 14.533 25.4667 13.333 24 13.333ZM16 13.333C14.5334 13.333 13.3334 14.533 13.3334 15.9997C13.3334 17.4663 14.5334 18.6663 16 18.6663C17.4667 18.6663 18.6667 17.4663 18.6667 15.9997C18.6667 14.533 17.4667 13.333 16 13.333Z" fill="white"/>
</g>
<defs>
<clipPath id="clip0_392_1478">
<rect width="32" height="32" fill="white"/>
</clipPath>
</defs>
</svg>
