<svg width="24" height="24" viewBox="0 0 24 24" fill="none" xmlns="http://www.w3.org/2000/svg">
<g clip-path="url(#clip0_197_1189)">
<path fill-rule="evenodd" clip-rule="evenodd" d="M5.90167 16.4411C5.44392 16.8989 5.44392 17.6407 5.90167 18.0984C6.35941 18.5561 7.10121 18.5561 7.55895 18.0984L12 13.6573L16.4411 18.0984C16.8988 18.5561 17.6406 18.5561 18.0983 18.0984C18.5561 17.6407 18.5561 16.8989 18.0983 16.4411L13.6573 12.0001L18.0979 7.55941C18.5557 7.10167 18.5557 6.35987 18.0979 5.90213C17.6402 5.44439 16.8984 5.44439 16.4407 5.90213L12 10.3428L7.55935 5.90213C7.10161 5.44439 6.35981 5.44439 5.90207 5.90213C5.44433 6.35987 5.44433 7.10167 5.90207 7.55941L10.3427 12.0001L5.90167 16.4411Z" fill="#FFFFFF"/>
</g>
<defs>
<clipPath id="clip0_197_1189">
<rect width="24" height="24" fill="white"/>
</clipPath>
</defs>
</svg>
