<svg width="144" height="144" viewBox="0 0 144 144" fill="none" xmlns="http://www.w3.org/2000/svg">
<g filter="url(#filter0_bd_269_467)">
<rect x="24" y="24" width="96" height="96" rx="16" fill="#FAFBFF" shape-rendering="crispEdges"/>
<g clip-path="url(#clip0_269_467)">
<path fill-rule="evenodd" clip-rule="evenodd" d="M72.0002 38.2857C53.5635 38.2857 38.5485 53.381 38.5485 72C38.5485 90.619 53.5635 105.714 72.0002 105.714C90.4369 105.714 105.452 90.619 105.452 72C105.452 53.381 90.4369 38.2857 72.0002 38.2857ZM36.2806 72C36.2806 91.8831 52.3126 108 72.0002 108C91.6877 108 107.72 91.8831 107.72 72C107.72 52.1169 91.6877 36 72.0002 36C52.3126 36 36.2806 52.1169 36.2806 72ZM47.6024 66.2388C47.0087 66.4394 46.3659 66.1169 46.1669 65.5184C45.9678 64.92 46.2878 64.2722 46.8816 64.0716L64.1416 58.2401C64.7354 58.0395 65.3781 58.362 65.5772 58.9605C65.7762 59.5589 65.4562 60.2067 64.8624 60.4073L64.6084 60.4931C64.7746 63.1229 64.0229 66.7097 60.2086 68.0448C56.5273 69.3333 53.7157 66.9864 52.1255 64.7106L47.6024 66.2388ZM58.8871 81.1539C58.6414 80.5733 58.8244 79.8732 59.3659 79.5559C59.9073 79.2387 60.6032 79.4234 60.8605 79.9988C61.5508 81.5424 62.2066 83.7865 62.3442 86.404C64.4691 85.1066 67.8284 83.7593 72.0002 83.7593C76.172 83.7593 79.5313 85.1066 81.6562 86.404C81.7937 83.7865 82.4495 81.5424 83.1398 79.9988C83.3972 79.4234 84.0931 79.2387 84.6345 79.5559C85.1759 79.8732 85.359 80.5733 85.1133 81.1539C84.4042 82.8296 83.7173 85.5104 83.9407 88.597C84.0576 90.2121 84.4234 91.9342 85.1629 93.6826C85.4085 94.2632 85.192 94.9505 84.6345 95.2381C84.077 95.5256 83.3902 95.3045 83.1396 94.7261C82.3251 92.8458 81.8903 90.9868 81.7186 89.2309C80.3323 88.0734 76.8088 86.045 72.0002 86.045C67.1916 86.045 63.6681 88.0734 62.2818 89.2309C62.11 90.9868 61.6753 92.8458 60.8608 94.7261C60.6102 95.3045 59.9234 95.5256 59.3659 95.2381C58.8084 94.9505 58.5919 94.2632 58.8375 93.6826C59.577 91.9342 59.9427 90.2121 60.0596 88.597C60.2831 85.5104 59.5962 82.8296 58.8871 81.1539ZM96.3979 66.2388C96.9917 66.4394 97.6345 66.1169 97.8335 65.5184C98.0326 64.92 97.7126 64.2722 97.1188 64.0716L79.8588 58.2401C79.265 58.0395 78.6223 58.362 78.4232 58.9605C78.2242 59.5589 78.5442 60.2067 79.138 60.4073L79.3922 60.4932C79.226 63.123 79.9777 66.7097 83.792 68.0448C87.4733 69.3333 90.2849 66.9865 91.875 64.7107L96.3979 66.2388Z" fill="#009A9D" stroke="#009A9D" stroke-width="1.3"/>
<ellipse cx="98.3168" cy="48.1558" rx="5.24397" ry="5.28514" fill="#FF7330"/>
<ellipse cx="99.8901" cy="37.5855" rx="1.57319" ry="1.58554" fill="#FF7330"/>
<ellipse cx="110.116" cy="44.192" rx="2.88418" ry="2.90683" fill="#FF7330"/>
<ellipse cx="5.24397" cy="5.28514" rx="5.24397" ry="5.28514" transform="matrix(-1 0 0 1 50.9271 42.8707)" fill="#FF7330"/>
<ellipse cx="1.57319" cy="1.58554" rx="1.57319" ry="1.58554" transform="matrix(-1 0 0 1 45.6831 36)" fill="#FF7330"/>
<ellipse cx="2.88418" cy="2.90683" rx="2.88418" ry="2.90683" transform="matrix(-1 0 0 1 36.7684 41.2852)" fill="#FF7330"/>
</g>
</g>
<defs>
<filter id="filter0_bd_269_467" x="0" y="0" width="144" height="144" filterUnits="userSpaceOnUse" color-interpolation-filters="sRGB">
<feFlood flood-opacity="0" result="BackgroundImageFix"/>
<feGaussianBlur in="BackgroundImageFix" stdDeviation="4"/>
<feComposite in2="SourceAlpha" operator="in" result="effect1_backgroundBlur_269_467"/>
<feColorMatrix in="SourceAlpha" type="matrix" values="0 0 0 0 0 0 0 0 0 0 0 0 0 0 0 0 0 0 127 0" result="hardAlpha"/>
<feOffset/>
<feGaussianBlur stdDeviation="12"/>
<feComposite in2="hardAlpha" operator="out"/>
<feColorMatrix type="matrix" values="0 0 0 0 0 0 0 0 0 0.603922 0 0 0 0 0.615686 0 0 0 0.1 0"/>
<feBlend mode="normal" in2="effect1_backgroundBlur_269_467" result="effect2_dropShadow_269_467"/>
<feBlend mode="normal" in="SourceGraphic" in2="effect2_dropShadow_269_467" result="shape"/>
</filter>
<clipPath id="clip0_269_467">
<rect width="82" height="72" fill="white" transform="translate(31 36)"/>
</clipPath>
</defs>
</svg>
