<svg width="96" height="96" viewBox="0 0 96 96" fill="none" xmlns="http://www.w3.org/2000/svg">
<rect width="96" height="96" rx="16" fill="#FAFBFF"/>
<g clip-path="url(#clip0_269_467)">
<path fill-rule="evenodd" clip-rule="evenodd" d="M48.0002 14.2857C29.5635 14.2857 14.5485 29.381 14.5485 48C14.5485 66.619 29.5635 81.7143 48.0002 81.7143C66.4369 81.7143 81.4518 66.619 81.4518 48C81.4518 29.381 66.4369 14.2857 48.0002 14.2857ZM12.2806 48C12.2806 67.8831 28.3126 84 48.0002 84C67.6877 84 83.7197 67.8831 83.7197 48C83.7197 28.1169 67.6877 12 48.0002 12C28.3126 12 12.2806 28.1169 12.2806 48ZM23.6024 42.2388C23.0087 42.4394 22.3659 42.1169 22.1669 41.5184C21.9678 40.92 22.2878 40.2722 22.8816 40.0716L40.1416 34.2401C40.7354 34.0395 41.3781 34.362 41.5772 34.9605C41.7762 35.5589 41.4562 36.2067 40.8624 36.4073L40.6084 36.4931C40.7746 39.1229 40.0229 42.7097 36.2086 44.0448C32.5273 45.3333 29.7157 42.9864 28.1255 40.7106L23.6024 42.2388ZM34.8871 57.1539C34.6414 56.5733 34.8244 55.8732 35.3659 55.5559C35.9073 55.2387 36.6032 55.4234 36.8605 55.9988C37.5508 57.5424 38.2066 59.7865 38.3442 62.404C40.4691 61.1066 43.8284 59.7593 48.0002 59.7593C52.172 59.7593 55.5313 61.1066 57.6562 62.404C57.7937 59.7865 58.4495 57.5424 59.1398 55.9988C59.3972 55.4234 60.0931 55.2387 60.6345 55.5559C61.1759 55.8732 61.359 56.5733 61.1133 57.1539C60.4042 58.8296 59.7173 61.5104 59.9407 64.597C60.0576 66.2121 60.4234 67.9342 61.1629 69.6826C61.4085 70.2632 61.192 70.9505 60.6345 71.2381C60.077 71.5256 59.3902 71.3045 59.1396 70.7261C58.3251 68.8458 57.8903 66.9868 57.7186 65.2309C56.3323 64.0734 52.8088 62.045 48.0002 62.045C43.1916 62.045 39.6681 64.0734 38.2818 65.2309C38.11 66.9868 37.6753 68.8458 36.8608 70.7261C36.6102 71.3045 35.9234 71.5256 35.3659 71.2381C34.8084 70.9505 34.5919 70.2632 34.8375 69.6826C35.577 67.9342 35.9427 66.2121 36.0596 64.597C36.2831 61.5104 35.5962 58.8296 34.8871 57.1539ZM72.3979 42.2388C72.9917 42.4394 73.6345 42.1169 73.8335 41.5184C74.0326 40.92 73.7126 40.2722 73.1188 40.0716L55.8588 34.2401C55.265 34.0395 54.6223 34.362 54.4232 34.9605C54.2242 35.5589 54.5442 36.2067 55.138 36.4073L55.3922 36.4932C55.226 39.123 55.9777 42.7097 59.792 44.0448C63.4733 45.3333 66.2849 42.9865 67.875 40.7107L72.3979 42.2388Z" fill="#009A9D" stroke="#009A9D" stroke-width="1.3"/>
<ellipse cx="74.3168" cy="24.1558" rx="5.24397" ry="5.28514" fill="#FF7330"/>
<ellipse cx="75.8901" cy="13.5855" rx="1.57319" ry="1.58554" fill="#FF7330"/>
<ellipse cx="86.1158" cy="20.192" rx="2.88418" ry="2.90683" fill="#FF7330"/>
<ellipse cx="5.24397" cy="5.28514" rx="5.24397" ry="5.28514" transform="matrix(-1 0 0 1 26.9271 18.8707)" fill="#FF7330"/>
<ellipse cx="1.57319" cy="1.58554" rx="1.57319" ry="1.58554" transform="matrix(-1 0 0 1 21.6831 12)" fill="#FF7330"/>
<ellipse cx="2.88418" cy="2.90683" rx="2.88418" ry="2.90683" transform="matrix(-1 0 0 1 12.7684 17.2852)" fill="#FF7330"/>
</g>
<defs>
<clipPath id="clip0_269_467">
<rect width="82" height="72" fill="white" transform="translate(7 12)"/>
</clipPath>
</defs>
</svg>
