<svg width="96" height="96" viewBox="0 0 96 96" fill="none" xmlns="http://www.w3.org/2000/svg">
<rect width="96" height="96" rx="16" fill="#FAFBFF"/>
<path d="M75.6431 48.153C72.0876 39.5994 72.2215 37.6433 74.5628 27.702C75.6015 23.2869 76.7793 18.2841 76.7793 13.2761C76.7793 11.5759 74.1793 11.5733 74.1793 13.2761C74.1793 16.3048 73.7256 19.3039 73.1224 22.2516C65.0351 21.9494 54.3673 18.4204 49.4793 18.4204C44.6849 18.4204 33.8325 21.9519 25.8349 22.2516C25.233 19.3039 24.7793 16.3048 24.7793 13.2761C24.7793 11.5759 22.1793 11.5733 22.1793 13.2761C22.1793 18.2841 23.3571 23.2869 24.3958 27.7007C26.689 37.4375 26.9217 39.4734 23.3155 48.1518C20.6414 54.5885 16.9793 63.4033 16.9793 82.7239C16.9793 84.4241 19.5793 84.4267 19.5793 82.7239C19.5793 77.8934 19.8159 73.7497 20.2072 70.1384C24.2944 71.0644 37.1033 73.7214 49.4793 73.7214C61.8553 73.7214 74.6642 71.0644 78.7514 70.1384C79.1427 73.7497 79.3793 77.8934 79.3793 82.7239C79.3793 84.4241 81.9793 84.4267 81.9793 82.7239C81.9793 63.4033 78.3172 54.5885 75.6431 48.153ZM49.4793 71.1493C37.0656 71.1493 24.1722 68.4086 20.5244 67.5714C21.7555 58.6911 23.959 53.3732 25.7205 49.1305C29.6283 39.7254 29.2864 37.1353 26.9282 27.1181C26.7475 26.3529 26.5681 25.5812 26.3926 24.8083C34.4825 24.3955 45.1854 20.9925 49.4793 20.9925C53.8577 20.9925 64.3331 24.3878 72.566 24.8083C72.3892 25.5825 72.2098 26.3529 72.0304 27.1181C69.6553 37.2099 69.3654 39.8077 73.2381 49.1305C75.0009 53.3732 77.2044 58.6911 78.4342 67.5714C74.789 68.4086 61.9021 71.1493 49.4793 71.1493Z" fill="#009A9D" stroke="#009A9D" stroke-width="1.3"/>
<path d="M30.2195 58.1616C31.1204 57.7903 31.5407 56.759 31.1599 55.8606L25.0358 41.4718C24.7595 40.8259 24.1278 40.4004 23.4228 40.3858C22.7196 40.372 22.0769 40.7743 21.7871 41.4091L19.0748 47.3514L14.5323 36.6775C14.149 35.7799 13.1091 35.3535 12.2074 35.7264C11.3065 36.0978 10.8863 37.1291 11.267 38.0275L17.3911 52.4163C17.6656 53.0614 18.2991 53.4877 19.0023 53.5015C19.7074 53.5161 20.3501 53.1138 20.6398 52.479L23.3521 46.5367L27.8947 57.2106C28.2761 58.1074 29.3178 58.5346 30.2195 58.1616Z" fill="#FF7330"/>
</svg>
