<svg width="144" height="144" viewBox="0 0 144 144" fill="none" xmlns="http://www.w3.org/2000/svg">
<g filter="url(#filter0_bd_203_98)">
<rect x="24" y="24" width="96" height="96" rx="16" fill="#FAFBFF" shape-rendering="crispEdges"/>
<path d="M99.6431 72.153C96.0876 63.5994 96.2215 61.6433 98.5628 51.702C99.6015 47.2869 100.779 42.2841 100.779 37.2761C100.779 35.5759 98.1793 35.5733 98.1793 37.2761C98.1793 40.3048 97.7256 43.3039 97.1224 46.2516C89.0351 45.9494 78.3673 42.4204 73.4793 42.4204C68.6849 42.4204 57.8325 45.9519 49.8349 46.2516C49.233 43.3039 48.7793 40.3048 48.7793 37.2761C48.7793 35.5759 46.1793 35.5733 46.1793 37.2761C46.1793 42.2841 47.3571 47.2869 48.3958 51.7007C50.689 61.4375 50.9217 63.4734 47.3155 72.1518C44.6414 78.5885 40.9793 87.4033 40.9793 106.724C40.9793 108.424 43.5793 108.427 43.5793 106.724C43.5793 101.893 43.8159 97.7497 44.2072 94.1384C48.2944 95.0644 61.1033 97.7214 73.4793 97.7214C85.8553 97.7214 98.6642 95.0644 102.751 94.1384C103.143 97.7497 103.379 101.893 103.379 106.724C103.379 108.424 105.979 108.427 105.979 106.724C105.979 87.4033 102.317 78.5885 99.6431 72.153ZM73.4793 95.1493C61.0656 95.1493 48.1722 92.4086 44.5244 91.5714C45.7555 82.6911 47.959 77.3732 49.7205 73.1305C53.6283 63.7254 53.2864 61.1353 50.9282 51.1181C50.7475 50.3529 50.5681 49.5812 50.3926 48.8083C58.4825 48.3955 69.1854 44.9925 73.4793 44.9925C77.8577 44.9925 88.3331 48.3878 96.566 48.8083C96.3892 49.5825 96.2098 50.3529 96.0304 51.1181C93.6553 61.2099 93.3654 63.8077 97.2381 73.1305C99.0009 77.3732 101.204 82.6911 102.434 91.5714C98.789 92.4086 85.9021 95.1493 73.4793 95.1493Z" fill="#009A9D" stroke="#009A9D" stroke-width="1.3"/>
<path d="M54.2195 82.1616C55.1204 81.7903 55.5407 80.759 55.1599 79.8606L49.0358 65.4718C48.7595 64.8259 48.1278 64.4004 47.4228 64.3858C46.7196 64.372 46.0769 64.7743 45.7871 65.4091L43.0748 71.3514L38.5323 60.6775C38.149 59.7799 37.1091 59.3535 36.2074 59.7264C35.3065 60.0978 34.8863 61.1291 35.267 62.0275L41.3911 76.4163C41.6656 77.0614 42.2991 77.4877 43.0023 77.5015C43.7074 77.5161 44.3501 77.1138 44.6398 76.479L47.3521 70.5367L51.8947 81.2106C52.2761 82.1074 53.3178 82.5346 54.2195 82.1616Z" fill="#FF7330"/>
</g>
<defs>
<filter id="filter0_bd_203_98" x="0" y="0" width="144" height="144" filterUnits="userSpaceOnUse" color-interpolation-filters="sRGB">
<feFlood flood-opacity="0" result="BackgroundImageFix"/>
<feGaussianBlur in="BackgroundImageFix" stdDeviation="4"/>
<feComposite in2="SourceAlpha" operator="in" result="effect1_backgroundBlur_203_98"/>
<feColorMatrix in="SourceAlpha" type="matrix" values="0 0 0 0 0 0 0 0 0 0 0 0 0 0 0 0 0 0 127 0" result="hardAlpha"/>
<feOffset/>
<feGaussianBlur stdDeviation="12"/>
<feComposite in2="hardAlpha" operator="out"/>
<feColorMatrix type="matrix" values="0 0 0 0 0 0 0 0 0 0.603922 0 0 0 0 0.615686 0 0 0 0.1 0"/>
<feBlend mode="normal" in2="effect1_backgroundBlur_203_98" result="effect2_dropShadow_203_98"/>
<feBlend mode="normal" in="SourceGraphic" in2="effect2_dropShadow_203_98" result="shape"/>
</filter>
</defs>
</svg>
