<svg width="144" height="144" viewBox="0 0 144 144" fill="none" xmlns="http://www.w3.org/2000/svg">
<g filter="url(#filter0_bd_203_91)">
<rect x="24" y="24" width="96" height="96" rx="16" fill="#FAFBFF" shape-rendering="crispEdges"/>
<g clip-path="url(#clip0_203_91)">
<path fill-rule="evenodd" clip-rule="evenodd" d="M92.2981 85.9771L92.6574 85.6176C95.1161 83.1589 96.4701 79.8899 96.4701 76.413C96.4701 73.285 95.3429 70.2596 93.2957 67.8943L92.8171 67.3414L93.5086 66.5425C95.4184 64.3357 96.4701 61.5129 96.4701 58.5944V58.2084C96.4701 52.4084 91.7516 47.6631 85.9519 47.6304L63.4785 47.5028C62.8311 47.5022 62.3044 46.975 62.3044 46.3275V34C62.3044 32.8954 61.4089 32 60.3044 32H49.5298C48.4252 32 47.5298 32.8954 47.5298 34V49.8604C47.5298 52.4025 48.446 54.8609 50.1093 56.783L51.1828 58.0232L50.7041 58.5762C48.6571 60.9417 47.5298 63.9669 47.5298 67.0949C47.5298 70.5719 48.8838 73.8408 51.3425 76.2995L51.7019 76.6589L50.6281 77.7328C48.6301 79.7308 47.5297 82.3871 47.5297 85.2127V86.0519C47.5297 88.8901 48.6384 91.555 50.6517 93.5557C52.6487 95.54 55.2934 96.6302 58.1057 96.6301C58.1287 96.6301 58.1519 96.6301 58.175 96.6299L80.5205 96.4879C81.1682 96.4884 81.6953 97.0156 81.6953 97.6633V110C81.6953 111.105 82.5907 112 83.6953 112H94.4698C95.5744 112 96.4698 111.105 96.4698 110V95.1799C96.4698 91.9357 95.2064 88.8857 92.9126 86.5917L92.2981 85.9771ZM94.1194 58.2084C94.1194 53.6974 90.4495 50.0065 85.9386 49.9811L63.471 49.8535C61.534 49.8516 59.9538 48.2699 59.9538 46.3275V34.3507H49.8807V49.8604C49.8807 51.8375 50.5933 53.7496 51.8869 55.2445L53.2745 56.8477H74.2722C74.9213 56.8477 75.4475 57.3739 75.4475 58.023C75.4475 58.6722 74.9213 59.1984 74.2722 59.1984H53.2743L52.4815 60.1145C50.8042 62.0526 49.8804 64.5319 49.8804 67.0949C49.8804 69.9441 50.9901 72.6227 53.0046 74.6373L53.8532 75.4859H69.4136C70.0615 75.4859 70.5867 76.0111 70.5867 76.659C70.5867 77.3068 70.0615 77.832 69.4136 77.832H53.8531L52.2902 79.3951C50.7362 80.9491 49.8804 83.0152 49.8804 85.2128V86.052C49.8804 88.2597 50.7428 90.3322 52.3088 91.8882C53.8619 93.4315 55.9191 94.2795 58.1063 94.2795C58.1243 94.2795 58.1422 94.2795 58.1602 94.2794L80.5143 94.1374C82.4657 94.1388 84.0463 95.7207 84.0463 97.6635V109.649H94.1194V95.1799C94.1194 92.5637 93.1006 90.104 91.2506 88.2542L90.156 87.1595H69.0947C68.4416 87.1595 67.9122 86.6301 67.9122 85.9771C67.9122 85.3241 68.4416 84.7947 69.0947 84.7947H90.156L90.9952 83.9555C93.0099 81.9406 94.1194 79.2622 94.1194 76.413C94.1194 73.8499 93.1957 71.3707 91.5183 69.4326L90.7074 68.4958H69.6936C69.056 68.4958 68.5391 67.9789 68.5391 67.3413C68.5391 66.7037 69.056 66.1868 69.6936 66.1868H90.7074L91.7309 65.004C93.2711 63.2244 94.1194 60.9481 94.1194 58.5944V58.2084Z" fill="#009A9D" stroke="#009A9D" stroke-width="1.3"/>
<path fill-rule="evenodd" clip-rule="evenodd" d="M42.8284 44.6013C42.8284 43.9521 43.3546 43.4259 44.0037 43.4259C44.6529 43.4259 45.1791 43.9521 45.1791 44.6013C45.1791 45.2504 44.6529 45.7766 44.0037 45.7766C43.3546 45.7766 42.8284 45.2504 42.8284 44.6013ZM47.8417 58.4426C47.9884 58.2159 47.981 57.9224 47.8232 57.7033L47.616 57.4155C46.0217 55.2011 45.1791 52.5885 45.1791 49.8605V49.1982C45.1791 48.5491 44.6529 48.0228 44.0037 48.0228C43.3546 48.0228 42.8284 48.5491 42.8284 49.1982V49.8605C42.8284 52.8127 43.6634 55.6503 45.2507 58.1171C45.2576 58.1279 45.2579 58.1417 45.2514 58.1527C43.8618 60.5299 43.0484 63.1823 42.8672 65.9206C42.8243 66.5683 43.3546 67.0951 44.0037 67.0951C44.6529 67.0951 45.1744 66.5681 45.2238 65.9209C45.4187 63.3692 46.2472 60.9078 47.6491 58.7405L47.8417 58.4426ZM99.9962 76.4129C100.645 76.4129 101.176 76.9397 101.133 77.5875C100.94 80.5551 100.015 83.3943 98.4224 85.8992C98.4127 85.9146 98.4128 85.9343 98.4228 85.9495C100.01 88.3634 100.935 91.1147 101.132 94.0053C101.176 94.653 100.645 95.1799 99.9962 95.1799C99.3471 95.1799 98.8258 94.6528 98.7745 94.0057C98.5626 91.332 97.6263 88.803 96.0351 86.6311L95.8143 86.3297C95.6478 86.1025 95.645 85.7943 95.8074 85.5642L96.0227 85.2589C97.6275 82.9839 98.5691 80.3523 98.7769 77.5872C98.8255 76.9398 99.3471 76.4129 99.9962 76.4129Z" fill="#FF7330"/>
</g>
</g>
<defs>
<filter id="filter0_bd_203_91" x="0" y="0" width="144" height="144" filterUnits="userSpaceOnUse" color-interpolation-filters="sRGB">
<feFlood flood-opacity="0" result="BackgroundImageFix"/>
<feGaussianBlur in="BackgroundImageFix" stdDeviation="4"/>
<feComposite in2="SourceAlpha" operator="in" result="effect1_backgroundBlur_203_91"/>
<feColorMatrix in="SourceAlpha" type="matrix" values="0 0 0 0 0 0 0 0 0 0 0 0 0 0 0 0 0 0 127 0" result="hardAlpha"/>
<feOffset/>
<feGaussianBlur stdDeviation="12"/>
<feComposite in2="hardAlpha" operator="out"/>
<feColorMatrix type="matrix" values="0 0 0 0 0 0 0 0 0 0.603922 0 0 0 0 0.615686 0 0 0 0.1 0"/>
<feBlend mode="normal" in2="effect1_backgroundBlur_203_91" result="effect2_dropShadow_203_91"/>
<feBlend mode="normal" in="SourceGraphic" in2="effect2_dropShadow_203_91" result="shape"/>
</filter>
<clipPath id="clip0_203_91">
<rect width="58.3432" height="80" fill="white" transform="translate(42.8284 32)"/>
</clipPath>
</defs>
</svg>
