<svg width="96" height="96" viewBox="0 0 96 96" fill="none" xmlns="http://www.w3.org/2000/svg">
<rect width="96" height="96" rx="16" fill="#FAFBFF"/>
<g clip-path="url(#clip0_37_40)">
<path fill-rule="evenodd" clip-rule="evenodd" d="M68.2981 61.9771L68.6574 61.6176C71.1161 59.1589 72.4701 55.8899 72.4701 52.413C72.4701 49.285 71.3429 46.2596 69.2957 43.8943L68.8171 43.3414L69.5086 42.5425C71.4184 40.3357 72.4701 37.5129 72.4701 34.5944V34.2084C72.4701 28.4084 67.7516 23.6631 61.9519 23.6304L39.4785 23.5028C38.8311 23.5022 38.3044 22.975 38.3044 22.3275V10C38.3044 8.89543 37.4089 8 36.3044 8H25.5298C24.4252 8 23.5298 8.89543 23.5298 10V25.8604C23.5298 28.4025 24.446 30.8609 26.1093 32.783L27.1828 34.0232L26.7041 34.5762C24.6571 36.9417 23.5298 39.9669 23.5298 43.0949C23.5298 46.5719 24.8838 49.8408 27.3425 52.2995L27.7019 52.6589L26.6281 53.7328C24.6301 55.7308 23.5297 58.3871 23.5297 61.2127V62.0519C23.5297 64.8901 24.6384 67.555 26.6517 69.5557C28.6487 71.54 31.2934 72.6302 34.1057 72.6301C34.1287 72.6301 34.1519 72.6301 34.175 72.6299L56.5205 72.4879C57.1682 72.4884 57.6953 73.0156 57.6953 73.6633V86C57.6953 87.1046 58.5907 88 59.6953 88H70.4698C71.5744 88 72.4698 87.1046 72.4698 86V71.1799C72.4698 67.9357 71.2064 64.8857 68.9126 62.5917L68.2981 61.9771ZM70.1194 34.2084C70.1194 29.6974 66.4495 26.0065 61.9386 25.9811L39.471 25.8535C37.534 25.8516 35.9538 24.2699 35.9538 22.3275V10.3507H25.8807V25.8604C25.8807 27.8375 26.5933 29.7496 27.8869 31.2445L29.2745 32.8477H50.2722C50.9213 32.8477 51.4475 33.3739 51.4475 34.023V34.023C51.4475 34.6722 50.9213 35.1984 50.2722 35.1984H29.2743L28.4815 36.1145C26.8042 38.0526 25.8804 40.5319 25.8804 43.0949C25.8804 45.9441 26.9901 48.6227 29.0046 50.6373L29.8532 51.4859H45.4136C46.0615 51.4859 46.5867 52.0111 46.5867 52.659V52.659C46.5867 53.3068 46.0615 53.832 45.4136 53.832H29.8531L28.2902 55.3951C26.7362 56.9491 25.8804 59.0152 25.8804 61.2128V62.052C25.8804 64.2597 26.7428 66.3322 28.3088 67.8882C29.8619 69.4315 31.9191 70.2795 34.1063 70.2795C34.1243 70.2795 34.1422 70.2795 34.1602 70.2794L56.5143 70.1374C58.4657 70.1388 60.0463 71.7207 60.0463 73.6635V85.6494H70.1194V71.1799C70.1194 68.5637 69.1006 66.104 67.2506 64.2542L66.156 63.1595H45.0947C44.4416 63.1595 43.9122 62.6301 43.9122 61.9771V61.9771C43.9122 61.3241 44.4416 60.7947 45.0947 60.7947H66.156L66.9952 59.9555C69.0099 57.9406 70.1194 55.2622 70.1194 52.413C70.1194 49.8499 69.1957 47.3707 67.5183 45.4326L66.7074 44.4958H45.6936C45.056 44.4958 44.5391 43.9789 44.5391 43.3413V43.3413C44.5391 42.7037 45.056 42.1868 45.6936 42.1868H66.7074L67.7309 41.004C69.2711 39.2244 70.1194 36.9481 70.1194 34.5944V34.2084Z" fill="#009A9D" stroke="#009A9D" stroke-width="1.3"/>
<path fill-rule="evenodd" clip-rule="evenodd" d="M18.8284 20.6013C18.8284 19.9521 19.3546 19.4259 20.0037 19.4259C20.6529 19.4259 21.1791 19.9521 21.1791 20.6013C21.1791 21.2504 20.6529 21.7766 20.0037 21.7766C19.3546 21.7766 18.8284 21.2504 18.8284 20.6013ZM23.8417 34.4426C23.9884 34.2159 23.981 33.9224 23.8232 33.7033L23.616 33.4155C22.0217 31.2011 21.1791 28.5885 21.1791 25.8605V25.1982C21.1791 24.5491 20.6529 24.0228 20.0037 24.0228C19.3546 24.0228 18.8284 24.5491 18.8284 25.1982V25.8605C18.8284 28.8127 19.6634 31.6503 21.2507 34.1171C21.2576 34.1279 21.2579 34.1416 21.2514 34.1527C19.8618 36.5299 19.0484 39.1823 18.8672 41.9206C18.8243 42.5683 19.3546 43.0951 20.0037 43.0951C20.6529 43.0951 21.1744 42.5681 21.2238 41.9209C21.4187 39.3692 22.2472 36.9078 23.6491 34.7405L23.8417 34.4426ZM75.9962 52.4129C76.6453 52.4129 77.1756 52.9397 77.1334 53.5875C76.9402 56.5551 76.0148 59.3943 74.4224 61.8992C74.4127 61.9146 74.4128 61.9343 74.4228 61.9495C76.0102 64.3634 76.9347 67.1147 77.1317 70.0053C77.1758 70.653 76.6453 71.1799 75.9962 71.1799C75.3471 71.1799 74.8258 70.6528 74.7745 70.0057C74.5626 67.332 73.6263 64.803 72.0351 62.6311L71.8143 62.3297C71.6478 62.1025 71.645 61.7943 71.8074 61.5642L72.0227 61.2589C73.6275 58.9839 74.5691 56.3523 74.7769 53.5871C74.8255 52.9398 75.3471 52.4129 75.9962 52.4129Z" fill="#FF7330"/>
</g>
<defs>
<clipPath id="clip0_37_40">
<rect width="58.3432" height="80" fill="white" transform="translate(18.8284 8)"/>
</clipPath>
</defs>
</svg>
