<svg width="96" height="96" viewBox="0 0 96 96" fill="none" xmlns="http://www.w3.org/2000/svg">
<rect width="96" height="96" rx="16" fill="#FAFBFF"/>
<path fill-rule="evenodd" clip-rule="evenodd" d="M45.4198 8.7177C44.9013 8.41085 44.1517 8.22743 43.3823 8.12214C42.565 8.01029 41.5652 7.96622 40.4454 8.02823C38.2059 8.15223 35.4221 8.70423 32.5892 10.0536C26.8576 12.7836 21.1011 18.6937 19.1498 30.4042C18.1435 36.4446 18.379 40.9022 19.3895 44.5889C20.3572 48.1196 22.0132 50.8514 23.7778 53.4818C23.8324 59.2134 25.051 67.5982 28.5305 74.6641C32.1091 81.9315 38.2039 88 47.9842 88H48.0158C57.7961 88 63.8909 81.9315 67.4695 74.6641C70.9489 67.5982 72.1676 59.2134 72.2222 53.4818C73.9868 50.8514 75.6428 48.1196 76.6105 44.5889C77.621 40.9022 77.8565 36.4446 76.8502 30.4042C74.8989 18.6937 69.1424 12.7836 63.4108 10.0536C60.5779 8.70423 57.7941 8.15223 55.5546 8.02823C54.4348 7.96622 53.435 8.01029 52.6177 8.12214C51.8482 8.22743 51.0987 8.41085 50.5802 8.7177C49.4205 9.40412 48.6279 9.48348 48.0158 9.48348H47.9842C47.3721 9.48348 46.5795 9.40412 45.4198 8.7177ZM30.8837 73.5053C34.2011 80.2421 39.5547 85.3769 47.9842 85.3769H48.0158C56.4453 85.3769 61.7989 80.2421 65.1163 73.5053C68.4447 66.7459 69.5973 58.5725 69.601 53.1056C69.535 51.5355 69.3856 50.113 69.1675 48.8253C67.9732 41.776 64.7271 38.7378 61.5943 37.4837C58.3414 36.1814 54.9455 36.6967 53.4427 37.2368C50.3583 38.3452 48.9035 38.5338 48.0158 38.5338H47.9842C47.0965 38.5338 45.6417 38.3452 42.5573 37.2368C41.0545 36.6967 37.6586 36.1814 34.4056 37.4837C31.2729 38.7378 28.0268 41.776 26.8325 48.8253C26.6144 50.113 26.465 51.5355 26.399 53.1056C26.4027 58.5725 27.5553 66.7459 30.8837 73.5053ZM31.9382 20.08C35.8522 17.8824 41.1 16.6108 47.9948 16.6663H48.0052C54.9 16.6108 60.1478 17.8824 64.0618 20.08C67.9927 22.2871 70.5021 25.3867 71.9671 28.8355C74.8073 35.521 73.6933 43.4168 71.81 48.7308C71.83 48.858 71.8495 48.9861 71.8683 49.1152C72.785 47.5071 73.5503 45.8308 74.0808 43.8955C74.9679 40.6587 75.2227 36.5973 74.2628 30.8354C72.4429 19.9133 67.1901 14.7591 62.2828 12.4218C59.7963 11.2374 57.3532 10.7549 55.4096 10.6473C54.4378 10.5935 53.6068 10.6343 52.9733 10.721C52.6564 10.7644 52.4011 10.8176 52.2095 10.871C52.1143 10.8976 52.0413 10.9224 51.9885 10.9431C51.9375 10.9632 51.916 10.9752 51.916 10.9752C50.2895 11.9379 49.0199 12.1066 48.0158 12.1066H47.9842C46.9801 12.1066 45.7102 11.9378 44.0837 10.975C44.0808 10.9735 44.0589 10.9618 44.0115 10.9431C43.9587 10.9224 43.8857 10.8976 43.7905 10.871C43.5989 10.8176 43.3436 10.7644 43.0267 10.721C42.3931 10.6343 41.5622 10.5935 40.5904 10.6473C38.6468 10.7549 36.2037 11.2374 33.7172 12.4218C28.8099 14.7591 23.5571 19.9133 21.7372 30.8354C20.7773 36.5973 21.0321 40.6587 21.9192 43.8955C22.4497 45.8308 23.215 47.5071 24.1317 49.1152C24.1505 48.9861 24.17 48.858 24.19 48.7308C22.3067 43.4168 21.1927 35.521 24.0329 28.8355C25.4979 25.3867 28.0073 22.2871 31.9382 20.08ZM47.9842 35.9107C47.525 35.9107 46.3939 35.8282 43.4444 34.7682C41.4912 34.0663 37.4151 33.4534 33.4308 35.0485C30.263 36.3166 27.3026 38.9198 25.5079 43.6324C24.8542 40.3392 24.6711 36.6417 25.416 33.1577C25.5752 32.3026 26.3163 30.2738 26.667 29.3663C27.943 26.6183 30.0189 24.1659 33.2225 22.3672C34.1212 21.8626 35.1139 21.4066 36.2088 21.0095L38.8319 20.2241C41.087 19.6778 43.6939 19.3479 46.7012 19.2951L49.3243 19.2956C52.3322 19.35 54.939 19.6819 57.1936 20.2303L59.8167 21.0188C60.9016 21.4137 61.8858 21.8665 62.7775 22.3672C66.0187 24.187 68.1055 26.6759 69.3776 29.4632C69.6817 30.0846 70.3093 32.1885 70.585 33.1627C71.3287 36.6453 71.1455 40.3408 70.4921 43.6324C68.6974 38.9198 65.737 36.3166 62.5692 35.0485C58.5849 33.4534 54.5088 34.0663 52.5556 34.7682C49.6061 35.8282 48.4749 35.9107 48.0158 35.9107H47.9842Z" fill="#009A9D" stroke="#009A9D" stroke-width="1.3"/>
<path d="M42.7853 41.0897C39.7847 39.5894 36.5342 39.9645 35.2839 40.3396C35.2839 55.3421 43.5354 58.3428 47.6611 58.3427H48.0362C52.1619 58.3428 60.4134 55.3421 60.4134 40.3396C59.1631 39.9645 55.9126 39.5894 52.912 41.0897C52.0369 41.4648 49.8365 42.2149 48.0362 42.2149H47.6611C45.8608 42.2149 43.6604 41.4648 42.7853 41.0897Z" fill="#FF7330"/>
</svg>
