<svg width="144" height="144" viewBox="0 0 144 144" fill="none" xmlns="http://www.w3.org/2000/svg">
<g filter="url(#filter0_bd_203_84)">
<rect x="24" y="24" width="96" height="96" rx="16" fill="#FAFBFF" shape-rendering="crispEdges"/>
<path fill-rule="evenodd" clip-rule="evenodd" d="M69.4198 32.7177C68.9013 32.4108 68.1517 32.2274 67.3823 32.1221C66.565 32.0103 65.5652 31.9662 64.4454 32.0282C62.2059 32.1522 59.4221 32.7042 56.5892 34.0536C50.8576 36.7836 45.1011 42.6937 43.1498 54.4042C42.1435 60.4446 42.379 64.9022 43.3895 68.5889C44.3572 72.1196 46.0132 74.8514 47.7778 77.4818C47.8324 83.2134 49.051 91.5982 52.5305 98.6641C56.1091 105.931 62.2039 112 71.9842 112H72.0158C81.7961 112 87.8909 105.931 91.4695 98.6641C94.9489 91.5982 96.1676 83.2134 96.2222 77.4818C97.9868 74.8514 99.6428 72.1196 100.611 68.5889C101.621 64.9022 101.856 60.4446 100.85 54.4042C98.8989 42.6937 93.1424 36.7836 87.4108 34.0536C84.5779 32.7042 81.7941 32.1522 79.5546 32.0282C78.4348 31.9662 77.435 32.0103 76.6177 32.1221C75.8482 32.2274 75.0987 32.4108 74.5802 32.7177C73.4205 33.4041 72.6279 33.4835 72.0158 33.4835H71.9842C71.3721 33.4835 70.5795 33.4041 69.4198 32.7177ZM54.8837 97.5053C58.2011 104.242 63.5547 109.377 71.9842 109.377H72.0158C80.4453 109.377 85.7989 104.242 89.1163 97.5053C92.4447 90.7459 93.5973 82.5725 93.601 77.1056C93.535 75.5355 93.3856 74.113 93.1675 72.8253C91.9732 65.776 88.7271 62.7378 85.5943 61.4837C82.3414 60.1814 78.9455 60.6967 77.4427 61.2368C74.3583 62.3452 72.9035 62.5338 72.0158 62.5338H71.9842C71.0965 62.5338 69.6417 62.3452 66.5573 61.2368C65.0545 60.6967 61.6586 60.1814 58.4056 61.4837C55.2729 62.7378 52.0268 65.776 50.8325 72.8253C50.6144 74.113 50.465 75.5355 50.399 77.1056C50.4027 82.5725 51.5553 90.7459 54.8837 97.5053ZM55.9382 44.08C59.8522 41.8824 65.1 40.6108 71.9948 40.6663H72.0052C78.9 40.6108 84.1478 41.8824 88.0618 44.08C91.9927 46.2871 94.5021 49.3867 95.9671 52.8355C98.8073 59.521 97.6933 67.4168 95.81 72.7308C95.83 72.858 95.8495 72.9861 95.8683 73.1152C96.785 71.5071 97.5503 69.8308 98.0808 67.8955C98.9679 64.6587 99.2227 60.5973 98.2628 54.8354C96.4429 43.9133 91.1901 38.7591 86.2828 36.4218C83.7963 35.2374 81.3532 34.7549 79.4096 34.6473C78.4378 34.5935 77.6068 34.6343 76.9733 34.721C76.6564 34.7644 76.4011 34.8176 76.2095 34.871C76.1143 34.8976 76.0413 34.9224 75.9885 34.9431C75.9375 34.9632 75.916 34.9752 75.916 34.9752C74.2895 35.9379 73.0199 36.1066 72.0158 36.1066H71.9842C70.9801 36.1066 69.7102 35.9378 68.0837 34.975C68.0808 34.9735 68.0589 34.9618 68.0115 34.9431C67.9587 34.9224 67.8857 34.8976 67.7905 34.871C67.5989 34.8176 67.3436 34.7644 67.0267 34.721C66.3931 34.6343 65.5622 34.5935 64.5904 34.6473C62.6468 34.7549 60.2037 35.2374 57.7172 36.4218C52.8099 38.7591 47.5571 43.9133 45.7372 54.8354C44.7773 60.5973 45.0321 64.6587 45.9192 67.8955C46.4497 69.8308 47.215 71.5071 48.1317 73.1152C48.1505 72.9861 48.17 72.858 48.19 72.7308C46.3067 67.4168 45.1927 59.521 48.0329 52.8355C49.4979 49.3867 52.0073 46.2871 55.9382 44.08ZM71.9842 59.9107C71.525 59.9107 70.3939 59.8282 67.4444 58.7682C65.4912 58.0663 61.4151 57.4534 57.4308 59.0485C54.263 60.3166 51.3026 62.9198 49.5079 67.6324C48.8542 64.3392 48.6711 60.6417 49.416 57.1577C49.5752 56.3026 50.3163 54.2738 50.667 53.3663C51.943 50.6183 54.0189 48.1659 57.2225 46.3672C58.1212 45.8626 59.1139 45.4066 60.2088 45.0095L62.8319 44.2241C65.087 43.6778 67.6939 43.3479 70.7012 43.2951L73.3243 43.2956C76.3322 43.35 78.939 43.6819 81.1936 44.2303L83.8167 45.0188C84.9016 45.4137 85.8858 45.8665 86.7775 46.3672C90.0187 48.187 92.1055 50.6759 93.3776 53.4632C93.6817 54.0846 94.3093 56.1885 94.585 57.1627C95.3287 60.6453 95.1455 64.3408 94.4921 67.6324C92.6974 62.9198 89.737 60.3166 86.5692 59.0485C82.5849 57.4534 78.5088 58.0663 76.5556 58.7682C73.6061 59.8282 72.4749 59.9107 72.0158 59.9107H71.9842Z" fill="#009A9D" stroke="#009A9D" stroke-width="1.3"/>
<path d="M66.7853 65.0897C63.7847 63.5894 60.5342 63.9645 59.2839 64.3396C59.2839 79.3421 67.5354 82.3428 71.6611 82.3427H72.0362C76.1619 82.3428 84.4134 79.3421 84.4134 64.3396C83.1631 63.9645 79.9126 63.5894 76.912 65.0897C76.0369 65.4648 73.8365 66.2149 72.0362 66.2149H71.6611C69.8608 66.2149 67.6604 65.4648 66.7853 65.0897Z" fill="#FF7330"/>
</g>
<defs>
<filter id="filter0_bd_203_84" x="0" y="0" width="144" height="144" filterUnits="userSpaceOnUse" color-interpolation-filters="sRGB">
<feFlood flood-opacity="0" result="BackgroundImageFix"/>
<feGaussianBlur in="BackgroundImageFix" stdDeviation="4"/>
<feComposite in2="SourceAlpha" operator="in" result="effect1_backgroundBlur_203_84"/>
<feColorMatrix in="SourceAlpha" type="matrix" values="0 0 0 0 0 0 0 0 0 0 0 0 0 0 0 0 0 0 127 0" result="hardAlpha"/>
<feOffset/>
<feGaussianBlur stdDeviation="12"/>
<feComposite in2="hardAlpha" operator="out"/>
<feColorMatrix type="matrix" values="0 0 0 0 0 0 0 0 0 0.603922 0 0 0 0 0.615686 0 0 0 0.1 0"/>
<feBlend mode="normal" in2="effect1_backgroundBlur_203_84" result="effect2_dropShadow_203_84"/>
<feBlend mode="normal" in="SourceGraphic" in2="effect2_dropShadow_203_84" result="shape"/>
</filter>
</defs>
</svg>
