<svg width="145" height="144" viewBox="0 0 145 144" fill="none" xmlns="http://www.w3.org/2000/svg">
<g filter="url(#filter0_bd_200_5394)">
<rect x="24.8252" y="24" width="96" height="96" rx="16" fill="#FAFBFF" shape-rendering="crispEdges"/>
<path d="M100.468 72.153C96.913 63.5994 97.0469 61.6433 99.3882 51.702C100.427 47.2869 101.605 42.2841 101.605 37.2761C101.605 35.5759 99.0047 35.5733 99.0047 37.2761C99.0047 40.3048 98.551 43.3039 97.9478 46.2516C89.8605 45.9494 79.1927 42.4204 74.3047 42.4204C69.5103 42.4204 58.6579 45.9519 50.6603 46.2516C50.0584 43.3039 49.6047 40.3048 49.6047 37.2761C49.6047 35.5759 47.0047 35.5733 47.0047 37.2761C47.0047 42.2841 48.1825 47.2869 49.2212 51.7007C51.5144 61.4375 51.7471 63.4734 48.1409 72.1518C45.4668 78.5885 41.8047 87.4033 41.8047 106.724C41.8047 108.424 44.4047 108.427 44.4047 106.724C44.4047 101.893 44.6413 97.7497 45.0326 94.1384C49.1198 95.0644 61.9287 97.7214 74.3047 97.7214C86.6807 97.7214 99.4896 95.0644 103.577 94.1384C103.968 97.7497 104.205 101.893 104.205 106.724C104.205 108.424 106.805 108.427 106.805 106.724C106.805 87.4033 103.143 78.5885 100.468 72.153ZM74.3047 95.1493C61.891 95.1493 48.9976 92.4086 45.3498 91.5714C46.5809 82.6911 48.7844 77.3732 50.5459 73.1305C54.4537 63.7254 54.1118 61.1353 51.7536 51.1181C51.5729 50.3529 51.3935 49.5812 51.218 48.8083C59.3079 48.3955 70.0108 44.9925 74.3047 44.9925C78.6831 44.9925 89.1585 48.3878 97.3914 48.8083C97.2146 49.5825 97.0352 50.3529 96.8558 51.1181C94.4807 61.2099 94.1908 63.8077 98.0635 73.1305C99.8263 77.3732 102.03 82.6911 103.26 91.5714C99.6144 92.4086 86.7275 95.1493 74.3047 95.1493Z" fill="#009A9D" stroke="#009A9D" stroke-width="1.3"/>
<path d="M55.0448 82.1617C55.9458 81.7904 56.366 80.7591 55.9853 79.8607L49.8612 65.4718C49.5849 64.8259 48.9532 64.4004 48.2481 64.3858C47.5449 64.3721 46.9022 64.7743 46.6124 65.4092L43.9001 71.3514L39.3576 60.6775C38.9744 59.7799 37.9345 59.3536 37.0328 59.7265C36.1318 60.0978 35.7116 61.1291 36.0923 62.0275L42.2165 76.4164C42.4909 77.0614 43.1244 77.4878 43.8277 77.5015C44.5327 77.5161 45.1754 77.1139 45.4652 76.479L48.1775 70.5368L52.72 81.2107C53.1014 82.1075 54.1431 82.5346 55.0448 82.1617Z" fill="#FF7330"/>
</g>
<defs>
<filter id="filter0_bd_200_5394" x="0.825195" y="0" width="144" height="144" filterUnits="userSpaceOnUse" color-interpolation-filters="sRGB">
<feFlood flood-opacity="0" result="BackgroundImageFix"/>
<feGaussianBlur in="BackgroundImageFix" stdDeviation="4"/>
<feComposite in2="SourceAlpha" operator="in" result="effect1_backgroundBlur_200_5394"/>
<feColorMatrix in="SourceAlpha" type="matrix" values="0 0 0 0 0 0 0 0 0 0 0 0 0 0 0 0 0 0 127 0" result="hardAlpha"/>
<feOffset/>
<feGaussianBlur stdDeviation="12"/>
<feComposite in2="hardAlpha" operator="out"/>
<feColorMatrix type="matrix" values="0 0 0 0 0 0 0 0 0 0.603922 0 0 0 0 0.615686 0 0 0 0.1 0"/>
<feBlend mode="normal" in2="effect1_backgroundBlur_200_5394" result="effect2_dropShadow_200_5394"/>
<feBlend mode="normal" in="SourceGraphic" in2="effect2_dropShadow_200_5394" result="shape"/>
</filter>
</defs>
</svg>
