<svg width="145" height="144" viewBox="0 0 145 144" fill="none" xmlns="http://www.w3.org/2000/svg">
<g filter="url(#filter0_bd_200_5463)">
<rect x="24.8252" y="24" width="96" height="96" rx="16" fill="#FAFBFF" shape-rendering="crispEdges"/>
<g clip-path="url(#clip0_200_5463)">
<path fill-rule="evenodd" clip-rule="evenodd" d="M72.825 38.2857C54.3883 38.2857 39.3734 53.381 39.3734 72C39.3734 90.619 54.3883 105.714 72.825 105.714C91.2617 105.714 106.277 90.619 106.277 72C106.277 53.381 91.2617 38.2857 72.825 38.2857ZM37.1055 72C37.1055 91.8831 53.1375 108 72.825 108C92.5126 108 108.545 91.8831 108.545 72C108.545 52.1169 92.5126 36 72.825 36C53.1375 36 37.1055 52.1169 37.1055 72ZM48.4273 66.2388C47.8335 66.4394 47.1908 66.1169 46.9917 65.5184C46.7926 64.92 47.1126 64.2722 47.7064 64.0716L64.9664 58.2401C65.5602 58.0395 66.2029 58.362 66.402 58.9605C66.601 59.5589 66.281 60.2067 65.6873 60.4073L65.4332 60.4931C65.5994 63.1229 64.8478 66.7097 61.0334 68.0448C57.3521 69.3333 54.5405 66.9864 52.9503 64.7106L48.4273 66.2388ZM59.7119 81.1539C59.4662 80.5733 59.6493 79.8732 60.1907 79.5559C60.7321 79.2387 61.428 79.4234 61.6854 79.9988C62.3757 81.5424 63.0315 83.7865 63.169 86.404C65.2939 85.1066 68.6532 83.7593 72.825 83.7593C76.9968 83.7593 80.3561 85.1066 82.481 86.404C82.6186 83.7865 83.2744 81.5424 83.9647 79.9988C84.222 79.4234 84.9179 79.2387 85.4593 79.5559C86.0008 79.8732 86.1838 80.5733 85.9381 81.1539C85.229 82.8296 84.5421 85.5104 84.7656 88.597C84.8825 90.2121 85.2482 91.9342 85.9877 93.6826C86.2333 94.2632 86.0168 94.9505 85.4594 95.2381C84.9018 95.5256 84.215 95.3045 83.9645 94.7261C83.1499 92.8458 82.7152 90.9868 82.5434 89.2309C81.1571 88.0734 77.6336 86.045 72.825 86.045C68.0164 86.045 64.4929 88.0734 63.1066 89.2309C62.9349 90.9868 62.5001 92.8458 61.6856 94.7261C61.435 95.3045 60.7482 95.5256 60.1907 95.2381C59.6332 94.9505 59.4167 94.2632 59.6623 93.6826C60.4018 91.9342 60.7676 90.2121 60.8845 88.597C61.1079 85.5104 60.421 82.8296 59.7119 81.1539ZM97.2228 66.2388C97.8166 66.4394 98.4593 66.1169 98.6583 65.5184C98.8574 64.92 98.5374 64.2722 97.9436 64.0716L80.6836 58.2401C80.0898 58.0395 79.4471 58.362 79.2481 58.9605C79.049 59.5589 79.369 60.2067 79.9628 60.4073L80.217 60.4932C80.0508 63.123 80.8025 66.7097 84.6169 68.0448C88.2981 69.3333 91.1097 66.9865 92.6999 64.7107L97.2228 66.2388Z" fill="#009A9D" stroke="#009A9D" stroke-width="1.3"/>
<ellipse cx="99.1424" cy="48.1558" rx="5.24397" ry="5.28514" fill="#FF7330"/>
<ellipse cx="100.716" cy="37.5855" rx="1.57319" ry="1.58554" fill="#FF7330"/>
<ellipse cx="110.942" cy="44.192" rx="2.88418" ry="2.90683" fill="#FF7330"/>
<ellipse cx="5.24397" cy="5.28514" rx="5.24397" ry="5.28514" transform="matrix(-1 0 0 1 51.752 42.8707)" fill="#FF7330"/>
<ellipse cx="1.57319" cy="1.58554" rx="1.57319" ry="1.58554" transform="matrix(-1 0 0 1 46.5078 36)" fill="#FF7330"/>
<ellipse cx="2.88418" cy="2.90683" rx="2.88418" ry="2.90683" transform="matrix(-1 0 0 1 37.5928 41.2852)" fill="#FF7330"/>
</g>
</g>
<defs>
<filter id="filter0_bd_200_5463" x="0.825195" y="0" width="144" height="144" filterUnits="userSpaceOnUse" color-interpolation-filters="sRGB">
<feFlood flood-opacity="0" result="BackgroundImageFix"/>
<feGaussianBlur in="BackgroundImageFix" stdDeviation="4"/>
<feComposite in2="SourceAlpha" operator="in" result="effect1_backgroundBlur_200_5463"/>
<feColorMatrix in="SourceAlpha" type="matrix" values="0 0 0 0 0 0 0 0 0 0 0 0 0 0 0 0 0 0 127 0" result="hardAlpha"/>
<feOffset/>
<feGaussianBlur stdDeviation="12"/>
<feComposite in2="hardAlpha" operator="out"/>
<feColorMatrix type="matrix" values="0 0 0 0 0 0 0 0 0 0.603922 0 0 0 0 0.615686 0 0 0 0.1 0"/>
<feBlend mode="normal" in2="effect1_backgroundBlur_200_5463" result="effect2_dropShadow_200_5463"/>
<feBlend mode="normal" in="SourceGraphic" in2="effect2_dropShadow_200_5463" result="shape"/>
</filter>
<clipPath id="clip0_200_5463">
<rect width="82" height="72" fill="white" transform="translate(31.8252 36)"/>
</clipPath>
</defs>
</svg>
