<svg width="145" height="144" viewBox="0 0 145 144" fill="none" xmlns="http://www.w3.org/2000/svg">
<g filter="url(#filter0_bd_200_5434)">
<rect x="24.8252" y="24" width="96" height="96" rx="16" fill="#FAFBFF" shape-rendering="crispEdges"/>
<g clip-path="url(#clip0_200_5434)">
<path fill-rule="evenodd" clip-rule="evenodd" d="M93.1229 85.9771L93.4823 85.6176C95.941 83.1589 97.295 79.8899 97.295 76.413C97.295 73.285 96.1677 70.2596 94.1206 67.8943L93.642 67.3414L94.3334 66.5425C96.2433 64.3357 97.295 61.5129 97.295 58.5944V58.2084C97.295 52.4084 92.5765 47.6631 86.7768 47.6304L64.3033 47.5028C63.6559 47.5022 63.1292 46.975 63.1292 46.3275V34C63.1292 32.8954 62.2338 32 61.1292 32H50.3546C49.2501 32 48.3546 32.8954 48.3546 34V49.8604C48.3546 52.4025 49.2708 54.8609 50.9342 56.783L52.0077 58.0232L51.5289 58.5762C49.4819 60.9417 48.3546 63.9669 48.3546 67.0949C48.3546 70.5719 49.7087 73.8408 52.1674 76.2995L52.5267 76.6589L51.4529 77.7328C49.4549 79.7308 48.3545 82.3871 48.3545 85.2127V86.0519C48.3545 88.8901 49.4632 91.555 51.4766 93.5557C53.4736 95.54 56.1183 96.6302 58.9305 96.6301C58.9536 96.6301 58.9767 96.6301 58.9998 96.6299L81.3454 96.4879C81.9931 96.4884 82.5201 97.0156 82.5201 97.6633V110C82.5201 111.105 83.4155 112 84.5201 112H95.2947C96.3992 112 97.2947 111.105 97.2947 110V95.1799C97.2947 91.9357 96.0312 88.8857 93.7374 86.5917L93.1229 85.9771ZM94.9443 58.2084C94.9443 53.6974 91.2743 50.0065 86.7635 49.9811L64.2958 49.8535C62.3588 49.8516 60.7786 48.2699 60.7786 46.3275V34.3507H50.7055V49.8604C50.7055 51.8375 51.4181 53.7496 52.7118 55.2445L54.0993 56.8477H75.097C75.7461 56.8477 76.2724 57.3739 76.2724 58.023C76.2724 58.6722 75.7461 59.1984 75.097 59.1984H54.0992L53.3064 60.1145C51.629 62.0526 50.7052 64.5319 50.7052 67.0949C50.7052 69.9441 51.8149 72.6227 53.8295 74.6373L54.6781 75.4859H70.2385C70.8864 75.4859 71.4116 76.0111 71.4116 76.659C71.4116 77.3068 70.8864 77.832 70.2385 77.832H54.6779L53.115 79.3951C51.561 80.9491 50.7052 83.0152 50.7052 85.2128V86.052C50.7052 88.2597 51.5676 90.3322 53.1337 91.8882C54.6867 93.4315 56.7439 94.2795 58.9311 94.2795C58.9492 94.2795 58.967 94.2795 58.9851 94.2794L81.3391 94.1374C83.2905 94.1388 84.8711 95.7207 84.8711 97.6635V109.649H94.9443V95.1799C94.9443 92.5637 93.9254 90.104 92.0754 88.2542L90.9808 87.1595H69.9195C69.2665 87.1595 68.7371 86.6301 68.7371 85.9771C68.7371 85.3241 69.2665 84.7947 69.9195 84.7947H90.9808L91.82 83.9555C93.8347 81.9406 94.9443 79.2622 94.9443 76.413C94.9443 73.8499 94.0206 71.3707 92.3431 69.4326L91.5323 68.4958H70.5184C69.8808 68.4958 69.3639 67.9789 69.3639 67.3413C69.3639 66.7037 69.8808 66.1868 70.5184 66.1868H91.5323L92.5558 65.004C94.096 63.2244 94.9443 60.9481 94.9443 58.5944V58.2084Z" fill="#009A9D" stroke="#009A9D" stroke-width="1.3"/>
<path fill-rule="evenodd" clip-rule="evenodd" d="M43.6533 44.6013C43.6533 43.9521 44.1795 43.4259 44.8287 43.4259C45.4778 43.4259 46.004 43.9521 46.004 44.6013C46.004 45.2504 45.4778 45.7766 44.8287 45.7766C44.1795 45.7766 43.6533 45.2504 43.6533 44.6013ZM48.6667 58.4426C48.8133 58.2159 48.806 57.9224 48.6482 57.7033L48.4409 57.4155C46.8467 55.2011 46.004 52.5885 46.004 49.8605V49.1982C46.004 48.5491 45.4778 48.0228 44.8287 48.0228C44.1795 48.0228 43.6533 48.5491 43.6533 49.1982V49.8605C43.6533 52.8127 44.4884 55.6503 46.0756 58.1171C46.0825 58.1279 46.0828 58.1417 46.0764 58.1527C44.6867 60.5299 43.8733 63.1823 43.6921 65.9206C43.6492 66.5683 44.1795 67.0951 44.8287 67.0951C45.4778 67.0951 45.9993 66.5681 46.0488 65.9209C46.2436 63.3692 47.0721 60.9078 48.474 58.7405L48.6667 58.4426ZM100.821 76.4129C101.47 76.4129 102.001 76.9397 101.958 77.5875C101.765 80.5551 100.84 83.3943 99.2474 85.8992C99.2376 85.9146 99.2378 85.9343 99.2478 85.9495C100.835 88.3634 101.76 91.1147 101.957 94.0053C102.001 94.653 101.47 95.1799 100.821 95.1799C100.172 95.1799 99.6508 94.6528 99.5995 94.0057C99.3875 91.332 98.4512 88.803 96.86 86.6311L96.6392 86.3297C96.4727 86.1025 96.47 85.7943 96.6323 85.5642L96.8477 85.2589C98.4525 82.9839 99.394 80.3523 99.6018 77.5872C99.6505 76.9398 100.172 76.4129 100.821 76.4129Z" fill="#FF7330"/>
</g>
</g>
<defs>
<filter id="filter0_bd_200_5434" x="0.825195" y="0" width="144" height="144" filterUnits="userSpaceOnUse" color-interpolation-filters="sRGB">
<feFlood flood-opacity="0" result="BackgroundImageFix"/>
<feGaussianBlur in="BackgroundImageFix" stdDeviation="4"/>
<feComposite in2="SourceAlpha" operator="in" result="effect1_backgroundBlur_200_5434"/>
<feColorMatrix in="SourceAlpha" type="matrix" values="0 0 0 0 0 0 0 0 0 0 0 0 0 0 0 0 0 0 127 0" result="hardAlpha"/>
<feOffset/>
<feGaussianBlur stdDeviation="12"/>
<feComposite in2="hardAlpha" operator="out"/>
<feColorMatrix type="matrix" values="0 0 0 0 0 0 0 0 0 0.603922 0 0 0 0 0.615686 0 0 0 0.1 0"/>
<feBlend mode="normal" in2="effect1_backgroundBlur_200_5434" result="effect2_dropShadow_200_5434"/>
<feBlend mode="normal" in="SourceGraphic" in2="effect2_dropShadow_200_5434" result="shape"/>
</filter>
<clipPath id="clip0_200_5434">
<rect width="58.3432" height="80" fill="white" transform="translate(43.6533 32)"/>
</clipPath>
</defs>
</svg>
