<svg width="145" height="144" viewBox="0 0 145 144" fill="none" xmlns="http://www.w3.org/2000/svg">
<g filter="url(#filter0_bd_199_4961)">
<rect x="24.8252" y="24" width="96" height="96" rx="16" fill="#FAFBFF" shape-rendering="crispEdges"/>
<path fill-rule="evenodd" clip-rule="evenodd" d="M70.2449 32.7177C69.7265 32.4108 68.9769 32.2274 68.2075 32.1221C67.3902 32.0103 66.3904 31.9662 65.2706 32.0282C63.0311 32.1522 60.2473 32.7042 57.4144 34.0536C51.6828 36.7836 45.9263 42.6937 43.975 54.4042C42.9687 60.4446 43.2042 64.9022 44.2146 68.5889C45.1824 72.1196 46.8384 74.8514 48.603 77.4818C48.6576 83.2134 49.8762 91.5982 53.3557 98.6641C56.9343 105.931 63.0291 112 72.8094 112H72.841C82.6213 112 88.7161 105.931 92.2947 98.6641C95.7741 91.5982 96.9928 83.2134 97.0474 77.4818C98.812 74.8514 100.468 72.1196 101.436 68.5889C102.446 64.9022 102.682 60.4446 101.675 54.4042C99.7241 42.6937 93.9676 36.7836 88.236 34.0536C85.4031 32.7042 82.6193 32.1522 80.3798 32.0282C79.26 31.9662 78.2602 32.0103 77.4429 32.1221C76.6734 32.2274 75.9239 32.4108 75.4054 32.7177C74.2457 33.4041 73.4531 33.4835 72.841 33.4835H72.8094C72.1973 33.4835 71.4047 33.4041 70.2449 32.7177ZM55.7089 97.5053C59.0263 104.242 64.3799 109.377 72.8094 109.377H72.841C81.2705 109.377 86.6241 104.242 89.9414 97.5053C93.2699 90.7459 94.4224 82.5725 94.4262 77.1056C94.3602 75.5355 94.2108 74.113 93.9926 72.8253C92.7984 65.776 89.5523 62.7378 86.4195 61.4837C83.1666 60.1814 79.7707 60.6967 78.2679 61.2368C75.1835 62.3452 73.7287 62.5338 72.841 62.5338H72.8094C71.9217 62.5338 70.4669 62.3452 67.3825 61.2368C65.8797 60.6967 62.4838 60.1814 59.2308 61.4837C56.0981 62.7378 52.852 65.776 51.6577 72.8253C51.4396 74.113 51.2902 75.5355 51.2242 77.1056C51.2279 82.5725 52.3805 90.7459 55.7089 97.5053ZM56.7634 44.08C60.6774 41.8824 65.9252 40.6108 72.82 40.6663H72.8304C79.7252 40.6108 84.973 41.8824 88.887 44.08C92.8179 46.2871 95.3273 49.3867 96.7923 52.8355C99.6324 59.521 98.5185 67.4168 96.6351 72.7308C96.6552 72.858 96.6747 72.9861 96.6935 73.1152C97.6102 71.5071 98.3755 69.8308 98.9059 67.8955C99.7931 64.6587 100.048 60.5973 99.088 54.8354C97.2681 43.9133 92.0153 38.7591 87.108 36.4218C84.6215 35.2374 82.1784 34.7549 80.2348 34.6473C79.263 34.5935 78.432 34.6343 77.7985 34.721C77.4815 34.7644 77.2263 34.8176 77.0347 34.871C76.9395 34.8976 76.8665 34.9224 76.8137 34.9431C76.7627 34.9632 76.7412 34.9752 76.7412 34.9752C75.1147 35.9379 73.8451 36.1066 72.841 36.1066H72.8094C71.8053 36.1066 70.5354 35.9378 68.9089 34.975C68.906 34.9735 68.8841 34.9618 68.8367 34.9431C68.7839 34.9224 68.7109 34.8976 68.6157 34.871C68.4241 34.8176 68.1688 34.7644 67.8519 34.721C67.2183 34.6343 66.3874 34.5935 65.4156 34.6473C63.472 34.7549 61.0289 35.2374 58.5424 36.4218C53.6351 38.7591 48.3823 43.9133 46.5624 54.8354C45.6025 60.5973 45.8573 64.6587 46.7444 67.8955C47.2749 69.8308 48.0402 71.5071 48.9569 73.1152C48.9757 72.9861 48.9951 72.858 49.0152 72.7308C47.1319 67.4168 46.0179 59.521 48.8581 52.8355C50.3231 49.3867 52.8325 46.2871 56.7634 44.08ZM72.8094 59.9107C72.3502 59.9107 71.2191 59.8282 68.2696 58.7682C66.3164 58.0663 62.2403 57.4534 58.2559 59.0485C55.0882 60.3166 52.1278 62.9198 50.3331 67.6324C49.6794 64.3392 49.4963 60.6417 50.2412 57.1577C50.4004 56.3026 51.1415 54.2738 51.4922 53.3663C52.7682 50.6183 54.8441 48.1659 58.0477 46.3672C58.9464 45.8626 59.9391 45.4066 61.034 45.0095L63.6571 44.2241C65.9122 43.6778 68.5191 43.3479 71.5264 43.2951L74.1495 43.2956C77.1574 43.35 79.7642 43.6819 82.0188 44.2303L84.6419 45.0188C85.7268 45.4137 86.711 45.8665 87.6027 46.3672C90.8439 48.187 92.9307 50.6759 94.2028 53.4632C94.5069 54.0846 95.1345 56.1885 95.4102 57.1627C96.1539 60.6453 95.9707 64.3408 95.3173 67.6324C93.5226 62.9198 90.5622 60.3166 87.3944 59.0485C83.4101 57.4534 79.334 58.0663 77.3808 58.7682C74.4313 59.8282 73.3001 59.9107 72.841 59.9107H72.8094Z" fill="#009A9D" stroke="#009A9D" stroke-width="1.3"/>
<path d="M67.6107 65.0897C64.6102 63.5894 61.3596 63.9645 60.1094 64.3396C60.1094 79.3421 68.3608 82.3428 72.4866 82.3427H72.8616C76.9874 82.3428 85.2388 79.3421 85.2388 64.3396C83.9886 63.9645 80.738 63.5894 77.7375 65.0897C76.8623 65.4648 74.6619 66.2149 72.8616 66.2149H72.4866C70.6862 66.2149 68.4859 65.4648 67.6107 65.0897Z" fill="#FF7330"/>
</g>
<defs>
<filter id="filter0_bd_199_4961" x="0.825195" y="0" width="144" height="144" filterUnits="userSpaceOnUse" color-interpolation-filters="sRGB">
<feFlood flood-opacity="0" result="BackgroundImageFix"/>
<feGaussianBlur in="BackgroundImageFix" stdDeviation="4"/>
<feComposite in2="SourceAlpha" operator="in" result="effect1_backgroundBlur_199_4961"/>
<feColorMatrix in="SourceAlpha" type="matrix" values="0 0 0 0 0 0 0 0 0 0 0 0 0 0 0 0 0 0 127 0" result="hardAlpha"/>
<feOffset/>
<feGaussianBlur stdDeviation="12"/>
<feComposite in2="hardAlpha" operator="out"/>
<feColorMatrix type="matrix" values="0 0 0 0 0 0 0 0 0 0.603922 0 0 0 0 0.615686 0 0 0 0.1 0"/>
<feBlend mode="normal" in2="effect1_backgroundBlur_199_4961" result="effect2_dropShadow_199_4961"/>
<feBlend mode="normal" in="SourceGraphic" in2="effect2_dropShadow_199_4961" result="shape"/>
</filter>
</defs>
</svg>
